<?xml version="1.0" encoding="utf-8"?>
<!-- Generator: Adobe Illustrator 25.4.0, SVG Export Plug-In . SVG Version: 6.00 Build 0)  -->
<svg version="1.1" id="Layer_1" xmlns="http://www.w3.org/2000/svg" xmlns:xlink="http://www.w3.org/1999/xlink" x="0px" y="0px"
	 viewBox="0 0 24 24" style="enable-background:new 0 0 24 24;" xml:space="preserve">
<style type="text/css">
	.st0{fill:none;stroke:#8E8DBE;stroke-width:1.5;stroke-linecap:round;stroke-linejoin:round;}
</style>
<g id="Iconly_x2F_Curved_x2F_3-User">
	<g id="_x33_-User" transform="translate(1.000000, 3.000000)">
		<path id="Stroke-1" class="st0" d="M11,17.4c-3.2,0-6-0.5-6-2.5s2.7-3.7,6-3.7c3.2,0,6,1.7,6,3.7S14.2,17.4,11,17.4z"/>
		<path id="Stroke-3" class="st0" d="M11,8.4c2.1,0,3.9-1.7,3.9-3.8S13.1,0.7,11,0.7S7.1,2.5,7.1,4.6C7.1,6.7,8.8,8.4,11,8.4L11,8.4
			z"/>
		<path id="Stroke-5" class="st0" d="M17.4,7.4c1.2-0.3,2.1-1.5,2.1-2.8c0-1.4-1-2.6-2.3-2.8"/>
		<path id="Stroke-7" class="st0" d="M17.9,10.5c1.8,0,3.3,1.2,3.3,2.3c0,0.6-0.5,1.3-1.3,1.5"/>
		<path id="Stroke-9" class="st0" d="M4.6,7.4C3.3,7.1,2.4,5.9,2.4,4.6c0-1.4,1-2.6,2.3-2.8"/>
		<path id="Stroke-11" class="st0" d="M4,10.5c-1.8,0-3.3,1.2-3.3,2.3c0,0.6,0.5,1.3,1.3,1.5"/>
	</g>
</g>
</svg>
