<svg xmlns="http://www.w3.org/2000/svg" viewBox="0 0 513.48 528.71"><defs><style>.cls-1{fill:#b1e1b2;}.cls-2{fill:#96cc96;}.cls-3{fill:#7fb57f;}.cls-4{fill:#599956;}.cls-5{fill:#5cb65e;}.cls-6{fill:#4d894a;}.cls-7{fill:#74cc79;}.cls-8{fill:#183845;}.cls-9{fill:#87d3e4;}.cls-10{fill:#1a87b2;}.cls-11{fill:#1c88ae;}.cls-12{fill:#1b89b1;}.cls-13{fill:#258aab;}.cls-14{fill:#51bab8;}.cls-15{fill:#75d0de;}.cls-16{fill:#79cee2;}.cls-17{fill:#53b4da;}.cls-18{fill:#c3e4ed;}.cls-19{fill:#c7e1ed;}.cls-20{fill:#34a3cd;}.cls-21{fill:#112633;}.cls-22{fill:#c0e1f0;}.cls-23{fill:#94dff4;}.cls-24{fill:#8adef2;}.cls-25{fill:#bce1f1;}.cls-26{fill:#89d1e9;}.cls-27{fill:#c1e1f4;}.cls-28{fill:#64b2cf;}.cls-29{fill:#c1e2f5;}.cls-30{fill:#d2d4d4;}.cls-31{fill:#d8d5d7;}.cls-32{fill:#e0bab1;}.cls-33{fill:#f1f8f9;}.cls-34{fill:#8f665f;}.cls-35{fill:#d4253d;}.cls-36{fill:#f3fafa;}.cls-37{fill:#cfe9f3;}.cls-38{fill:#337233;}.cls-39{fill:#a5cad6;}.cls-40{fill:#5085ab;}.cls-41{fill:#4696ba;}.cls-42{fill:#4f3522;}.cls-43{fill:#eec282;}.cls-44{fill:#eec37b;}.cls-45{fill:#efc783;}.cls-46{fill:#b68e55;}.cls-47{fill:#f6d8a5;}.cls-48{fill:#d38067;}.cls-49{fill:#de906c;}.cls-50{fill:#dd8566;}.cls-51{fill:#ea9c87;}.cls-52{fill:#b37f46;}.cls-53{fill:#5f3a1f;}.cls-54{fill:#231f20;}.cls-55{fill:#fefefe;}.cls-56{fill:#7caab5;}.cls-57{fill:none;}</style></defs><g id="Layer_2" data-name="Layer 2"><g id="Layer_1-2" data-name="Layer 1"><path class="cls-1" d="M262.76,460.66c61.62-8.65,114.58-41.94,139.93-100.13,21.18-48.61,18-110.38-2.55-158.77-15.55-36.51-45.32-67.61-81-84.95-42.72-20.77-96.54-16.13-140.6-1.56-34.31,11.34-66,31.48-89.12,59.23-64.17,77-39.11,208,43.6,261.78C168.76,459.49,216.85,467.11,262.76,460.66Z"/><path class="cls-2" d="M365.12,343.24c-32.3,20.06-67.74,34.51-103.57,47.23q-7.51,2.67-15.1,5.22c-1.66.86-3.33,1.72-5,2.58-12.47,6.3-25.67,9.67-38,15.89-11.45,5.76-22.92,12.16-31.65,21.73a120.56,120.56,0,0,1-14.12,13.18A176.27,176.27,0,0,0,186,458c21-4.39,41.63-11.6,61.94-18.78,31.31-11.06,62.63-22.13,93.3-34.86,14.84-6.16,29.6-12.76,43-21.61,4-2.66,7.92-5.51,11.68-8.5,2.42-4.4,4.68-8.95,6.74-13.68,7.81-17.92,12.3-37.64,13.84-57.81A280.31,280.31,0,0,1,365.12,343.24Z"/><path class="cls-3" d="M341.26,404.32c-30.67,12.73-62,23.8-93.3,34.86C227.65,446.36,207.05,453.57,186,458a216.59,216.59,0,0,0,76.74,2.7c56.62-8,105.9-36.71,133.19-86.45-3.76,3-7.64,5.84-11.68,8.5C370.86,391.56,356.1,398.16,341.26,404.32Z"/><path class="cls-4" d="M219.17,289.52a3.42,3.42,0,0,1,0,4.18,7.32,7.32,0,0,1-3.73,2.41,18.45,18.45,0,0,1-11.29.15,8,8,0,0,1-3.78-2.17c-2.17-2.44-1.06-5,2.28-4.76,3.62.29,5.33,2,8.85,1.3C213.81,290.15,216.68,286.79,219.17,289.52Z"/><path class="cls-5" d="M219.42,117.94c2.65-.67,6.18-1.56,7.57.81.95,1.64,0,3.68-.14,5.58-.44,4.85,4.24,8.67,8.84,10.27s9.73,2.07,13.7,4.9c2.89,2.06,4.93,5.24,8.06,6.91s8.18.64,8.51-2.9c.16-1.67-.81-3.21-1.74-4.61-2.32-3.53-4.66-7.41-4.49-11.63s4.12-8.52,8.2-7.4c2.63.73,4.51,3.39,7.23,3.71,2.31.26,4.45-1.3,5.95-3.08,3.47-4.1,4.74-9.21,4.9-14.61-28.74-5.66-59.72-3.2-88.17,3.81a19.4,19.4,0,0,0,3.22,3.72A20.48,20.48,0,0,0,219.42,117.94Z"/><path class="cls-4" d="M259.73,127.27c-.17,4.22,2.17,8.1,4.49,11.63.93,1.4,1.9,2.94,1.74,4.61a3.8,3.8,0,0,1-2.44,3.12c3.14,1.35,7.73.25,8-3.12.16-1.67-.81-3.21-1.73-4.61-2.33-3.53-4.67-7.41-4.49-11.63a8.56,8.56,0,0,1,4.05-6.77,6.71,6.71,0,0,0-1.46-.63C263.85,118.75,259.91,123,259.73,127.27Z"/><path class="cls-4" d="M286,105.89c-.16,5.4-1.43,10.51-4.9,14.61a10.08,10.08,0,0,1-2.61,2.26,6,6,0,0,0,2.26.82c2.31.26,4.45-1.3,5.95-3.08,3.21-3.79,4.53-8.45,4.84-13.4C289.71,106.66,287.87,106.26,286,105.89Z"/><path class="cls-5" d="M354.58,150.44c2.53,3.67,3.07,9.48-.61,12-2.76,1.88-7.79,2.47-7.27,5.77.45,2.86,5.21,3.37,5.62,6.23s-3.4,3.91-6.17,3.79-6.49.27-6.9,3c-.58,3.88,6.4,4.68,7.3,8.5.35,1.51-.33,3.33.67,4.52.8,1,2.24.95,3.49.83,5.86-.56,12.82-2.87,14-8.64.38-1.89.05-3.89.58-5.74a6.33,6.33,0,0,1,12.1-.27c.54,1.59.42,3.34.93,4.95,1.59,5,8.05,6.27,13.33,6.56,1.3.08,2.62.14,3.94.18a171.33,171.33,0,0,0-53.31-61.53,17.23,17.23,0,0,0,3.23,10.07C348.16,144.23,352.06,146.76,354.58,150.44Z"/><path class="cls-4" d="M395.48,192.12c-1.28-.05-2.57-.1-3.83-.18-4.15-.23-9-1.05-11.7-3.84a7.06,7.06,0,0,0,.24,1c1.59,5,8.05,6.27,13.33,6.57,1.3.07,2.61.13,3.94.18C396.82,194.6,396.16,193.36,395.48,192.12Z"/><path class="cls-4" d="M371.24,176.1a6.53,6.53,0,0,0-5.95,4.6c-.53,1.85-.2,3.85-.58,5.74-1.18,5.77-8.14,8.08-14,8.64a6.69,6.69,0,0,1-2.19-.09,4.39,4.39,0,0,0,.56,3c.8,1,2.25.95,3.49.83,5.87-.56,12.83-2.87,14-8.64.38-1.89.05-3.89.57-5.74a6.53,6.53,0,0,1,6-4.6,6.46,6.46,0,0,1,4.59,1.88,8.08,8.08,0,0,0-.31-1.29A6.51,6.51,0,0,0,371.24,176.1Z"/><path class="cls-5" d="M401.59,205.3a10.61,10.61,0,0,0-2.13,4.86,8.65,8.65,0,0,1-.87,3.51c-1.83,2.82-6.44,1-8.27-1.77s-2.62-6.46-5.35-8.41c-3.65-2.6-8.75-.83-12.58,1.49s-7.85,5.23-12.3,4.7c-3.21-.39-5.9-2.54-8.93-3.68s-7.25-.75-8.43,2.26c-1.79,4.54,5,7.94,6,12.72,1.58,7.63-11.89,13.94-7.83,20.59,1.09,1.78,3.2,2.72,4.35,4.46,2,3.07.34,7.22-1.82,10.21s-4.91,6-5,9.65c-.1,4.11,3.26,7.57,7,9.36s7.85,2.43,11.66,4c7.82,3.18,16.2,10.24,23.49,6,2.67-1.56,4.34-4.36,6.51-6.58s5.54-3.92,8.31-2.51a6.22,6.22,0,0,0,9.87,7.36c3.24,4.83-3.85,10.56-3.31,15.68.67,6.49,7,8.58,5.31,16.4-1,4.7-3.43,9.2-3.14,14,.25,4.29,2.64,8,5.73,11.12C422.37,297.1,418.26,246.66,401.59,205.3Z"/><path class="cls-4" d="M357,279.24c-3.81-1.56-8-2.2-11.66-4s-7.06-5.25-7-9.36c.09-3.69,2.84-6.67,5-9.65s3.85-7.14,1.82-10.21c-1.15-1.74-3.26-2.68-4.35-4.46-4.06-6.65,9.41-13,7.83-20.59-1-4.78-7.77-8.18-6-12.72a2.2,2.2,0,0,1,.15-.26,4,4,0,0,0-2,2.13c-1.79,4.54,5,7.94,6,12.72,1.58,7.63-11.9,13.94-7.84,20.59,1.09,1.78,3.2,2.72,4.35,4.46,2,3.07.34,7.22-1.82,10.21s-4.91,6-5,9.65c-.1,4.11,3.26,7.56,7,9.36s7.85,2.43,11.66,4c7.83,3.19,16.2,10.24,23.49,6a13.92,13.92,0,0,0,3.36-3,10.53,10.53,0,0,1-1.49,1.09C373.23,289.48,364.85,282.42,357,279.24Z"/><path class="cls-4" d="M407.21,315.55c1.73-7.82-4.64-9.91-5.31-16.4-.54-5.12,6.55-10.85,3.31-15.68a6.22,6.22,0,0,1-9.87-7.36c-2.77-1.41-6.14.3-8.31,2.51-.32.33-.63.67-.93,1,2.13-1.76,5-2.87,7.37-1.65a6.22,6.22,0,0,0,9.88,7.36c3.23,4.83-3.85,10.56-3.32,15.68.68,6.49,7,8.58,5.31,16.4-1,4.69-3.43,9.2-3.14,14,.26,4.29,2.64,8,5.74,11.12.28-1,.52-2,.78-3-2.55-2.86-4.43-6.2-4.65-10C403.78,324.75,406.17,320.25,407.21,315.55Z"/><path class="cls-6" d="M413.34,316.7q.81-6,1.28-12.06-4.44,4.49-9.11,8.72a10.75,10.75,0,0,1-.17,4.06c-1,4.69-3.43,9.2-3.14,14,.23,3.92,2.26,7.52,4.68,10.51a14.42,14.42,0,0,0,1.92,2,178,178,0,0,0,4.67-18.46C412.47,322.5,412.91,319.83,413.34,316.7Z"/><path class="cls-7" d="M275.39,438.9c5.64-4,13.58-5.71,16.41-12,1.81-4,.92-9,3.22-12.81,4.53-7.47,18.9-6.66,20-15.34.73-6.08-6.66-10.9-6-17,.81-6.93,11.7-11.24,9.23-17.77-1-2.59-3.84-4-6.56-4.48-6-1.14-12.05.59-18.09,1.26-20,2.21-11.86-20.38-29.75-21.1-5.28-.21-7,3.23-10.86,4.22-10.26,2.63-9.91-6.16-16.47-11.87-7.7-6.69-20.26.73-29.7-3.13-6.1-2.49-9.51-9.14-15.25-12.37-4.08-2.3-8.94-2.64-13.44-3.95s-9.16-4.23-10-8.84c-.67-3.84.74-9.27-2.93-10.56-2.24-.79-4.59,1.05-5.72,3.13s-1.58,4.51-3,6.43c-2.9,4-9.18,4.27-13.25,1.5s-6.13-7.74-6.7-12.62c-.65-5.48.41-11.31,3.75-15.7s9.15-7.05,14.53-5.85c5,1.12,8.74,5.12,12.86,8.18s9.91,5.26,14.21,2.47c6.51-4.21,3.24-14,1.59-21.59-3.21-14.74,4-31.15,17-38.76,5.61-3.28,13.37-7.56,11.41-13.75-.36-1.15-1.06-2.16-1.48-3.29-2.11-5.66,3.64-11.55,9.57-12.72s12,.54,18.06.49,13-2.87,14.25-8.78c1.67-7.92-8.18-13.65-16.26-13.24-3,.15-6.16.68-8.69-.87-2.24-1.38-3.33-4.07-5.33-5.79-4.75-4.06-12-1.19-17.53,1.66s-13.12,5.27-17.4.71c-1.61-1.72-2.46-4.24-4.55-5.32-3.61-1.85-7.79,2.27-8.15,6.31s1.47,7.94,2,12-1.07,9-5.06,9.79c-3.17.59-6-1.81-8.36-4L153,174c-2.7-2.58-5.46-5.25-7-8.66s-1.47-7.78,1.09-10.49c3-3.12,7.85-3,12.14-3.24s9.43-2.13,10-6.39c.75-5.48-6.69-8.91-7.37-14.4-.75-6.17,6.59-9.12,11.24-13.67-32.24,11.62-61.83,31.07-83.76,57.37a151.08,151.08,0,0,0-25.54,44.39c7.63,5.48,16.17,10.43,18.93,19,4,12.37-5.58,28.24,3.24,37.78,7.19,7.79,21.3,4.41,29,11.7,6.91,6.54,5.36,18.51,11.57,25.72,5.63,6.53,15.73,6.9,24,4.65,3.48-.94,7.3-2.21,10.52-.61,2.71,1.35,4.12,4.35,6.35,6.39,8.46,7.81,25-.22,32.34,8.68,10.24,12.48-10.71,26.13-14,37-1.83,6.1-1.1,13.4,3.46,17.85a22.26,22.26,0,0,0,7.25,4.31,67.44,67.44,0,0,0,19.07,4.68c4.9.47,9.92.41,14.6,1.94s9.1,5.13,9.84,10c1,6.89-5.4,14.13-2.23,20.34,2,4,7.43,5.9,8.12,10.29s-3.68,7.65-5.42,11.67-.71,8.54,1.56,12.21c6.89-.33,13.78-.94,20.62-1.9l.66-.1C265.39,451.87,268.25,443.93,275.39,438.9Z"/><path class="cls-5" d="M187.13,164.79c2.42,2.57,5.87,2.93,9.43,2.23a7.75,7.75,0,0,1-3.83-2.23c-1.61-1.72-2.45-4.24-4.55-5.32a4.55,4.55,0,0,0-4.78.55C184.93,161.26,185.75,163.32,187.13,164.79Z"/><path class="cls-5" d="M252.66,344c-4.57-1.62-5.6-7.65-10.54-11.94-3.41-3-7.78-3.16-12.4-2.79a12,12,0,0,1,6.8,2.79C243,337.67,242.76,346.3,252.66,344Z"/><path class="cls-5" d="M227.39,168.21c2.37,1.46,5.35,1.08,8.15.91a7.11,7.11,0,0,1-2.54-.91c-2.25-1.38-3.33-4.07-5.34-5.79-2.47-2.11-5.61-2.34-8.84-1.68a8.13,8.13,0,0,1,3.24,1.68C224.06,164.14,225.15,166.83,227.39,168.21Z"/><path class="cls-5" d="M220,190.61c-5.93,1.17-11.68,7.06-9.57,12.72.42,1.13,1.12,2.14,1.48,3.29,2,6.19-5.8,10.47-11.41,13.75-13,7.61-20.22,24-17,38.76,1.65,7.57,4.92,17.38-1.59,21.59a8,8,0,0,1-1.87.88,9.22,9.22,0,0,0,7.47-.88c6.51-4.21,3.25-14,1.6-21.59-3.22-14.74,4-31.15,17-38.76,5.6-3.28,13.36-7.56,11.4-13.75-.36-1.15-1.06-2.16-1.48-3.29-2.11-5.66,3.64-11.55,9.57-12.72a17,17,0,0,1,2-.28A27.94,27.94,0,0,0,220,190.61Z"/><path class="cls-5" d="M178.13,312.58c4.5,1.31,9.36,1.65,13.44,3.95,5.74,3.23,9.15,9.88,15.25,12.37,3.11,1.27,6.56,1.32,10.06,1.05a15.77,15.77,0,0,1-4.46-1.05c-6.1-2.49-9.51-9.14-15.25-12.37-4.08-2.3-8.94-2.64-13.44-3.95s-9.16-4.23-10-8.84c-.68-3.84.74-9.27-2.94-10.56a4.12,4.12,0,0,0-4.07,1.08c1.69,2.13.85,6.33,1.4,9.48C169,308.35,173.63,311.27,178.13,312.58Z"/><path class="cls-5" d="M252.34,182.32c-1.09,5.2-6.61,8-12,8.65,1.13.08,2.26.14,3.38.13,6.05,0,13-2.87,14.25-8.78,1.67-7.92-8.18-13.65-16.26-13.24l-2.37.15C246.53,170.21,253.79,175.44,252.34,182.32Z"/><path class="cls-5" d="M150.67,317.77a36,36,0,0,1-6.18,1.11,33.47,33.47,0,0,0,11.79-1.11c1.26-.34,2.57-.73,3.89-1C157.18,315.83,153.79,316.93,150.67,317.77Z"/><path class="cls-5" d="M293.6,360.78l.38,0c-13.39-2.07-8.44-20.41-24.53-21.05a9.73,9.73,0,0,0-2.88.32C280.91,342.82,274.71,362.87,293.6,360.78Z"/><path class="cls-5" d="M314.62,381.77c.81-6.93,11.7-11.24,9.24-17.77-1-2.59-3.85-4-6.57-4.48a26,26,0,0,0-7.27-.22,15.91,15.91,0,0,1,1.67.22c2.72.51,5.59,1.89,6.56,4.48,2.47,6.53-8.42,10.84-9.23,17.77-.71,6.08,6.68,10.9,6,17-1.05,8.68-15.42,7.87-20,15.34-2.3,3.79-1.41,8.77-3.22,12.81-2.83,6.29-10.77,8-16.41,12-7.14,5-10,13-12,21.66l-.66.1c-5,.71-10.12,1.22-15.2,1.58.07.1.12.22.18.32,6.89-.33,13.78-.94,20.62-1.9l.67-.1c2-8.69,4.82-16.63,12-21.66,5.64-4,13.58-5.71,16.41-12,1.81-4,.93-9,3.22-12.81,4.53-7.47,18.9-6.66,19.95-15.34C321.31,392.67,313.91,387.85,314.62,381.77Z"/><path class="cls-5" d="M140.33,275.92c-3.34,4.39-4.4,10.22-3.75,15.7.57,4.88,2.63,9.86,6.7,12.62a10.93,10.93,0,0,0,8.85,1.45,10.34,10.34,0,0,1-3.25-1.45c-4.06-2.76-6.13-7.74-6.7-12.62-.64-5.48.42-11.31,3.75-15.7a15.73,15.73,0,0,1,9.08-5.8l-.15-.05C149.48,268.87,143.67,271.53,140.33,275.92Z"/><path class="cls-5" d="M173.19,117.11c-4,3.87-9.86,6.6-11.06,11.13a9.23,9.23,0,0,0-.22,1.68,7.81,7.81,0,0,0,0,.83v0a.29.29,0,0,1,0,.09,7.48,7.48,0,0,0,.52,1.88c0,.08.09.16.13.25a23,23,0,0,0,3.43,4.84c.27.32.54.65.8,1s.67.88,1,1.33a10.74,10.74,0,0,1,1,1.9c.09.21.15.41.22.62a5.92,5.92,0,0,1,.28,1.51,5.68,5.68,0,0,1-.05,1c-.58,4.26-5.72,6.11-10,6.39s-9.18.12-12.14,3.24c-2.56,2.71-2.6,7.08-1.09,10.49s4.26,6.08,7,8.66l10,9.53c2.33,2.23,5.19,4.63,8.36,4a5.39,5.39,0,0,0,1.07-.36,5.86,5.86,0,0,0,.61-.32,18.65,18.65,0,0,1-4.43-3.36l-10-9.53c-2.69-2.58-5.45-5.25-7-8.66s-1.47-7.78,1.09-10.49c3-3.12,7.85-3,12.14-3.24s9.43-2.13,10-6.39c.75-5.48-6.69-8.91-7.36-14.4s12.09-12.15,11.17-14.3a2.05,2.05,0,0,0-1-1q-5.06,1.7-10,3.65C169.55,118.46,171.37,117.77,173.19,117.11Z"/><path class="cls-4" d="M375.06,325.62c10.27-5,3.12-19.55-3.21-24.22a4.69,4.69,0,0,0-2.42-1.07c-1.77-.1-3.21,1.63-3.41,3.39a9.46,9.46,0,0,0,1.29,5.06,14.11,14.11,0,0,1,1.76,5c.24,3.19-2,6.05-2.43,9.22-.17,1.17,0,2.58,1.07,3.13a3.41,3.41,0,0,0,1.45.28A12.12,12.12,0,0,0,375.06,325.62Z"/><path class="cls-5" d="M376.93,323.75c10.26-5,3.12-19.54-3.21-24.21a4.62,4.62,0,0,0-2.43-1.08c-1.76-.09-3.2,1.64-3.4,3.39a9.33,9.33,0,0,0,1.29,5.06,14.11,14.11,0,0,1,1.76,5c.24,3.19-2,6.06-2.43,9.22-.17,1.17,0,2.59,1.07,3.13a3.38,3.38,0,0,0,1.45.28A12.12,12.12,0,0,0,376.93,323.75Z"/><path class="cls-5" d="M196.36,133c2.15-.25,4.19-1.08,6.33-1.39s4.57,0,6,1.69,1.35,3.77,1,5.75c-.4,2.46-1.37,5-3.41,6.44a11.3,11.3,0,0,1-3.93,1.55,76.5,76.5,0,0,1-12.85,2,8.05,8.05,0,0,1-3.32-.27,8.48,8.48,0,0,1-3.44-3L174.3,135a5.09,5.09,0,0,1-1.33-2.63,3.33,3.33,0,0,1,1.92-3,8.31,8.31,0,0,1,3.67-.72C185.21,128.49,190,133.72,196.36,133Z"/><path class="cls-4" d="M213.81,135.26a6,6,0,0,0-5-1.77c1.13,1.52,1.17,3.63.87,5.53-.4,2.46-1.37,5-3.41,6.44a11.3,11.3,0,0,1-3.93,1.55,76.5,76.5,0,0,1-12.85,2l-.49,0a6.15,6.15,0,0,0,2.32,1.7,7.85,7.85,0,0,0,3.31.26,74.48,74.48,0,0,0,12.86-2,11.44,11.44,0,0,0,3.93-1.54c2-1.44,3-4,3.41-6.44C215.16,139,215.11,136.79,213.81,135.26Z"/><path class="cls-5" d="M304.76,118c1.93-.36,4.3.2,5,2s-.42,3.63-1.84,4.79c-2.18,1.77-5,2.43-7.83,2.84-2.56.38-5.26.59-7.67-.34s-4.44-3.31-4.19-5.89c.34-3.38,3.63-3.72,6.32-3.49,1.47.13,2.19,1.58,3.65,1.71C300.45,119.78,302.63,118.33,304.76,118Z"/><path class="cls-4" d="M313.16,122.08a3.79,3.79,0,0,0-3.35-2.09c.66,1.69-.43,3.61-1.85,4.76-2.18,1.77-5,2.43-7.83,2.84a16.32,16.32,0,0,1-7-.13,7.13,7.13,0,0,0,2.73,1.9c2.41.94,5.1.73,7.66.35,2.78-.42,5.65-1.08,7.84-2.85C312.75,125.71,313.85,123.78,313.16,122.08Z"/><path class="cls-5" d="M215.44,289.52a3.44,3.44,0,0,1,0,4.18,7.34,7.34,0,0,1-3.74,2.41,18.45,18.45,0,0,1-11.29.15,8.08,8.08,0,0,1-3.78-2.17c-2.16-2.44-1-5,2.29-4.76,3.62.29,5.33,2,8.85,1.3C210.07,290.15,212.94,286.79,215.44,289.52Z"/><path class="cls-4" d="M275.39,438.9c5.64-4,13.58-5.71,16.41-12a16.16,16.16,0,0,0,1.11-4.2,235.07,235.07,0,0,0-52.2,27.39l-.13.26c-1.69,3.93-.71,8.54,1.56,12.21,6.86-.33,13.73-.94,20.54-1.89h.08l.67-.11C265.39,451.87,268.25,443.93,275.39,438.9Z"/><path class="cls-5" d="M237.88,428.39c2,4,7.43,5.9,8.12,10.29s-3.49,7.5-5.29,11.41a235.07,235.07,0,0,1,52.2-27.39c.45-3,.57-6.06,2.11-8.61,4.53-7.47,18.9-6.66,20-15.34.73-6.08-6.66-10.9-6-17a8.87,8.87,0,0,1,1.24-3.43c-1.14.43-2.27.88-3.39,1.4-9.64,4.44-17.6,12-27.29,16.34-12.58,5.61-27.26,5.42-40.25,9.48a9.63,9.63,0,0,1,.78,2.49C241.15,414.94,234.71,422.18,237.88,428.39Z"/><path class="cls-4" d="M407.38,311.5a10.7,10.7,0,0,1-.17,4.05c-1,4.7-3.43,9.2-3.14,14,.25,4.29,2.64,8,5.73,11.12a189,189,0,0,0,6.68-37.9C413.53,305.76,410.49,308.66,407.38,311.5Z"/><path class="cls-8" d="M277.41,377a13.81,13.81,0,0,1,2.14-9.13,14.86,14.86,0,0,1,7.93-6.25A13,13,0,0,1,298,362.71a10.75,10.75,0,0,1,3.74,3.6,7,7,0,0,1,1.05,4.82,12.45,12.45,0,0,0-6.93-2.95,14.52,14.52,0,0,0-6,.51,22,22,0,0,0-5.87,3.05C281.87,373.14,279.88,374.92,277.41,377Z"/><path class="cls-9" d="M478.81,417.33a7.31,7.31,0,0,0-3.05-1.55,45.9,45.9,0,0,0-21.68-1.36c-9.23,1.66-18.36,6.15-27.54,4.26-6.22-1.29-11.59-5.41-17.83-6.6-5-1-10.24.07-15.38.3s-10.79-.6-14.3-4.36a12.73,12.73,0,0,1-2.91-5.4c-18,20.61-40.83,35.91-66.57,45.95-.12.18-.26.34-.38.52-2.2,3.52-3.29,8-1.74,11.86,1.45,3.62,5,6.05,8.65,7.32,9.51,3.28,19.85.11,29.69-1.95a131.2,131.2,0,0,1,33.9-2.57c8.17.44,18.17.81,22.47-6.15,1.78-2.87,2.09-6.42,3.59-9.44,2.57-5.16,8.28-8.05,13.9-9.33,10.31-2.33,21.05-.42,31.61-.67a47.88,47.88,0,0,0,12.48-1.89c6.25-1.87,11.82-5.27,15-10.84C480.18,422.9,480.89,419.36,478.81,417.33Z"/><path class="cls-10" d="M379,408c3.51,3.76,9.16,4.58,14.3,4.36s10.33-1.26,15.38-.3c6.24,1.19,11.61,5.31,17.83,6.6,9.18,1.89,18.31-2.6,27.54-4.26a45.9,45.9,0,0,1,21.68,1.36,7.31,7.31,0,0,1,3.05,1.55c2.08,2,1.37,5.57-.08,8.1-3.19,5.57-8.76,9-15,10.84a35.6,35.6,0,0,0,10.66-.94c8.74-1.91,17.58-5.52,23.12-12.54A22.13,22.13,0,0,0,502,411.26a93.9,93.9,0,0,0-21.35-8.49c-19.16-5-39.56-3.91-58.59-9.41-10.53-3.05-20.62-8.09-31.2-10.58a158.48,158.48,0,0,1-14.78,19.84A12.73,12.73,0,0,0,379,408Z"/><path class="cls-11" d="M133,436.26A163.4,163.4,0,0,1,90.8,396.07a52.36,52.36,0,0,0-6.52,3.51c-3.44,2.09-7.23,4.78-7.61,8.79s3,7.41,6.63,8.88a28,28,0,0,0,7.09,1.55c1.53.18,3.07.34,4.58.58,3.91.63,8,2.11,10.16,5.46,2.59,4.09,1.23,9.73-1.87,13.45-2.5,3-9,5.17-9.87,9.18a71.9,71.9,0,0,1,29-3c1.77-4.79,6.56-6.87,11.6-7.64C133.68,436.65,133.34,436.47,133,436.26Z"/><path class="cls-12" d="M254.68,461.64a14.6,14.6,0,0,1-2.5,2.09c-4.45,2.94-9.91,3.79-15.17,4.65s-10.73,1.89-15,5.08c8.48,0,17.24-1.62,25.68-.94,16.75,1.34,33.81-5.83,45.05-18.25a215,215,0,0,1-30,6.39C260.07,461,257.38,461.36,254.68,461.64Z"/><path class="cls-13" d="M379.13,477.38c-6.14,1.82-2.8,9,.43,12.25a10.57,10.57,0,0,1,5.19-7.85c7-4.22,15.14-1.85,22.82-3.12,7.88-1.3,21.57-4.45,30-10.75a174.82,174.82,0,0,1-47.89,8.34C386.11,476.37,382.52,476.38,379.13,477.38Z"/><path class="cls-14" d="M60.63,468.25c-9.47-1.34-19.07-2.73-27.82-6.59-6.32-2.79-12.88-9-10.51-15.53,1.85-5,8.08-6.85,13.45-6.89s11,.92,15.9-1.36C59.24,434.33,64,427.45,72.27,424a79.74,79.74,0,0,1,18.12-5.19,28,28,0,0,1-7.09-1.55c-3.68-1.47-7-4.94-6.63-8.88s4.17-6.7,7.61-8.79a52.36,52.36,0,0,1,6.52-3.51c-1.45-2-2.87-4-4.24-6a169.85,169.85,0,0,0-24.17,5.74c-6.61,2.1-18.31,5.42-23.23,10.37-3,3-3.87,8.66-.59,11.41s9.7,2.14,10.73,6.33c.67,2.73-1.8,5.19-4.23,6.61-8.86,5.21-19.77,5.37-29.39,9S-3,453.34,1,462.82c3.12,7.46,12.29,9.94,20.28,11.14,28.44,4.26,57.29,4.11,86.08,3.43A54.3,54.3,0,0,1,84.9,464.84C78.49,470.32,69,469.44,60.63,468.25Z"/><path class="cls-15" d="M513.27,422c-.82-4.09-4.54-6.87-8.12-9-1-.61-2.06-1.2-3.11-1.77a22.13,22.13,0,0,1-4.54,11.53c-5.54,7-14.38,10.63-23.12,12.54a35.6,35.6,0,0,1-10.66.94,47.88,47.88,0,0,1-12.48,1.89c-10.56.25-21.3-1.66-31.61.67-5.62,1.28-11.33,4.17-13.9,9.33-1.5,3-1.81,6.57-3.59,9.44-4.3,7-14.3,6.59-22.47,6.15a131.2,131.2,0,0,0-33.9,2.57c-9.84,2.06-20.18,5.23-29.69,1.95-3.68-1.27-7.2-3.7-8.65-7.32-1.55-3.85-.46-8.34,1.74-11.86.12-.18.26-.34.38-.52q-8.22,3.21-16.81,5.7c-11.24,12.42-28.3,19.59-45.05,18.25-8.44-.68-17.2.9-25.68.94,4.27-3.19,9.73-4.22,15-5.08s10.72-1.71,15.17-4.65a14.6,14.6,0,0,0,2.5-2.09,213.47,213.47,0,0,1-72-4.5,99,99,0,0,0-14.9,2.67c-6.06,1.57-12,3.72-18.15,4.78s-12.76,1-18.37-1.81-10-8.65-9.59-14.9a11.64,11.64,0,0,1,.71-3.39,71.9,71.9,0,0,0-29,3c.85-4,7.37-6.18,9.87-9.18,3.1-3.72,4.46-9.36,1.87-13.45C103,421.49,98.88,420,95,419.38c-1.51-.24-3-.4-4.58-.58A79.74,79.74,0,0,0,72.27,424c-8.23,3.46-13,10.34-20.62,13.89-4.87,2.28-10.53,1.32-15.9,1.36s-11.6,1.85-13.45,6.89c-2.37,6.49,4.19,12.74,10.51,15.53,8.75,3.86,18.35,5.25,27.82,6.59,8.35,1.19,17.86,2.07,24.27-3.41a54.3,54.3,0,0,0,22.42,12.55l16.62-.42c3.8-.09,8.25.22,11.07,2.37a92.61,92.61,0,0,0,19.72-3.91c4-1.25,7.92-2.78,12.07-2.69,3.57.08,7,1.36,10.41,2.39a76.5,76.5,0,0,0,27.24,3c-13.46,7.22-28.94,1.46-43.26,2.48a71,71,0,0,0-23.64,5.62c-1.33,6.38-10.29,12.46-8.74,19.48,1.26,5.69,8.37,7.5,14.19,8,23.23,1.81,44-1.66,66.46-5.7a116.47,116.47,0,0,1,14-1.6l14.3-3.82a29.47,29.47,0,0,1,6.81-1.24c3.48-.07,6.86,1.11,10.15,2.23q19.71,6.74,40,11.59c25.18,5,50.76,9.28,75.67,4,4.53-1,9.17-2.34,12.61-5.44s5.33-8.37,3.28-12.52c-1.6-3.24-5.21-5.26-6.41-8.67a6.83,6.83,0,0,1-.34-2.86c-3.23-3.29-6.57-10.43-.43-12.25,3.39-1,7-1,10.52-1.13a174.82,174.82,0,0,0,47.89-8.34c3.16-2.36,5.6-5.16,6.67-8.48,1-3,.24-6.81-2.45-8.52-1.43-.91-3.57-2.57-2.26-3.64,4.55-3.75,19.47-3.12,25.32-3.95,7.45-1.06,14.91-2.14,22.42-3.13C495.74,439.07,515.76,434.39,513.27,422Z"/><path class="cls-13" d="M204.45,478.16a76.5,76.5,0,0,1-27.24-3c-3.42-1-6.84-2.31-10.41-2.39-4.15-.09-8.12,1.44-12.07,2.69A92.61,92.61,0,0,1,135,479.34a6.69,6.69,0,0,1,2.13,2.64,6.78,6.78,0,0,1,.41,4.28,71,71,0,0,1,23.64-5.62C175.51,479.62,191,485.38,204.45,478.16Z"/><path class="cls-13" d="M244.61,501.33a29.47,29.47,0,0,0-6.81,1.24l-14.3,3.82c18.88-1.05,38,2.11,56.43,5.78l14.82,3q-20.25-4.87-40-11.59C251.47,502.44,248.09,501.26,244.61,501.33Z"/><path class="cls-16" d="M223.55,435c-6.39-5.28-10.11-14.08-12.06-21.94-2.1-8.51,1.13-18.25-2.6-26.49a17.37,17.37,0,0,1-5.61,3.42,19.63,19.63,0,0,1-4.43,1,19.34,19.34,0,0,1-3.14,0,29,29,0,0,0,.32,10.42c1.11,5.08,3.59,10,3.23,15.16s-3.79,10.07-8.12,13.16-9.54,4.74-14.71,6A123.15,123.15,0,0,1,154,439c-3.94.21-7.95.24-11.73,1.41-.5.16-1,.34-1.5.55a13.25,13.25,0,0,0-6.22,5,7.44,7.44,0,0,0,.49,1.34c1.47,3.11,4.78,4.89,8,6,9.4,3.2,19.23,2.39,29.19,1.06,9.19-1.23,18.48-2.9,27.63-2.29,7.09.48,14.13,2.35,21.22,1.75a22.09,22.09,0,0,0,11.46-4.25,7.18,7.18,0,0,0,.79-2.38C234.05,441.68,227.76,438.47,223.55,435Z"/><path class="cls-17" d="M172.26,454.28c-10,1.33-19.79,2.14-29.19-1.06-3.25-1.1-6.56-2.88-8-6a7.44,7.44,0,0,1-.49-1.34,10.56,10.56,0,0,1,1.37-7.87,14.67,14.67,0,0,1,1-1.48c-1,.07-1.95.16-2.92.31-5,.77-9.83,2.85-11.6,7.64a11.64,11.64,0,0,0-.71,3.39c-.38,6.25,4,12.13,9.59,14.9s12.21,2.87,18.37,1.81,12.09-3.21,18.15-4.78a99,99,0,0,1,14.9-2.67Q177.41,455.85,172.26,454.28Z"/><path class="cls-18" d="M196,401.34a29,29,0,0,1-.32-10.42,20.4,20.4,0,0,1-6.45-1.63c-.18,7.09-.65,14.19-2.54,21-2.39,8.61-7.33,16.88-15.05,21.37-9.93,5.78-22.23,4.4-33.71,4.83l-1.05.05a14.67,14.67,0,0,0-1,1.48,10.56,10.56,0,0,0-1.37,7.87,13.25,13.25,0,0,1,6.22-5c.49-.21,1-.39,1.5-.55,3.78-1.17,7.79-1.2,11.73-1.41a123.15,123.15,0,0,0,22.43-3.31c5.17-1.25,10.37-2.9,14.71-6s7.75-7.84,8.12-13.16S197.14,406.42,196,401.34Z"/><path class="cls-9" d="M376.12,402.62c-1.71-6.21,0-13.93-1.85-20.44-2.12-7.44-8.9-13-10.42-20.59-1.48-7.34,2.32-14.84,1.68-22.3a16.08,16.08,0,0,1-2.3,1.73,20.4,20.4,0,0,1-4,1.79,23.56,23.56,0,0,1-4.19.84,21.9,21.9,0,0,1-8.91-1.06c-3.7,5.09-3.63,12.59-1.71,18.83,2.23,7.27,6.4,13.9,8,21.34,1.64,7.85.22,16.08-2.53,23.62a70.57,70.57,0,0,1-39.05,40.48c-.45.55-.85,1.12-1.25,1.71C335.29,438.53,358.1,423.23,376.12,402.62Z"/><path class="cls-19" d="M349.85,406.38c2.75-7.54,4.17-15.77,2.53-23.62-1.56-7.44-5.73-14.07-8-21.34-1.92-6.24-2-13.74,1.71-18.83a22.47,22.47,0,0,1-6.49-3.36.39.39,0,0,0-.1-.08,23.48,23.48,0,0,0-4,13c-.2,8.65,3.59,16.68,4.54,25.2.89,8,2.2,16.09,1.16,24.08-2,15.27-12.29,28.16-23.61,38.6a65.82,65.82,0,0,0-6.82,6.85A70.57,70.57,0,0,0,349.85,406.38Z"/><path class="cls-20" d="M258,450.07c-2-5.71-8.77-7.81-14.49-9.79-13-4.5-25.76-13.59-28.77-27-2.12-9.46.54-20.65-4-28.63a18.76,18.76,0,0,1-1.79,1.9c3.73,8.24.5,18,2.6,26.49,1.95,7.86,5.67,16.66,12.06,21.94,4.21,3.49,10.5,6.7,9.81,12.13a7.18,7.18,0,0,1-.79,2.38,22.09,22.09,0,0,1-11.46,4.25c-7.09.6-14.13-1.27-21.22-1.75-9.15-.61-18.44,1.06-27.63,2.29q5.15,1.58,10.43,2.86a213.47,213.47,0,0,0,72,4.5C257.68,458.51,259.39,454.08,258,450.07Z"/><path class="cls-21" d="M215.76,366.88c-3.38,3.68-6,7.54-8.88,10.29s-5.68,4.21-8.85,4.47a21.12,21.12,0,0,1-10.53-2.15c-3.71-1.65-7.42-4.27-11.73-6.77a25.74,25.74,0,0,0,7.59,12.81,21.75,21.75,0,0,0,5.9,3.76,20.4,20.4,0,0,0,6.45,1.63,19.34,19.34,0,0,0,3.14,0,19.63,19.63,0,0,0,4.43-1,17.37,17.37,0,0,0,5.61-3.42,18.76,18.76,0,0,0,1.79-1.9,20.05,20.05,0,0,0,2.14-3.17A27.23,27.23,0,0,0,215.76,366.88Z"/><path class="cls-21" d="M370.86,319.82c-2.73,4.12-4.9,8.15-7.6,10.65a13.77,13.77,0,0,1-4.19,2.73,17,17,0,0,1-4.9,1.15,25.71,25.71,0,0,1-10.95-1.5,42.08,42.08,0,0,1-11.44-6.32c.6,4.93,3.62,9.46,7.76,12.62a.39.39,0,0,1,.1.08,22.47,22.47,0,0,0,6.49,3.36,21.9,21.9,0,0,0,8.91,1.06,23.56,23.56,0,0,0,4.19-.84,20.4,20.4,0,0,0,4-1.79,16.08,16.08,0,0,0,2.3-1.73,15.9,15.9,0,0,0,3.69-4.54A21.47,21.47,0,0,0,370.86,319.82Z"/><path class="cls-22" d="M67.48,467.28c3.16,1.05,6.46,2.11,9.76,1.66s6.58-2.9,6.82-6.22c.16-2.35-1.19-4.55-2.83-6.24s-3.6-3.05-5.15-4.82a6.26,6.26,0,0,1-1.7-3.36,5.34,5.34,0,0,1,2.38-4.6,15.83,15.83,0,0,1,4.95-2.13c5-1.5,11.71-4,15.36-7.86,4.39-4.65,2.89-12.18-4.82-8.24-2.63,1.34-4.61,3.68-7.14,5.21-3.38,2-7.44,2.46-11.3,3.28s-7.92,2.31-10.05,5.63c-5.8,9,8,11.52,10.65,17.28C76.56,461.57,73.64,468.79,67.48,467.28Z"/><path class="cls-23" d="M111.59,440.83c-3.85.38-7.6.5-11.23,1.39a21.46,21.46,0,0,0-9.65,5.07,9.1,9.1,0,0,0-2.77,4.29,7.93,7.93,0,0,0,.49,5,11.44,11.44,0,0,0,3.07,4.23,15.68,15.68,0,0,0,4.68,2.68c3.44,1.31,7.26,1.78,11.06,2.35s7.6,1.05,11.42,1.47,7.64.78,11.47,1.11,7.67.58,11.51.82a.25.25,0,0,1,.25.27.26.26,0,0,1-.26.25,223.27,223.27,0,0,1-23.13-.8c-3.85-.33-7.69-.72-11.52-1.24s-7.72-.94-11.52-2.33a17.23,17.23,0,0,1-5.32-3,13.5,13.5,0,0,1-3.71-5,10.07,10.07,0,0,1-.56-6.33,11.23,11.23,0,0,1,3.39-5.3,23.25,23.25,0,0,1,10.65-5.4,24.13,24.13,0,0,1,11.73-.05.27.27,0,0,1,.19.33A.29.29,0,0,1,111.59,440.83Z"/><path class="cls-24" d="M154.16,469.28a6.9,6.9,0,0,1,1.86-2.39,16.16,16.16,0,0,1,8.76-3.08c4.32-.15,8.14,1.33,11.66,2.71,1.76.71,3.47,1.48,5.12,2.06a30.21,30.21,0,0,0,5.09,1.37,18.41,18.41,0,0,0,5.12.25,11.25,11.25,0,0,0,4.83-1.74h0a.53.53,0,0,1,.73.15.52.52,0,0,1,0,.61,10.17,10.17,0,0,1-5,3.44,16.9,16.9,0,0,1-6.06.66c-4-.23-7.86-1.7-11.3-2.91a51.62,51.62,0,0,0-5.15-1.62,20,20,0,0,0-5-.74,11.48,11.48,0,0,0-4.69.86c-.79.29-1.55.75-2.45,1.05a6.09,6.09,0,0,1-3.09.27.65.65,0,0,1-.52-.76.43.43,0,0,1,.05-.16Z"/><path class="cls-24" d="M194.48,493.69a36.26,36.26,0,0,1,7.42-1.32c2.47-.21,4.95-.2,7.43-.29l14.87-.39,14.89-.25a48.89,48.89,0,0,1,7.75.42,30.91,30.91,0,0,1,7.6,2.29c2.37,1,4.54,2.14,6.78,3,1.1.49,2.23.92,3.37,1.33s2.29.79,3.43,1.17a80.75,80.75,0,0,0,14.19,3.12,90.66,90.66,0,0,0,29.19-1,.52.52,0,0,1,.27,1,74.57,74.57,0,0,1-29.83,3.32,77.46,77.46,0,0,1-14.92-2.82c-1.21-.37-2.44-.71-3.63-1.15s-2.4-.83-3.58-1.31c-2.39-.9-4.66-2-6.87-2.9a26.33,26.33,0,0,0-6.62-1.92,47,47,0,0,0-7.09-.3l-14.87.16-14.87,0c-2.48,0-5,.06-7.44-.08a35.62,35.62,0,0,1-7.46-1.12.54.54,0,0,1-.38-.67A.56.56,0,0,1,194.48,493.69Z"/><path class="cls-25" d="M354.16,451.89c.39,2.29-1.9,4.09-4,5.11a39.26,39.26,0,0,1-22.4,3.68C330.54,458.25,352.53,442.27,354.16,451.89Z"/><path class="cls-26" d="M331.14,471.32c-7.86-7.89-45.33,2.27-32.17,13.2a10.39,10.39,0,0,0,5.26,1.94,36.19,36.19,0,0,0,22-3.78,12.91,12.91,0,0,0,5.42-4.64C332.8,475.94,332.84,473,331.14,471.32Z"/><path class="cls-27" d="M176.36,451.67c.74-4,4.92-6.14,8.53-7.93,7.28-3.61,14.85-8.95,16.2-17,.59-3.49-.11-7.06-.24-10.6s.41-7,2.81-9.58c-4.73,11.44,6.63,20.06,4.94,31.14-1,6.67-4.46,9.51-10.65,10.91C195.83,449.13,176.58,450.48,176.36,451.67Z"/><path class="cls-28" d="M345.15,352.45a25.08,25.08,0,0,0,0,3.89,15.62,15.62,0,0,0,.62,3.6,32,32,0,0,0,3.84,7.09c.38.62.76,1.25,1.14,1.9s.71,1.35,1.06,2a17.5,17.5,0,0,1,1,2.06l.87,2.11a44,44,0,0,1,2,8.84,42.4,42.4,0,0,1,0,9,44,44,0,0,1-.66,4.44c-.4,1.45-.67,2.93-1.2,4.33a36.78,36.78,0,0,1-3.81,8.07l-1.24,1.84c-.42.61-.93,1.16-1.39,1.73a32.79,32.79,0,0,1-3,3.19.52.52,0,0,1-.74,0,.53.53,0,0,1-.06-.67l0,0a45,45,0,0,0,7-15.09c.4-1.32.58-2.69.87-4,.13-1.37.4-2.72.42-4.1a40.44,40.44,0,0,0-2.26-16.07l-.75-1.89a15.27,15.27,0,0,0-.84-1.84c-.31-.6-.59-1.21-.92-1.81s-.69-1.2-1.06-1.8a34.11,34.11,0,0,1-3.93-8.23,11.86,11.86,0,0,1-.4-4.9,6.09,6.09,0,0,1,2.6-4.23.56.56,0,0,1,.79.19.53.53,0,0,1,.09.34Z"/><path class="cls-28" d="M367.82,415.84a8.92,8.92,0,0,1,1.81,2.39c.41.79.7,1.62,1.11,2.4a21.78,21.78,0,0,0,2.92,4.35,22,22,0,0,0,8.39,6.06,36.38,36.38,0,0,0,10.62,2.39c3.72.39,7.55.5,11.43.89a.54.54,0,0,1,.48.58.54.54,0,0,1-.41.47,53.9,53.9,0,0,1-11.65,1.43,35.29,35.29,0,0,1-12-1.89A26,26,0,0,1,375,432a22.29,22.29,0,0,1-4.58-4.36,23.6,23.6,0,0,1-3.17-5.42,13.18,13.18,0,0,1-.92-3,5.47,5.47,0,0,1,.49-3.23.64.64,0,0,1,.86-.29.49.49,0,0,1,.15.1Z"/><path class="cls-29" d="M396.44,448.47c-8.61,5.41-21.91.86-28-6.47-3.11-3.73-4.36-8.37-4.65-13.14-.18-3,1.93-9.66,1-11.88,4.83,11.59,15.85,22.71,29.05,21.36,1.58-.17,3.28-.37,4.66.4a4.58,4.58,0,0,1,1.78,5.26A8.39,8.39,0,0,1,396.44,448.47Z"/><path class="cls-24" d="M477.9,421.08a9.44,9.44,0,0,1-.19,5.42,17,17,0,0,1-2.56,4.81,20.82,20.82,0,0,1-8.54,6.83,37.65,37.65,0,0,1-10.3,2.29c-3.35.34-6.73.58-10.14.65a70.36,70.36,0,0,1-10.24-.54c-3.41-.43-6.65-1.14-9.85-1.5a24.37,24.37,0,0,0-9.34.35,13,13,0,0,0-7.67,5h0a.53.53,0,0,1-.73.14.53.53,0,0,1-.18-.65A13.54,13.54,0,0,1,416,437a20.92,20.92,0,0,1,5.18-1.23,34,34,0,0,1,5.24-.09c3.44.21,6.75.77,10,1.07a69.7,69.7,0,0,0,9.7.19c3.26-.12,6.52-.42,9.79-.8a33.63,33.63,0,0,0,9.17-1.9,16.94,16.94,0,0,0,7.07-5.26,26.34,26.34,0,0,0,2.41-3.81c.75-1.34,1.46-2.7,2.37-4.21h0a.56.56,0,0,1,.78-.19A.49.49,0,0,1,477.9,421.08Z"/><path class="cls-30" d="M464.82,443.32c-5.85.83-20.77.2-25.32,3.95-1.31,1.07.83,2.73,2.26,3.64,2.69,1.71,3.43,5.49,2.45,8.52-1.07,3.32-3.51,6.12-6.67,8.48a174.82,174.82,0,0,1-47.89,8.34c-3.54.12-7.13.13-10.52,1.13-6.14,1.82-2.8,9,.43,12.25a6.83,6.83,0,0,0,.34,2.86c1.2,3.41,4.81,5.43,6.41,8.67,2.05,4.15.16,9.42-3.28,12.52s-8.08,4.47-12.61,5.44c-24.91,5.31-50.49,1-75.67-4q-20.25-4.87-40-11.59c-3.29-1.12-6.67-2.3-10.15-2.23a29.47,29.47,0,0,0-6.81,1.24l-14.3,3.82a116.47,116.47,0,0,0-14,1.6c-22.45,4-43.23,7.51-66.46,5.7a29.54,29.54,0,0,1-7.44-1.46,23.38,23.38,0,0,0,7.42,10c7.05,5.41,16.41,6.92,25.28,6.42,20.8-1.17,39.79-12.17,60.29-15.92,30.73-5.62,61.71,5.35,92.47,10.8s67.12,3.31,86.69-21.05c3.83-4.76,6.85-10.21,11.34-14.36,7.86-7.27,18.95-9.51,29-13.09a102.16,102.16,0,0,0,27.63-14.95c7.12-5.43,13.8-12.32,16.48-20.72-1.86.39-3.57.67-5,.86C479.73,441.18,472.27,442.26,464.82,443.32Z"/><path class="cls-15" d="M513.27,422c-.82-4.09-4.54-6.87-8.12-9-1-.61-2.06-1.2-3.11-1.77a22.13,22.13,0,0,1-4.54,11.53,27.38,27.38,0,0,1-4.73,4.65,21,21,0,0,1,.35,8.11,25.41,25.41,0,0,1-.92,3.78C501.7,437.33,515.35,432.37,513.27,422Z"/><path class="cls-30" d="M161.19,480.64c14.32-1,29.8,4.74,43.26-2.48a76.5,76.5,0,0,1-27.24-3c-3.42-1-6.84-2.31-10.41-2.39-4.15-.09-8.12,1.44-12.07,2.69A92.61,92.61,0,0,1,135,479.34c-2.82-2.15-7.27-2.46-11.07-2.37l-16.62.42c-26.29.62-52.63.76-78.66-2.46,2.3,1.15,4.69,2.15,7.08,3.06,32.1,12.16,66.79,11,101.48,9.46a8.41,8.41,0,0,0,.33-1.19A71,71,0,0,1,161.19,480.64Z"/><path class="cls-31" d="M102.58,502.2c2.86-3.58,2.92-7.33-2.16-8.35-3.6-.73-7.32,0-10.89.84a13.45,13.45,0,0,0-4.73,1.84c-7.87,5.63,3.79,8.46,7.65,8.64C96.1,505.34,100.29,505.05,102.58,502.2Z"/><path class="cls-30" d="M267.75,525.2c15.14-16.43-35.19-24.79-30.63-5.76.55,2.29,2.8,3.71,4.94,4.7a43.54,43.54,0,0,0,15.49,3.93C261.2,528.3,265.27,527.89,267.75,525.2Z"/><path class="cls-30" d="M273.73,518.67c-.78,2.81,5.08,3.12,6,1.19C280.91,517.31,274.52,515.81,273.73,518.67Z"/><path class="cls-30" d="M507.79,452c2.79-.4,5.78-2.16,4.58-5.49a6.17,6.17,0,0,0-4-3.52c-3.54-1.14-8.7-1.29-12,.62-2,1.18-3.81,3.3-2.05,5.63,1.13,1.48,3.08,2.06,4.93,2.29C502.1,451.86,504.9,452.39,507.79,452Z"/><path class="cls-32" d="M475.45,377.17c-7.13,2.61-14.86,2-22.22.81-7.1-1.12-14-1.58-21.13-2.32a335.84,335.84,0,0,0-50.54-1.46c-6.16.29-12.52.71-18.31-1.41-2.52-.93-4.85-2.31-7.35-3.29-7.55-3-16-2-24.07-1.31a307.09,307.09,0,0,1-49.09.26c7.71-3.36,16.44-2.91,24.83-3.44,6.7-.42,13.35-1.49,20-2.57l19.92-3.23a8.19,8.19,0,0,0,3.23-1c1.53-1,2.18-2.88,3.21-4.39,3-4.38,8.94-5.39,14.23-5.83,14.84-1.22,30-2.53,44.88-2.73l48.55-.63c4.87-.07,9.82-.12,14.52,1.18s9.19,4.14,11.33,8.52C491.69,363,484.56,373.84,475.45,377.17Z"/><path class="cls-33" d="M479.74,350.53a28,28,0,0,0-7-5.42,67.59,67.59,0,0,0-11.21-.49l-48.55.64c-14.88.19-30,1.51-44.88,2.73-5.29.43-11.23,1.44-14.23,5.83-1,1.5-1.68,3.38-3.21,4.38a8,8,0,0,1-3.23,1l-19.93,3.23c-6.63,1.07-13.27,2.15-20,2.57-8.39.52-17.13.08-24.83,3.44a308.26,308.26,0,0,0,49.09-.26c3.43-.3,6.93-.64,10.4-.71q3.47-.86,7-1.64a11.89,11.89,0,0,0,4.09-1.49c.09-.06.2-.11.29-.18,2.14-1.63,1.81-4.92,3.43-7.08a13.89,13.89,0,0,1,7-4.7c3.74-1.18,7.73-1.16,11.65-1.16,32.31,0,64.17-4.2,96.43-.86a34.25,34.25,0,0,0,7.7.24Z"/><path class="cls-34" d="M487.42,354.32a14.15,14.15,0,0,0-3.86-4.73,20.33,20.33,0,0,0-7.47-3.79,29,29,0,0,0-3.31-.69,28,28,0,0,1,7,5.42l.07.08a14.75,14.75,0,0,1,4,7.42c.78,5-2.38,9.9-6.65,12.54s-9.44,3.34-14.45,3.55c-10.45.44-20.87-1.06-31.3-1.87-14.13-1.1-28.32-.94-42.5-.77a150.1,150.1,0,0,0-16.31.89,18.76,18.76,0,0,1-14.2-3.92c-1.7-1.38-3.18-3.09-5.11-4.1a11.89,11.89,0,0,1-4.09,1.49q-3.53.78-7,1.64a35.27,35.27,0,0,1,13.67,2c2.5,1,4.83,2.37,7.35,3.29,5.78,2.13,12.15,1.7,18.31,1.41a337,337,0,0,1,50.53,1.46c7.16.75,14,1.2,21.14,2.32,7.35,1.16,15.09,1.8,22.22-.81C484.56,373.84,491.68,363,487.42,354.32Z"/><path class="cls-35" d="M428.8,359.83c5.19.23,9.93-2.64,14.78-4.49a39.91,39.91,0,0,1,29.32.44,3.91,3.91,0,0,1,1.64,1c1.38,1.67-.4,4.12-2.26,5.23-5.76,3.44-13.06,3.21-19.54,1.43-3.61-1-7.23-2.45-11-2.12-2.79.24-5.39,1.47-8.08,2.26a41,41,0,0,1-14.28,1.05c-13.63-.93-27.35-4.72-40.76-2.1a21.79,21.79,0,0,1-5.77.73c-3.64-.27-7.09-2.8-10.64-2,2.61-4.67,10.23-5.32,14.83-3.85,2,.64,3.91,1.63,5.93,2.23,11.1,3.27,20-7.1,30.59-4.8C418.83,356,423.33,359.58,428.8,359.83Z"/><path class="cls-36" d="M476.11,355.49a9.41,9.41,0,0,0-4.3,5,6.25,6.25,0,0,0,1.37,6.28,3.61,3.61,0,0,0,1.65,1,4.62,4.62,0,0,0,2.59-.29,11.87,11.87,0,0,0,6.15-5.12C486.78,356.85,481.25,352.47,476.11,355.49Z"/><path class="cls-36" d="M467.54,368.86c3.2-2.58.27-6.12-3-4.69-2.23,1-3,3.39-.89,4.87A3.37,3.37,0,0,0,467.54,368.86Z"/><path class="cls-35" d="M384.46,360.82a1,1,0,0,1,0-1.06l.35-.91c.26-.6.54-1.18.85-1.75a13.53,13.53,0,0,1,2.24-3.21l.28.16a22.31,22.31,0,0,1-1.39,3.61c-.26.58-.53,1.16-.82,1.73l-.44.84a1,1,0,0,1-.78.71Z"/><path class="cls-35" d="M399.33,361.16a.77.77,0,0,1,.16.88l-.21.76a11.43,11.43,0,0,1-.59,1.46,8.32,8.32,0,0,1-1.77,2.61l-.28-.15a14.67,14.67,0,0,1,.9-3q.25-.72.54-1.41l.31-.7a.76.76,0,0,1,.64-.59Z"/><path class="cls-35" d="M419.32,363.13a.8.8,0,0,1-.05.9l-.35.71c-.25.47-.5.93-.77,1.38a16.91,16.91,0,0,1-1.79,2.68l-.3-.13a9.36,9.36,0,0,1,1-3.13,13.21,13.21,0,0,1,.78-1.43l.46-.68a.82.82,0,0,1,.79-.47Z"/><path class="cls-35" d="M439.57,360.58a1.22,1.22,0,0,1-.1,1.18l-.45,1a21.5,21.5,0,0,1-1.06,1.94,16.25,16.25,0,0,1-2.68,3.51l-.27-.17a31.18,31.18,0,0,1,1.86-4c.33-.64.67-1.28,1-1.91l.54-.94a1.25,1.25,0,0,1,.86-.79Z"/><path class="cls-35" d="M450.89,361.75a1.43,1.43,0,0,1-.08,1.26l-.43,1.11c-.29.73-.61,1.46-1,2.17a24.71,24.71,0,0,1-2.32,4.17l-.29-.12a24.39,24.39,0,0,1,1.46-4.55c.29-.74.61-1.46.94-2.18l.53-1.07a1.43,1.43,0,0,1,.86-.92Z"/><path class="cls-35" d="M459.66,354.32a.57.57,0,0,1-.28-.69c0-.2.07-.41.11-.61a5.72,5.72,0,0,1,.45-1.15,4.15,4.15,0,0,1,1.61-1.86l.26.18a15.06,15.06,0,0,1-.72,2.18c-.12.35-.25.69-.38,1l-.2.52c-.06.17-.07.35-.53.46Z"/><path class="cls-35" d="M447.65,355.08a.76.76,0,0,1-.17-.87l.19-.76a12.43,12.43,0,0,1,.54-1.48,8.57,8.57,0,0,1,1.64-2.68l.29.13a13.89,13.89,0,0,1-.76,3c-.15.48-.32,1-.5,1.44l-.29.7a.78.78,0,0,1-.63.61Z"/><path class="cls-35" d="M430.15,361.15a1.91,1.91,0,0,1,0-1.49l.43-1.36a27.93,27.93,0,0,1,1.08-2.66,21.39,21.39,0,0,1,2.94-4.9l.28.15c-.6,1.82-1.38,3.51-2.07,5.25l-1,2.6-.52,1.3a2,2,0,0,1-.84,1.21Z"/><path class="cls-35" d="M419.08,359.21a1.32,1.32,0,0,1,.16-1.19l.48-1q.51-1,1.08-2a22.61,22.61,0,0,1,2.54-3.74l.28.15a22.63,22.63,0,0,1-1.72,4.19c-.33.67-.68,1.33-1,2l-.58,1a1.31,1.31,0,0,1-.91.79Z"/><path class="cls-35" d="M409.19,356.75a.76.76,0,0,1-.1-.87l.25-.73c.18-.49.38-1,.6-1.42a10.83,10.83,0,0,1,1.62-2.67l.3.12a10.87,10.87,0,0,1-.76,3c-.17.48-.36,1-.58,1.43l-.35.69a.78.78,0,0,1-.69.55Z"/><path class="cls-35" d="M396.75,359.32a1,1,0,0,1,0-1l.33-.84c.24-.55.49-1.09.77-1.62a14.4,14.4,0,0,1,1.95-3.06l.29.14a14.78,14.78,0,0,1-1.1,3.45c-.23.56-.48,1.1-.75,1.64l-.43.79a1,1,0,0,1-.77.63Z"/><path class="cls-37" d="M371.05,141.91a76.83,76.83,0,0,0-25.49-34.58,115.56,115.56,0,0,0-16.85-10.24c-20.51-10.55-44.65-14.66-67.89-12.56,33.15,11.22,66.51,25.89,95.38,45.58A108.52,108.52,0,0,1,371.05,141.91Z"/><path class="cls-38" d="M85.56,178.91c1.22-1.58,2.46-3.16,3.75-4.71,3.56-4.27,7.35-8.35,11.3-12.26-.64.27-1.28.52-1.91.8C92.22,165.59,84.51,171.53,85.56,178.91Z"/><path class="cls-37" d="M426.15,273.58c-2.61-6.15-6-12.05-7.32-18.6-.63-3.18-.74-6.49-1.8-9.55a18.47,18.47,0,0,0-1.41-3.06,33.28,33.28,0,0,0-4-5.47c-.66-.76-1.34-1.5-2-2.24C368,189.33,317.17,152.53,257.87,134c-26.56-8.31-53.05-16.15-80.55-19.4-.57.19-1.12.4-1.68.59-5.55-.62-11.14-1.06-16.78-1.26-10.63-.38-21.41-.06-31.66,2.77l-.19,0c-10.3,2.87-20.11,8.49-26.45,17.11-3.34,4.54-5.58,10.34-5.28,15.83a35.86,35.86,0,0,1-5.39,3.16c-4.93,2.34-10.77,3.91-13.65,8.54s-1.66,11.08-3.79,16.26c-.89,2.16-2.34,4-3.27,6.18-2.38,5.5-.81,11.63,2.6,16.73a149.4,149.4,0,0,1,13.78-21.63c-1-7.38,6.66-13.32,13.14-16.17.63-.28,1.27-.53,1.91-.8.44-.44.91-.86,1.36-1.3,38-15,79.88-2.82,119.07,2.39,15.55,2.07,31.15,4.15,46.25,8.37,20.92,5.85,40.5,15.72,59.27,26.65,28.07,16.36,55.06,35.6,75.22,61.07,6.07,7.67,11.51,15.94,15.23,25A210,210,0,0,1,416,306l.54-.25c5.32-2.68,10.07-7,11.92-12.7C430.57,286.68,428.75,279.72,426.15,273.58Z"/><path class="cls-37" d="M375.68,146.91a64.33,64.33,0,0,0-4.63-5,108.52,108.52,0,0,0-14.85-11.8C327.33,110.42,294,95.75,260.82,84.53c-2.92-1-5.85-2-8.77-2.91-12.77-4.1-26-8.25-39.33-7a49.87,49.87,0,0,0-24.86,9.79c21.5.21,43,9.36,62.73,18l6.51,2.86c34.62,15.14,68.81,29.05,100.47,50.34,11.62,7.83,23,16.4,32.61,26.5.64.66,1.26,1.34,1.88,2C389,170.65,384.44,157.52,375.68,146.91Z"/><path class="cls-37" d="M402.53,197.58a106,106,0,0,0-10.47-13.37c-.62-.68-1.24-1.36-1.88-2-9.63-10.1-21-18.67-32.61-26.5-31.66-21.29-65.85-35.2-100.47-50.34l-6.51-2.86c-19.75-8.68-41.23-17.83-62.73-18a67.74,67.74,0,0,0-21.62,3.17,77.05,77.05,0,0,0-39,29.06c10.25-2.83,21-3.15,31.66-2.77,6.21.22,12.36.72,18.46,1.44,27.5,3.25,54,11.1,80.55,19.41,59.3,18.55,110.17,55.35,151.7,100.68.67.73,1.35,1.48,2,2.24a32.79,32.79,0,0,1,4,5.46C416.64,227.3,411.34,211,402.53,197.58Z"/><path class="cls-39" d="M107.87,154.41c24.32-23.1,60.64-12.81,87.57-30.2-18.95,4.66-38.8,2.34-58.28,1.22a176.6,176.6,0,0,0-28.54.27,40.64,40.64,0,0,0-8.06,8.14c-3.34,4.54-5.58,10.34-5.28,15.83a35.86,35.86,0,0,1-5.39,3.16c-4.93,2.34-10.77,3.91-13.65,8.54s-1.66,11.08-3.79,16.26c-.89,2.16-2.34,4-3.27,6.18-2.38,5.5-.81,11.63,2.6,16.73a149.4,149.4,0,0,1,13.78-21.63c-1-7.38,6.66-13.32,13.14-16.17.63-.28,1.27-.53,1.91-.8.44-.44.91-.86,1.36-1.3l1.24-.46A24.16,24.16,0,0,1,107.87,154.41Z"/><path class="cls-40" d="M94.86,149.9a2.86,2.86,0,0,1,.84-1.71,7.55,7.55,0,0,1,1.35-.93c.93-.56,1.86-1,2.75-1.55a31.78,31.78,0,0,0,4.94-3.1,24,24,0,0,0,4.1-4.14,49.51,49.51,0,0,0,3.43-5h0a.43.43,0,0,1,.8.26,15.18,15.18,0,0,1-2,6.24,21.66,21.66,0,0,1-4.19,5.17,22.27,22.27,0,0,1-2.68,2,26.31,26.31,0,0,1-2.89,1.56L98.5,150a9.75,9.75,0,0,1-1.37.59,3.37,3.37,0,0,1-1.79,0h0A.61.61,0,0,1,94.86,149.9Z"/><path class="cls-39" d="M426.15,273.58c-2.61-6.15-6-12.05-7.32-18.6-.63-3.18-.74-6.49-1.8-9.55a19.07,19.07,0,0,0-1.38-3c.82-15.61-4.44-31.63-13.12-44.84a106,106,0,0,0-10.47-13.37c-3.1-13.56-7.62-26.69-16.38-37.3a64.33,64.33,0,0,0-4.63-5,76.83,76.83,0,0,0-25.49-34.58A123.28,123.28,0,0,0,308.09,89l.76.51c4.26,2.91,8.78,6.3,10,11.3.57,2.28.38,4.7.86,7,1.33,6.52,7.38,10.79,12.66,14.84a122.25,122.25,0,0,1,17.69,16.57c2.21,2.53,4.41,6.17,2.58,9-.73,1.13-2,1.82-2.8,2.89-1.51,2-1.23,4.87,0,7.06s3.12,3.84,4.92,5.56a68.36,68.36,0,0,1,15.8,22.85c1.34,3.17,2.31,7.21,0,9.75s-7.88,3.23-7.54,6.79c.27,2.76,4.29,3.84,4.76,6.57s-2.59,4.39-4.67,6.13a12,12,0,0,0-3.07,4c15.51,11.4,29.83,24.27,41.76,39.34,6.07,7.67,11.51,15.94,15.23,25A210,210,0,0,1,416,306l.54-.25c5.32-2.68,10.07-7,11.92-12.7C430.57,286.68,428.75,279.72,426.15,273.58Z"/><path class="cls-41" d="M414.7,235.48a176.46,176.46,0,0,0-13.45-14.18c-29-27.79-58.62-52.66-94.76-70.65-52.59-26.18-118.37-48.08-177.84-35.95-.49.65-1,1.31-1.45,2,10.25-2.83,21-3.15,31.66-2.77,6.21.22,12.36.72,18.46,1.44,27.5,3.25,54,11.1,80.55,19.41,59.3,18.55,110.17,55.35,151.7,100.68.67.73,1.35,1.48,2,2.24a32.79,32.79,0,0,1,4,5.46,61.09,61.09,0,0,0,.06-6.49Z"/><path class="cls-41" d="M377.17,165.52c-29.71-21.39-62.72-37.56-95.45-53.71-28-13.8-58.16-26.73-89.5-30.29a51.84,51.84,0,0,0-4.36,2.93c21.5.21,43,9.36,62.73,18l6.51,2.86c34.62,15.14,68.81,29.05,100.47,50.34,11.62,7.83,23,16.4,32.61,26.5.64.66,1.26,1.34,1.88,2-.49-2.15-1-4.3-1.6-6.42A85.76,85.76,0,0,0,377.17,165.52Z"/><path class="cls-41" d="M367.63,134.45c-20.5-15.41-42.92-28.73-66.81-38.12-10.14-4-20.77-8.86-31.56-12.29-2.82.08-5.64.23-8.44.49,33.15,11.22,66.51,25.89,95.38,45.58a108.52,108.52,0,0,1,14.85,11.8A76.25,76.25,0,0,0,368,134.7Z"/><path class="cls-42" d="M170.42,361.45a124.25,124.25,0,0,1-18.24-21.08l-2.84,1.37a61.46,61.46,0,0,1-8.81-9.85,34.5,34.5,0,0,1-6.27-15.82c-.3.21-.6.41-.87.58A171.68,171.68,0,0,1,117,281.31a3.58,3.58,0,0,0-.7-1.34,2.57,2.57,0,0,1,1.5.27c1.38.78,2,2.39,2.57,3.87a195.13,195.13,0,0,0,47,71.65c1.4,1.35,2.87,2.78,3.31,4.67a3.82,3.82,0,0,1,0,1.35Z"/><path class="cls-43" d="M152.18,340.37a124.25,124.25,0,0,0,18.24,21.08c.57.53,1.2,1.2,1.06,2a2.34,2.34,0,0,1-.88,1.19c-6.18,5.15-14.21,7.42-22,9.21-2.16.5-4.46,1-6.55.23a11.88,11.88,0,0,1-4.73-3.79,186.56,186.56,0,0,1-13.14-17c6.25-2.36,12.32-5.28,18.33-8.18Z"/><path class="cls-44" d="M106.72,329.14c-.72-1.1-1.4-2.23-2-3.35A221.22,221.22,0,0,1,90.84,297a5.39,5.39,0,0,1-.49-3.85,5.5,5.5,0,0,1,2.92-2.51l21.19-10.75a2.07,2.07,0,0,1,1.12-.32c.8.08,1.2,1,1.45,1.73a171.68,171.68,0,0,0,16.36,35.34l-.16.1A139.06,139.06,0,0,1,106.72,329.14Z"/><path class="cls-45" d="M90.7,334.37a5,5,0,0,1,3-1.43,131.15,131.15,0,0,0,13.07-3.8,139.06,139.06,0,0,0,26.51-12.39l.16-.1c6.23-3.85,22.33-19.79,27.69-12.53l16.19,22c.34.46.71,1,.5,1.58a1.78,1.78,0,0,1-1,.85l-24.6,11.86-9.72,4.69c-6,2.9-12.08,5.82-18.33,8.18a83.26,83.26,0,0,1-14.27,4.15,8.33,8.33,0,0,1-4.35,0,8.39,8.39,0,0,1-3.22-2.59,97.24,97.24,0,0,1-10.93-15.2C90.42,338,89.56,335.85,90.7,334.37Z"/><path class="cls-46" d="M90.7,334.37a5,5,0,0,1,3-1.43,131.15,131.15,0,0,0,13.07-3.8,139.06,139.06,0,0,0,26.51-12.39l.16-.1.44-.29a60.75,60.75,0,0,0,8,14.46,35.29,35.29,0,0,0,10.73,9.37l-.38.18-9.72,4.69c-6,2.9-12.08,5.82-18.33,8.18a83.26,83.26,0,0,1-14.27,4.15,8.33,8.33,0,0,1-4.35,0,8.39,8.39,0,0,1-3.22-2.59,97.24,97.24,0,0,1-10.93-15.2C90.42,338,89.56,335.85,90.7,334.37Z"/><path class="cls-47" d="M106.72,329.14a139.06,139.06,0,0,0,26.51-12.39l.16-.1c.27-.17.57-.37.87-.58a34.5,34.5,0,0,0,6.27,15.82,61.46,61.46,0,0,0,8.81,9.85l-6.88,3.32c-5.82,2.8-11.69,5.62-17.72,7.94-6.57-7.37-11.63-16.26-18.12-23.83Z"/><path class="cls-48" d="M90.7,334.37a5,5,0,0,1,3-1.43,129.15,129.15,0,0,0,13-3.77c6.49,7.57,11.55,16.46,18.12,23.83-.2.08-.4.17-.61.24a83.26,83.26,0,0,1-14.27,4.15,8.33,8.33,0,0,1-4.35,0,8.39,8.39,0,0,1-3.22-2.59,97.24,97.24,0,0,1-10.93-15.2C90.42,338,89.56,335.85,90.7,334.37Z"/><path class="cls-49" d="M138.92,349.85a16.33,16.33,0,0,1,4.32,3.73,51.85,51.85,0,0,0,23.09,14c-5.39,3.15-11.64,4.85-17.78,6.25-2.16.5-4.46,1-6.55.23a11.88,11.88,0,0,1-4.73-3.79,186.56,186.56,0,0,1-13.14-17c3.62-1.37,7.17-2.93,10.69-4.56A19.66,19.66,0,0,1,138.92,349.85Z"/><path class="cls-50" d="M90.35,293.16a5.5,5.5,0,0,1,2.92-2.51L106.4,284a84.53,84.53,0,0,0,3,17.93c1.19,4.24,2.52,9,4.74,12.86,1.9,3.3,3.88,5.75,4.77,9.49q-6,2.72-12.19,4.87c-.72-1.1-1.4-2.23-2-3.35A221.22,221.22,0,0,1,90.84,297,5.39,5.39,0,0,1,90.35,293.16Z"/><path class="cls-51" d="M119.13,325.23c.63,3.62.74,7.34,1.88,10.83a19.4,19.4,0,0,0,13.47,12.54l.34.08c-3.52,1.63-7.07,3.19-10.69,4.56l-.63.23a59.47,59.47,0,0,1-6.79-6.77,83.83,83.83,0,0,1-6-8.51l-5.48-8.56,1.46-.49q6.21-2.14,12.19-4.87C119,324.59,119.07,324.9,119.13,325.23Z"/><path class="cls-52" d="M112.86,288.65c.78,0,.75.05.82.15a2.34,2.34,0,0,1,.2.27,2.06,2.06,0,0,1,.25.59,3.09,3.09,0,0,1,.14,1.61v0a.44.44,0,0,1-.41.35,1.93,1.93,0,0,1-1.68-1,2.2,2.2,0,0,1-.41-.84,3.55,3.55,0,0,1-.06-.47c0-.15-.1-.3.62-.62a1.47,1.47,0,0,1,.49-.12Z"/><path class="cls-52" d="M100.31,296.22c.5-.59.57-.49.68-.47l.33.1a1.42,1.42,0,0,1,.54.36,1.77,1.77,0,0,1,.67,1.4.5.5,0,0,1-.29.48,1.82,1.82,0,0,1-1.56,0,1.66,1.66,0,0,1-.56-.33,1.94,1.94,0,0,1-.23-.26c-.07-.09-.19-.1.12-.81A2.3,2.3,0,0,1,100.31,296.22Z"/><path class="cls-52" d="M111.7,300.93c.51-.59.63-.45.78-.4a3,3,0,0,1,.45.19,2.24,2.24,0,0,1,.74.63,2.12,2.12,0,0,1,.59,1.93.41.41,0,0,1-.43.32h0a3.09,3.09,0,0,1-1.63-.61,2.42,2.42,0,0,1-.57-.44l-.24-.28c-.09-.1-.2-.11.06-.85v0A1.51,1.51,0,0,1,111.7,300.93Z"/><path class="cls-52" d="M101.71,306.82c.55-.54.61-.43.73-.4a2.52,2.52,0,0,1,.33.14,1.64,1.64,0,0,1,.55.43,1.93,1.93,0,0,1,.61,1.5.51.51,0,0,1-.34.45,2,2,0,0,1-1.61-.17,1.9,1.9,0,0,1-.57-.4c-.07-.09-.15-.18-.22-.29s-.19-.13.18-.81A1.9,1.9,0,0,1,101.71,306.82Z"/><path class="cls-52" d="M113.3,311.68c.35-.7.54-.59.73-.57a3.71,3.71,0,0,1,.58.11,2.91,2.91,0,0,1,1,.56,2.43,2.43,0,0,1,1.1,2.06.4.4,0,0,1-.41.36h0a4.91,4.91,0,0,1-1.84-.54,3.77,3.77,0,0,1-.73-.35l-.34-.23c-.12-.08-.25-.07-.22-.85v-.05A1.09,1.09,0,0,1,113.3,311.68Z"/><path class="cls-52" d="M121.44,305.45c.59-.51.68-.38.82-.31a3,3,0,0,1,.4.2,2.86,2.86,0,0,1,.68.57,2.65,2.65,0,0,1,.87,1.77.42.42,0,0,1-.35.43,2.7,2.7,0,0,1-1.91-.46,2.88,2.88,0,0,1-.71-.55,2.39,2.39,0,0,1-.28-.35c-.09-.12-.24-.18.12-.87A1.38,1.38,0,0,1,121.44,305.45Z"/><path class="cls-52" d="M150,315.68c.47-.62.6-.51.77-.47a4.37,4.37,0,0,1,.49.12,3.66,3.66,0,0,1,.89.43,3.18,3.18,0,0,1,1.46,1.59.4.4,0,0,1-.24.51,3.12,3.12,0,0,1-2.15-.08,3.36,3.36,0,0,1-.91-.4,3.81,3.81,0,0,1-.41-.29c-.14-.11-.31-.13-.14-.9A1.41,1.41,0,0,1,150,315.68Z"/><path class="cls-52" d="M159.15,310.94c.38-.69.54-.57.7-.55a3.92,3.92,0,0,1,.49.13,2.28,2.28,0,0,1,.83.57,1.9,1.9,0,0,1,.62,1.93.41.41,0,0,1-.43.29h-.05a3.67,3.67,0,0,1-1.52-.47,2.14,2.14,0,0,1-.52-.32l-.24-.22c-.08-.08-.18-.06-.05-.83v-.06A1.25,1.25,0,0,1,159.15,310.94Z"/><path class="cls-52" d="M163.77,322.59c.14-.77.36-.72.54-.74a2.18,2.18,0,0,1,.57,0,2.36,2.36,0,0,1,1.06.37,2,2,0,0,1,1.1,1.9.39.39,0,0,1-.38.35h-.06a5.44,5.44,0,0,1-1.6-.23,2.37,2.37,0,0,1-.59-.18l-.28-.14c-.11,0-.19,0-.34-.76v-.08A1.55,1.55,0,0,1,163.77,322.59Z"/><path class="cls-52" d="M155.55,328.75c.39-.67.49-.58.62-.57a1.58,1.58,0,0,1,.38.05,1.91,1.91,0,0,1,.69.29,2.08,2.08,0,0,1,1.09,1.32.47.47,0,0,1-.2.52,2.11,2.11,0,0,1-1.7.23,1.89,1.89,0,0,1-.7-.25,2.35,2.35,0,0,1-.32-.23c-.1-.08-.23-.08-.07-.84A1.5,1.5,0,0,1,155.55,328.75Z"/><path class="cls-52" d="M142.26,322.12c.55-.54.61-.43.73-.39a2,2,0,0,1,.34.13,1.61,1.61,0,0,1,.54.43,1.89,1.89,0,0,1,.62,1.49.51.51,0,0,1-.34.46,2,2,0,0,1-1.61-.17,1.73,1.73,0,0,1-.57-.4c-.07-.09-.15-.18-.22-.28s-.19-.13.18-.82A1.8,1.8,0,0,1,142.26,322.12Z"/><path class="cls-52" d="M103,338.64c.34-.71.55-.6.74-.57a3,3,0,0,1,.59.15,2.48,2.48,0,0,1,1,.68,2.09,2.09,0,0,1,.62,2.24.39.39,0,0,1-.47.22l-.06,0a7,7,0,0,1-1.53-.75,3.52,3.52,0,0,1-.56-.35L103,340c-.1-.07-.19,0-.15-.83v-.07A1.53,1.53,0,0,1,103,338.64Z"/><path class="cls-52" d="M96.21,340.66c.58-.52.65-.39.78-.34a2.27,2.27,0,0,1,1,.68,2.27,2.27,0,0,1,.71,1.64.46.46,0,0,1-.35.44,2.28,2.28,0,0,1-1.75-.34,2.15,2.15,0,0,1-.63-.48,2.51,2.51,0,0,1-.25-.32c-.08-.12-.22-.16.16-.84A1.51,1.51,0,0,1,96.21,340.66Z"/><path class="cls-52" d="M107.49,349.86c.42-.65.51-.54.63-.52a1.91,1.91,0,0,1,.34.1,1.26,1.26,0,0,1,.51.46,1.2,1.2,0,0,1,0,1.49.56.56,0,0,1-.43.23h-.08a2.2,2.2,0,0,1-1.11-.15.47.47,0,0,1-.25-.18l-.08-.17c0-.06-.08,0,.18-.76l0-.09A2.3,2.3,0,0,1,107.49,349.86Z"/><path class="cls-52" d="M149.25,352.62c.57-.54.65-.41.79-.36a2.83,2.83,0,0,1,.4.17,2.53,2.53,0,0,1,.67.51,2.45,2.45,0,0,1,.89,1.67.42.42,0,0,1-.32.45,2.48,2.48,0,0,1-1.87-.32,2.69,2.69,0,0,1-.7-.47c-.1-.11-.19-.21-.28-.33s-.24-.16.09-.86A1.92,1.92,0,0,1,149.25,352.62Z"/><path class="cls-52" d="M140.57,356c.55-.57.67-.42.82-.36a3.88,3.88,0,0,1,.46.22,2.7,2.7,0,0,1,.75.68,2.3,2.3,0,0,1,.6,2,.42.42,0,0,1-.45.32h0a3.24,3.24,0,0,1-1.68-.72,3.14,3.14,0,0,1-.6-.49c-.08-.1-.17-.2-.25-.31s-.22-.13.08-.86v0A1.65,1.65,0,0,1,140.57,356Z"/><path class="cls-52" d="M150,364c.27-.73.45-.63.61-.61a1.53,1.53,0,0,1,.47.11,1.56,1.56,0,0,1,.74.6,2.09,2.09,0,0,1,.38.86,1.16,1.16,0,0,1-.33,1,.47.47,0,0,1-.47.12l-.09,0-.72-.22c-.15,0-.25-.11-.36-.14a.51.51,0,0,1-.25-.17l-.09-.15c-.05-.05-.07,0,0-.78v-.15A1.67,1.67,0,0,1,150,364Z"/><path class="cls-52" d="M139.74,367.56c.39-.66.5-.56.64-.55a2.74,2.74,0,0,1,.39.09,1.72,1.72,0,0,1,.66.43,1.62,1.62,0,0,1,.59,1.59.48.48,0,0,1-.38.37h0a2.13,2.13,0,0,1-1.42-.14,1.21,1.21,0,0,1-.47-.26,1.26,1.26,0,0,1-.2-.2c-.07-.08-.16-.06,0-.81l0,0A2,2,0,0,1,139.74,367.56Z"/><path class="cls-52" d="M130.88,356c.56-.55.62-.44.74-.4a2.26,2.26,0,0,1,.33.13,1.74,1.74,0,0,1,.54.43,1.93,1.93,0,0,1,.62,1.5.5.5,0,0,1-.34.45,1.87,1.87,0,0,1-1.61-.17,1.64,1.64,0,0,1-.57-.4,3,3,0,0,1-.22-.28c-.07-.1-.19-.13.18-.81A1.94,1.94,0,0,1,130.88,356Z"/><path class="cls-52" d="M159,359.85c.56-.53.62-.42.74-.38a3.27,3.27,0,0,1,.33.14,1.77,1.77,0,0,1,.53.45,1.91,1.91,0,0,1,.58,1.51.51.51,0,0,1-.35.44,1.89,1.89,0,0,1-1.61-.21,1.59,1.59,0,0,1-.55-.41,3.15,3.15,0,0,1-.22-.29c-.06-.11-.19-.14.2-.81A1.7,1.7,0,0,1,159,359.85Z"/><path class="cls-53" d="M133.39,316.65l-.16.1a139.06,139.06,0,0,1-26.51,12.39,131.15,131.15,0,0,1-13.07,3.8l-.7.18a12.48,12.48,0,0,1,3.73-1.63c13.3-4.07,26.22-9.68,37.6-17.67,5.26-3.69,10.2-7.88,15.89-10.85a10.78,10.78,0,0,1,5.8-1.59,5.09,5.09,0,0,1,2.6,1C151.81,300.69,138.83,313.28,133.39,316.65Z"/><path class="cls-37" d="M346,145.54c1.34-2.24,8-4.53,10.39-5.89q6-3.45,11.86-7c6.41-3.9,12.87-7.77,19.22-11.85a6.52,6.52,0,0,0,11.71,3.54A8.82,8.82,0,0,0,414,121.67a22.58,22.58,0,0,0,28.43-31.93,23.18,23.18,0,0,0-23.84-11.06c2.63-2.2,2.69-6.47.91-9.4s-4.93-4.75-8.1-6.07a44.16,44.16,0,0,0-39.78,3.36c-4.32,2.73-8.48,7-8.26,12.05.22,4.87,4.12,8.8,8.43,10.48a16.88,16.88,0,0,0-4.47,1.19c-2.1.89-2.56,2.3-2.78,4.4-.34,3.23,1.74,6.33,4.43,8.14s5.93,2.6,9.09,3.35C367.8,119.85,354.84,130.73,346,145.54Z"/><path class="cls-54" d="M413.4,123a3.24,3.24,0,0,1,.21-1.38,6.23,6.23,0,0,0,.13-1.3,7.78,7.78,0,0,0-.49-2.6,27.1,27.1,0,0,0-2.86-4.83.15.15,0,0,1,.05-.2.13.13,0,0,1,.16,0,12.12,12.12,0,0,1,3.68,4.61,7.13,7.13,0,0,1,.59,3,5.86,5.86,0,0,1-.27,1.55,1.68,1.68,0,0,1-1,1.26.19.19,0,0,1-.23-.11v0Z"/><path class="cls-55" d="M386.31,71.81c-1.55,4.69.06,10.63,5.68,12.63,3.67,1.31,8.28,1.16,10.88-1.75,2.33-2.61,2.32-6.66,1-9.9-1.24-3.05-4.77-6.88-8.28-7.21A8.63,8.63,0,0,0,386.31,71.81Z"/><path class="cls-56" d="M409.32,112.61c2,3.2.59,7.86-2.65,9.77a8.73,8.73,0,0,1-10.34-1.58c-.73-.75-1.84-1.68-2.64-1-.6.5-.37,1.47,0,2.13a3.59,3.59,0,0,1,.88,2.1c-.14,1.25-1.75,1.67-3,1.58a11.28,11.28,0,0,1-1.93-.33,6.34,6.34,0,0,0,2.35,1.34,6.69,6.69,0,0,0,7.09-2.3A8.82,8.82,0,0,0,414,121.67l.36.13C414.27,118.14,412.51,114.4,409.32,112.61Z"/><path class="cls-39" d="M388.19,90.18c.31-3.45-3.1-6.14-6.43-7.07s-6.95-.86-10.1-2.31a11.42,11.42,0,0,1-6.32-8.46,10.25,10.25,0,0,0-2,6.28c.21,4.6,3.7,8.36,7.73,10.18.82-.21,1.65-.44,2.48-.61A22.28,22.28,0,0,1,388.19,90.18Z"/><path class="cls-39" d="M427.23,109.9a37,37,0,0,1-16-8.69c-2.09-1.95-4.07-4.42-4.06-7.28a9.42,9.42,0,0,0-4.57,8.28,18.78,18.78,0,0,0,1.49,5.81l1.71,4.52c.41,1.1.75,2.53-.15,3.28-1.21,1-2.89-.39-3.88-1.59a33.38,33.38,0,0,0-19-11.32c-4.12-.83-8.36-.86-12.49-1.62a25.79,25.79,0,0,1-4.12-1.09,11.26,11.26,0,0,0,2.75,2.63c2.69,1.82,5.93,2.6,9.09,3.35-10.26,13.67-23.22,24.55-32.11,39.36,1.34-2.24,8-4.53,10.39-5.89q6-3.45,11.86-7c6.41-3.9,12.87-7.77,19.22-11.85a6.67,6.67,0,0,0,2.27,4.5,11.28,11.28,0,0,0,1.93.33c1.24.09,2.85-.33,3-1.58a3.59,3.59,0,0,0-.88-2.1c-.41-.66-.64-1.63,0-2.13.8-.67,1.91.26,2.64,1a8.73,8.73,0,0,0,10.34,1.58c3.24-1.91,4.63-6.57,2.65-9.77,3.19,1.79,4.95,5.53,5,9.19a23.22,23.22,0,0,0,25.29-5.92,21.94,21.94,0,0,0,4.21-7.2,10.26,10.26,0,0,1-1.31.7C438.16,111.42,431.8,111.06,427.23,109.9Z"/><path class="cls-56" d="M370.66,88.6a3.34,3.34,0,0,1,1.59-1.4,7.93,7.93,0,0,1,1.86-.47,23.3,23.3,0,0,1,3.82-.36,26.77,26.77,0,0,1,7.52,1A34.06,34.06,0,0,1,389,88.61a14.12,14.12,0,0,1,3.52,1.86,6.84,6.84,0,0,1,1.5,1.66,4.51,4.51,0,0,1,.64,2.28,4.09,4.09,0,0,1-.62,2.18,2.68,2.68,0,0,1-1.84,1.26.42.42,0,0,1-.48-.37.42.42,0,0,1,.18-.41l0,0a2.21,2.21,0,0,0,.71-2.45,2.31,2.31,0,0,0-.6-1.07,4.39,4.39,0,0,0-1.08-.84,15,15,0,0,0-3-1.19c-1.1-.34-2.22-.63-3.34-.87a40,40,0,0,0-6.76-.87,31.73,31.73,0,0,0-3.38,0c-.57,0-1.12.14-1.69.13a4.19,4.19,0,0,1-1.92-.54h0a.57.57,0,0,1-.22-.78Z"/><path class="cls-56" d="M419.08,79.26c-.16,1.21-.46,1.21-.78,1.38l-.91.52c-.58.36-1.17.7-1.75,1.09A15.47,15.47,0,0,0,414,83.56c-.56.48-1.14,1-1.9,1.52h0a.49.49,0,0,1-.77-.32,4.73,4.73,0,0,1,.5-2.81,8.89,8.89,0,0,1,1.72-2.28,7.46,7.46,0,0,1,2.41-1.58,7.63,7.63,0,0,1,1.39-.41,1.78,1.78,0,0,1,.73-.06,1.69,1.69,0,0,1,.88.8,1.17,1.17,0,0,1,.17.76Z"/><path class="cls-41" d="M345.59,145.33A7.41,7.41,0,0,1,347.9,143a30.19,30.19,0,0,1,2.65-1.61c1.77-1,3.7-1.83,5.27-2.79,3.39-2.19,6.79-4.33,10.23-6.43l20.52-12.76,0,0a1.57,1.57,0,0,1,2.16.51,1.61,1.61,0,0,1,.23.74,4.92,4.92,0,0,0,8.84,2.65,1.6,1.6,0,0,1,2.24-.35,1.94,1.94,0,0,1,.26.23l0,0a7.16,7.16,0,0,0,12.07-2.18,1.68,1.68,0,0,1,2.16-1l.06,0h0a21.58,21.58,0,0,0,18.71-1.35,23.46,23.46,0,0,0,3.88-2.87,22.1,22.1,0,0,0,3-3.72,23.91,23.91,0,0,0,2.06-4.37,25.54,25.54,0,0,0,1-4.74,26.19,26.19,0,0,0,0-4.85,23.5,23.5,0,0,0-1.08-4.71,21.83,21.83,0,0,0-2.18-4.28,22.37,22.37,0,0,0-3.18-3.63,21.59,21.59,0,0,0-18-5.3h0a1.63,1.63,0,0,1-1.34-2.87,4.91,4.91,0,0,0,1.55-3.83,7.1,7.1,0,0,0-.41-2.27,7.26,7.26,0,0,0-1.14-2c-2-2.58-5.41-4.18-8.85-5.4A42.7,42.7,0,0,0,387,62.25a41.52,41.52,0,0,0-10.48,3.37,48.48,48.48,0,0,0-4.79,2.67,21.21,21.21,0,0,0-4.06,3.46,11.41,11.41,0,0,0-2.55,4.34,8.17,8.17,0,0,0-.32,2.4,9.39,9.39,0,0,0,.43,2.4,12.24,12.24,0,0,0,7.09,7h0a1.3,1.3,0,0,1,.72,1.7,1.29,1.29,0,0,1-1.06.81,15.68,15.68,0,0,0-3.32.76,3.84,3.84,0,0,0-2.3,1.49A4.14,4.14,0,0,0,365.9,94q-.07.41-.12.84a6.26,6.26,0,0,0,0,.75,6.58,6.58,0,0,0,.85,3,10.7,10.7,0,0,0,4.88,4.38,34.87,34.87,0,0,0,6.82,2.19h0a1.07,1.07,0,0,1,.79,1.3,1.34,1.34,0,0,1-.19.4c-2.61,3.39-5.39,6.63-8.23,9.79s-5.74,6.27-8.62,9.37c-5.75,6.2-11.32,12.59-15.77,19.77Zm0,0c4.27-7.39,9.71-14,15.29-20.42l8.39-9.55c2.76-3.2,5.44-6.45,7.93-9.83l.61,1.7a36.93,36.93,0,0,1-7.3-2.21,12.87,12.87,0,0,1-6-5.28,9,9,0,0,1-1.2-4.07,8.08,8.08,0,0,1,0-1.1c0-.33.07-.66.13-1a6.64,6.64,0,0,1,.71-2.17,4.9,4.9,0,0,1,1.7-1.77,8,8,0,0,1,1-.52c.31-.13.62-.26.93-.37a17.86,17.86,0,0,1,3.88-.94l-.32,2.52A16.12,16.12,0,0,1,366.08,87a13.33,13.33,0,0,1-3.5-5.25,11.92,11.92,0,0,1-.6-3.2,10.76,10.76,0,0,1,.38-3.25,14.2,14.2,0,0,1,3.1-5.48,24.29,24.29,0,0,1,4.57-4,44.63,44.63,0,0,1,5.15-2.94,44,44,0,0,1,11.21-3.66,45.72,45.72,0,0,1,23.34,1.63,34.48,34.48,0,0,1,5.5,2.4,16.21,16.21,0,0,1,4.86,4,10.75,10.75,0,0,1,1.64,2.93,10.38,10.38,0,0,1,.61,3.32,9,9,0,0,1-.6,3.42,7.49,7.49,0,0,1-2.1,3l-1.36-2.87a24.93,24.93,0,0,1,20.9,6,26.34,26.34,0,0,1,3.74,4.22,25.27,25.27,0,0,1,2.59,5,27.29,27.29,0,0,1,1.29,5.48,28.53,28.53,0,0,1,0,5.62,29.31,29.31,0,0,1-1.21,5.48A27,27,0,0,1,443.2,114a24.71,24.71,0,0,1-3.59,4.38,24.88,24.88,0,0,1-26.27,4.85l2.24-1a10.47,10.47,0,0,1-17.68,3.11l2.52-.08a8.15,8.15,0,0,1-14.57-4.43l2.42,1.23-10.35,6.32c-3.45,2.1-6.87,4.24-10.37,6.27s-7,4-10.59,5.92a30.12,30.12,0,0,1-2.88,1.24l-2.8,1.11c-.92.38-1.83.77-2.7,1.21a7.1,7.1,0,0,0-2.27,1.59Z"/><path class="cls-37" d="M273.9,89.48c-.87-1.63.08-7.25.07-9.37,0-3.6,0-7.2-.1-10.78-.11-5.85-.2-11.73-.43-17.59a4.73,4.73,0,0,0,5.1-1.8,6.27,6.27,0,0,0,1.08-5.9,8.45,8.45,0,0,0,4.57-5.27,7.24,7.24,0,0,0-1-6.52c5.17-5.38,7.45-14.09,5.42-20.67a13.08,13.08,0,0,0-14.71-9.39C267.43,3.33,261.15,9.48,259,16.8a4.26,4.26,0,0,0-5.32-3.31c-2.38.5-4.56,2.32-6.45,4.31a43.81,43.81,0,0,0-11.78,30.48c.13,4,1.22,8.25,4.36,9.51,3,1.2,6.7-.59,9.21-3.33a15.77,15.77,0,0,0-.84,3.66,3,3,0,0,0,1.67,3.3c1.82,1.15,4.4.48,6.42-1a25.42,25.42,0,0,0,5.16-5.82C266.07,66.05,268.1,78.72,273.9,89.48Z"/><path class="cls-54" d="M283.8,33.05a2.18,2.18,0,0,1-.77-.57,2.48,2.48,0,0,0-.74-.46,4.16,4.16,0,0,0-1.76-.34,8.25,8.25,0,0,0-1.88.29c-.63.17-1.27.34-1.94.5a.1.1,0,0,1-.12-.08.11.11,0,0,1,0-.11,8.38,8.38,0,0,1,3.87-1.41,4.13,4.13,0,0,1,2.15.39,3.69,3.69,0,0,1,.91.67,1.1,1.1,0,0,1,.42,1,.12.12,0,0,1-.15.1h0Z"/><path class="cls-55" d="M243.68,38.83c2.28,2.47,6.4,2.94,9.55-.67,2.06-2.36,3.57-5.82,2.73-8.57-.76-2.46-3.19-3.58-5.59-3.52s-5.79,1.61-7.2,4.12C241.23,33.64,241.87,36.87,243.68,38.83Z"/><path class="cls-56" d="M276.14,33.18c2.6-.56,4.92,1.77,4.94,4.71a8.48,8.48,0,0,1-4.54,7.24c-.7.33-1.64.9-1.52,1.68.1.58.76.68,1.29.56s1.14-.34,1.57-.06c.7.45.39,1.76-.09,2.66a11,11,0,0,1-.87,1.34,5.53,5.53,0,0,0,1.62-1.37,6.27,6.27,0,0,0,1.08-5.9,8.45,8.45,0,0,0,4.57-5.27,7.24,7.24,0,0,0-1-6.52c.07-.07.13-.16.2-.23A7,7,0,0,0,276.14,33.18Z"/><path class="cls-39" d="M255.35,42.59c-2-1.19-4.75.58-6.47,2.79S246,50.31,244,52.23a7.93,7.93,0,0,1-7.27,2.33,6,6,0,0,0,3.09,3.23c2.83,1.13,6.3-.41,8.78-2.89.16-.67.31-1.35.5-2A22.2,22.2,0,0,1,255.35,42.59Z"/><path class="cls-39" d="M280.73,19.13A33,33,0,0,1,270,28.54c-1.9,1-4.07,1.79-5.78,1a6.08,6.08,0,0,0,3.38,5.71,10.48,10.48,0,0,0,4,.52h3.3c.8,0,1.78.16,1.92,1,.18,1.17-1.24,2-2.31,2.43a29.13,29.13,0,0,0-13.37,10.92c-1.92,2.82-3.42,6-5.3,8.82a26.88,26.88,0,0,1-2.09,2.75,8.45,8.45,0,0,0,2.53-1.3,25.42,25.42,0,0,0,5.16-5.82c4.64,11.46,6.67,24.13,12.47,34.89-.87-1.63.08-7.25.07-9.37,0-3.6,0-7.2-.1-10.78-.11-5.85-.2-11.73-.43-17.59a4.19,4.19,0,0,0,3.48-.43,11,11,0,0,0,.87-1.34c.48-.9.79-2.21.09-2.66-.43-.28-1-.05-1.57.06s-1.19,0-1.29-.56c-.12-.78.82-1.35,1.52-1.68a8.48,8.48,0,0,0,4.54-7.24c0-2.94-2.34-5.27-4.94-4.71A7,7,0,0,1,283.4,32c5-5.4,7.23-14,5.22-20.44a14.12,14.12,0,0,0-2.86-5.14,9.2,9.2,0,0,1,0,1.17C285.43,11.44,283,16.06,280.73,19.13Z"/><path class="cls-56" d="M248.3,55.13a3.59,3.59,0,0,1,0-3,27.46,27.46,0,0,1,1-2.8,25.85,25.85,0,0,1,3-5.06c.6-.78,1.23-1.53,1.88-2.25a16.73,16.73,0,0,1,2.18-2.09,4.11,4.11,0,0,1,3.35-1,2.48,2.48,0,0,1,1.49,1.13,2,2,0,0,1,.16,1.73A.32.32,0,0,1,261,42a.33.33,0,0,1-.2-.29h0a1.3,1.3,0,0,0-1.31-1.28,1.42,1.42,0,0,0-.42.07,3.29,3.29,0,0,0-.46.23,4.56,4.56,0,0,0-.91.72,21,21,0,0,0-1.74,2c-.57.72-1.1,1.47-1.61,2.22a42.69,42.69,0,0,0-2.75,4.7c-.41.8-.79,1.62-1.12,2.46a4.31,4.31,0,0,1-1.53,2.43h0a.42.42,0,0,1-.58-.09A.05.05,0,0,0,248.3,55.13Z"/><path class="cls-56" d="M259.54,16.62c.74.52.63.75.62,1v.82l0,1.61a9.78,9.78,0,0,0,.17,1.61c.08.54.17,1.1.24,1.79v0a.34.34,0,0,1-.31.39.32.32,0,0,1-.17,0,3.42,3.42,0,0,1-1.62-1.45,7.16,7.16,0,0,1-.75-2,5.87,5.87,0,0,1-.07-2.13,6.27,6.27,0,0,1,.24-1,1.4,1.4,0,0,1,.21-.49,1.33,1.33,0,0,1,.83-.3.83.83,0,0,1,.56.15Z"/><path class="cls-41" d="M273.63,89.62a6,6,0,0,1-.58-2.45c-.05-.81-.06-1.62-.05-2.41,0-1.59.16-3.21.13-4.67-.15-3.15-.26-6.29-.32-9.44l-.51-18.87h0a1.14,1.14,0,0,1,1.11-1.18,1,1,0,0,1,.43.07,3,3,0,0,0,2.09-.14,4.5,4.5,0,0,0,1.83-1.47,5.12,5.12,0,0,0,.77-4.59,1.18,1.18,0,0,1,.64-1.51h0A7.25,7.25,0,0,0,283,38.56a7,7,0,0,0,.29-3,5.08,5.08,0,0,0-1-2.59,1.22,1.22,0,0,1,.05-1.6h0a22.11,22.11,0,0,0,5.75-13.5,18.91,18.91,0,0,0-.15-3.69,15.5,15.5,0,0,0-1-3.5,12.37,12.37,0,0,0-4.47-5.48,11.31,11.31,0,0,0-6.71-2A13.62,13.62,0,0,0,269,5.48a21.22,21.22,0,0,0-8.82,11.66h0a1.2,1.2,0,0,1-2.34-.17,2.76,2.76,0,0,0-1.89-2.21,4.39,4.39,0,0,0-3.35.33c-2.32,1.08-4.31,3.22-6.13,5.35a43.32,43.32,0,0,0-8,14.85,42.28,42.28,0,0,0-1.7,8.31A27.71,27.71,0,0,0,237,52a9,9,0,0,0,1.53,3.55,4,4,0,0,0,3,1.64,7,7,0,0,0,3.66-.88,11.93,11.93,0,0,0,3.17-2.45h0a.94.94,0,0,1,1.35,0,1,1,0,0,1,.24,1,14.87,14.87,0,0,0-.68,2.54,4.17,4.17,0,0,0,0,2.23,1.88,1.88,0,0,0,.6.73c.15.12.32.23.5.35a4,4,0,0,0,.46.24A3.81,3.81,0,0,0,253,61a8.92,8.92,0,0,0,4.31-2.61,37.25,37.25,0,0,0,3.47-4.23v0a.78.78,0,0,1,1.35.18c2.28,5.82,3.9,11.81,5.61,17.74a93.44,93.44,0,0,0,6.41,17.29Zm0,0a94.32,94.32,0,0,1-7-17.24c-1.89-5.89-3.58-11.84-5.94-17.49l1.36.16a37.28,37.28,0,0,1-3.55,4.5,10.74,10.74,0,0,1-5.11,3.18,5.6,5.6,0,0,1-3.28-.16,5.27,5.27,0,0,1-.79-.39c-.21-.14-.43-.28-.65-.45a3.81,3.81,0,0,1-1.15-1.42,4,4,0,0,1-.32-1.77,13.4,13.4,0,0,1,.16-1.52,16.91,16.91,0,0,1,.74-2.88l1.6,1A13.6,13.6,0,0,1,246.05,58a8.83,8.83,0,0,1-4.71,1.15,6,6,0,0,1-2.49-.7,6.23,6.23,0,0,1-2-1.66,11,11,0,0,1-2-4.36,21.32,21.32,0,0,1-.54-4.54,39.37,39.37,0,0,1,.14-4.48,44.25,44.25,0,0,1,1.75-8.77A45.59,45.59,0,0,1,244.65,19a36.71,36.71,0,0,1,3.08-3.3A15.14,15.14,0,0,1,251.58,13a8.31,8.31,0,0,1,2.45-.72,6.23,6.23,0,0,1,2.67.28A5.51,5.51,0,0,1,259,14.05a5.15,5.15,0,0,1,1.18,2.56l-2.35-.15a23.69,23.69,0,0,1,9.82-13.09,16.12,16.12,0,0,1,8-2.62,13.71,13.71,0,0,1,8.22,2.38,14.91,14.91,0,0,1,5.36,6.63,18,18,0,0,1,1.12,4.11,21.89,21.89,0,0,1,.14,4.2,24.42,24.42,0,0,1-6.49,15l.06-1.6a7.39,7.39,0,0,1,1.55,3.84,9.24,9.24,0,0,1-.41,4,10.15,10.15,0,0,1-1.95,3.43,8.68,8.68,0,0,1-3.25,2.39l.65-1.52a6.78,6.78,0,0,1,.29,3.6,7.79,7.79,0,0,1-1.38,3.23,6.69,6.69,0,0,1-2.81,2.22,5.16,5.16,0,0,1-3.78.15l1.55-1.11.21,9.46c.06,3.16.17,6.31.17,9.47s-.06,6.31-.14,9.47c-.1,1.69-.38,3.19-.57,4.75-.1.78-.19,1.55-.23,2.31a6.19,6.19,0,0,0,.16,2.18Z"/><path class="cls-37" d="M130.42,116.08c-2.22-2.42-2.4-9.36-3.14-12.11q-1.89-7-4-14c-2.25-7.62-4.47-15.26-7-22.93,3.3,1.37,7,1.15,9-.54s1.92-4.72,0-7.26c3.58-.37,6.23-2.43,6.75-5.23s-1.11-6.26-4.15-8.79c7.84-5.16,9.1-15.63,3-24.86S111.71,3.86,99.93,3.07,78.49,8.05,77,16.77c-1.66-3.47-6.86-6-11.16-6.15A17.43,17.43,0,0,0,55.24,14c-11.5,7.7-15.93,21.3-11.49,35.35,1.64,5.19,5.18,11.1,11.52,13.83,6,2.61,12.39,1.58,16.15-1.08a11.72,11.72,0,0,0-.3,4.44c.27,2.27,1.81,3.47,4.29,4.85a14.49,14.49,0,0,0,11.72.94c3.28-1.22,5.51-3.5,7.67-5.72C107.52,83,115.76,100.12,130.42,116.08Z"/><path class="cls-54" d="M129.33,46.56a4.21,4.21,0,0,1-1.58-.87,11.9,11.9,0,0,0-1.53-.84,15.45,15.45,0,0,0-3.32-1.12,38.75,38.75,0,0,0-7.21-.46.16.16,0,0,1,0-.31,17.43,17.43,0,0,1,7.48-.45,12.74,12.74,0,0,1,3.65,1.21,9.67,9.67,0,0,1,1.64,1,2.44,2.44,0,0,1,1.15,1.59.18.18,0,0,1-.16.21h-.08Z"/><path class="cls-55" d="M55.93,40c5.14,4,13.05,6,17.7,2.47,3.05-2.34,4.67-6.3,2.13-10.15-2.28-3.45-7.25-5.76-11.73-6.51-4.23-.71-10.31.07-12.08,2.82C49.5,32.37,51.84,36.78,55.93,40Z"/><path class="cls-56" d="M115,44c4.69.17,9.86,4,10.93,7.82s-1.68,7.1-6,7.78c-1.2.19-2.78.59-2.27,1.64.38.79,1.66,1.15,2.63,1.19a6.16,6.16,0,0,1,2.92.47,2.36,2.36,0,0,1,.75,3.41,7.13,7.13,0,0,1-1.16,1.43,5.74,5.74,0,0,0,2.57-1.21c1.93-1.68,1.92-4.72,0-7.26,3.58-.37,6.23-2.43,6.75-5.23s-1.11-6.26-4.15-8.79l.31-.22C123.67,43,118.4,42.32,115,44Z"/><path class="cls-39" d="M79.17,48.89A9.93,9.93,0,0,0,68,50.24c-2.45,2.27-3.77,5.36-6.79,7.17-3.19,1.91-8.2,2.05-12.85.47a18.57,18.57,0,0,0,6.93,5.25,17.27,17.27,0,0,0,15.5-.66c.06-.82.11-1.64.23-2.44A15,15,0,0,1,79.17,48.89Z"/><path class="cls-39" d="M118.66,27.39c-4.17,4.12-10,7-16.91,8.42-3.21.65-7,.9-10.52-.75.93,3.36,4.26,6.78,8.36,8.58a34.57,34.57,0,0,0,7.7,2.07l6.2,1.16c1.51.28,3.4.82,4,2,.76,1.59-1.61,2.2-3.48,2.35-9,.72-16.62,4.12-21.32,9.46-2.62,3-4.33,6.53-6.88,9.57a18.12,18.12,0,0,1-3,2.83,13.32,13.32,0,0,0,4.31-.8c3.28-1.22,5.51-3.5,7.67-5.72,12.72,16.45,21,33.56,35.62,49.52-2.22-2.42-2.4-9.36-3.14-12.11q-1.89-7-4-14c-2.25-7.62-4.47-15.26-7-22.93a10.87,10.87,0,0,0,6.4.67,7.13,7.13,0,0,0,1.16-1.43,2.36,2.36,0,0,0-.75-3.41,6.16,6.16,0,0,0-2.92-.47c-1,0-2.25-.4-2.63-1.19-.51-1,1.07-1.45,2.27-1.64,4.32-.68,7.08-4,6-7.78S119.64,44.15,115,44c3.45-1.66,8.72-1,13.24,1,7.55-5.23,8.7-15.54,2.67-24.64a34.35,34.35,0,0,0-7.17-7.65,9.76,9.76,0,0,1,.35,1.49C124.81,19.07,121.88,24.21,118.66,27.39Z"/><path class="cls-56" d="M70.42,62.83a3.29,3.29,0,0,1-.9-2.06,3.55,3.55,0,0,1,.06-1c.06-.34.11-.68.2-1a16.43,16.43,0,0,1,1.37-3.86,19.8,19.8,0,0,1,5-6.25,26.1,26.1,0,0,1,3.2-2.35,8.86,8.86,0,0,1,4.2-1.41,7.16,7.16,0,0,1,1.14,0,7.09,7.09,0,0,1,1.15.22,7.87,7.87,0,0,1,2,1,6.42,6.42,0,0,1,1.58,1.5,3.06,3.06,0,0,1,.66,2.2.47.47,0,0,1-.53.4.45.45,0,0,1-.37-.28l0-.1a3.8,3.8,0,0,0-2.35-1.71,6.29,6.29,0,0,0-1.49-.31,5.3,5.3,0,0,0-.69,0,4.2,4.2,0,0,0-.71.11,6.57,6.57,0,0,0-2.63,1.26,26.87,26.87,0,0,0-6.76,7.52,15.63,15.63,0,0,0-1.37,3c-.2.51-.28,1.06-.52,1.58a4.44,4.44,0,0,1-1.26,1.62l0,0A.67.67,0,0,1,70.42,62.83Z"/><path class="cls-56" d="M77.85,16.6a3.16,3.16,0,0,1,1,.7c.16.18.1.35.17.53a10.17,10.17,0,0,0,.3,1c.23.69.47,1.4.76,2.13a21.12,21.12,0,0,0,1.06,2.21,17,17,0,0,1,1.09,2.57v0a.55.55,0,0,1-.36.69.53.53,0,0,1-.25,0,6.06,6.06,0,0,1-2.82-1.37,11.23,11.23,0,0,1-2-2.4,7.88,7.88,0,0,1-1.16-3.06,6.88,6.88,0,0,1-.07-1.7,1.88,1.88,0,0,1,.18-.86,1.74,1.74,0,0,1,1.17-.68,1.23,1.23,0,0,1,.85.11Z"/><path class="cls-41" d="M130.07,116.4a8.16,8.16,0,0,1-1.76-3,24.35,24.35,0,0,1-.93-3.17c-.52-2.09-.77-4.3-1.35-6.13q-2-6.08-3.82-12.18l-7.5-24.38a1.75,1.75,0,0,1,1.15-2.18,1.77,1.77,0,0,1,1.16,0,10,10,0,0,0,3.6.75,6,6,0,0,0,3.2-.76,2.47,2.47,0,0,0,1.18-2.2,4.93,4.93,0,0,0-1.12-2.93,1.76,1.76,0,0,1,1.2-2.83h0a7.18,7.18,0,0,0,3.57-1.33,4,4,0,0,0,1.64-2.81,6.32,6.32,0,0,0-.92-3.57,11.26,11.26,0,0,0-2.67-3.15,1.82,1.82,0,0,1-.22-2.57,1.8,1.8,0,0,1,.39-.34,13.33,13.33,0,0,0,5.66-8.29,17.37,17.37,0,0,0-1.26-10.33,23.11,23.11,0,0,0-2.72-4.68c-.51-.76-1.15-1.43-1.72-2.14s-1.25-1.37-1.95-2a41.28,41.28,0,0,0-9.1-6.47,43.8,43.8,0,0,0-10.45-4A35.18,35.18,0,0,0,99.88,5a29.47,29.47,0,0,0-5.48.13,21.85,21.85,0,0,0-10,3.63,13.2,13.2,0,0,0-5.54,8.33,1.84,1.84,0,0,1-3.48.48,8.57,8.57,0,0,0-3.67-3.42,14.71,14.71,0,0,0-5.25-1.66,15.48,15.48,0,0,0-10.52,3.19,28.2,28.2,0,0,0-8.09,8.41,27.16,27.16,0,0,0-3.82,11,31.43,31.43,0,0,0,.83,11.77A24.33,24.33,0,0,0,50,57.27a16.66,16.66,0,0,0,9.73,5.56,14.93,14.93,0,0,0,10.84-2l0,0a1.49,1.49,0,0,1,2.27,1.63A10.14,10.14,0,0,0,72.54,66a3.4,3.4,0,0,0,1.31,2.59,10.89,10.89,0,0,0,1.49,1.05,17.21,17.21,0,0,0,1.67.9,12.79,12.79,0,0,0,3.56,1,12.59,12.59,0,0,0,7.25-1.06,22.13,22.13,0,0,0,6.07-4.84h0a1.26,1.26,0,0,1,1.77,0,.81.81,0,0,1,.12.14c6.2,8.18,11.55,16.89,17,25.43a187.32,187.32,0,0,0,18,24.54Zm0,0a189.12,189.12,0,0,1-18.82-24.14c-5.7-8.45-11.18-17-17.45-24.93l1.9.1A24.87,24.87,0,0,1,89,72.93a15.11,15.11,0,0,1-8.81,1.42,15.55,15.55,0,0,1-4.36-1.21,18.18,18.18,0,0,1-2-1A13.68,13.68,0,0,1,72,70.8a6.77,6.77,0,0,1-1.66-2,6.47,6.47,0,0,1-.7-2.52A12.87,12.87,0,0,1,70,61.66l2.3,1.61c-7.86,5.28-18.82,3-24.75-3.83a27.11,27.11,0,0,1-6-11.72,35,35,0,0,1-1-13,30.62,30.62,0,0,1,4.25-12.44,31.78,31.78,0,0,1,9-9.53,22.31,22.31,0,0,1,6-3.08,17.08,17.08,0,0,1,6.9-.77,18.25,18.25,0,0,1,6.62,2,12.06,12.06,0,0,1,5.26,5l-3.49.49a15.8,15.8,0,0,1,2.47-6.11A18.72,18.72,0,0,1,82.19,5.7,25.7,25.7,0,0,1,93.93,1.34a33.18,33.18,0,0,1,6.22-.18,39.85,39.85,0,0,1,6.08.94,47,47,0,0,1,21.29,11.45c.77.68,1.44,1.47,2.16,2.21s1.35,1.56,1.93,2.43a26.38,26.38,0,0,1,3.12,5.44,21,21,0,0,1,1.42,12.58,17,17,0,0,1-2.6,6,17.57,17.57,0,0,1-4.67,4.55l.17-2.91a15.31,15.31,0,0,1,3.5,4.19,10,10,0,0,1,1.33,5.66,7.65,7.65,0,0,1-3,5.31,10.72,10.72,0,0,1-5.36,2l1.22-2.83a8.44,8.44,0,0,1,1.82,5.11,6.36,6.36,0,0,1-.72,2.91,6,6,0,0,1-2.08,2.2,9.37,9.37,0,0,1-5.14,1.29,13.29,13.29,0,0,1-4.88-1l2.3-2.12,3.7,12.26c1.23,4.09,2.48,8.17,3.61,12.29s2.14,8.28,3.14,12.43a25.49,25.49,0,0,1,.46,3.31l.31,3.16a30.94,30.94,0,0,0,.48,3.06,7.93,7.93,0,0,0,1.08,2.73Z"/><path class="cls-57" d="M150.59,30.52a11.61,11.61,0,0,1-.59-2.17,47.74,47.74,0,0,0,.42,6.68l.59,0a12.48,12.48,0,0,0,2.52-.19A12.67,12.67,0,0,1,150.59,30.52Z"/><path class="cls-37" d="M149.92,23.59a14.53,14.53,0,0,0,.67,6.93,15,15,0,0,0,6.27,7,24.5,24.5,0,0,0,21.83,1.93c4.79-1.94,9.31-6.38,8.67-11.51a24.92,24.92,0,0,0,9.17-5.53,12.1,12.1,0,0,0,3.65-9.75c-.66-5-6.25-10.09-11.08-11a13.77,13.77,0,0,0-8.78,1.61c-1.53.81-3.12,2.26-2.76,4C165.82.94,151.29,11.78,149.92,23.59Z"/><path class="cls-56" d="M177.54,6.48a2.17,2.17,0,0,0,0,.76,15.48,15.48,0,0,0-8.41-1.81C159.79,6,151,14.52,149.92,23.59a16.5,16.5,0,0,0,.08,4.76c.09-3.57.87-7,3.29-9.52,2.17-2.27,5.53-3.63,6.57-6.6a9.34,9.34,0,0,1,.67-1.88c.74-1.21,2.33-1.54,3.74-1.66a28.67,28.67,0,0,1,7.28.31,29.44,29.44,0,0,1,11.09,4.29A18.61,18.61,0,0,0,177.54,6.48Z"/><path class="cls-56" d="M200.18,12.66a10.53,10.53,0,0,0-1.67-4.23c-.19.65-.41,1.29-.64,1.91-3.55,9.35-10.56,15.11-19.05,19.73a2.35,2.35,0,0,0,2.45.75,5.14,5.14,0,0,1,2.69-.09c1.21.48,1.62,2,1.62,3.3a1.28,1.28,0,0,1,0,.19,8.84,8.84,0,0,0,1.79-6.28,24.92,24.92,0,0,0,9.17-5.53A12.1,12.1,0,0,0,200.18,12.66Z"/><path class="cls-55" d="M173,12.06A31.25,31.25,0,0,0,171.55,9a28.67,28.67,0,0,0-7.28-.31c-1.41.12-3,.45-3.74,1.66a9.34,9.34,0,0,0-.67,1.88c-1,3-4.4,4.33-6.57,6.6-2.42,2.53-3.2,6-3.29,9.52a11.61,11.61,0,0,0,.59,2.17,12.67,12.67,0,0,0,2.94,4.37,61.39,61.39,0,0,0,6.57-1.78c3-.83,6.42-1.21,9.06.43a2.58,2.58,0,0,0,1,.46,2,2,0,0,0,1.61-.87,15.09,15.09,0,0,0,3.53-8.71c.05-.52.08-1,.08-1.56A28.86,28.86,0,0,0,173,12.06Z"/><path class="cls-39" d="M184,30.73a5.14,5.14,0,0,0-2.69.09,2.35,2.35,0,0,1-2.45-.75c8.49-4.62,15.5-10.38,19.05-19.73.23-.62.45-1.26.64-1.91a16.42,16.42,0,0,0-3.44-3.78,19.9,19.9,0,0,1-1.5,9.8c-2.19,4.63-6.84,7.77-11.79,9.09a28.67,28.67,0,0,1-6.52.88,15.09,15.09,0,0,1-3.53,8.71,2,2,0,0,1-1.61.87,2.58,2.58,0,0,1-1-.46c-2.64-1.64-6.06-1.26-9.06-.43a61.39,61.39,0,0,1-6.57,1.78,18.81,18.81,0,0,0,3.33,2.63,24.5,24.5,0,0,0,21.83,1.93,16,16,0,0,0,6.88-5.23,1.28,1.28,0,0,0,0-.19C185.58,32.72,185.17,31.21,184,30.73Z"/><path class="cls-41" d="M150.06,23.61a13.35,13.35,0,0,0,.73,6.64,12.18,12.18,0,0,0,4.16,5,25.06,25.06,0,0,0,12.17,4.37,29,29,0,0,0,3.23.14,31.73,31.73,0,0,0,3.23-.27,22.87,22.87,0,0,0,6.21-1.75,14.52,14.52,0,0,0,5.13-3.85,8.1,8.1,0,0,0,2-5.94h0a.48.48,0,0,1,.31-.5A27.77,27.77,0,0,0,193,24.68a15.41,15.41,0,0,0,4.49-4.39,11.24,11.24,0,0,0,1.87-5.74,8.91,8.91,0,0,0-1.81-5.46A16.21,16.21,0,0,0,193.19,5,10.82,10.82,0,0,0,187.82,3a12.23,12.23,0,0,0-5.63,1.14c-.44.2-.92.43-1.31.64a6.2,6.2,0,0,0-1,.75,2.74,2.74,0,0,0-.63.79.86.86,0,0,0-.09.56l0,.17a1.59,1.59,0,0,1-2.35,1.58,14.59,14.59,0,0,0-8.09-1.72,20.5,20.5,0,0,0-8.25,2.53,22.1,22.1,0,0,0-6.84,5.8A17.35,17.35,0,0,0,150.06,23.61Zm-.29,0a21.83,21.83,0,0,1,3.15-8.79,24.94,24.94,0,0,1,6.43-7A19.16,19.16,0,0,1,168.42,4a16.93,16.93,0,0,1,9.89,1.81L176,7.57A4.21,4.21,0,0,1,176.33,5a5.73,5.73,0,0,1,1.36-1.76A8.46,8.46,0,0,1,179.31,2a14.34,14.34,0,0,1,1.63-.79A15.25,15.25,0,0,1,188,.05a12.54,12.54,0,0,1,3.58.89,16,16,0,0,1,3.11,1.75,17.18,17.18,0,0,1,4.79,5.11,10.73,10.73,0,0,1,1.64,6.88A13.12,13.12,0,0,1,198.5,21a18.18,18.18,0,0,1-5,4.45,37.64,37.64,0,0,1-5.95,2.91l.31-.51a9.36,9.36,0,0,1-.27,3.61A11.6,11.6,0,0,1,186,34.75a16.48,16.48,0,0,1-5.27,4.87,22.78,22.78,0,0,1-26.68-3.3,14.55,14.55,0,0,1-3.82-5.88A16.31,16.31,0,0,1,149.77,23.57Z"/><path class="cls-37" d="M308.74,54.82a3.29,3.29,0,0,0-1.28,3.28c.46,1.66,2.4,2.35,4.07,2.79,4.21,1.1,8.79,2.18,12.78.47,6.09-2.6.09-6.7-3.33-7.92S311.65,52.47,308.74,54.82Z"/><path class="cls-41" d="M308.8,54.89a3,3,0,0,0-1.16,2.44,2.3,2.3,0,0,0,1.46,1.91,13.07,13.07,0,0,0,2.57.77c.94.22,1.88.48,2.8.75a20.15,20.15,0,0,0,5.62,1.15,8.1,8.1,0,0,0,5.24-1.74,2.45,2.45,0,0,0,.73-.92,1.55,1.55,0,0,1,.08-.23c0-.08,0-.16,0-.23a1,1,0,0,0-.08-.45,4.39,4.39,0,0,0-1.5-1.8,15,15,0,0,0-4.82-2.35,26.43,26.43,0,0,0-5.49-.69A8.43,8.43,0,0,0,308.8,54.89Zm-.12-.15a14.31,14.31,0,0,1,11.59-2.62,13.36,13.36,0,0,1,5.51,3A5.33,5.33,0,0,1,327.64,58a2.41,2.41,0,0,1,0,1,2.14,2.14,0,0,1-.38.92A3.56,3.56,0,0,1,326,61.06a10.06,10.06,0,0,1-2.89,1.08,17.56,17.56,0,0,1-3,.42,27.35,27.35,0,0,1-6-.18,23.29,23.29,0,0,1-2.89-.66,7.93,7.93,0,0,1-2.84-1.43,4,4,0,0,1-1-1.35,3.08,3.08,0,0,1-.23-1.63A4.23,4.23,0,0,1,308.68,54.74Z"/><path class="cls-39" d="M321,53.44a14.22,14.22,0,0,0-4.45-.71q2.4.92,4.73,2a4.79,4.79,0,0,1,1.67,1.11,1.67,1.67,0,0,1,.25,1.88,2.22,2.22,0,0,1-1.2.79,14.72,14.72,0,0,1-13-1.56,12.49,12.49,0,0,1-1.23-.94,2.91,2.91,0,0,0-.3,2.1c.46,1.66,2.4,2.35,4.07,2.79,4.21,1.1,8.79,2.18,12.78.47C330.4,58.76,324.4,54.66,321,53.44Z"/><path class="cls-37" d="M26.17,100.36c-2.6,2.09-4.32,5.6-3.43,8.82,1.23,4.49,6.45,6.34,11,7.52,11.32,3,23.64,5.86,34.4,1.26,16.38-7,.21-18-9-21.3S34,94,26.17,100.36Z"/><path class="cls-41" d="M26.34,100.56a8,8,0,0,0-3.14,6.57,5.37,5.37,0,0,0,1.27,3.14,7.93,7.93,0,0,0,2.68,2,35.41,35.41,0,0,0,6.92,2.07c2.54.58,5.06,1.28,7.53,2,4.94,1.46,9.94,3.14,15.12,3.13a24.53,24.53,0,0,0,7.58-1.15,19.7,19.7,0,0,0,6.57-3.52,7.12,7.12,0,0,0,1.95-2.5,3.25,3.25,0,0,0,0-2.43c-.56-1.65-2.22-3.41-4.08-4.84a37.23,37.23,0,0,0-6.23-3.79c-1.12-.52-2.23-1-3.36-1.46-.56-.21-1.11-.43-1.67-.59s-1.12-.36-1.71-.5a46.94,46.94,0,0,0-7.22-1.29c-2.48-.28-5-.49-7.54-.56a33.63,33.63,0,0,0-7.68.58A17,17,0,0,0,26.34,100.56Zm-.34-.41A32,32,0,0,1,32.9,96a46.87,46.87,0,0,1,7.72-2.76,33.83,33.83,0,0,1,8.21-1.1,37.33,37.33,0,0,1,8.37.92,20.36,20.36,0,0,1,2.09.58,19.73,19.73,0,0,1,2,.73,33.45,33.45,0,0,1,3.81,1.84,37.26,37.26,0,0,1,6.92,4.89,21.45,21.45,0,0,1,3,3.28,10.93,10.93,0,0,1,2,4.46,7.76,7.76,0,0,1,0,2.72,7.28,7.28,0,0,1-1,2.47,10.31,10.31,0,0,1-3.47,3.13,29.39,29.39,0,0,1-7.78,2.86,50.54,50.54,0,0,1-8,1.14,74.55,74.55,0,0,1-16.15-.48,59.86,59.86,0,0,1-7.79-1.78,20.89,20.89,0,0,1-7.62-3.85,10.49,10.49,0,0,1-2.78-3.63,8.09,8.09,0,0,1-.61-4.39A11.34,11.34,0,0,1,26,100.15Z"/><path class="cls-39" d="M59.12,96.66a38.66,38.66,0,0,0-12-1.93c4.3,1.65,8.56,3.42,12.73,5.37a12.46,12.46,0,0,1,4.49,3,4.45,4.45,0,0,1,.69,5,6.1,6.1,0,0,1-3.25,2.15,39.67,39.67,0,0,1-35-4.22,34.42,34.42,0,0,1-3.28-2.52,7.61,7.61,0,0,0-.81,5.64c1.23,4.49,6.45,6.34,11,7.52,11.32,3,23.64,5.86,34.4,1.26C84.47,111,68.3,99.93,59.12,96.66Z"/></g></g></svg>