<svg id="visual" viewBox="0 0 900 600" width="900" height="600" xmlns="http://www.w3.org/2000/svg" xmlns:xlink="http://www.w3.org/1999/xlink" version="1.1"><rect x="0" y="0" width="900" height="600" fill="#001220"></rect><defs><linearGradient id="grad1_0" x1="33.3%" y1="100%" x2="100%" y2="0%"><stop offset="20%" stop-color="#00b0d7" stop-opacity="1"></stop><stop offset="80%" stop-color="#00b0d7" stop-opacity="1"></stop></linearGradient></defs><defs><linearGradient id="grad1_1" x1="33.3%" y1="100%" x2="100%" y2="0%"><stop offset="20%" stop-color="#00b0d7" stop-opacity="1"></stop><stop offset="80%" stop-color="#0e96bc" stop-opacity="1"></stop></linearGradient></defs><defs><linearGradient id="grad1_2" x1="33.3%" y1="100%" x2="100%" y2="0%"><stop offset="20%" stop-color="#147da1" stop-opacity="1"></stop><stop offset="80%" stop-color="#0e96bc" stop-opacity="1"></stop></linearGradient></defs><defs><linearGradient id="grad1_3" x1="33.3%" y1="100%" x2="100%" y2="0%"><stop offset="20%" stop-color="#147da1" stop-opacity="1"></stop><stop offset="80%" stop-color="#156686" stop-opacity="1"></stop></linearGradient></defs><defs><linearGradient id="grad1_4" x1="33.3%" y1="100%" x2="100%" y2="0%"><stop offset="20%" stop-color="#134f6b" stop-opacity="1"></stop><stop offset="80%" stop-color="#156686" stop-opacity="1"></stop></linearGradient></defs><defs><linearGradient id="grad1_5" x1="33.3%" y1="100%" x2="100%" y2="0%"><stop offset="20%" stop-color="#134f6b" stop-opacity="1"></stop><stop offset="80%" stop-color="#0f3951" stop-opacity="1"></stop></linearGradient></defs><defs><linearGradient id="grad1_6" x1="33.3%" y1="100%" x2="100%" y2="0%"><stop offset="20%" stop-color="#092538" stop-opacity="1"></stop><stop offset="80%" stop-color="#0f3951" stop-opacity="1"></stop></linearGradient></defs><defs><linearGradient id="grad1_7" x1="33.3%" y1="100%" x2="100%" y2="0%"><stop offset="20%" stop-color="#092538" stop-opacity="1"></stop><stop offset="80%" stop-color="#001220" stop-opacity="1"></stop></linearGradient></defs><defs><linearGradient id="grad2_0" x1="0%" y1="100%" x2="66.7%" y2="0%"><stop offset="20%" stop-color="#00b0d7" stop-opacity="1"></stop><stop offset="80%" stop-color="#00b0d7" stop-opacity="1"></stop></linearGradient></defs><defs><linearGradient id="grad2_1" x1="0%" y1="100%" x2="66.7%" y2="0%"><stop offset="20%" stop-color="#0e96bc" stop-opacity="1"></stop><stop offset="80%" stop-color="#00b0d7" stop-opacity="1"></stop></linearGradient></defs><defs><linearGradient id="grad2_2" x1="0%" y1="100%" x2="66.7%" y2="0%"><stop offset="20%" stop-color="#0e96bc" stop-opacity="1"></stop><stop offset="80%" stop-color="#147da1" stop-opacity="1"></stop></linearGradient></defs><defs><linearGradient id="grad2_3" x1="0%" y1="100%" x2="66.7%" y2="0%"><stop offset="20%" stop-color="#156686" stop-opacity="1"></stop><stop offset="80%" stop-color="#147da1" stop-opacity="1"></stop></linearGradient></defs><defs><linearGradient id="grad2_4" x1="0%" y1="100%" x2="66.7%" y2="0%"><stop offset="20%" stop-color="#156686" stop-opacity="1"></stop><stop offset="80%" stop-color="#134f6b" stop-opacity="1"></stop></linearGradient></defs><defs><linearGradient id="grad2_5" x1="0%" y1="100%" x2="66.7%" y2="0%"><stop offset="20%" stop-color="#0f3951" stop-opacity="1"></stop><stop offset="80%" stop-color="#134f6b" stop-opacity="1"></stop></linearGradient></defs><defs><linearGradient id="grad2_6" x1="0%" y1="100%" x2="66.7%" y2="0%"><stop offset="20%" stop-color="#0f3951" stop-opacity="1"></stop><stop offset="80%" stop-color="#092538" stop-opacity="1"></stop></linearGradient></defs><defs><linearGradient id="grad2_7" x1="0%" y1="100%" x2="66.7%" y2="0%"><stop offset="20%" stop-color="#001220" stop-opacity="1"></stop><stop offset="80%" stop-color="#092538" stop-opacity="1"></stop></linearGradient></defs><g transform="translate(900, 600)"><path d="M-486.7 0C-474.5 -86 -462.3 -172 -421.5 -243.4C-380.8 -314.8 -311.5 -371.5 -236.5 -409.6C-161.5 -447.8 -80.7 -467.3 0 -486.7L0 0Z" fill="#061c2c"></path><path d="M-425.9 0C-415.2 -75.2 -404.5 -150.5 -368.8 -213C-333.2 -275.4 -272.6 -325.1 -206.9 -358.4C-141.3 -391.8 -70.7 -408.8 0 -425.9L0 0Z" fill="#0c2f44"></path><path d="M-365.1 0C-355.9 -64.5 -346.7 -129 -316.2 -182.5C-285.6 -236.1 -233.6 -278.6 -177.4 -307.2C-121.1 -335.8 -60.6 -350.4 0 -365.1L0 0Z" fill="#11445e"></path><path d="M-304.2 0C-296.6 -53.7 -288.9 -107.5 -263.5 -152.1C-238 -196.7 -194.7 -232.2 -147.8 -256C-100.9 -279.8 -50.5 -292 0 -304.2L0 0Z" fill="#145a78"></path><path d="M-243.4 0C-237.3 -43 -231.1 -86 -210.8 -121.7C-190.4 -157.4 -155.8 -185.8 -118.3 -204.8C-80.7 -223.9 -40.4 -233.6 0 -243.4L0 0Z" fill="#157193"></path><path d="M-182.5 0C-177.9 -32.2 -173.4 -64.5 -158.1 -91.3C-142.8 -118 -116.8 -139.3 -88.7 -153.6C-60.6 -167.9 -30.3 -175.2 0 -182.5L0 0Z" fill="#128aae"></path><path d="M-121.7 0C-118.6 -21.5 -115.6 -43 -105.4 -60.8C-95.2 -78.7 -77.9 -92.9 -59.1 -102.4C-40.4 -111.9 -20.2 -116.8 0 -121.7L0 0Z" fill="#08a3ca"></path><path d="M-60.8 0C-59.3 -10.7 -57.8 -21.5 -52.7 -30.4C-47.6 -39.3 -38.9 -46.4 -29.6 -51.2C-20.2 -56 -10.1 -58.4 0 -60.8L0 0Z" fill="#00b0d7"></path></g><g transform="translate(0, 0)"><path d="M486.7 0C438.6 64.2 390.5 128.4 355.9 205.5C321.4 282.6 300.4 372.5 243.4 421.5C186.3 470.6 93.2 478.7 0 486.7L0 0Z" fill="#061c2c"></path><path d="M425.9 0C383.8 56.2 341.7 112.4 311.4 179.8C281.2 247.3 262.9 326 213 368.8C163 411.7 81.5 418.8 0 425.9L0 0Z" fill="#0c2f44"></path><path d="M365.1 0C329 48.2 292.9 96.3 267 154.1C241 211.9 225.3 279.4 182.5 316.2C139.7 352.9 69.9 359 0 365.1L0 0Z" fill="#11445e"></path><path d="M304.2 0C274.1 40.1 244.1 80.3 222.5 128.4C200.9 176.6 187.8 232.8 152.1 263.5C116.4 294.1 58.2 299.2 0 304.2L0 0Z" fill="#145a78"></path><path d="M243.4 0C219.3 32.1 195.2 64.2 178 102.7C160.7 141.3 150.2 186.3 121.7 210.8C93.2 235.3 46.6 239.3 0 243.4L0 0Z" fill="#157193"></path><path d="M182.5 0C164.5 24.1 146.4 48.2 133.5 77.1C120.5 106 112.7 139.7 91.3 158.1C69.9 176.5 34.9 179.5 0 182.5L0 0Z" fill="#128aae"></path><path d="M121.7 0C109.7 16.1 97.6 32.1 89 51.4C80.3 70.6 75.1 93.1 60.8 105.4C46.6 117.6 23.3 119.7 0 121.7L0 0Z" fill="#08a3ca"></path><path d="M60.8 0C54.8 8 48.8 16.1 44.5 25.7C40.2 35.3 37.6 46.6 30.4 52.7C23.3 58.8 11.6 59.8 0 60.8L0 0Z" fill="#00b0d7"></path></g></svg>