<svg id="visual" viewBox="0 0 900 600" width="900" height="600" xmlns="http://www.w3.org/2000/svg" xmlns:xlink="http://www.w3.org/1999/xlink" version="1.1"><rect x="0" y="0" width="900" height="600" fill="#001220"></rect><defs><linearGradient id="grad1_0" x1="33.3%" y1="0%" x2="100%" y2="100%"><stop offset="20%" stop-color="#00b0d7" stop-opacity="1"></stop><stop offset="80%" stop-color="#00b0d7" stop-opacity="1"></stop></linearGradient></defs><defs><linearGradient id="grad1_1" x1="33.3%" y1="0%" x2="100%" y2="100%"><stop offset="20%" stop-color="#00b0d7" stop-opacity="1"></stop><stop offset="80%" stop-color="#0e96bc" stop-opacity="1"></stop></linearGradient></defs><defs><linearGradient id="grad1_2" x1="33.3%" y1="0%" x2="100%" y2="100%"><stop offset="20%" stop-color="#147da1" stop-opacity="1"></stop><stop offset="80%" stop-color="#0e96bc" stop-opacity="1"></stop></linearGradient></defs><defs><linearGradient id="grad1_3" x1="33.3%" y1="0%" x2="100%" y2="100%"><stop offset="20%" stop-color="#147da1" stop-opacity="1"></stop><stop offset="80%" stop-color="#156686" stop-opacity="1"></stop></linearGradient></defs><defs><linearGradient id="grad1_4" x1="33.3%" y1="0%" x2="100%" y2="100%"><stop offset="20%" stop-color="#134f6b" stop-opacity="1"></stop><stop offset="80%" stop-color="#156686" stop-opacity="1"></stop></linearGradient></defs><defs><linearGradient id="grad1_5" x1="33.3%" y1="0%" x2="100%" y2="100%"><stop offset="20%" stop-color="#134f6b" stop-opacity="1"></stop><stop offset="80%" stop-color="#0f3951" stop-opacity="1"></stop></linearGradient></defs><defs><linearGradient id="grad1_6" x1="33.3%" y1="0%" x2="100%" y2="100%"><stop offset="20%" stop-color="#092538" stop-opacity="1"></stop><stop offset="80%" stop-color="#0f3951" stop-opacity="1"></stop></linearGradient></defs><defs><linearGradient id="grad1_7" x1="33.3%" y1="0%" x2="100%" y2="100%"><stop offset="20%" stop-color="#092538" stop-opacity="1"></stop><stop offset="80%" stop-color="#001220" stop-opacity="1"></stop></linearGradient></defs><defs><linearGradient id="grad2_0" x1="0%" y1="0%" x2="66.7%" y2="100%"><stop offset="20%" stop-color="#00b0d7" stop-opacity="1"></stop><stop offset="80%" stop-color="#00b0d7" stop-opacity="1"></stop></linearGradient></defs><defs><linearGradient id="grad2_1" x1="0%" y1="0%" x2="66.7%" y2="100%"><stop offset="20%" stop-color="#0e96bc" stop-opacity="1"></stop><stop offset="80%" stop-color="#00b0d7" stop-opacity="1"></stop></linearGradient></defs><defs><linearGradient id="grad2_2" x1="0%" y1="0%" x2="66.7%" y2="100%"><stop offset="20%" stop-color="#0e96bc" stop-opacity="1"></stop><stop offset="80%" stop-color="#147da1" stop-opacity="1"></stop></linearGradient></defs><defs><linearGradient id="grad2_3" x1="0%" y1="0%" x2="66.7%" y2="100%"><stop offset="20%" stop-color="#156686" stop-opacity="1"></stop><stop offset="80%" stop-color="#147da1" stop-opacity="1"></stop></linearGradient></defs><defs><linearGradient id="grad2_4" x1="0%" y1="0%" x2="66.7%" y2="100%"><stop offset="20%" stop-color="#156686" stop-opacity="1"></stop><stop offset="80%" stop-color="#134f6b" stop-opacity="1"></stop></linearGradient></defs><defs><linearGradient id="grad2_5" x1="0%" y1="0%" x2="66.7%" y2="100%"><stop offset="20%" stop-color="#0f3951" stop-opacity="1"></stop><stop offset="80%" stop-color="#134f6b" stop-opacity="1"></stop></linearGradient></defs><defs><linearGradient id="grad2_6" x1="0%" y1="0%" x2="66.7%" y2="100%"><stop offset="20%" stop-color="#0f3951" stop-opacity="1"></stop><stop offset="80%" stop-color="#092538" stop-opacity="1"></stop></linearGradient></defs><defs><linearGradient id="grad2_7" x1="0%" y1="0%" x2="66.7%" y2="100%"><stop offset="20%" stop-color="#001220" stop-opacity="1"></stop><stop offset="80%" stop-color="#092538" stop-opacity="1"></stop></linearGradient></defs><g transform="translate(900, 0)"><path d="M0 486.7C-86 474.5 -172 462.3 -243.4 421.5C-314.8 380.8 -371.5 311.5 -409.6 236.5C-447.8 161.5 -467.3 80.7 -486.7 0L0 0Z" fill="#061c2c"></path><path d="M0 425.9C-75.2 415.2 -150.5 404.5 -213 368.8C-275.4 333.2 -325.1 272.6 -358.4 206.9C-391.8 141.3 -408.8 70.7 -425.9 0L0 0Z" fill="#0c2f44"></path><path d="M0 365.1C-64.5 355.9 -129 346.7 -182.5 316.2C-236.1 285.6 -278.6 233.6 -307.2 177.4C-335.8 121.1 -350.4 60.6 -365.1 0L0 0Z" fill="#11445e"></path><path d="M0 304.2C-53.7 296.6 -107.5 288.9 -152.1 263.5C-196.7 238 -232.2 194.7 -256 147.8C-279.8 100.9 -292 50.5 -304.2 0L0 0Z" fill="#145a78"></path><path d="M0 243.4C-43 237.3 -86 231.1 -121.7 210.8C-157.4 190.4 -185.8 155.8 -204.8 118.3C-223.9 80.7 -233.6 40.4 -243.4 0L0 0Z" fill="#157193"></path><path d="M0 182.5C-32.2 177.9 -64.5 173.4 -91.3 158.1C-118 142.8 -139.3 116.8 -153.6 88.7C-167.9 60.6 -175.2 30.3 -182.5 0L0 0Z" fill="#128aae"></path><path d="M0 121.7C-21.5 118.6 -43 115.6 -60.8 105.4C-78.7 95.2 -92.9 77.9 -102.4 59.1C-111.9 40.4 -116.8 20.2 -121.7 0L0 0Z" fill="#08a3ca"></path><path d="M0 60.8C-10.7 59.3 -21.5 57.8 -30.4 52.7C-39.3 47.6 -46.4 38.9 -51.2 29.6C-56 20.2 -58.4 10.1 -60.8 0L0 0Z" fill="#00b0d7"></path></g><g transform="translate(0, 600)"><path d="M0 -486.7C64.2 -438.6 128.4 -390.5 205.5 -355.9C282.6 -321.4 372.5 -300.4 421.5 -243.4C470.6 -186.3 478.7 -93.2 486.7 0L0 0Z" fill="#061c2c"></path><path d="M0 -425.9C56.2 -383.8 112.4 -341.7 179.8 -311.4C247.3 -281.2 326 -262.9 368.8 -213C411.7 -163 418.8 -81.5 425.9 0L0 0Z" fill="#0c2f44"></path><path d="M0 -365.1C48.2 -329 96.3 -292.9 154.1 -267C211.9 -241 279.4 -225.3 316.2 -182.5C352.9 -139.7 359 -69.9 365.1 0L0 0Z" fill="#11445e"></path><path d="M0 -304.2C40.1 -274.1 80.3 -244.1 128.4 -222.5C176.6 -200.9 232.8 -187.8 263.5 -152.1C294.1 -116.4 299.2 -58.2 304.2 0L0 0Z" fill="#145a78"></path><path d="M0 -243.4C32.1 -219.3 64.2 -195.2 102.7 -178C141.3 -160.7 186.3 -150.2 210.8 -121.7C235.3 -93.2 239.3 -46.6 243.4 0L0 0Z" fill="#157193"></path><path d="M0 -182.5C24.1 -164.5 48.2 -146.4 77.1 -133.5C106 -120.5 139.7 -112.7 158.1 -91.3C176.5 -69.9 179.5 -34.9 182.5 0L0 0Z" fill="#128aae"></path><path d="M0 -121.7C16.1 -109.7 32.1 -97.6 51.4 -89C70.6 -80.3 93.1 -75.1 105.4 -60.8C117.6 -46.6 119.7 -23.3 121.7 0L0 0Z" fill="#08a3ca"></path><path d="M0 -60.8C8 -54.8 16.1 -48.8 25.7 -44.5C35.3 -40.2 46.6 -37.6 52.7 -30.4C58.8 -23.3 59.8 -11.6 60.8 0L0 0Z" fill="#00b0d7"></path></g></svg>