<?xml version="1.0" encoding="utf-8"?>
<!-- Generator: Adobe Illustrator 25.4.0, SVG Export Plug-In . SVG Version: 6.00 Build 0)  -->
<svg version="1.1" id="Layer_1" xmlns="http://www.w3.org/2000/svg" xmlns:xlink="http://www.w3.org/1999/xlink" x="0px" y="0px"
	 viewBox="0 0 24 24" style="enable-background:new 0 0 24 24;" xml:space="preserve">
<style type="text/css">
	.st0{fill:none;stroke:#E8505B;stroke-width:1.5;stroke-linecap:round;stroke-linejoin:round;}
</style>
<g id="Iconly_x2F_Curved_x2F_Calendar">
	<g id="Calendar" transform="translate(2.749800, 2.050100)">
		<path id="Stroke-1" class="st0" d="M0,10.7c0-7,2.3-9.3,9.3-9.3s9.3,2.3,9.3,9.3S16.2,20,9.3,20C2.3,20,0,17.7,0,10.7z"/>
		<line id="Stroke-3" class="st0" x1="0.3" y1="7.3" x2="18.3" y2="7.3"/>
		<line id="Stroke-5" class="st0" x1="13.7" y1="11.2" x2="13.7" y2="11.2"/>
		<line id="Stroke-7" class="st0" x1="9.3" y1="11.2" x2="9.3" y2="11.2"/>
		<line id="Stroke-9" class="st0" x1="4.9" y1="11.2" x2="4.9" y2="11.2"/>
		<line id="Stroke-11" class="st0" x1="13.7" y1="15.1" x2="13.7" y2="15.1"/>
		<line id="Stroke-13" class="st0" x1="9.3" y1="15.1" x2="9.3" y2="15.1"/>
		<line id="Stroke-15" class="st0" x1="4.9" y1="15.1" x2="4.9" y2="15.1"/>
		<line id="Stroke-17" class="st0" x1="13.3" y1="0" x2="13.3" y2="3.3"/>
		<line id="Stroke-19" class="st0" x1="5.3" y1="0" x2="5.3" y2="3.3"/>
	</g>
</g>
</svg>
