<svg xmlns="http://www.w3.org/2000/svg" xmlns:xlink="http://www.w3.org/1999/xlink" viewBox="0 0 450.51 692.23"><defs><style>.cls-1{fill:#fff;}.cls-12,.cls-2{opacity:0.6;}.cls-2{fill:url(#linear-gradient);}.cls-3{fill:#3e7cfb;}.cls-4{fill:#121221;}.cls-5{fill:#dd8e62;}.cls-6{fill:#dd936b;}.cls-7{fill:#dd7254;}.cls-8{fill:#f2a373;}.cls-9{fill:#231f42;}.cls-10{fill:#202035;}.cls-11{fill:#151526;}.cls-12{fill:url(#linear-gradient-2);}.cls-13{fill:#f28d59;}.cls-14{fill:#30528e;}.cls-15{fill:#d5d5db;}.cls-16{fill:none;stroke:#231f20;stroke-linecap:round;stroke-linejoin:round;stroke-width:2.7px;}.cls-17{fill:#1d385e;}</style><linearGradient id="linear-gradient" x1="231.63" y1="440.44" x2="5.55" y2="461.15" gradientUnits="userSpaceOnUse"><stop offset="0.01" stop-color="#000036"/><stop offset="0.17" stop-color="#48486e" stop-opacity="0.72"/><stop offset="0.46" stop-color="#adadbe" stop-opacity="0.32"/><stop offset="0.74" stop-color="#eaeaef" stop-opacity="0.08"/><stop offset="1" stop-color="#fff" stop-opacity="0"/></linearGradient><linearGradient id="linear-gradient-2" x1="193.99" y1="455.06" x2="399.41" y2="428.33" xlink:href="#linear-gradient"/></defs><g id="Layer_2" data-name="Layer 2"><g id="Layer_1-2" data-name="Layer 1"><polygon class="cls-1" points="262.96 573.22 278.68 603.36 381.35 624.64 350.66 365.57 283.7 361.58 262.96 573.22"/><path class="cls-1" d="M154.05,278.51S39.82,334.29,18.82,384.2.07,596.14.07,596.14l66,28.5L206.47,588.2Z"/><path class="cls-2" d="M154.05,278.51S39.82,334.29,18.82,384.2.07,596.14.07,596.14l66,28.5L206.47,588.2Z"/><path class="cls-1" d="M152.79,280.1,102.84,384.53l37.29,40.66-32,26.37s40.5,100.65,66,138.15c18,16.51,20.25,21,20.25,21a81.85,81.85,0,0,0,21.53-2.9c10.72-3.1-26-258.9-26-258.9Z"/><path class="cls-3" d="M285.79,283.12,296,291.35s-8.56,162.58-32.43,238.24-24.77,125.2-24.77,125.2l-36.93-75.66s-43-129.26-42.69-166.64-6.4-137.35-6.4-137.35l6.4-3,124.66,11.13"/><path class="cls-4" d="M338.44,29.07A29.07,29.07,0,1,1,309.38,0,29.06,29.06,0,0,1,338.44,29.07Z"/><path class="cls-5" d="M172,204.66s5,47.31-12.83,67.45c10.85,45.35,59.71,89.47,62.33,89.47s74.31-60.09,74.49-70.23c-9.48-11.25-26-29.57-26.16-30.1s-.7-62.63-.7-62.63Z"/><path class="cls-6" d="M297.52,137.8s14.88-11.5,20.31-2.77,2.63,59.62-37.3,48.35C287.19,153,297.52,137.8,297.52,137.8Z"/><path class="cls-7" d="M295.21,150.88s9.67-4.33,12,.7-4,30.75-26,20.83C287.84,157.59,295.21,150.88,295.21,150.88Z"/><path class="cls-6" d="M141.5,127.65s-4.2,37.64,21.54,37.29c2.27-38-1-45.17-1-45.17Z"/><path class="cls-7" d="M147.63,121.82s-3.48,31.14,17.81,30.85c1.88-31.43-.87-37.37-.87-37.37Z"/><path class="cls-8" d="M157,120.76s-6.76,106.53,58.43,118.35c40.87,2.36,74-60.36,90.52-108.38C314,83.06,291,54.52,291,54.52S162,55.11,157,120.76Z"/><path class="cls-9" d="M198.56,145.5h0a33.33,33.33,0,0,1-8-1c-7.71-1.9-13.84-6.46-17.26-12.83-4.31-8-4.33-18.6,0-30.59l.47-1.35h1.43c35,0,50.25,11.94,50.88,12.45l.69.54.07.88c.73,9.56-1.65,17.61-6.88,23.25C214.83,142.36,207.05,145.5,198.56,145.5Zm-22-41.67c-3.42,10.31-3.33,19.27.27,26,2.91,5.43,8,9.17,14.66,10.81a28.81,28.81,0,0,0,7,.85c7.37,0,14.06-2.67,18.37-7.32s6.31-11.15,5.87-19.25C219.59,112.72,205.05,104.11,176.59,103.83Z"/><path class="cls-9" d="M264.64,152.67h0a57.21,57.21,0,0,1-9.42-.88c-6.27-1.06-11.05-4-14.21-8.82-7.12-10.81-3.31-27-3.15-27.71l.28-1.16,1.15-.32a81.36,81.36,0,0,1,21.49-3.21c12,0,21.46,3.59,28.21,10.67l.69.72-.16,1C286.54,141.77,281.51,152.67,264.64,152.67Zm-23.07-35.3c-.69,3.71-2.33,15.56,2.84,23.38,2.51,3.81,6.38,6.17,11.49,7a53.25,53.25,0,0,0,8.74.83h0c13.95,0,17.91-8.16,20.72-25.29-5.91-5.78-14.17-8.71-24.58-8.71A75.62,75.62,0,0,0,241.57,117.37Z"/><path class="cls-9" d="M238.5,119c-6.79-4-11.82-1.58-12-1.47l-1.83-3.62c.29-.14,7.12-3.53,15.91,1.6Z"/><rect class="cls-9" x="287.51" y="120.97" width="14.66" height="4.05" transform="translate(-5.74 14.78) rotate(-2.84)"/><path class="cls-10" d="M294.43,47.93s-1-38.17-60.12-40.19-71.95,41.88-77,71.94-32.42,53-43.23,62.49c31.07,4.39,58.43-28,67.89-41.88S270.78,101,294.43,47.93Z"/><path class="cls-10" d="M288,51.65S284,88.13,299.16,106.7c6.75,11.49,0,41.21,0,41.21s10.47-17.56,19.59-12.16C319.42,96.91,330.57,44.55,288,51.65Z"/><path class="cls-11" d="M266.75,130.73a4.3,4.3,0,1,1-4.3-4.29A4.29,4.29,0,0,1,266.75,130.73Z"/><path class="cls-11" d="M200.19,120.76a4.3,4.3,0,1,1-4.29-4.29A4.29,4.29,0,0,1,200.19,120.76Z"/><path class="cls-11" d="M247.62,113.17s3.08-8.3,17.67-8.62,24.64,13,20.43,13.78S270.53,105.71,247.62,113.17Z"/><path class="cls-11" d="M221.68,108.61s-7.14-13.46-31-14.6c-8-.81-9.89,7.9-9.89,7.9S208.38,100.5,221.68,108.61Z"/><path class="cls-7" d="M227.84,120.76s-20.27,33.4-13.62,38.75,18.32.81,19.46-4.54S233.14,120.37,227.84,120.76Z"/><path class="cls-1" d="M194.29,175.46c.9-1.76,6.62-1.69,18.59,2.09s29.33-5,31.67.4-7.8,14.64-25.13,14.47S192.36,179.24,194.29,175.46Z"/><polygon class="cls-1" points="296.01 291.35 317.57 300.92 344.44 392.44 307.62 416.44 327.12 462.43 263.36 596.47 248.71 585.29 268.65 321.93 296.01 291.35"/><polygon class="cls-12" points="296.01 291.35 317.57 300.92 344.44 392.44 307.62 416.44 327.12 462.43 263.36 596.47 248.71 585.29 267.56 323.14 296.01 291.35"/><path class="cls-8" d="M194,584s-54.11-18.47-60.38-24.75S112.11,529.7,97.77,521,50.55,508.19,52,512.67s27.8,8.37,27.5,12.25C61,521.33,50,518.65,49.35,520.74s10,8.59,24.68,13.07c-13.14-.89-25.34-.32-24.71,2.42s26,4.06,26,5.79-19.07,2.73-19.42,5c-.64,4.07,11.86,2,20,5.92s18.07,34,30.4,41.38S194,584,194,584Z"/><path class="cls-13" d="M281.16,172.06a12.95,12.95,0,1,1-13-12.94A12.94,12.94,0,0,1,281.16,172.06Z"/><path class="cls-13" d="M192,161.91A12.95,12.95,0,1,1,179.05,149,12.94,12.94,0,0,1,192,161.91Z"/><path class="cls-1" d="M.07,596.46,210.85,583l7,99.85s-96.25,12.75-149.51,8.58S3.82,668.48.07,596.46Z"/><path class="cls-8" d="M210.85,583s73.6-14.7,85.16-14.7c31.29,0,66.05,11.93,66.05,11.93l3.9,25.66s-47.94,9-73.34,21.58S215.51,657,215.51,657Z"/><path class="cls-1" d="M317.58,300.92s90.56,42.75,108.56,94.51,31.5,220.92,20.25,259.36-36,38.44-85.51,35.44S215.51,657,215.51,657l87.61-55.3,63,5.26-35.45-233.4Z"/><path class="cls-14" d="M313.43,392.13a3.76,3.76,0,0,1-1.18-.18,4,4,0,0,1-2.69-5.05c.09-.3,9.13-31.23-3.5-70.52-9.47-29.47-26-42.61-26.19-42.74a4.05,4.05,0,0,1,5-6.41c.75.58,18.65,14.63,28.95,46.67,13.45,41.83,3.94,74,3.53,75.36A4,4,0,0,1,313.43,392.13Z"/><path class="cls-15" d="M152.79,472a20.38,20.38,0,1,0-20.38,20.38A20.37,20.37,0,0,0,152.79,472Z"/><path class="cls-1" d="M143.7,472a11.29,11.29,0,1,0-11.29,11.28A11.28,11.28,0,0,0,143.7,472Z"/><path class="cls-14" d="M131.09,476.05a4,4,0,0,1-4-3.71c0-.51-4.4-52.23-3.53-105.86.89-54.61,28.48-96.41,29.65-98.16a4.05,4.05,0,0,1,6.74,4.5c-.27.42-27.44,41.65-28.29,93.79-.86,53.22,3.46,104.53,3.5,105a4,4,0,0,1-3.69,4.38A2.06,2.06,0,0,1,131.09,476.05Z"/><path class="cls-14" d="M281.35,469.9a4.07,4.07,0,0,1-4-3.21c-.42-2-10.27-49.45,8.45-71.58,6.68-7.88,16-11.64,27.77-11.08,26.78,1.3,39.76,25.17,38.59,70.93a4,4,0,0,1-4.16,4,4,4,0,0,1-4-4.15c.39-15.11,1.57-61.06-30.85-62.64-9.25-.39-16.17,2.28-21.2,8.23-16.17,19.08-6.81,64.2-6.72,64.65a4.06,4.06,0,0,1-4,4.9Z"/><path class="cls-16" d="M280.77,462.43s9.9,75.95,39.55,84c15.5,2.93,29.12-6.42,29.12-6.42"/><path class="cls-16" d="M348.22,451.56s-1.78,92-34.74,95.41c-16.13,2.9-26.55-3-26.55-3"/><path class="cls-17" d="M345.06,543.16c-3-1.2,6-12.78,10.58-8.21S351.06,545.53,345.06,543.16Z"/><path class="cls-17" d="M283.87,539.35c-1.86,6.37,11.68,10.66,13.46,7.28S286.5,530.38,283.87,539.35Z"/></g></g></svg>