<svg xmlns="http://www.w3.org/2000/svg" xmlns:xlink="http://www.w3.org/1999/xlink" viewBox="0 0 653.52 801.42"><defs><style>.cls-1,.cls-15,.cls-36{fill:none;}.cls-2{clip-path:url(#clip-path);}.cls-3{fill:#add5d4;}.cls-4{fill:#ffddcb;}.cls-5{fill:#da8f89;}.cls-6{fill:url(#_ÂÁ_Ï_ÌÌ_È_ËÂÌÚ_10);}.cls-7{fill:#f1b5ab;}.cls-8{fill:#231f20;}.cls-9{fill:#de857d;}.cls-10{fill:#261b67;}.cls-11{fill:#f5f4fd;}.cls-12{fill:#d18480;}.cls-13{fill:#afaada;}.cls-14{fill:#f73943;}.cls-15{stroke:#231f20;stroke-miterlimit:10;stroke-width:0.71px;}.cls-16{fill:#f3f2f8;}.cls-17{fill:#e3e2f3;}.cls-18{fill:#d3d0e8;}.cls-19{fill:#bbb7df;}.cls-20{fill:#dfddef;}.cls-21{fill:#5e5e5e;}.cls-22{fill:#c4bcbf;}.cls-23{fill:#c9c6e1;}.cls-24{fill:#8d8d8e;}.cls-25{fill:url(#_ÂÁ_Ï_ÌÌ_È_ËÂÌÚ_5);}.cls-26{fill:#131163;}.cls-27{fill:url(#_ÂÁ_Ï_ÌÌ_È_ËÂÌÚ_9);}.cls-28{fill:#ffebed;}.cls-29{fill:url(#_ÂÁ_Ï_ÌÌ_È_ËÂÌÚ_8);}.cls-30{fill:url(#_ÂÁ_Ï_ÌÌ_È_ËÂÌÚ_6);}.cls-31{fill:#fff;}.cls-32{fill:url(#_ÂÁ_Ï_ÌÌ_È_ËÂÌÚ_5-2);}.cls-33{fill:url(#_ÂÁ_Ï_ÌÌ_È_ËÂÌÚ_9-2);}.cls-34{fill:url(#_ÂÁ_Ï_ÌÌ_È_ËÂÌÚ_8-2);}.cls-35{fill:url(#_ÂÁ_Ï_ÌÌ_È_ËÂÌÚ_6-2);}.cls-36{stroke:#fff6f4;stroke-linecap:round;stroke-linejoin:round;stroke-width:1.5px;}.cls-37{fill:#ffb398;}.cls-38{fill:url(#_ÂÁ_Ï_ÌÌ_È_ËÂÌÚ_4);}.cls-39{fill:#cb4d7a;}.cls-40{fill:#9f4a8b;}.cls-41{fill:url(#_ÂÁ_Ï_ÌÌ_È_ËÂÌÚ_5-3);}.cls-42{fill:url(#_ÂÁ_Ï_ÌÌ_È_ËÂÌÚ_5-4);}.cls-43{fill:url(#_ÂÁ_Ï_ÌÌ_È_ËÂÌÚ_4-2);}.cls-44{fill:url(#_ÂÁ_Ï_ÌÌ_È_ËÂÌÚ_4-3);}.cls-45{fill:#7a336d;}</style><clipPath id="clip-path" transform="translate(-34.39 -36.18)"><path class="cls-1" d="M694.66,406.05c-4.68-88-113.3-132.86-6.75-145.84,140.44-17.11-79.19-207.52-82.24-207.4C515.92,56.48,372.34,0,372.34,0S168.94,104.94,79.24,100c-4.14-.23-10.32,106.25-14.36,106.25-105.55,0-49.12,107.82-55,194.84C3.81,490.35,66.11,571.38,116.49,626.51,185,701.47,288.63,778,349.27,813.64c61.15-34.77,165.92-109.77,235.5-183.71C635.94,575.54,699.43,495.42,694.66,406.05Z"/></clipPath><linearGradient id="_ÂÁ_Ï_ÌÌ_È_ËÂÌÚ_10" x1="241.28" y1="217.03" x2="445.4" y2="217.03" gradientUnits="userSpaceOnUse"><stop offset="0.02" stop-color="#ffc2a9"/><stop offset="1" stop-color="#ff9595"/></linearGradient><linearGradient id="_ÂÁ_Ï_ÌÌ_È_ËÂÌÚ_5" x1="1244.23" y1="228.16" x2="1246.38" y2="169.74" gradientTransform="matrix(-1, 0, 0, 1, 1567.76, 0)" gradientUnits="userSpaceOnUse"><stop offset="0.02" stop-color="#ffa58b"/><stop offset="1" stop-color="#ff9595"/></linearGradient><linearGradient id="_ÂÁ_Ï_ÌÌ_È_ËÂÌÚ_9" x1="1224.26" y1="198.33" x2="1267.85" y2="198.33" gradientTransform="matrix(-1, 0, 0, 1, 1567.76, 0)" gradientUnits="userSpaceOnUse"><stop offset="0" stop-color="#cf6074"/><stop offset="1" stop-color="#ff817f"/></linearGradient><linearGradient id="_ÂÁ_Ï_ÌÌ_È_ËÂÌÚ_8" x1="1242.21" y1="223.03" x2="1244.98" y2="188.58" gradientTransform="matrix(-1, 0, 0, 1, 1567.76, 0)" gradientUnits="userSpaceOnUse"><stop offset="0" stop-color="#8642a0"/><stop offset="1" stop-color="#6456c0"/></linearGradient><linearGradient id="_ÂÁ_Ï_ÌÌ_È_ËÂÌÚ_6" x1="340.46" y1="207.68" x2="360.57" y2="207.68" gradientTransform="translate(-26.19)" gradientUnits="userSpaceOnUse"><stop offset="0" stop-color="#20206c"/><stop offset="1" stop-color="#362283"/></linearGradient><linearGradient id="_ÂÁ_Ï_ÌÌ_È_ËÂÌÚ_5-2" x1="2305.05" y1="228.16" x2="2307.2" y2="169.75" gradientTransform="translate(-1904.79)" xlink:href="#_ÂÁ_Ï_ÌÌ_È_ËÂÌÚ_5"/><linearGradient id="_ÂÁ_Ï_ÌÌ_È_ËÂÌÚ_9-2" x1="2285.09" y1="198.33" x2="2328.68" y2="198.33" gradientTransform="translate(-1904.79)" xlink:href="#_ÂÁ_Ï_ÌÌ_È_ËÂÌÚ_9"/><linearGradient id="_ÂÁ_Ï_ÌÌ_È_ËÂÌÚ_8-2" x1="2303.04" y1="223.03" x2="2305.81" y2="188.58" gradientTransform="translate(-1904.79)" xlink:href="#_ÂÁ_Ï_ÌÌ_È_ËÂÌÚ_8"/><linearGradient id="_ÂÁ_Ï_ÌÌ_È_ËÂÌÚ_6-2" x1="-720.37" y1="207.68" x2="-700.25" y2="207.68" gradientTransform="matrix(-1, 0, 0, 1, -310.84, 0)" xlink:href="#_ÂÁ_Ï_ÌÌ_È_ËÂÌÚ_6"/><linearGradient id="_ÂÁ_Ï_ÌÌ_È_ËÂÌÚ_4" x1="351.48" y1="244.93" x2="381.06" y2="244.93" gradientUnits="userSpaceOnUse"><stop offset="0" stop-color="#e1616a"/><stop offset="1" stop-color="#ff8883"/></linearGradient><linearGradient id="_ÂÁ_Ï_ÌÌ_È_ËÂÌÚ_5-3" x1="1090.67" y1="150.3" x2="1090.67" y2="146.19" gradientTransform="matrix(-0.96, -0.27, -0.27, 0.96, 1489.35, 415.92)" xlink:href="#_ÂÁ_Ï_ÌÌ_È_ËÂÌÚ_5"/><linearGradient id="_ÂÁ_Ï_ÌÌ_È_ËÂÌÚ_5-4" x1="907.67" y1="265.97" x2="907.67" y2="261.01" gradientTransform="matrix(-1, 0, 0, 1, 1238.97, 0)" xlink:href="#_ÂÁ_Ï_ÌÌ_È_ËÂÌÚ_5"/><linearGradient id="_ÂÁ_Ï_ÌÌ_È_ËÂÌÚ_4-2" x1="873.81" y1="273.46" x2="873.81" y2="264.08" gradientTransform="matrix(-1, 0, 0, 1, 1238.97, 0)" xlink:href="#_ÂÁ_Ï_ÌÌ_È_ËÂÌÚ_4"/><linearGradient id="_ÂÁ_Ï_ÌÌ_È_ËÂÌÚ_4-3" x1="874.07" y1="272.27" x2="874.55" y2="287.71" gradientTransform="matrix(-1, 0, 0, 1, 1238.97, 0)" xlink:href="#_ÂÁ_Ï_ÌÌ_È_ËÂÌÚ_4"/></defs><g id="Layer_2" data-name="Layer 2"><g id="Layer_1-2" data-name="Layer 1"><g class="cls-2"><path class="cls-3" d="M242,548.54c.09-5.23,1.34-10.13,2.41-15.09s2-10,2.8-15,1.53-10,2.16-15.05,1.22-10.06,1.7-15.11c.94-10.1,1.37-20.23,1.55-30.38s0-20.31-.45-30.49l.9-.08A249.72,249.72,0,0,1,255.5,458c.25,10.23-.15,20.48-.91,30.69-.42,5.1-.91,10.2-1.51,15.28s-1.5,10.14-2.39,15.18-1.94,10-3.05,15c-.59,2.49-1.14,5-1.85,7.45a44.11,44.11,0,0,1-2.9,7.17Z" transform="translate(-34.39 -36.18)"/><path class="cls-3" d="M308.12,702c.5-4.21,2.09-7.89,3.49-11.68s2.62-7.63,3.81-11.47q3.56-11.55,6.07-23.39c1.67-7.89,2.83-15.88,3.74-23.9s1.44-16.09,1.74-24.21l.91,0a156.28,156.28,0,0,1,.2,24.48,195.28,195.28,0,0,1-3.14,24.33,187.86,187.86,0,0,1-6.05,23.81c-1.29,3.89-2.69,7.73-4.17,11.55-.79,1.89-1.53,3.8-2.41,5.65a28.25,28.25,0,0,1-3.36,5.22Z" transform="translate(-34.39 -36.18)"/><path class="cls-4" d="M416,323.71c-.06-.14-.1-.29-.16-.44-2.05-5.25-2.24-11-2.33-16.67,0-2.14,0-4.28,0-6.42-8.36,7.39-17.78,13.66-28.51,16.45-13.5,3.51-28.56,2.45-42.6-2a31.25,31.25,0,0,1-9.22,12.75,42.48,42.48,0,0,1-11.13,6.9c4.57,16.41,8.5,32.93,11.93,49.55q17.85,24.75,33.65,50.87,15.45-20.29,32.66-39.17,3.48-11.41,7-22.79c4.17-13.48,8.46-27.15,16.06-39a26.75,26.75,0,0,1-7.35-10" transform="translate(-34.39 -36.18)"/><path class="cls-5" d="M362.23,410.83c-4.18-3.07-7-7.63-9.67-12.06-12.37-20.44-24.93-41.41-30.48-64.54l-.1,0c4.57,16.41,8.5,32.93,11.93,49.55q17.83,24.75,33.65,50.87c4.51-5.92,9.16-11.75,13.89-17.49l-3.32-.68c-5.56-1.13-11.32-2.34-15.9-5.7" transform="translate(-34.39 -36.18)"/><path class="cls-5" d="M414.05,316.2a76.84,76.84,0,0,1-.59-9.6c0-2.14,0-4.28,0-6.42-8.36,7.39-17.77,13.66-28.51,16.45-13.5,3.51-28.56,2.44-42.59-2a28.41,28.41,0,0,1-4.83,8.26,203.74,203.74,0,0,0,76.54-6.69" transform="translate(-34.39 -36.18)"/><path class="cls-6" d="M443.62,207.73c-2.73-23.45-13-43-32.59-57-20.63-14.67-46.3-20.49-71.51-22.83-11.67-1.09-25.28-2.56-31.38-12.57-1,19.17-3.6,40.56-17.22,55.16-5.43,5.82-12.68,11.64-12.36,19.6-3.5-6.38-12.39-8.33-19.15-5.65s-11.53,8.94-14.49,15.58c-4.18,9.38-5.26,20.63-.57,29.76a26.26,26.26,0,0,0,39.92,8.33,82.09,82.09,0,0,0,21.12,53.59c9.4,10.35,22.64,18.39,36.94,22.93,14,4.44,29.1,5.51,42.6,2,10.73-2.79,20.15-9.06,28.51-16.45,1.86-1.64,3.68-3.33,5.43-5.06a100.5,100.5,0,0,0,15.22-18.47c13.48-21.87,12.33-44.8,9.53-68.92" transform="translate(-34.39 -36.18)"/><path class="cls-7" d="M399,230.29c-4.8,2.77-4.43,8.4.27,11.06a16.59,16.59,0,0,0,10.4,1.89,11.77,11.77,0,0,0,7.71-4.68,6.42,6.42,0,0,0,1.26-4.88c-.55-2.7-3.32-4.34-6-5-3.27-.84-9.64-.66-13.65,1.65" transform="translate(-34.39 -36.18)"/><path class="cls-7" d="M327.08,231.07c4.42,2.18,6.68,5.69,1.37,10-2.34,1.88-5.52,2.33-8.53,2.3-3.42,0-7.05-.7-9.58-3s-3.41-6.64-1.11-9.18a8,8,0,0,1,3.41-2c3.24-1.11,9.95-.27,14.44,1.95" transform="translate(-34.39 -36.18)"/><path class="cls-8" d="M385.58,173.89c1.73-1.89,3.56-1.94,5.42-2.19l5.61-.71a61.73,61.73,0,0,1,11.55-.18,39.08,39.08,0,0,1,11.52,2.66,21.77,21.77,0,0,1,9.37,7.12l-.89.94a37.59,37.59,0,0,0-9.85-4.13,43.64,43.64,0,0,0-10.45-1.49c-3.57-.1-7.18.07-10.86.27l-5.57.26c-1.87.09-3.75.37-5.75-1.26Z" transform="translate(-34.39 -36.18)"/><path class="cls-8" d="M348.82,175.18c-2,1.63-3.89,1.35-5.76,1.26l-5.57-.26c-3.68-.2-7.29-.37-10.85-.27a43.72,43.72,0,0,0-10.46,1.49,37.59,37.59,0,0,0-9.85,4.13l-.88-.94a21.77,21.77,0,0,1,9.37-7.12,39,39,0,0,1,11.52-2.66,61.74,61.74,0,0,1,11.55.18l5.6.71c1.86.25,3.7.3,5.42,2.19Z" transform="translate(-34.39 -36.18)"/><path class="cls-9" d="M277.85,210.89a10.55,10.55,0,0,1-2.08-3.8,21.46,21.46,0,0,0-2-3.59,22.61,22.61,0,0,0-5.74-5.8,14.56,14.56,0,0,0-7.47-2.71,9.3,9.3,0,0,0-7.25,2.92l-.61-.4a9.08,9.08,0,0,1,7.82-4.83,15.43,15.43,0,0,1,9.06,2.64,20.53,20.53,0,0,1,6.65,6.56,22.27,22.27,0,0,1,2.06,4.22c.53,1.45,1,3,.3,4.67Z" transform="translate(-34.39 -36.18)"/><path class="cls-9" d="M271.8,199.9a5.6,5.6,0,0,1-3.07.78,12.33,12.33,0,0,0-2.82.67,13.56,13.56,0,0,0-4.87,2.94,12.82,12.82,0,0,0-3,4.93,16.61,16.61,0,0,0-.85,6l-.71.18a11,11,0,0,1-.68-6.79,13.15,13.15,0,0,1,3.19-6.3,13,13,0,0,1,6-3.79,14.66,14.66,0,0,1,3.54-.54,3.65,3.65,0,0,1,3.37,1.18Z" transform="translate(-34.39 -36.18)"/><path class="cls-10" d="M308.72,114.05c1,3,1.15,5.84,1.73,8.7A40.3,40.3,0,0,0,313.1,131a34.76,34.76,0,0,0,10.36,13.51,29.8,29.8,0,0,0,15.93,5.78A27.54,27.54,0,0,0,356,146.12l.49.64a25.23,25.23,0,0,1-17.23,6.05A30.67,30.67,0,0,1,321.61,147a34.56,34.56,0,0,1-11.47-14.73,42.25,42.25,0,0,1-2.58-9c-.52-3.05-.83-6.24.36-9.27Z" transform="translate(-34.39 -36.18)"/><path class="cls-10" d="M342.33,314.63c-14.3-4.54-27.54-12.58-36.94-22.93a82.09,82.09,0,0,1-21.12-53.59,26.26,26.26,0,0,1-39.92-8.33c-4.7-9.13-3.61-20.38.57-29.76,3-6.64,7.73-12.89,14.49-15.58s15.65-.73,19.15,5.65c-.32-8,6.93-13.78,12.36-19.6,13.62-14.6,16.18-36,17.22-55.16,6.1,10,19.71,11.48,31.38,12.57,25.21,2.34,50.88,8.16,71.51,22.83,19.62,14,29.86,33.55,32.59,57,2.8,24.12,3.95,47.05-9.53,68.92a100.5,100.5,0,0,1-15.22,18.47c-1.75,1.73-3.57,3.42-5.43,5.06,0,2.14,0,4.28,0,6.42.09,5.64.28,11.42,2.33,16.67,28.74-1.09,57.58.17,86.3,2.12,7.33.49,15.45.81,21.17-3.81,6.92-5.58,7.33-16.1,5-24.68s-6.81-16.64-7.66-25.48c-1.66-17.19,10.47-35,3.8-50.94-3.57-8.55-11.87-14.27-16.24-22.45-6.32-11.85-3.34-26.21-2.26-39.59,3-37.68-12.29-82.11-52-94.59-13.42-4.22-28.17-3.25-41.26-8.41-8.21-3.23-15.32-8.71-23.24-12.61a65.72,65.72,0,0,0-91.28,38c-41.05-17.65-74.87,38.38-75.46,72.54-.31,17.28,4.58,36-4,51-3.68,6.49-9.68,11.74-11.81,18.9-4.24,14.33,8.61,28.26,9.14,43.2.44,12.44-26.1,52-8.39,60.81,1.91,1,4.14.92,6.27.87l56.66-1.4a4.56,4.56,0,0,0,2.77-.67,4.7,4.7,0,0,0,1.3-2.36c2.45-7.81,5.62-15.1,8.8-22.64l9.28,23.56,40.38,2.75a31.25,31.25,0,0,0,9.22-12.75" transform="translate(-34.39 -36.18)"/><path class="cls-11" d="M361.69,583.46c-8.25-66.68-14.2-133.87-27.78-199.63-3.43-16.62-7.36-33.14-11.93-49.55l-.48.22a84.52,84.52,0,0,1-19.4,4.88c-4.05,11.15-4.48,25.37-4.22,36.23a25.6,25.6,0,0,0,1,7.35c3.14,9.59,14.08,14.65,21.95,19.67a2.28,2.28,0,0,1,.87,3.82C316.59,414.6,307,423.78,308.21,434c.68,5.64,3.38,10.81,5.9,15.9C334,490,347.4,534.86,358.66,578c1.55,5.95,3.1,11.94,4.52,17.95q-.71-6.24-1.49-12.47" transform="translate(-34.39 -36.18)"/><path class="cls-12" d="M237.91,426.34a6,6,0,0,0-2.39-2.56,4.19,4.19,0,0,0-4.59,1.2c.72,1.26,1.42,2.53,2.09,3.81,1.19,2.27,2.29,4.61,3.27,7a23.58,23.58,0,0,1,3-7.12c-.43-.8-.87-1.58-1.34-2.34" transform="translate(-34.39 -36.18)"/><path class="cls-12" d="M187.42,465.2a16.52,16.52,0,0,0-3.74-2.37,8.41,8.41,0,0,0-7.24.48c-5.12,2.92-7,10.07-12.48,13.32a13.5,13.5,0,0,0-3.21,2.19c-3.81,4.12.83,11.11-1.31,16.3l-.08.14a.71.71,0,0,1,.07.09.71.71,0,0,0-.07-.09,29.46,29.46,0,0,1-2.29,3.63c-4.55,7.31-.31,17.52,6.79,22.4,5.7,3.93,12.64,5.31,19.59,6.12,2.68-2.85,6.13-5.35,7.31-9,1.6-5-1.63-10.31-5.48-13.88s-8.56-6.41-11.34-10.87-2.57-11.49,2.13-13.84c2.72-1.37,6-.74,9-1.16a12.82,12.82,0,0,0,7.27-3.78c-.34-2.57-.83-5.06-1.83-6.64a12.25,12.25,0,0,0-3.09-3" transform="translate(-34.39 -36.18)"/><path class="cls-13" d="M143.5,496c-3.7,5.22-3.35,12.2-2.8,18.57.07.87.16,1.73.23,2.59,5.39-7.26,7.3-16.26,9.11-25.34A11.14,11.14,0,0,0,143.5,496" transform="translate(-34.39 -36.18)"/><path class="cls-14" d="M375.33,496c5.49-34.15,14.84-67.45,24.89-100.5Q383,414.39,367.56,434.7q-15.75-26.13-33.65-50.87c13.58,65.76,19.53,133,27.79,199.63q.78,6.22,1.48,12.46l.69,3c4.18-34.2,6-68.78,11.46-102.88" transform="translate(-34.39 -36.18)"/><path class="cls-12" d="M240.24,455.07a31.76,31.76,0,0,1-.8,6c-1.1,4.68-4.75,12.46-10.35,7.6-4-3.48-4.45-12.36-6.31-17.15a5.23,5.23,0,0,0-1.06-1.87,3.16,3.16,0,0,0-2-.84,72.17,72.17,0,0,1,3.55,21.33c.19.34.35.69.54,1a5.89,5.89,0,0,0,1.72,2.13,5.21,5.21,0,0,0,2.66.73c6.07.44,11.1-4.95,16-8.15l5.17-3.39a23.56,23.56,0,0,1-9.06-7.45" transform="translate(-34.39 -36.18)"/><path class="cls-15" d="M363.18,595.92c.17,1.52.33,3,.49,4.55.07-.52.14-1,.2-1.55Z" transform="translate(-34.39 -36.18)"/><path class="cls-11" d="M434.51,340.61a44.69,44.69,0,0,1-11.2-6.89c-7.61,11.87-11.9,25.54-16.07,39q-3.53,11.38-7,22.79c-10.05,33.05-19.4,66.35-24.89,100.5s-7.28,68.68-11.46,102.88c-.06.53-.13,1.05-.2,1.56-.91,7.3-1.92,14.58-3.11,21.84q-1.33,8.1-2.56,16.21c2.19-8.37,4.59-16.7,7-25,0-.12.06-.23.1-.35.33-1.13.66-2.27,1-3.41q3.53-12.07,7-24.17c13.29-45.88,27.72-92.72,49-135.66,2.53-5.09,5.23-10.26,5.91-15.9,1.23-10.23-8.38-19.41-13.46-27.56a2.28,2.28,0,0,1,.88-3.82c7.86-5,18.8-10.08,21.94-19.67a25.25,25.25,0,0,0,1-7.35c.25-10.46-.15-24-3.8-35" transform="translate(-34.39 -36.18)"/><path class="cls-4" d="M223.24,470.17a72.5,72.5,0,0,0-3.55-21.33c-3-9-8-17.1-15.32-23-2.34-1.88-4.91-3.52-7.37-5.27-.89.26-1.79.51-2.64.81-6.31,2.33-10.64,8.53-14.64,14.76a57,57,0,0,1,12.6,9.68,0,0,0,0,0,0,0c.63-1.26,1.79-2.57,3.18-2.29a3.7,3.7,0,0,1,2.07,1.85c3.14,4.77,6.23,9.68,8,15.12s2.12,11,4.32,16.18c1.94,4.5,8.51,7.53,11.88,2.4,1.34-2,1.48-4.6,1.49-7,0-.62,0-1.25,0-1.87" transform="translate(-34.39 -36.18)"/><path class="cls-13" d="M182.88,533.33a31.17,31.17,0,0,0-2.83,1.59c-5.49,3.43-9.9,8.48-14,13.58-1.48,1.87-2.93,3.75-4.36,5.66q-7,9.33-13.07,19.28c1.55,7.61,3.34,15.17,5.48,22.64,1.64,5.73,3.53,11.54,7.12,16.3a22.77,22.77,0,0,0,4.53,4.51c.42-.24.85-.49,1.26-.76,13.4-9,15-27.58,17.3-43.57a202.75,202.75,0,0,1,11.37-43.86,87.94,87.94,0,0,0-12.84,4.63" transform="translate(-34.39 -36.18)"/><path class="cls-4" d="M198.35,453a59.08,59.08,0,0,0-6-7.18,57,57,0,0,0-12.6-9.68,91.4,91.4,0,0,1-7.48,10.76c-8.26,9.36-15.49,19.41-19.12,31.57-1.29,4.33-2.18,8.86-3.08,13.36,3.7-.85,7.63.08,9.32,3.41l.08-.14c2.14-5.19-2.5-12.18,1.31-16.29a13.25,13.25,0,0,1,3.21-2.2c5.52-3.25,7.36-10.41,12.48-13.32a8.41,8.41,0,0,1,7.24-.48,16.88,16.88,0,0,1,3.74,2.37,12.25,12.25,0,0,1,3.09,3c1,1.58,1.49,4.07,1.83,6.64.36,2.72.56,5.54,1,7.52.57,2.44,1.51,5,3.62,6.35a5.7,5.7,0,0,0,7.52-1.68,10.51,10.51,0,0,0,1.26-3.91c2-11.6-.65-20.5-7.42-30.1" transform="translate(-34.39 -36.18)"/><path class="cls-4" d="M160.25,543.2a40.46,40.46,0,0,1,.69,6.32,33.32,33.32,0,0,0,.79,4.64c1.43-1.91,2.88-3.79,4.36-5.66,4.06-5.1,8.47-10.14,14-13.58a8.3,8.3,0,0,1,.08-1.72,11.42,11.42,0,0,1,3.32-5.79c-6.95-.81-13.88-2.19-19.59-6.12-7.1-4.88-11.34-15.09-6.79-22.4a30.78,30.78,0,0,0,2.3-3.63c-1.7-3.33-5.63-4.26-9.33-3.41-1.81,9.08-3.72,18.08-9.11,25.34.36,3.94.74,7.89,1.15,11.82,1.16.42,2.36.8,3.53,1.2,6.45,2.19,13,6.38,14.64,13" transform="translate(-34.39 -36.18)"/><path class="cls-16" d="M678.8,587.12c-24.89-54-66.31-100.49-100-149.15-31.23-45.08-70.33-75-123-90.24-7-2-14.52-4.1-21.27-7.11,3.66,10.95,4.05,24.53,3.8,35a25.6,25.6,0,0,1-1,7.35c-3.14,9.59-14.08,14.65-21.94,19.67a2.94,2.94,0,0,0-1.55,1.76,3.06,3.06,0,0,0,.67,2.06C419.6,414.6,429.21,423.78,428,434c-.68,5.64-3.38,10.81-5.91,15.9-21.26,42.93-35.69,89.78-49,135.66q-3.49,12.09-7,24.17l-1,3.41c0,.12-.07.24-.1.35-2.41,8.32-4.81,16.65-7,25q-8.61,57-11.95,114.61-.74,12.6-1.18,25.22c0,17.67-.73,35.1-.79,52.62,6.34-.46,12.69-.84,19-1.1a210.55,210.55,0,0,1,30.76.6c8.93,1,17.75,2.81,26.68,3.83,29.12,3.33,57-1.22,86.09-1.27,5.9,0,12.49-.12,16.67-4.27,4.82-4.78,4.22-12.61,3.07-19.29-15.4-89.86-70-183.77-39-276.65,2.16-6.45,7.29-14.18,13.74-12,2.28.76,4,2.65,5.54,4.47,13.05,15.07,27.6,30.41,38.81,46.6,2.69,3.88,5.56,7.61,8.55,11.27-25.8.28-51.72,2-77.51,1.7-1.84,16.86-2.43,33.9-2.63,50.87-.11,8.92-.31,17.86-.51,26.81,12.29-.06,24.64.53,36.89,1.15l95.26,4.74c16.44.81,33.26,1.59,49-3.11,39.06-11.66,39-46.21,24.24-78.16" transform="translate(-34.39 -36.18)"/><path class="cls-17" d="M462.32,726.8c22.15,32.28,37.6,68.42,48.28,106.16,4.72-.2,9.45-1,12.71-4.2,4.82-4.78,4.21-12.61,3.07-19.28-8.23-48-27.65-97.22-39.22-146.78-4.6-.13-9.19-.22-13.78-.2.2-9,.4-17.89.51-26.81.16-14.12.65-28.28,1.85-42.36-9.4.22-18.8.57-28.2,1.14-26.28,1.56-51.92,3.3-77.87,2.91q-1.8,6.2-3.59,12.36c-.32,1.14-.65,2.28-1,3.41,0,.12-.07.23-.1.35-2.41,8.32-4.81,16.65-7,25-.72,4.79-1.33,9.59-2,14.37,16.41,4,32.54,9,47.32,17,24.2,13.22,43.4,34.14,59,56.87" transform="translate(-34.39 -36.18)"/><path class="cls-16" d="M379.65,639.61a10,10,0,1,1-10-10,10,10,0,0,1,10,10" transform="translate(-34.39 -36.18)"/><path class="cls-18" d="M377.89,639.61a8.22,8.22,0,1,1-8.22-8.22,8.22,8.22,0,0,1,8.22,8.22" transform="translate(-34.39 -36.18)"/><path class="cls-17" d="M371.44,719.44a10,10,0,1,1-10-10,10,10,0,0,1,10,10" transform="translate(-34.39 -36.18)"/><path class="cls-18" d="M369.67,719.44a8.22,8.22,0,1,1-8.22-8.22,8.23,8.23,0,0,1,8.22,8.22" transform="translate(-34.39 -36.18)"/><path class="cls-17" d="M366,817.3a10,10,0,1,1-10-10,10,10,0,0,1,10,10" transform="translate(-34.39 -36.18)"/><path class="cls-18" d="M364.22,817.3a8.23,8.23,0,1,1-8.22-8.22,8.22,8.22,0,0,1,8.22,8.22" transform="translate(-34.39 -36.18)"/><path class="cls-17" d="M447.54,594.47c9.39-.57,18.8-.92,28.2-1.14.25-2.83.48-5.68.78-8.51h1.66a184.41,184.41,0,0,1,9.21-52c2.16-6.45,7.29-14.18,13.74-12,2.28.76,4,2.65,5.54,4.47,13.05,15.07,27.6,30.41,38.81,46.6,2.69,3.88,5.56,7.61,8.55,11.27-25.25.27-50.61,1.9-75.85,1.7-.11,2.82-.15,5.65-.14,8.48,28.11-.58,56.25.11,84.36.66,2.2,0,4.63,0,6.23-1.51,7.45-7.07-9.82-22.4-13.81-26.63-24.59-26.05-42.48-60-43.06-95.79.39,24.46-33.95,38.54-53.38,39.68s-38.82-5.84-54.91-17.11c-11.81,30.43-21.39,61.91-30.38,93l-3.42,11.82c25.95.38,51.6-1.36,77.87-2.92" transform="translate(-34.39 -36.18)"/><path class="cls-19" d="M414,493.11c7.89-17.56,20.43-36.33,21.29-56.08.38-8.62-2.29-17.82-9-23.3-1.5-1.24-3.31-2.47-3.66-4.39-.77-4.07,4.89-5.68,8.73-7.23,11.5-4.63,12.93-20.4,10.39-32.52-1.89-9-4.85-18.72-3.76-27.55-1.18-.46-2.37-.92-3.52-1.43,3.65,11,4.05,24.54,3.8,35a25.25,25.25,0,0,1-1,7.35c-3.14,9.59-14.08,14.65-21.94,19.67a2.94,2.94,0,0,0-1.55,1.76,3.06,3.06,0,0,0,.67,2.06C419.6,414.6,429.21,423.78,428,434c-.68,5.64-3.38,10.81-5.91,15.9-21.26,42.94-35.69,89.78-49,135.66q-3.51,12.09-7,24.17c-.32,1.14-.65,2.28-1,3.41,0,.12-.07.23-.1.35q-3,10.2-5.76,20.46,12.54-37.85,27.07-75,13.05-33.26,27.69-65.87" transform="translate(-34.39 -36.18)"/><path class="cls-16" d="M363.18,595.92c-1.42-6-3-12-4.52-17.94C347.4,534.86,334,490,314.11,449.91c-2.52-5.09-5.22-10.26-5.9-15.9-1.23-10.23,8.38-19.41,13.46-27.56a3.06,3.06,0,0,0,.67-2.06,3,3,0,0,0-1.55-1.76c-7.86-5-18.8-10.08-21.94-19.67a25.6,25.6,0,0,1-1-7.35c-.26-10.86.18-25.08,4.22-36.24-2.91.45-5.84.83-8.75,1.22a162.68,162.68,0,0,0-74.72,30.24c-14.59,10.63-25.86,25.09-36.93,39.36C157.78,441,131.13,468.4,104,496.51c-12.88,13.37-26.65,26.22-39.59,39.79-13.91,14.59-28.63,30.93-30,51.06-.54,8.23,1.27,16.46,3.91,24.29a118.11,118.11,0,0,0,10.44,22.74c2.89,4.87,6.87,10,12.51,10.53a18.42,18.42,0,0,0,7.52-1.29c21.85-7.08,42.74-18.09,65.57-20.62,10.68-1.19,22.21-.69,31.36-6.12a22.77,22.77,0,0,1-4.53-4.51c-3.58-4.76-5.48-10.57-7.12-16.3-2.14-7.47-3.93-15-5.48-22.64-3-14.65-5-29.52-6.59-44.42-.41-3.94-.78-7.89-1.14-11.83-.08-.86-.16-1.72-.23-2.59-.55-6.37-.89-13.35,2.8-18.57a11.14,11.14,0,0,1,6.54-4.18c.9-4.51,1.79-9,3.08-13.37,3.63-12.15,10.86-22.2,19.12-31.56a91.4,91.4,0,0,0,7.48-10.76c4-6.23,8.33-12.43,14.64-14.76.85-.3,1.75-.55,2.64-.81,2.1-.6,4.16-1.25,5.47-2.92s1.56-4.1,3-5.67c3.22-3.44,9.41-.51,13.5-2.67a4.74,4.74,0,0,0,.54-.31c2.7-1.84,3.19-5.64,5.35-8.08,3.3-3.74,9.6-3.09,13.6-.11s6.33,7.59,8.9,11.86a47.59,47.59,0,0,0,4.58,6,23.58,23.58,0,0,1,24.64,38.42A33.24,33.24,0,0,1,270.79,469c-6.1,6.86-14.4,11.19-21.6,16.73-8.78,6.77-16.65,14.61-24.62,22.34-1.19,16.55,1,33.52,4.35,49.86,5.1,24.82,12.74,49.21,14.93,74.45,2.41,27.95-6.1,54.65-13.57,81.16-10.6,37.53-19.88,76-23.28,114.88-.15,1.76-.25,3.7.82,5.11s3.26,1.9,5.16,2.14c43.5,5.32,87.31-1.51,131.1-4.67.1-25.91.47-52,2-77.83q3.33-57.54,11.95-114.61,1.23-8.12,2.56-16.21c1.19-7.25,2.2-14.54,3.11-21.84-.16-1.51-.32-3-.49-4.55" transform="translate(-34.39 -36.18)"/><path class="cls-17" d="M297.86,511c12.26-4.82,25.87-4.67,39.08-5.82a482.34,482.34,0,0,0-22.83-55.25c-2.52-5.09-5.22-10.26-5.9-15.9a16.71,16.71,0,0,1,.71-6.92,154.75,154.75,0,0,0-32.73-2.38,23.52,23.52,0,0,1,.41,32.41A33.24,33.24,0,0,1,270.79,469c-6.1,6.86-14.4,11.18-21.59,16.73-8.79,6.77-16.66,14.61-24.63,22.34-1.18,16.55,1,33.52,4.35,49.86,1.19,5.75,2.51,11.47,3.86,17.18,23.48-18.58,36.57-52.88,65.08-64.09" transform="translate(-34.39 -36.18)"/><path class="cls-20" d="M263.77,357.81c11.32-5.07,23.52-7.84,35.87-9.23a60.36,60.36,0,0,1,2.46-9.21c-2.91.45-5.84.83-8.75,1.22a162.25,162.25,0,0,0-71.85,28.28,39.75,39.75,0,0,1,7.44,18.92c7.82-13.47,20.62-23.62,34.83-30" transform="translate(-34.39 -36.18)"/><path class="cls-19" d="M361.11,587.51c-7.75,42.45-14.64,85.33-18.42,128.13-3.37,38.1-3.68,77-4.19,115.76,1.86-.15,3.72-.3,5.58-.43.1-25.92.47-52,2-77.84q3.33-57.54,11.95-114.61,1.23-8.12,2.56-16.21c1.19-7.26,2.2-14.54,3.11-21.84-.16-1.51-.32-3-.49-4.54-.66-2.81-1.36-5.62-2.07-8.42" transform="translate(-34.39 -36.18)"/><path class="cls-19" d="M301.73,396.22c4.39,2.06,10.86,3,11.35,7.79.6,5.94-7.67,8.62-10.55,12.58-5.67,7.8.56,20.42,3.37,28.28,3.75,10.47,8.22,20.67,12.83,30.78a664.81,664.81,0,0,1,28,71.43c5,15.47,10.33,30.79,15.75,46C361.26,588.07,360,583,358.66,578,347.4,534.86,334,490,314.12,449.91c-2.52-5.09-5.23-10.26-5.91-15.9-1.23-10.23,8.38-19.41,13.46-27.56a2.28,2.28,0,0,0-.88-3.82c-7.86-5-18.8-10.08-21.94-19.67a25.6,25.6,0,0,1-1-7.35c-.26-10.86.17-25.08,4.22-36.24-2,.31-3.94.56-5.9.82a242.43,242.43,0,0,0-4.28,27.43c-1,10.72.06,24,9.81,28.6" transform="translate(-34.39 -36.18)"/><path class="cls-5" d="M161,549.52a44.43,44.43,0,0,0-.69-6.32c-1.65-6.61-8.2-10.8-14.65-13-1.17-.4-2.37-.77-3.53-1.19,1.55,14.9,3.59,29.77,6.58,44.42q6.08-9.95,13.07-19.28a31.65,31.65,0,0,1-.78-4.64" transform="translate(-34.39 -36.18)"/><path class="cls-4" d="M259.23,436.61c-.14-2.89-.1-7.13-1.36-9.8a24.47,24.47,0,0,0-2.46-3.92c-1.07-1.41-2.25-2.8-3.43-4.19a46.77,46.77,0,0,1-4.59-6c-2.57-4.27-4.91-8.88-8.9-11.86s-10.3-3.63-13.6.1c-2.16,2.45-2.65,6.26-5.35,8.09a4.74,4.74,0,0,1-.54.31A71.59,71.59,0,0,1,230.92,425a4.19,4.19,0,0,1,4.6-1.2,5.93,5.93,0,0,1,2.39,2.56c.47.76.91,1.54,1.34,2.34,1,1.74,1.86,3.52,2.79,5.29,2.48,4.71,5.14,9.23,9.47,12.18,7.26,5,8-4.41,7.72-9.54" transform="translate(-34.39 -36.18)"/><path class="cls-5" d="M275.58,450.2c-1-.77-2.57-1.06-4.9-.62a18.55,18.55,0,0,0-6.45,3.12l-9.8,6.45-5.13,3.37-5.16,3.39c-4.88,3.2-9.91,8.58-16,8.15a5.3,5.3,0,0,1-2.66-.72,6,6,0,0,1-1.72-2.14c-.19-.34-.35-.69-.54-1,0,.62,0,1.25,0,1.87,0,2.43-.15,5-1.49,7-3.37,5.15-9.94,2.11-11.88-2.39-2.2-5.14-2.61-10.86-4.32-16.18s-4.86-10.35-8-15.12a3.7,3.7,0,0,0-2.09-1.85c-1.38-.28-2.55,1-3.17,2.3v0a58.19,58.19,0,0,1,6,7.18c6.77,9.6,9.45,18.5,7.42,30.1A10.45,10.45,0,0,1,204.5,487a5.69,5.69,0,0,1-7.51,1.67c-2.11-1.34-3.05-3.91-3.63-6.34-.46-2-.66-4.81-1-7.53a12.81,12.81,0,0,1-7.28,3.78c-3,.42-6.27-.21-9,1.16-4.7,2.35-4.9,9.37-2.12,13.84s7.48,7.29,11.34,10.87,7.08,8.87,5.48,13.88c-1.17,3.69-4.63,6.19-7.31,9a11.37,11.37,0,0,0-3.31,5.79,7.13,7.13,0,0,0-.09,1.72,31.17,31.17,0,0,1,2.83-1.59,87.94,87.94,0,0,1,12.84-4.63c5.06-1.6,10-3.46,15-7.82,4.76-4.11,9.3-8.46,13.82-12.85,8-7.73,15.84-15.57,24.63-22.34,7.19-5.55,15.49-9.87,21.59-16.73a33.24,33.24,0,0,0,5.81-11.84c.72-3,.66-5.63-1-6.92" transform="translate(-34.39 -36.18)"/><path class="cls-4" d="M236.29,435.8c-1-2.4-2.08-4.74-3.27-7q-1-1.92-2.1-3.81A71.59,71.59,0,0,0,219,409.33c-4.09,2.16-10.28-.77-13.5,2.67-1.47,1.57-1.7,4-3,5.67S199.1,420,197,420.59c2.46,1.75,5,3.39,7.37,5.27,7.36,5.87,12.34,14,15.33,23a3.16,3.16,0,0,1,2,.84,5.32,5.32,0,0,1,1.06,1.87c1.86,4.79,2.29,13.67,6.31,17.15,5.6,4.86,9.24-2.92,10.35-7.6a31.76,31.76,0,0,0,.8-6c.24-6.51-1.41-13.07-4-19.27" transform="translate(-34.39 -36.18)"/><path class="cls-21" d="M259.27,417.54a23.57,23.57,0,1,0,23.61,23.6,23.49,23.49,0,0,0-23.61-23.6" transform="translate(-34.39 -36.18)"/><path class="cls-22" d="M259.27,422.49a19,19,0,0,0-3.87.4,18.68,18.68,0,1,0,3.87-.4" transform="translate(-34.39 -36.18)"/><path class="cls-9" d="M386.15,629.32c-1.06-.14-1.12-.5-1.3-.84a8.09,8.09,0,0,0-.6-1A9.34,9.34,0,0,0,383,626a4.41,4.41,0,0,0-1.69-.8,4.82,4.82,0,0,0-2.15,0l-.5-.54a3.22,3.22,0,0,1,2.69-1.75,5,5,0,0,1,3.28.79,5.88,5.88,0,0,1,2.2,2.37,9.58,9.58,0,0,1,.55,1.43,1.24,1.24,0,0,1-.49,1.65Z" transform="translate(-34.39 -36.18)"/><path class="cls-23" d="M485,649.88a81.05,81.05,0,0,1-2.5-10c-.89-5.12-8.12-59.88-4-60.31-10.64,1.11-21.72,2.37-31.45-1.81a29.62,29.62,0,0,1-7.3-4.45,78.52,78.52,0,0,1-26.81-44.91c-.72-3.7-2.26-8.46-6-8.43a6.28,6.28,0,0,0-3.12,1.07c-11,6.72-10.37,25.29-20.91,31.66a13.39,13.39,0,0,1-2,1c-9.14,3.71-18.78,3.34-27.8,8-3,1.59-6,3.56-7.81,6.49-1.89,3.1-2.21,6.88-2.29,10.51a101.89,101.89,0,0,0,7.27,40c1.81,4.52,4,9,7.63,12.29a18.22,18.22,0,0,0,1.76,1.42,24.35,24.35,0,0,0,14.91,4.18c4.44-.15,8.85-1.29,13.27-.87,5.87.56,11.08,3.79,16.48,6.19,3.58,1.59,11,1.27,13.43,3.84,2.57,2.79,1.37,12.71,1.09,16.2-.79,9.67,1.54,10.4,9.56,13.15a154.67,154.67,0,0,1,64.78,43c4.52,5,8.79,10.39,13.82,14.91-4.92-16.31-10-32.58-14.41-49a289.11,289.11,0,0,1-7.6-34.16" transform="translate(-34.39 -36.18)"/><path class="cls-21" d="M383.37,600.54C363.16,549.22,359.77,491.9,370.46,438c2.81-14.19,7.05-28.53,8.49-42.94a11.94,11.94,0,0,0-.22-4.77,4.55,4.55,0,0,0-3.25-3.23,4.66,4.66,0,0,0-4,1.55c-3.85,4-4.61,12.33-5.79,17.43Q363,417.45,360.83,429a383.19,383.19,0,0,0-6.24,44.59A324.75,324.75,0,0,0,358,549.06c3.89,23.73,13.52,45.9,18,69.46,3.29,17.22.18,34.06-15.34,44.2-15.8,10.3-36.53,12-54.85,10.33-18.84-1.69-33.5-10.74-37.43-30.14-2.54-12.52-.9-25.32.44-37.86,2.63-24.74,7.95-49.07,9.79-73.87a236.62,236.62,0,0,0-5.52-71A23.48,23.48,0,0,1,265.2,464a240.14,240.14,0,0,1,4.06,55.4c-1.88,36.31-11.09,71.78-12.49,108.16-.74,19.4,3.2,37.25,21.64,47.13,21.56,11.55,49,10.09,71.94,3.85,11.87-3.24,24.8-7.75,32.55-17.9,14-18.37,8.19-40.48.47-60.06" transform="translate(-34.39 -36.18)"/><path class="cls-24" d="M383.37,600.54a270.25,270.25,0,0,1-16.12-62.37,144.69,144.69,0,0,0,6.82,42.05c3.71,11.8,8.67,23.24,11.13,35.36,4.41,21.68-1.78,44.82-23.29,54.12-19.75,8.54-43.72,11-65,11.49h-.42c17.65,3.88,37,1.9,53.88-2.69,11.87-3.24,24.8-7.75,32.55-17.9,14-18.37,8.19-40.48.47-60.06" transform="translate(-34.39 -36.18)"/><path class="cls-24" d="M270.49,546.17c2.31-27.38,2.75-55.68-4.38-82.49-.31.09-.6.2-.91.28a240.14,240.14,0,0,1,4.06,55.4c-1.87,36.31-11.09,71.78-12.48,108.17-.46,11.74.84,22.9,6,32.08A120,120,0,0,1,259.4,637c-1.54-30.75,8.52-60.42,11.09-90.82" transform="translate(-34.39 -36.18)"/><path class="cls-24" d="M373,387.5a6,6,0,0,0-1.53,1.11c-3.85,4-4.61,12.32-5.79,17.44q-2.62,11.4-4.82,22.9a383.19,383.19,0,0,0-6.24,44.59A325.3,325.3,0,0,0,358,549.06c.33,2,.76,4,1.16,6A398.38,398.38,0,0,1,373,387.5" transform="translate(-34.39 -36.18)"/><path class="cls-20" d="M515.28,421.57c1-11.33,2.19-22.81,6.41-33.37a56.33,56.33,0,0,1,3.29-6.77c-20.18-14.89-43-26.1-69.2-33.71-7-2-14.52-4.09-21.27-7.11a64.28,64.28,0,0,1,2.24,9c17.66,1.78,35,7.63,49.08,18.32,16.8,12.72,28.61,32.57,29.45,53.62" transform="translate(-34.39 -36.18)"/><path class="cls-20" d="M678.8,587.12c-22.49-48.77-58.47-91.47-90.06-135.14,18.59,41.88,45.41,80.34,71.06,118.64,4.93,7.36,9.87,14.81,13,23.1a59,59,0,0,1-3.7,48.73,37,37,0,0,1-10.51,12.4c-8.16,5.81-18.73,6.65-28.71,7.41-13.63,1-27.69,2.47-41.26,5.28l16.94.85c16.44.81,33.26,1.59,49-3.11,39.06-11.66,39-46.21,24.24-78.16" transform="translate(-34.39 -36.18)"/><path class="cls-16" d="M476.52,584.82c-.3,2.83-.53,5.68-.78,8.51.76,0,1.53,0,2.3,0,0-2.83,0-5.66.14-8.48h-1.66" transform="translate(-34.39 -36.18)"/><path class="cls-5" d="M189.75,439.27c-2.83-1.56-4.9-3.14-8.31-3.36-.52,0-1,0-1.56,0l-.16.24a57,57,0,0,1,12.6,9.68v0c.58-1.18,1.64-2.35,2.9-2.28a22.05,22.05,0,0,0-5.48-4.27" transform="translate(-34.39 -36.18)"/><path class="cls-5" d="M220.27,408.35a5.8,5.8,0,0,1-.73.67,4.74,4.74,0,0,1-.54.31A72,72,0,0,1,230.93,425a4.89,4.89,0,0,1,2.68-1.38,51.31,51.31,0,0,0-13.34-15.25" transform="translate(-34.39 -36.18)"/><path class="cls-5" d="M198.69,420c-.55.2-1.12.39-1.69.55,2.46,1.75,5,3.39,7.37,5.27,7.36,5.87,12.34,14,15.32,23a3.33,3.33,0,0,1,1.75.67A66.08,66.08,0,0,0,215,434.75,49.07,49.07,0,0,0,198.69,420" transform="translate(-34.39 -36.18)"/><path class="cls-16" d="M478.18,584.82h-1.66c-8.7-.09-17.4-.4-26.07-1.09-2.2-.17-4.59-.31-6.44.9a6.35,6.35,0,0,0-2.2,2.66,18.84,18.84,0,0,0-1.29,4.17c-3.43,15.85-9.1,30.61-13.2,45.88a130.11,130.11,0,0,0-4.92,31c16.61-4.43,33.74-5.79,51-5.87,4.59,0,9.18.06,13.78.2,7.71.21,15.43.56,23.11.95L554,583.12c-25.25.28-50.61,1.9-75.85,1.7" transform="translate(-34.39 -36.18)"/><path class="cls-17" d="M478.18,584.82h-1.66c-8.7-.09-17.4-.4-26.07-1.09-2.2-.17-4.59-.31-6.44.9a6.35,6.35,0,0,0-2.2,2.66,18.84,18.84,0,0,0-1.29,4.17c-.26,1.17-.55,2.33-.82,3.48l7.84-.47c33.55-2,67.16-1.46,100.75-.79L554,583.12c-25.25.28-50.61,1.9-75.85,1.7" transform="translate(-34.39 -36.18)"/><path class="cls-4" d="M434,578.48c-1.92-3.12-3.34-6.55-5.58-9.45-3-3.92-7.38-6.64-10.5-10.48-5.94-7.32-6.61-17.76-7.83-26.74a5,5,0,0,0-.44-1.68,3.63,3.63,0,0,0-3.39-1.56c-5.59.2-7.33,5.93-9,10.37a38.92,38.92,0,0,0-1.6,5.19,30.34,30.34,0,0,0,1,16.3c-10.89-2.73-23.86-1-33.81,1a20.35,20.35,0,0,0-6.65,2.24,15,15,0,0,0-4.55,4.56,20.27,20.27,0,0,0-2.36,17,14.77,14.77,0,0,0-1.86,9.07,12.54,12.54,0,0,0,2.66,6.16c-1.29,3.56,0,7.84,2.53,10.75a17.83,17.83,0,0,0,3.05,2.71,6.32,6.32,0,0,0-.87,1.88c-1,3.77,1,7.86,4.06,10.29s7,3.48,10.83,4.17a22.08,22.08,0,0,0,6.48.41c4.84-.57,9.16-2.38,14.05-1,4.22,1.22,8.47,3.6,12.55,5.36,7.18,3.11,16.51,3.71,24.66,2.31,4.1-15.26,9.77-30,13.2-45.88a18.84,18.84,0,0,1,1.29-4.17,34.6,34.6,0,0,1-7.86-8.81" transform="translate(-34.39 -36.18)"/><path class="cls-9" d="M396.55,559.86a2.19,2.19,0,0,1,2.34-.36c.71.17,1.41.34,2.11.55a23,23,0,0,1,4,1.7,25.7,25.7,0,0,1,3.74,2.24,14.64,14.64,0,0,1,3.18,3l-.43.59a39.41,39.41,0,0,1-3.91-1.6c-1.27-.54-2.5-1.16-3.76-1.67l-3.82-1.5-1.91-.75a2.25,2.25,0,0,1-1.73-1.5Z" transform="translate(-34.39 -36.18)"/><path class="cls-9" d="M349.14,584.35a4.82,4.82,0,0,1,2.45-3,33.33,33.33,0,0,1,3.26-1.94A27,27,0,0,1,362,577a27.87,27.87,0,0,1,7.51-.53,21.25,21.25,0,0,1,7.26,1.72l-.19.71a62.48,62.48,0,0,0-7.09-.12,38.81,38.81,0,0,0-6.88,1,41.66,41.66,0,0,0-6.52,2.29c-1,.48-2.08,1-3.09,1.55a5.73,5.73,0,0,1-3.43,1.26Z" transform="translate(-34.39 -36.18)"/><path class="cls-9" d="M350,600.31a1.78,1.78,0,0,1,0-1.4,4.94,4.94,0,0,1,.51-.92,8.77,8.77,0,0,1,1.39-1.4,21.84,21.84,0,0,1,3.23-2.27,23.35,23.35,0,0,1,7.32-2.58,32.15,32.15,0,0,1,7.62-.53,33.7,33.7,0,0,1,7.42,1.12l-.07.73-7.32.46a46.58,46.58,0,0,0-7.05,1,31.55,31.55,0,0,0-6.52,2.39,20.45,20.45,0,0,0-2.95,1.78c-.47.34-.89.72-1.38,1a5.6,5.6,0,0,1-1.52.62Z" transform="translate(-34.39 -36.18)"/><path class="cls-9" d="M355.45,614.65a1.65,1.65,0,0,1,0-1.73,3.73,3.73,0,0,1,1-1c.7-.49,1.35-.91,2.07-1.32a17.37,17.37,0,0,1,4.53-1.67,18,18,0,0,1,4.78-.55,12.3,12.3,0,0,1,4.68.91l-.1.73-4.42.66a32.73,32.73,0,0,0-4.19,1,42.34,42.34,0,0,0-4,1.57c-.64.29-1.32.6-1.9.93a3.51,3.51,0,0,1-1.8.66Z" transform="translate(-34.39 -36.18)"/><path class="cls-21" d="M473.75,242.52A100.23,100.23,0,0,0,472,231c-.58-2.72-8.14-28.16-15-20.61-3.55,3.87,2.87,11.59,4.42,15.32A72.18,72.18,0,0,1,466.53,248c1.81,25.45-14.85,52.9-33.1,69.19q-2.87,2.55-5.54,5.11a21.55,21.55,0,0,0-5,1.3c-16.13,5.62-34.74,8.28-53.17,8-17.23-.23-30.56-3.89-45.53-7.5-3.84-4.41-8.25-8.64-12.59-12.91a145.2,145.2,0,0,1-24.14-30.61c-9.47-16.32-17.26-41.28-8.05-59.36a9.87,9.87,0,0,0,1-5.55,5.72,5.72,0,0,0-1.87-3.85c-3.67-3-7.4,2.13-7.86,5.31-4.12,28.38-.89,58.13,20.37,83.35,5.93,7,13.16,13.6,18.92,20.68,9.83,12.08,15.1,25.36,18.36,38.69,2.5,10.21,8.93,21.79,22.57,28.49,11.41,5.62,28.32,6.44,41,2,15.1-5.3,22.27-16.38,26.25-26.9,2.7-7.15,3.77-14.85,8.24-21.67,4.25-6.46,10.86-12.2,16.58-18.16,21.69-22.57,33.6-50.62,30.76-81.13m-69.53,118.1c-.71,4.9-.72,10-4,14.48-5.89,8-22.92,12-35.85,8.41-12.28-3.44-18.69-11.94-22.15-20.06-3.89-9.12-5.44-18.58-9.87-27.61a42.48,42.48,0,0,0-2.55-4.4c.66.2,1.27.37,1.78.5,27.79,7.42,60.63,7,88-1h0c-8,9.13-13.81,18.75-15.38,29.66" transform="translate(-34.39 -36.18)"/><path class="cls-20" d="M66.06,536.78c12.5-9.65,25-19.3,37.8-28.57,8.69-6.29,15.25-11.63,26-14.19a199.19,199.19,0,0,1,20.43-3.41c.81-4.09,1.65-8.19,2.82-12.12.4-1.35.86-2.66,1.35-3.95-31.52,17-64.93,34.85-88.41,62.24" transform="translate(-34.39 -36.18)"/><path class="cls-17" d="M217.34,796.93c.69-22.29,4.49-43.93,8-65.53-8.47,31.81-15.52,64.22-18.38,97-.15,1.76-.25,3.7.82,5.11s3.26,1.9,5.16,2.14c2.18.26,4.37.47,6.56.69a256.42,256.42,0,0,1-2.2-39.39" transform="translate(-34.39 -36.18)"/><path class="cls-24" d="M444.57,319.42c-8.19,9-18.37,16.45-24.35,27.05s-7.24,23.35-12.63,34.16a48.09,48.09,0,0,0,10.58-17.15c2.7-7.15,3.76-14.85,8.25-21.67,4.24-6.46,10.85-12.2,16.57-18.16,16.54-17.21,27.36-37.61,30.33-59.85-6.54,20.21-14.56,40.05-28.75,55.62" transform="translate(-34.39 -36.18)"/><path class="cls-24" d="M337.82,375c-7.4-11.55-8.88-25.52-14.05-38-4.6-11.11-12.94-19-22.62-25.6,3.08,3.21,6.13,6.45,8.86,9.79,9.82,12.08,15.09,25.36,18.35,38.69a42.22,42.22,0,0,0,22.06,28.2A52.47,52.47,0,0,1,337.82,375" transform="translate(-34.39 -36.18)"/><path class="cls-25" d="M348.35,166.62s-.51,51-3.46,63.74c0,0-35.12,3.21-43.66-8.13s-6.8-25.46,1.73-40.85l8.23-6.85Z" transform="translate(-34.39 -36.18)"/><path class="cls-26" d="M348.35,166.62c-17.68-4-34.76.31-45.39,14.76a64.15,64.15,0,0,1,25.85-8c4.21-.39,12.59,2.82,16.34,1S348.6,170.43,348.35,166.62Z" transform="translate(-34.39 -36.18)"/><path class="cls-27" d="M343.5,212.52s-3.72-20.86-17.09-26.66c-12.4-5.37-22.91,2.95-26.5,9.78,0,0,9.28-8.17,23.92-5.32S343.5,212.52,343.5,212.52Z" transform="translate(-34.39 -36.18)"/><path class="cls-26" d="M306.8,224.47a20.67,20.67,0,0,0,9.32,3.88,45.33,45.33,0,0,0,10.35.37c-1,.06-2.68-.73-3.66-1.05-1.25-.4-2.49-.85-3.71-1.33a57.21,57.21,0,0,1-7-3.36,55,55,0,0,1-6.42-4.27c-.81-.64-1.7-1.71-2.74-2-1.32-.39-1.05.55-.76,1.36A14,14,0,0,0,306.8,224.47Z" transform="translate(-34.39 -36.18)"/><path class="cls-28" d="M301,198.59c5.84-8.71,21.93-10.51,32.71-1.66s11.87,21.37,9.5,25.29-23.22,13.6-37.35-.48C298.56,214.51,297.59,203.63,301,198.59Z" transform="translate(-34.39 -36.18)"/><path class="cls-29" d="M309.76,207.68a14.56,14.56,0,1,0,14.56-14.56A14.55,14.55,0,0,0,309.76,207.68Z" transform="translate(-34.39 -36.18)"/><path class="cls-30" d="M334.38,207.68a10.06,10.06,0,1,1-10.06-10.06A10.05,10.05,0,0,1,334.38,207.68Z" transform="translate(-34.39 -36.18)"/><path class="cls-31" d="M330.81,199.75a.86.86,0,0,0-.28,0,3.1,3.1,0,0,0-2.86,3.11,3.13,3.13,0,0,0,6,1.15,3.31,3.31,0,0,0,.22-1.15A3.13,3.13,0,0,0,330.81,199.75Zm-11.08,14c-.78-.54-1.88-.23-2.94.53a11.08,11.08,0,0,0-3.09,3.3c-.76,1.24-1.06,2.47-.56,3,.79.87,2.19.42,3.56-.59a11.12,11.12,0,0,0,3-3.45C320.37,215.4,320.51,214.31,319.73,213.78Z" transform="translate(-34.39 -36.18)"/><path class="cls-26" d="M343.79,213.31s-3.4-20.41-19.84-25.13c-19-5.47-26,10.69-26,10.69l-4.16-2s2.71,5.37,5.28,7.29c0,0,5.47-13,17.86-13C336.39,191.11,343.79,213.31,343.79,213.31Z" transform="translate(-34.39 -36.18)"/><path class="cls-32" d="M375.44,166.62s.52,51,3.47,63.74c0,0,35.12,3.21,43.66-8.13s6.8-25.46-1.74-40.85l-8.22-6.85Z" transform="translate(-34.39 -36.18)"/><path class="cls-26" d="M375.45,166.62c17.68-4,34.75.31,45.38,14.76a64.05,64.05,0,0,0-25.84-8c-4.2-.39-12.6,2.82-16.34,1S375.2,170.43,375.45,166.62Z" transform="translate(-34.39 -36.18)"/><path class="cls-33" d="M380.3,212.52s3.72-20.86,17.09-26.66c12.4-5.37,22.91,2.95,26.5,9.78,0,0-9.28-8.17-23.92-5.32S380.3,212.52,380.3,212.52Z" transform="translate(-34.39 -36.18)"/><path class="cls-26" d="M417,224.47a20.72,20.72,0,0,1-9.32,3.88,45.33,45.33,0,0,1-10.35.37c1,.06,2.68-.73,3.65-1.05,1.26-.4,2.5-.85,3.71-1.33a57.35,57.35,0,0,0,7-3.36,54.08,54.08,0,0,0,6.41-4.27c.82-.64,1.7-1.71,2.75-2,1.32-.39,1,.55.76,1.36A14,14,0,0,1,417,224.47Z" transform="translate(-34.39 -36.18)"/><path class="cls-28" d="M422.83,198.59c-5.83-8.71-21.92-10.51-32.7-1.66s-11.86,21.37-9.5,25.29,23.22,13.6,37.34-.48C425.23,214.51,426.21,203.63,422.83,198.59Z" transform="translate(-34.39 -36.18)"/><path class="cls-34" d="M414,207.68a14.56,14.56,0,1,1-14.55-14.56A14.54,14.54,0,0,1,414,207.68Z" transform="translate(-34.39 -36.18)"/><path class="cls-35" d="M389.42,207.68a10.06,10.06,0,1,0,10.06-10.06A10.05,10.05,0,0,0,389.42,207.68Z" transform="translate(-34.39 -36.18)"/><path class="cls-31" d="M389.88,202.89A3.12,3.12,0,0,0,393,206a3.13,3.13,0,0,0,3.14-3.12,3.1,3.1,0,0,0-2.86-3.11.89.89,0,0,0-.28,0A3.13,3.13,0,0,0,389.88,202.89Zm14.19,13.72a11.22,11.22,0,0,0,3,3.45c1.38,1,2.78,1.46,3.56.59.51-.57.21-1.8-.55-3a11.21,11.21,0,0,0-3.09-3.3c-1.06-.76-2.16-1.07-2.94-.53S403.43,215.4,404.07,216.61Z" transform="translate(-34.39 -36.18)"/><path class="cls-26" d="M380,213.31s3.41-20.41,19.84-25.13c19.05-5.47,26,10.69,26,10.69l4.16-2s-2.71,5.37-5.27,7.29c0,0-5.47-13-17.86-13C387.41,191.11,380,213.31,380,213.31Z" transform="translate(-34.39 -36.18)"/><path class="cls-36" d="M374.28,204.77a32.76,32.76,0,0,0-.2,6.1c.71,11.37,8.81,21.61,20.14,23.9,9.11,1.85,18.95-1.39,25.65-7.84,5.91-5.68,9.65-14.46,10.36-22.57.9-10.45-4.05-18.91-13.37-23.38-7.73-3.69-18.73-5.78-26.55-1.2C381.49,184.94,375.56,194.59,374.28,204.77Z" transform="translate(-34.39 -36.18)"/><path class="cls-36" d="M354.65,205.35a31.9,31.9,0,0,1,.2,6.1c-.71,11.37-8.8,21.61-20.13,23.9-9.11,1.85-18.94-1.4-25.65-7.85-5.91-5.68-9.66-14.45-10.36-22.57-.9-10.44,4.05-18.9,13.36-23.37,7.74-3.7,18.74-5.79,26.56-1.21C347.45,185.51,353.37,195.17,354.65,205.35Z" transform="translate(-34.39 -36.18)"/><path class="cls-36" d="M278,189.54q9.52,4.35,19.39,7.9" transform="translate(-34.39 -36.18)"/><path class="cls-36" d="M441.12,194.35c-2.71,1.07-8.29,3.14-11,4.12" transform="translate(-34.39 -36.18)"/><path class="cls-36" d="M353.52,200a24,24,0,0,1,21.1.39" transform="translate(-34.39 -36.18)"/><path class="cls-37" d="M366.54,217.39c-3.3-6.58-15.05,23-15.05,23s6.17,9.8,14.72,9.8,14.84-10.47,14.84-10.47S376.26,236.75,366.54,217.39Z" transform="translate(-34.39 -36.18)"/><path class="cls-38" d="M381.06,239.71s-4.25,7-10.52,9.57c0,0,0,0-.07,0a11.15,11.15,0,0,1-4.25.85c-8.57,0-14.74-9.79-14.74-9.79,10.77,5.35,21.42,2.64,26.49.69A25.71,25.71,0,0,0,381.06,239.71Z" transform="translate(-34.39 -36.18)"/><path class="cls-39" d="M381.06,239.71s-4.25,7-10.52,9.57c5.95-4,7.43-8.22,7.43-8.22s-12.8-15.15-12.33-31.25C371.51,231.26,380.84,238.13,381.06,239.71Z" transform="translate(-34.39 -36.18)"/><path class="cls-40" d="M358.11,245.78a10.2,10.2,0,0,0-3-1.07A20.91,20.91,0,0,0,361,249,7.22,7.22,0,0,0,358.11,245.78Z" transform="translate(-34.39 -36.18)"/><path class="cls-41" d="M395.87,264.89c1.43,1.57,3.47,3.1,5.72,3.16a1.56,1.56,0,0,0,1.33-.56c.56-.81-.56-2.17-1.13-2.76a13.4,13.4,0,0,0-3.38-2.23c-1-.55-2.53-1-3.19-.13S395.22,264.18,395.87,264.89Z" transform="translate(-34.39 -36.18)"/><path class="cls-42" d="M328.45,263.2c-1.07,2.11-.25,4.06,3.6,1.8a6.75,6.75,0,0,0,2-1.56,2.12,2.12,0,0,0,.29-2.32c-.59-1-2.18-1.14-3.25-.58A6.39,6.39,0,0,0,328.45,263.2Z" transform="translate(-34.39 -36.18)"/><path class="cls-43" d="M330.89,262.57c19.67,13.23,48,14.93,68.54,2.7-14.29,2.71-28.2-5.06-39.1-1.84A48,48,0,0,1,330.89,262.57Z" transform="translate(-34.39 -36.18)"/><path class="cls-44" d="M399.43,265.27s-10.57,14.19-19.88,19.22-18.91,3.13-25.26.51c-9.14-3.78-23.4-22.43-23.4-22.43s10.05,7.25,31,7.54S388.73,271.12,399.43,265.27Z" transform="translate(-34.39 -36.18)"/><path class="cls-45" d="M337.07,265.68h0c5.05,2,13.26,4.27,24.79,4.43,17.24.24,24.32.76,32.32-2.37h0s-3.27,11.54-27.87,11.57C343.66,279.34,337.07,265.68,337.07,265.68Z" transform="translate(-34.39 -36.18)"/><path class="cls-28" d="M383.65,270.05a49.66,49.66,0,0,1-18.87,2.44,68.3,68.3,0,0,1-19.55-4.31,79.24,79.24,0,0,0,16.68,1.8C371.83,270.12,378.35,270.48,383.65,270.05Z" transform="translate(-34.39 -36.18)"/><path class="cls-28" d="M391,272.33a133.4,133.4,0,0,1-23.29,2.91c-9.07.2-18.32-1.05-26.55-4.52,4.14,3.89,11.92,8.79,25.28,8.77C380.4,279.48,387.44,275.55,391,272.33Z" transform="translate(-34.39 -36.18)"/></g></g></g></svg>