<?xml version="1.0" encoding="utf-8"?>
<!-- Generator: Adobe Illustrator 25.4.0, SVG Export Plug-In . SVG Version: 6.00 Build 0)  -->
<svg version="1.1" id="Layer_1" xmlns="http://www.w3.org/2000/svg" xmlns:xlink="http://www.w3.org/1999/xlink" x="0px" y="0px"
	 viewBox="0 0 290 290" style="enable-background:new 0 0 290 290;" xml:space="preserve">
<style type="text/css">
	.st0{fill:#50D38D;}
</style>
<g id="Layer_2_00000183943096244248055680000017407358929624719233_">
	<g id="Layer_1-2">
		<path class="st0" d="M142.8,235.3c-2.8,0-5.7-0.2-8.5-0.6c-2.5-0.3-4.2-2.6-3.9-5.1s2.6-4.2,5.1-3.9c29.1,3.9,63.2-16.7,75.9-46
			c19.3-44.4,13.7-84,11.4-95.7c-12.4,0.6-54.7,4.6-91.3,29.7c-16,11-27.2,29.5-30.8,50.8c-3,17.9-0.1,35.2,8,46.1
			c1.5,2,1,4.9-1,6.3c-2,1.5-4.9,1-6.3-1l0,0c-9.6-13.1-13.1-32.4-9.6-53c4-23.8,16.7-44.5,34.7-56.8c45-30.8,96.4-31.4,100-31.4
			h0.1c2,0,3.8,1.4,4.3,3.3c0.6,2,13.2,49.4-11.1,105.2c-7.1,16.4-20,30.7-36.4,40.2C170.3,231.3,156.1,235.3,142.8,235.3z"/>
		<path class="st0" d="M60.4,238.2c-2.5,0-4.5-2.1-4.5-4.6c0-1.9,1.3-3.7,3.1-4.3c48.6-16.2,79-41.8,95.9-60.5
			c18.3-20.1,25.1-36.3,25.4-37c0.8-2,3-3.1,5.1-2.7l-0.9,4.4l4.2,1.8c-1.2,2.9-30.3,70.5-126.9,102.6
			C61.4,238.1,60.9,238.2,60.4,238.2z"/>
		<path class="st0" d="M187.6,89.2c-2.5,0-4.5-2-4.5-4.5V9.1h-80.7c-2.5,0-4.5-2-4.5-4.5c0-2.5,2-4.5,4.5-4.5h85.2
			c2.5,0,4.5,2,4.5,4.5v80.1C192.1,87.2,190.1,89.2,187.6,89.2z"/>
		<path class="st0" d="M4.5,192.2c-2.5,0-4.5-2-4.5-4.5v-85.3c0-2.5,2-4.5,4.5-4.5h93.3V41.3c0-2.5,2-4.5,4.5-4.5s4.5,2,4.5,4.5
			c0,0,0,0,0,0v61c0,2.5-2,4.5-4.5,4.5H9.1v80.8C9,190.2,7,192.2,4.5,192.2z"/>
		<path class="st0" d="M91.9,192.2H37.1c-2.5,0-4.5-2-4.5-4.5c0-2.5,2-4.5,4.5-4.5h54.9c2.5,0,4.5,2,4.5,4.5
			C96.5,190.2,94.4,192.2,91.9,192.2z"/>
		<path class="st0" d="M187.6,290h-85.2c-2.5,0-4.5-2-4.5-4.5v-69.3c0-2.5,2-4.5,4.5-4.5c2.5,0,4.5,2,4.5,4.5v64.7h76.2v-64.3
			c0-2.5,2-4.5,4.5-4.5c2.5,0,4.5,2,4.5,4.5c0,0,0,0,0,0v68.8C192.2,287.9,190.2,290,187.6,290C187.6,290,187.6,290,187.6,290z"/>
		<path class="st0" d="M285.5,192.2h-71.4c-2.5,0-4.5-2-4.5-4.5c0-2.5,2-4.5,4.5-4.5c0,0,0,0,0,0h66.8v-76.3H232
			c-2.5,0-4.5-2-4.5-4.5c0-2.5,2-4.5,4.5-4.5h53.5c2.5,0,4.5,2,4.5,4.5v85.3C290,190.2,288,192.2,285.5,192.2z"/>
	</g>
</g>
</svg>
