<svg id="visual" viewBox="0 0 960 540" width="960" height="540" xmlns="http://www.w3.org/2000/svg" xmlns:xlink="http://www.w3.org/1999/xlink" version="1.1"><path d="M0 368L22.8 365.3C45.7 362.7 91.3 357.3 137 349.3C182.7 341.3 228.3 330.7 274 338.2C319.7 345.7 365.3 371.3 411.2 385.2C457 399 503 401 548.8 397.5C594.7 394 640.3 385 686 376.3C731.7 367.7 777.3 359.3 823 352.8C868.7 346.3 914.3 341.7 937.2 339.3L960 337L960 541L937.2 541C914.3 541 868.7 541 823 541C777.3 541 731.7 541 686 541C640.3 541 594.7 541 548.8 541C503 541 457 541 411.2 541C365.3 541 319.7 541 274 541C228.3 541 182.7 541 137 541C91.3 541 45.7 541 22.8 541L0 541Z" fill="#b2ece1"></path><path d="M0 384L22.8 387.3C45.7 390.7 91.3 397.3 137 400.8C182.7 404.3 228.3 404.7 274 403.5C319.7 402.3 365.3 399.7 411.2 398.8C457 398 503 399 548.8 392.2C594.7 385.3 640.3 370.7 686 363.2C731.7 355.7 777.3 355.3 823 366.3C868.7 377.3 914.3 399.7 937.2 410.8L960 422L960 541L937.2 541C914.3 541 868.7 541 823 541C777.3 541 731.7 541 686 541C640.3 541 594.7 541 548.8 541C503 541 457 541 411.2 541C365.3 541 319.7 541 274 541C228.3 541 182.7 541 137 541C91.3 541 45.7 541 22.8 541L0 541Z" fill="#74dbe3"></path><path d="M0 460L22.8 458.5C45.7 457 91.3 454 137 443.3C182.7 432.7 228.3 414.3 274 409C319.7 403.7 365.3 411.3 411.2 414.7C457 418 503 417 548.8 419C594.7 421 640.3 426 686 432.5C731.7 439 777.3 447 823 449.2C868.7 451.3 914.3 447.7 937.2 445.8L960 444L960 541L937.2 541C914.3 541 868.7 541 823 541C777.3 541 731.7 541 686 541C640.3 541 594.7 541 548.8 541C503 541 457 541 411.2 541C365.3 541 319.7 541 274 541C228.3 541 182.7 541 137 541C91.3 541 45.7 541 22.8 541L0 541Z" fill="#14c7ef"></path><path d="M0 475L22.8 475.8C45.7 476.7 91.3 478.3 137 473.5C182.7 468.7 228.3 457.3 274 457.8C319.7 458.3 365.3 470.7 411.2 477C457 483.3 503 483.7 548.8 475.8C594.7 468 640.3 452 686 450.7C731.7 449.3 777.3 462.7 823 464.7C868.7 466.7 914.3 457.3 937.2 452.7L960 448L960 541L937.2 541C914.3 541 868.7 541 823 541C777.3 541 731.7 541 686 541C640.3 541 594.7 541 548.8 541C503 541 457 541 411.2 541C365.3 541 319.7 541 274 541C228.3 541 182.7 541 137 541C91.3 541 45.7 541 22.8 541L0 541Z" fill="#00affb"></path><path d="M0 510L22.8 508.5C45.7 507 91.3 504 137 501.8C182.7 499.7 228.3 498.3 274 500C319.7 501.7 365.3 506.3 411.2 507C457 507.7 503 504.3 548.8 504.7C594.7 505 640.3 509 686 506.5C731.7 504 777.3 495 823 492.5C868.7 490 914.3 494 937.2 496L960 498L960 541L937.2 541C914.3 541 868.7 541 823 541C777.3 541 731.7 541 686 541C640.3 541 594.7 541 548.8 541C503 541 457 541 411.2 541C365.3 541 319.7 541 274 541C228.3 541 182.7 541 137 541C91.3 541 45.7 541 22.8 541L0 541Z" fill="#2191fb"></path></svg>