<svg xmlns="http://www.w3.org/2000/svg" viewBox="0 0 497.34 527.78"><defs><style>.cls-1{fill:#f77261;}.cls-2{fill:#5f6090;}.cls-3{fill:#b9ecff;}.cls-4{fill:#605d8a;}.cls-5{fill:#cbcbc9;}.cls-6{fill:#7a626f;}.cls-7{fill:#a7a5d6;}.cls-8{fill:#0f1746;}.cls-9{fill:#201247;}.cls-10{fill:#9e9083;}.cls-11{fill:#f13b2e;}.cls-12{fill:#8cd7ec;}.cls-13{fill:#1d1c46;}.cls-14{fill:#fff;}.cls-15{fill:#000b8b;}.cls-16{fill:#040210;}.cls-17{fill:#ffb6b3;}.cls-18{fill:#f7fffd;}.cls-19{fill:#87c9fd;}.cls-20{fill:#ffb7b0;}.cls-21{fill:#0451dd;}.cls-22{fill:#ffb9ba;}.cls-23{fill:#e9f6ff;}.cls-24{fill:#98cafb;}.cls-25{fill:#96cbff;}.cls-26{fill:#57a4fe;}.cls-27{fill:#0e1486;}.cls-28{fill:#fe8982;}</style></defs><g id="Layer_2" data-name="Layer 2"><g id="Layer_1-2" data-name="Layer 1"><polyline class="cls-1" points="425.35 38.11 171.44 7.61 164.03 63.73 420.93 100.03"/><polygon class="cls-1" points="171.44 7.61 169.81 19.91 165.62 51.69 164.03 63.73 312.19 84.66 322.59 25.76 171.44 7.61"/><polygon class="cls-2" points="146.91 16.89 146.31 26.85 145.55 39.51 144.98 48.97 165.62 51.69 169.81 19.91 146.91 16.89"/><polygon class="cls-3" points="322.59 25.76 312.19 84.66 412.84 98.89 422.38 37.75 322.59 25.76"/><polygon class="cls-4" points="146.31 26.85 111.73 21.57 111.03 24.38 109.52 30.39 108.47 34.61 145.55 39.51 146.31 26.85"/><polygon class="cls-5" points="0 9.71 35.43 20.61 109.52 30.39 111.03 24.38 0 9.71"/><polygon class="cls-6" points="442.67 49.32 434.99 94.32 473.98 99.47 479.95 54.25 442.67 49.32"/><polygon class="cls-6" points="423.78 28.8 422.38 37.75 412.84 98.89 411.29 108.81 432.05 111.55 434.99 94.32 442.67 49.32 445.68 31.69 423.78 28.8"/><polygon class="cls-7" points="480.73 48.34 479.95 54.25 473.98 99.47 473.17 105.58 485.83 108.6 497.34 50.53 480.73 48.34"/><path class="cls-8" d="M162,18.88c-4.79,6.92-6.28,14.75-7.7,22.44l-8.78-.6L145,49l20.64,2.73,4.2-31.78Z"/><path class="cls-9" d="M145.55,39.51l.76-12.66-12-1.83q-1.78,4.08-3.59,8.16a.78.78,0,0,1-.6.54,2.87,2.87,0,0,1-.87,0A108.47,108.47,0,0,0,109,32.53l-.52,2.08Z"/><path class="cls-10" d="M27.58,18.19l7.85,2.42,74.09,9.78.64-2.54Q68.84,23.47,27.58,18.19Z"/><path class="cls-11" d="M166.61,44.17l-1,7.52-1.59,12L312.19,84.66l3.22-18.23C265.81,59,216.1,51.81,166.61,44.17Z"/><path class="cls-12" d="M421.63,42.56l.75-4.81-99.79-12L322,29.4A516.83,516.83,0,0,0,421.63,42.56Z"/><path class="cls-12" d="M366.49,83.57Q340.1,79.63,314,74.7l-1.76,10L412.84,98.88l1.41-9c-5.25-.58-10.5-1.23-15.74-1.89Q382.48,86,366.49,83.57Z"/><path class="cls-13" d="M425.31,103.66a8.51,8.51,0,0,1-2.9-.86,2,2,0,0,1-.87-2.3c3-19.84,11.44-38.95,11.08-59.16-.07-3.93-.68-8.16-3.81-11.88l-5-.66-1.4,9-9.54,61.13-1.55,9.93,20.76,2.74,1.12-6.54Z"/><path class="cls-13" d="M476.91,53.85a181.3,181.3,0,0,1-9.8,38,1.16,1.16,0,0,1-.67.78,4.33,4.33,0,0,1-1.78.08c-3.33-.31-6.66-.74-10-1.28a4.77,4.77,0,0,1-2-.65,1.17,1.17,0,0,1-.4-1.14q1.38-19.34,3.71-38.55l-13.3-1.76-7.68,45,39,5.15,6-45.22Z"/><path class="cls-14" d="M195,66.41a5.67,5.67,0,0,1-1.33-1.12,3.57,3.57,0,0,1-.65-1.08,3,3,0,0,1-.19-1l-.06-1c-.1-1.4-.16-2.8-.21-4.21a70.25,70.25,0,0,1,.23-8.56A72,72,0,0,1,194,40.67a24.21,24.21,0,0,1,3.48-8.27,1,1,0,0,1,1.74.43h0c.35,3,.46,5.7.52,8.46s0,5.5.12,8.28.09,5.6-.11,8.44c-.1,1.43-.21,2.86-.39,4.29l-.14,1.08a2.77,2.77,0,0,1-.27,1.07,3.21,3.21,0,0,1-.75,1.05,4.93,4.93,0,0,1-1.44,1,1.81,1.81,0,0,1-1.76-.09Z"/><path class="cls-14" d="M214.07,69.32a4.25,4.25,0,0,1-1.69-1.73,1.14,1.14,0,0,1-.08-.64l.06-.61c.06-.81.14-1.61.25-2.41a36.33,36.33,0,0,1,1-4.7c.46-1.54.79-3.11,1.31-4.68a17.26,17.26,0,0,1,2.38-4.71h0a1.06,1.06,0,0,1,1.79.11,13.1,13.1,0,0,1,1.57,5.24,39.39,39.39,0,0,1,0,5.21,22,22,0,0,1-.92,5.1,25,25,0,0,1-.89,2.46l-.25.6a1.22,1.22,0,0,1-.39.56,4,4,0,0,1-2.34.69,2.72,2.72,0,0,1-1.71-.47Z"/><path class="cls-14" d="M228.56,70.93a4.6,4.6,0,0,1-1.72-1.52.77.77,0,0,1-.08-.52l0-.47c0-.64.11-1.27.21-1.88a17.92,17.92,0,0,1,1-3.6c.48-1.17.85-2.36,1.42-3.53A11.11,11.11,0,0,1,232,56h0a1.17,1.17,0,0,1,1.64.1l.13.17a9.61,9.61,0,0,1,1.3,4.23,30.27,30.27,0,0,1-.18,4,15.29,15.29,0,0,1-.92,3.9,16,16,0,0,1-.84,1.84l-.23.45a.84.84,0,0,1-.37.41,4.32,4.32,0,0,1-2.28.33,3.46,3.46,0,0,1-1.69-.52Z"/><path class="cls-14" d="M249.82,74.31a9.34,9.34,0,0,1-1.4-.41,2.23,2.23,0,0,1-.72-.45.85.85,0,0,1-.24-.47l-.1-.47a15.71,15.71,0,0,1-.28-1.91,12.53,12.53,0,0,1,.32-3.81,19.43,19.43,0,0,1,1.17-3.68,8,8,0,0,1,2.7-3.21,1.2,1.2,0,0,1,1.67.3l.06.11v0a10.55,10.55,0,0,1,1.25,3.77c.14,1.16.13,2.28.2,3.4a15.91,15.91,0,0,1-.15,3.31c-.08.56-.19,1.11-.32,1.67l-.09.41a.73.73,0,0,1-.23.43,2.49,2.49,0,0,1-.69.44,12.28,12.28,0,0,1-1.37.48h0A2.87,2.87,0,0,1,249.82,74.31Z"/><path class="cls-14" d="M265.47,76.46A4.49,4.49,0,0,1,263.64,75a1,1,0,0,1-.13-.57v-.54c0-.72,0-1.43.06-2.14a25.83,25.83,0,0,1,.62-4.19c.35-1.39.59-2.79,1-4.19a14,14,0,0,1,2.13-4.26h0a1.1,1.1,0,0,1,1.55-.22,1.42,1.42,0,0,1,.24.25A11,11,0,0,1,271,63.68a31.07,31.07,0,0,1,.28,4.62,18.41,18.41,0,0,1-.54,4.56,21,21,0,0,1-.69,2.21l-.2.55a1,1,0,0,1-.34.52,4.08,4.08,0,0,1-2.27.69,3,3,0,0,1-1.73-.36Z"/><path class="cls-14" d="M284.15,80.15a5.13,5.13,0,0,1-1.26-1.1,2.89,2.89,0,0,1-.59-1,2.35,2.35,0,0,1-.13-1l0-1c0-1.27.06-2.54.13-3.81a66.12,66.12,0,0,1,.93-7.56c.49-2.5.9-5,1.53-7.49a30.44,30.44,0,0,1,2.85-7.34,1,1,0,0,1,1.78.21,30.84,30.84,0,0,1,1.11,7.79c.05,2.56-.12,5.1-.21,7.64a63.91,63.91,0,0,1-.81,7.57c-.22,1.25-.45,2.51-.74,3.75l-.2.93a2.29,2.29,0,0,1-.34.92,3,3,0,0,1-.8.87,5.48,5.48,0,0,1-1.49.79A2,2,0,0,1,284.15,80.15Z"/><path class="cls-14" d="M306.06,83.41A4,4,0,0,1,304,81.84a1.6,1.6,0,0,1-.21-.77l-.08-.77c-.1-1-.17-2-.19-3.08a35.94,35.94,0,0,1,.39-6.13c.33-2,.6-4.06,1.12-6.07a19.3,19.3,0,0,1,2.59-5.88,1,1,0,0,1,1.41-.27,1.05,1.05,0,0,1,.37.47,21.93,21.93,0,0,1,1.39,6.19c.17,2,.13,4,.2,6a45.72,45.72,0,0,1-.25,6c-.11,1-.25,2-.41,3l-.12.75A1.56,1.56,0,0,1,310,82a4.12,4.12,0,0,1-2.12,1.46h0A2.27,2.27,0,0,1,306.06,83.41Z"/><path class="cls-14" d="M327.32,85.17a10.69,10.69,0,0,1-1.42-.25,2.36,2.36,0,0,1-.74-.33.74.74,0,0,1-.28-.39l-.14-.4a13.6,13.6,0,0,1-.42-1.64,10.33,10.33,0,0,1-.08-3.33,17.35,17.35,0,0,1,.67-3.31,7.27,7.27,0,0,1,2.15-3.15,1.28,1.28,0,0,1,1.78.12v0a8.66,8.66,0,0,1,1.83,3.17,30,30,0,0,1,.65,3,11.11,11.11,0,0,1,.2,3c0,.5-.1,1-.18,1.52l-.06.38a.61.61,0,0,1-.2.4,2.47,2.47,0,0,1-.66.45,12,12,0,0,1-1.33.54h0A3.35,3.35,0,0,1,327.32,85.17Z"/><path class="cls-14" d="M339.51,87.79a4.32,4.32,0,0,1-2-1.21,1,1,0,0,1-.2-.55l-.05-.54c-.09-.72-.14-1.44-.16-2.15a20.33,20.33,0,0,1,.37-4.26l.42-2.11c.15-.72.3-1.36.54-2.14a8.47,8.47,0,0,1,1.25-2.58,4.19,4.19,0,0,1,2.57-1.69,1.05,1.05,0,0,1,1.22.87.82.82,0,0,1,0,.22v.22a4.78,4.78,0,0,0,.25,1.84,12.58,12.58,0,0,1,.46,1.61,17.47,17.47,0,0,1,.23,2.11l.13,2.15a19.59,19.59,0,0,1-.24,4.26,19.33,19.33,0,0,1-.45,2.11l-.13.53a1,1,0,0,1-.27.52,4.31,4.31,0,0,1-2.16.91A3.06,3.06,0,0,1,339.51,87.79Z"/><path class="cls-14" d="M353.73,90a5.21,5.21,0,0,1-1.34-1,2.93,2.93,0,0,1-.65-1,2.21,2.21,0,0,1-.19-.93l-.05-.91c-.07-1.23-.08-2.45-.09-3.68a52.57,52.57,0,0,1,.59-7.3c.39-2.42.72-4.84,1.29-7.23A26.8,26.8,0,0,1,356,60.94a1,1,0,0,1,1.78.2A29.29,29.29,0,0,1,359,68.55c.12,2.42,0,4.83,0,7.24a66.23,66.23,0,0,1-.44,7.19c-.16,1.2-.31,2.39-.52,3.58l-.14.9a2.15,2.15,0,0,1-.28.89,3,3,0,0,1-.74.87,5.6,5.6,0,0,1-1.43.84A2.11,2.11,0,0,1,353.73,90Z"/><path class="cls-14" d="M189.47,16.56a19.35,19.35,0,0,1,7-1.47c2.3-.07,4.56.2,6.84.32,4.55.3,9.1.67,13.64,1.07,9.09.81,18.15,1.89,27.18,3.16s18.06,2.63,27,4.23,17.92,3.53,26.74,6a.92.92,0,0,1,.63,1.12.9.9,0,0,1-.91.65c-9.15-.36-18.22-1.16-27.26-2.06l-27.1-2.9c-9-1-18.06-1.93-27.07-3L202.67,22c-2.25-.31-4.52-.46-6.75-1a19.36,19.36,0,0,1-6.61-2.68,1,1,0,0,1-.29-1.42A1.07,1.07,0,0,1,189.47,16.56Z"/><path class="cls-14" d="M340.54,44.59a9,9,0,0,1,4.69-2.84,9.24,9.24,0,0,1,2.27-.18h2.26c3,0,6,.09,9,.2,6,.24,12,.81,18,1.58l8.93,1.25c3,.43,5.94.89,8.9,1.46A98.13,98.13,0,0,1,412.12,51a1.4,1.4,0,0,1,.79,1.81,1.42,1.42,0,0,1-1.09.87,114.69,114.69,0,0,1-18.14,1c-3,0-6-.16-8.95-.32l-9-.4c-6-.29-11.9-.71-17.83-1.38-3-.34-5.92-.69-8.88-1.11l-2.22-.29a9.06,9.06,0,0,1-2.21-.5,8.9,8.9,0,0,1-4.27-3.42A2.15,2.15,0,0,1,340.54,44.59Z"/><path class="cls-14" d="M322.63,39.45l.24-.88c0-.13.08-.31.11-.41l.12-.3a2.89,2.89,0,0,1,.43-.79.64.64,0,0,1,.41-.25l.4-.09a10.93,10.93,0,0,1,1.6-.2,8.28,8.28,0,0,1,3.11.49A15.14,15.14,0,0,1,332,38.36a6.65,6.65,0,0,1,2.4,3,1.66,1.66,0,0,1-.53,2l0,0A8.31,8.31,0,0,1,330.54,45a23.06,23.06,0,0,1-2.81.25,8,8,0,0,1-2.68-.28,12.81,12.81,0,0,1-1.31-.47l-.33-.14a.57.57,0,0,1-.32-.3,3.39,3.39,0,0,1-.3-.84l-.07-.31c0-.1,0-.28-.06-.42l-.13-.9v-.08A5.2,5.2,0,0,1,322.63,39.45Z"/><path class="cls-14" d="M175.32,15.49a3.84,3.84,0,0,1,.57-1.32c.16-.18.28-.12.42-.17a6,6,0,0,1,.81-.1,4.42,4.42,0,0,1,1.57.25,10.41,10.41,0,0,1,1.51.65,3.93,3.93,0,0,1,1.39,1.52,1,1,0,0,1-.15,1.19,4,4,0,0,1-1.75,1.11,10.19,10.19,0,0,1-1.62.23,4.2,4.2,0,0,1-1.58-.17,7.81,7.81,0,0,1-.75-.3c-.13-.09-.26-.06-.37-.27a4.13,4.13,0,0,1-.21-1.43A3.89,3.89,0,0,1,175.32,15.49Z"/><path class="cls-15" d="M379.05,38.77c-.89-11.49-5.66-24.66-16.78-27.68-6-1.63-10.18-2.39-15.59-5.44S335.43.06,329.19,0c-8.05-.08-15.82,4.17-20.89,10.42s-7.62,14.32-8.08,22.36c-.57,9.78,1.37,20.91-5.07,28.3-3.89,4.46-10,6.32-14.47,10.16a20.9,20.9,0,0,0-7.12,17.35A20.58,20.58,0,0,0,277,98.26c2-1.11,3.91-2.29,5.82-3.46,9.41-5.78,17-12,27.6-13.78a37.76,37.76,0,0,1,4.11-.44,7.94,7.94,0,0,1,2,.12,3.16,3.16,0,0,1,1.15.44,3.58,3.58,0,0,1,1.36,2l4.4-.06A53.68,53.68,0,0,0,324,70.42,4.92,4.92,0,0,0,323,67.21a6.25,6.25,0,0,0-3-1.3A17.88,17.88,0,0,1,308.81,56a26.56,26.56,0,0,1-1.75-15.09c.66-4.3,2.26-8.68,5.58-11.48,5.05-4.25,13.06-4.11,17.34-9.13,1.18,3.53,4.55,5.86,7.93,7.43s7,2.68,10,5,5,6.33,3.58,9.79c.74-2.34,4.35-2.73,6-.94s1.57,4.74.34,6.86c-2.89,5-7.24,4.09-11.86,6a24,24,0,0,0-10.21,8.84c-3.34,4.92-5.27,10.65-7.06,16.32-2,6.47-4,13.19-3.19,19.92.06.49.17,1,.27,1.48a20.85,20.85,0,0,0,1.9,5.64,15.37,15.37,0,0,0,9.32,8.2c8.6,2.38,17-4.38,22.48-11.41A90.47,90.47,0,0,0,367,92.24,94.24,94.24,0,0,0,379.05,38.77Z"/><path class="cls-16" d="M289.37,515.84a10,10,0,0,1-.7.76,22.52,22.52,0,0,1-6,3.08,53.47,53.47,0,0,0-9.34,5.09,1.1,1.1,0,0,0-.56.66c-.11.6.68.91,1.29,1,8.93,1.11,17.82,1.19,26.87,1.36a4,4,0,0,0,2-.3c1.6-.85.34-2.53-.22-3.6a16.88,16.88,0,0,1-1.73-8.24A57.25,57.25,0,0,0,289.37,515.84Z"/><path class="cls-17" d="M324.3,102.43l1.49-1.41c-.1-.49-.21-1-.27-1.48-.78-6.73,1.15-13.45,3.19-19.92,1.79-5.67,3.72-11.4,7.06-16.32A24,24,0,0,1,346,54.46c4.62-1.94,9-1,11.86-6,1.23-2.12,1.35-5.08-.34-6.86s-5.3-1.4-6,.94c1.38-3.46-.66-7.48-3.58-9.79s-6.59-3.43-10-5-6.75-3.9-7.93-7.43c-4.28,5-12.29,4.88-17.34,9.13-3.32,2.8-4.92,7.18-5.58,11.48A26.56,26.56,0,0,0,308.81,56,17.88,17.88,0,0,0,320,65.91a6.25,6.25,0,0,1,3,1.3A4.92,4.92,0,0,1,324,70.42a53.68,53.68,0,0,1-.57,12.66l-4.4.06a12.56,12.56,0,0,1,.45,2.09C320.46,92.19,320.82,96.15,324.3,102.43Z"/><path class="cls-18" d="M314.55,80.58a37.76,37.76,0,0,0-4.11.44,49.08,49.08,0,0,1-2,9.74c-1.54,4.87-6.41,10-7.32,14.64-.33,1.65,2.58,2.83,2.05,4.86-.62,2.36-2.74,3.87-3.64,6.08-1.86,4.53-2,9.22-1.65,14.06a283.63,283.63,0,0,1-.24,39.22c8-29.24,16.15-58.79,18.9-88.92A7.94,7.94,0,0,0,314.55,80.58Z"/><path class="cls-19" d="M327.69,106.66a20.85,20.85,0,0,1-1.9-5.64l-1.49,1.41c-3.48-6.28-3.84-10.24-4.78-17.2a12.56,12.56,0,0,0-.45-2.09,3.58,3.58,0,0,0-1.36-2,3.16,3.16,0,0,0-1.15-.44c-2.75,30.13-10.94,59.68-18.9,88.92q-1.44,5.26-2.85,10.52c.61.11,1.22.22,1.83.31,2.48.4,5,.74,7.46,1,1.81.2,3.62.34,5.44.47-.67-17,4.66-33.77,9.95-50Q323.59,119.28,327.69,106.66Z"/><path class="cls-20" d="M423.44,515.5c.93-.11,1.86-.26,2.79-.42-3.1-2.22-5-5.68-6.35-9.34a8.07,8.07,0,0,1-1.08.11c-2.26.06-4.43-.11-6.63-.15l1.44,4.1a16,16,0,0,1,1.27,5.87c0,.05,0,.1,0,.15A66.17,66.17,0,0,0,423.44,515.5Z"/><path class="cls-21" d="M421.82,501c-6.86-26.38-9.69-53.54-15-80.38-4.6-23.17-9.63-46.27-14-69.49q-21.09,2.43-41.95,6.47c17.68,49.89,38.53,98.88,57.55,148.21a26,26,0,0,1,3.73-.13c2.2,0,4.37.21,6.63.15a8.07,8.07,0,0,0,1.08-.11,2.91,2.91,0,0,0,1.6-.72C422.46,504,422.17,502.38,421.82,501Z"/><path class="cls-16" d="M443,523.4a21.64,21.64,0,0,0-6.62-4.26c-3.23-1.31-6.82-1.85-9.74-3.77-.14-.09-.25-.2-.38-.29-.93.16-1.86.31-2.79.42a66.17,66.17,0,0,1-8.57.32c-.18,3.33-2.26,6.82-.69,9.76L440.31,527c1.57.09,3.77-.4,3.65-2A2.62,2.62,0,0,0,443,523.4Z"/><path class="cls-20" d="M300.15,506.38c-2.47-.16-4.94-.37-7.41-.6a19.63,19.63,0,0,1-.11,2.54,12.89,12.89,0,0,1-3.26,7.52,57.25,57.25,0,0,1,11.62-.21,84.24,84.24,0,0,1,.9-9.19C301.31,506.44,300.72,506.42,300.15,506.38Z"/><path class="cls-22" d="M267.81,19.18a4.22,4.22,0,0,0-.78-1.76c-1.1-1.45-3-2-4.78-2.32C258.5,14.45,252,13.53,249.36,17a5.08,5.08,0,0,0-.91,1.93c-1.5,6.1,4.22,9.36,9.82,9.24,3.17-.07,6.31-1.22,8.07-3.55A7.13,7.13,0,0,0,267.81,19.18Z"/><path class="cls-18" d="M330.9,118.36l-3.38-2.65a11.27,11.27,0,0,0,5.38-2.83,17.08,17.08,0,0,1-5.21-6.22q-4.11,12.61-8.2,25.23c-3.53,10.86-7.07,21.94-8.84,33.17l.25-.6Z"/><path class="cls-23" d="M347,183.71a2,2,0,0,0-.61,1,2,2,0,0,0,.11.81,29.9,29.9,0,0,0,4.88,9.59.92.92,0,0,0,1.55.24c2.44-1.68,4.85-3.43,7.28-5.16q-2.49-7.33-4.85-14.71C352.54,178.16,349.72,180.89,347,183.71Z"/><path class="cls-24" d="M273.51,354.55a18.67,18.67,0,0,1-.87,3.8c2-.16,3.95-.25,5.93-.29-.66-7.69-1.41-15.38-2.34-23.05Q274.88,344.79,273.51,354.55Z"/><path class="cls-24" d="M330.63,301.7q-2.47-6-5-12c-1.27,22.23-3,44.4-4.81,66.55q8.11-.73,16.28-.77c-.07-.39-.14-.78-.19-1.18C334.58,336.89,332.88,319.18,330.63,301.7Z"/><path class="cls-23" d="M310.44,81c-10.61,1.75-18.19,8-27.6,13.78C280.93,96,279,97.15,277,98.26c-5.4,3-11.06,5.56-17.17,6a2.84,2.84,0,0,1-2.13-.47,3,3,0,0,1-.58-2.56q1-12,2-24L239,74.32q-1.52,24.09-3,48.19c-.17,2.81-.32,5.79,1,8.26,3.34,6.16,12.43,4.82,19.08,2.61l26.81-8.92c4,5.58,4.51,13,3.15,19.77s-4.36,13-6.93,19.37a168.76,168.76,0,0,0-11.15,45.58c-2.79,26.56-5.9,53.31-8.66,80-2.46,23.92-7.62,48.49-22,67.81l27.86,5a8.27,8.27,0,0,0,4.36,0,5.59,5.59,0,0,0,3.11-3.61,18.67,18.67,0,0,0,.87-3.8q1.37-9.76,2.72-19.54c4.33-31.45,8.32-63,10.28-94.65,1.12-18.19,2-36.44,6.67-54.08.53-2.05,1.08-4.09,1.63-6.14q1.41-5.25,2.85-10.52a283.63,283.63,0,0,0,.24-39.22c-.31-4.84-.21-9.53,1.65-14.06.9-2.21,3-3.72,3.64-6.08.53-2-2.38-3.21-2.05-4.86.91-4.66,5.78-9.77,7.32-14.64A49.08,49.08,0,0,0,310.44,81Z"/><path class="cls-21" d="M306.31,244.6c6.27,15.14,12.92,30,19.3,45.06q2.55,6,5,12c-1-7.72-2.09-15.4-3.4-23-4.52-26-10-51.85-15-77.75a139.3,139.3,0,0,1-2.57-17c-.05-.69-.06-1.37-.09-2.06-1.82-.13-3.63-.27-5.44-.47q-.39,14.35-.77,28.71C303,222.06,301.65,233.36,306.31,244.6Z"/><path class="cls-21" d="M306.31,244.6c-4.66-11.24-3.3-22.54-3-34.43q.39-14.35.77-28.71c-2.5-.27-5-.61-7.46-1-.61-.09-1.22-.2-1.83-.31-.55,2.05-1.1,4.09-1.63,6.14-4.64,17.64-5.55,35.89-6.67,54.08-2,31.69-5.95,63.2-10.28,94.65.93,7.67,1.68,15.36,2.34,23.05,1.52,17.83,2.45,35.72,3.32,53.59,1.52,31.09,3.18,62.37,5.21,93.55q2.82.32,5.64.58c2.47.23,4.94.44,7.41.6.57,0,1.16.06,1.74.06a6.83,6.83,0,0,0,3.61-.81c2.44-1.5,2.9-4.79,3.1-7.64,3.48-47.38,8.24-94.52,12.2-141.78,1.85-22.15,3.54-44.32,4.81-66.55C319.23,274.65,312.58,259.74,306.31,244.6Z"/><path class="cls-23" d="M396.27,307.54c-1.63-8.26-3.27-16.52-5.39-24.66-5.25-20.14-13.75-39.31-19.73-59.3-3.37-11.26-7.17-22.33-10.91-33.41-2.43,1.73-4.84,3.48-7.28,5.16a.92.92,0,0,1-1.55-.24,29.9,29.9,0,0,1-4.88-9.59,2,2,0,0,1-.11-.81,2,2,0,0,1,.61-1c2.69-2.82,5.51-5.55,8.36-8.25-.69-2.14-1.4-4.27-2.06-6.42-1.69-5.47-1-11.44-.27-17.13a120.39,120.39,0,0,1,5.23-22.06c6.51,7.59,11.55,17.21,14.83,26.24a3.59,3.59,0,0,1,.29,2.22,3.7,3.7,0,0,1-1.13,1.51c-5.56,5.23-11.32,10.36-16.89,15.64q2.37,7.36,4.85,14.71c13.17-9.4,26.11-19.41,39.17-28.95a8.8,8.8,0,0,0,3.11-3.22c1.14-2.51-.26-5.39-1.64-7.79q-16.67-29.15-33.89-58a90.47,90.47,0,0,1-7.5,11.21c-5.5,7-13.88,13.79-22.48,11.41a12.93,12.93,0,0,1-4.11-2,11.27,11.27,0,0,1-5.38,2.83l3.38,2.65-20,46.1-.25.6a86.65,86.65,0,0,0-1.11,16.87c0,.69,0,1.37.09,2.06a139.3,139.3,0,0,0,2.57,17c5,25.9,10.51,51.76,15,77.75,1.31,7.59,2.4,15.27,3.4,23,2.25,17.48,3.95,35.19,6.26,52.56.05.4.12.79.19,1.18a5,5,0,0,0,.91,2.22c1.53,1.92,4.49,1.6,6.9,1.1,2-.4,4-.75,6-1.14q20.85-4,41.95-6.47c3.94-.45,7.88-.9,11.82-1.27Q400.46,328.72,396.27,307.54Z"/><path class="cls-25" d="M352.12,195.64a1.28,1.28,0,0,1-.71-.55,29.9,29.9,0,0,1-4.88-9.59,2,2,0,0,1-.11-.81,2,2,0,0,1,.61-1c2.69-2.82,5.51-5.55,8.36-8.25-.2-.63-.4-1.26-.61-1.89q-4.72,4.94-9.44,9.86a1.69,1.69,0,0,0-.54.86,1.66,1.66,0,0,0,.19.86l3.22,7.77a9.38,9.38,0,0,0,1.58,2.81,15.9,15.9,0,0,0,3.12,2.16,10.81,10.81,0,0,1,3.46,3.78A5.76,5.76,0,0,0,354.8,199c-.64-.83-1.14-2-.54-2.9a2.9,2.9,0,0,1,1-.82l5.59-3.17c-.22-.64-.44-1.28-.65-1.92-2.43,1.73-4.84,3.48-7.28,5.16A1.29,1.29,0,0,1,352.12,195.64Z"/><path class="cls-25" d="M373.12,156.09a6.08,6.08,0,0,1,.35,1.38,5.45,5.45,0,0,0,.37-.85,9.15,9.15,0,0,0,.09-3.9c-.79-5.38-3.14-10.4-5.7-15.19a157.14,157.14,0,0,0-13.07-20.48A65.54,65.54,0,0,1,354,134.17q-.37,8.34-.76,16.64a121.94,121.94,0,0,1,5.06-21C364.8,137.44,369.84,147.06,373.12,156.09Z"/><path class="cls-25" d="M259.11,77.16,239,74.32c-.21,3.3-.42,6.61-.62,9.91q9.63,4,19.56,7.27Q258.52,84.33,259.11,77.16Z"/><path class="cls-25" d="M310.44,81c-.44.08-.84.2-1.27.29a33.62,33.62,0,0,1-6.54,16.24,24.77,24.77,0,0,0-3.25,4.72,5.71,5.71,0,0,0,.12,5.5,6.36,6.36,0,0,1,1,1.48c.66,2-3,4.69-3.71,6.52-1.22,3-1,6.6-.79,9.78.8,14.77,2.08,29.83,1.52,44.72l.18-.65a283.63,283.63,0,0,0,.24-39.22c-.31-4.84-.21-9.53,1.65-14.06.9-2.21,3-3.72,3.64-6.08.53-2-2.38-3.21-2.05-4.86.91-4.66,5.78-9.77,7.32-14.64A49.08,49.08,0,0,0,310.44,81Z"/><path class="cls-25" d="M330.51,116a29.26,29.26,0,0,0,3.62-2.42,13.73,13.73,0,0,1-1.23-.73,11.27,11.27,0,0,1-5.38,2.83l3.38,2.65-20,46.1-.25.6c-.08.51-.14,1-.21,1.53l20.22-44.38C331.59,120.17,332.33,117.34,330.51,116Z"/><path class="cls-26" d="M321,118.48c-1.8,3.41-3.6,6.82-5.09,10.37-4.74,11.35-6.09,23.79-9.63,35.57a17.26,17.26,0,0,1-3.48,7,11.81,11.81,0,0,1-6.58,3.33q-.74,2.69-1.45,5.35c.61.11,1.22.22,1.83.31,2.48.4,5,.74,7.46,1,1.81.2,3.62.34,5.44.47-.67-17,4.66-33.77,9.95-50q4.1-12.61,8.2-25.23c-.07-.14-.11-.28-.18-.42Z"/><path class="cls-27" d="M325.61,289.66c-6.38-15-13-29.92-19.3-45.06-4.66-11.24-3.3-22.54-3-34.43q.39-14.35.77-28.71c-2.5-.27-5-.61-7.46-1-.61-.09-1.22-.2-1.83-.31-.55,2.05-1.1,4.09-1.63,6.14-1.14,4.33-2.05,8.7-2.8,13.09,2.91,15.23,7.23,30.46,5.18,45.7-1,7.15-3.34,14.19-3,21.4.55,10.64,6.75,19.48,9.65,29.46s1.05,20.34,3.09,30.41c2.49,12.24,12.48,21.92,15,34.15,0,.14,0,.28.06.42.14-1.56.28-3.13.41-4.7C322.65,334.06,324.34,311.89,325.61,289.66Z"/><path class="cls-28" d="M321.8,66.46a3.44,3.44,0,0,1,1.19.75A4.92,4.92,0,0,1,324,70.42a53.68,53.68,0,0,1-.57,12.66l-4.4.06a12.56,12.56,0,0,1,.45,2.09c.94,7,1.3,10.92,4.78,17.2l1.49-1.41c-.1-.49-.21-1-.27-1.48-.78-6.73,1.15-13.45,3.19-19.92,1.79-5.67,3.72-11.4,7.06-16.32.13-.2.28-.38.41-.57a35.68,35.68,0,0,1-4.1,1.81A38.52,38.52,0,0,1,321.8,66.46Z"/></g></g></svg>