<svg xmlns="http://www.w3.org/2000/svg" xmlns:xlink="http://www.w3.org/1999/xlink" viewBox="0 0 891.33 802.56"><defs><style>.cls-1{isolation:isolate;}.cls-10,.cls-11,.cls-12,.cls-13,.cls-14,.cls-15,.cls-16,.cls-17,.cls-18,.cls-19,.cls-2,.cls-20,.cls-21,.cls-22,.cls-23,.cls-24,.cls-25,.cls-26,.cls-27,.cls-28,.cls-29,.cls-3,.cls-30,.cls-31,.cls-32,.cls-33,.cls-34,.cls-35,.cls-36,.cls-37,.cls-38,.cls-39,.cls-4,.cls-40,.cls-41,.cls-42,.cls-43,.cls-44,.cls-45,.cls-46,.cls-47,.cls-48,.cls-49,.cls-5,.cls-50,.cls-51,.cls-52,.cls-55,.cls-6,.cls-7,.cls-8,.cls-9{fill-rule:evenodd;}.cls-2{fill:url(#linear-gradient);}.cls-3{fill:#1f5ebb;}.cls-4{fill:#6d6afd;}.cls-10,.cls-18,.cls-20,.cls-23,.cls-25,.cls-26,.cls-27,.cls-29,.cls-33,.cls-38,.cls-39,.cls-4,.cls-41,.cls-43,.cls-44,.cls-45,.cls-46,.cls-47,.cls-48,.cls-49,.cls-50,.cls-51,.cls-6,.cls-8{mix-blend-mode:multiply;}.cls-10,.cls-18,.cls-30,.cls-33,.cls-38,.cls-39,.cls-4,.cls-41,.cls-43,.cls-44,.cls-45,.cls-46,.cls-47,.cls-48,.cls-49,.cls-50,.cls-51,.cls-8{opacity:0.5;}.cls-5{fill:url(#linear-gradient-2);}.cls-20,.cls-23,.cls-25,.cls-26,.cls-27,.cls-29,.cls-6{opacity:0.55;}.cls-6{fill:url(#linear-gradient-3);}.cls-7{fill:url(#linear-gradient-4);}.cls-8{fill:url(#linear-gradient-5);}.cls-9{fill:url(#linear-gradient-6);}.cls-10{fill:url(#linear-gradient-7);}.cls-11{fill:#ffa698;}.cls-12{fill:url(#linear-gradient-8);}.cls-13{fill:url(#linear-gradient-9);}.cls-14{fill:#22043d;}.cls-15{fill:url(#linear-gradient-10);}.cls-16{fill:url(#linear-gradient-11);}.cls-17{fill:#5587c4;}.cls-18{fill:url(#GradientFill_1);}.cls-19{fill:url(#linear-gradient-12);}.cls-20{fill:url(#linear-gradient-13);}.cls-21{fill:#637afb;}.cls-22{fill:url(#linear-gradient-14);}.cls-23{fill:url(#linear-gradient-15);}.cls-24{fill:url(#linear-gradient-16);}.cls-25{fill:url(#linear-gradient-17);}.cls-26{fill:url(#linear-gradient-18);}.cls-27{fill:url(#linear-gradient-19);}.cls-28{fill:url(#linear-gradient-20);}.cls-29{fill:url(#linear-gradient-21);}.cls-30,.cls-32,.cls-55,.cls-56{fill:#fff;}.cls-31{fill:#d1edfb;}.cls-32{opacity:0.7;}.cls-33{fill:#b1c5da;}.cls-34{fill:#f47811;}.cls-35{fill:#2cdbc1;}.cls-36{fill:#20c9ad;}.cls-37{fill:#1ab59b;}.cls-38{fill:url(#linear-gradient-22);}.cls-39{fill:url(#linear-gradient-23);}.cls-40{fill:#2ad1b1;}.cls-41{fill:url(#linear-gradient-24);}.cls-42{fill:#3eedcf;}.cls-43{fill:url(#linear-gradient-25);}.cls-44{fill:url(#linear-gradient-26);}.cls-45{fill:url(#linear-gradient-27);}.cls-46{fill:url(#linear-gradient-28);}.cls-47{fill:url(#linear-gradient-29);}.cls-48{fill:url(#linear-gradient-30);}.cls-49{fill:url(#linear-gradient-31);}.cls-50{fill:url(#linear-gradient-32);}.cls-51{fill:url(#linear-gradient-33);}.cls-52,.cls-53{fill:none;stroke:#fff;stroke-linecap:round;stroke-linejoin:round;stroke-width:2.71px;}.cls-54{fill:#70abf2;}</style><linearGradient id="linear-gradient" x1="1487.95" y1="151.96" x2="1506.45" y2="246.4" gradientTransform="matrix(-1, 0, 0, 1, 1634.52, 0)" gradientUnits="userSpaceOnUse"><stop offset="0" stop-color="#d2eefb"/><stop offset="1" stop-color="#c3e6f7"/></linearGradient><linearGradient id="linear-gradient-2" x1="1419.91" y1="584.06" x2="1496.66" y2="595.39" xlink:href="#linear-gradient"/><linearGradient id="linear-gradient-3" x1="1426.24" y1="583.11" x2="1499.52" y2="593.53" xlink:href="#linear-gradient"/><linearGradient id="linear-gradient-4" x1="1406.72" y1="566.11" x2="1516.36" y2="582.28" xlink:href="#linear-gradient"/><linearGradient id="linear-gradient-5" x1="1406.84" y1="562.27" x2="1517.16" y2="578.3" xlink:href="#linear-gradient"/><linearGradient id="linear-gradient-6" x1="1481.63" y1="257.5" x2="1533.4" y2="372.2" xlink:href="#linear-gradient"/><linearGradient id="linear-gradient-7" x1="1559.94" y1="299.16" x2="1570.78" y2="387.82" xlink:href="#linear-gradient"/><linearGradient id="linear-gradient-8" x1="1514.41" y1="209.96" x2="1516.49" y2="215.76" gradientTransform="matrix(-1, 0, 0, 1, 1634.52, 0)" gradientUnits="userSpaceOnUse"><stop offset="0" stop-color="#ff8a78"/><stop offset="1" stop-color="#ffa799"/></linearGradient><linearGradient id="linear-gradient-9" x1="1502.85" y1="134.31" x2="1507.15" y2="158.94" gradientTransform="matrix(-1, 0, 0, 1, 1634.52, 0)" gradientUnits="userSpaceOnUse"><stop offset="0" stop-color="#5a2d68"/><stop offset="1" stop-color="#22043d"/></linearGradient><linearGradient id="linear-gradient-10" x1="1497.47" y1="186.09" x2="1520.92" y2="175.93" gradientTransform="matrix(-1, 0, 0, 1, 1634.52, 0)" gradientUnits="userSpaceOnUse"><stop offset="0" stop-color="#ffb89e"/><stop offset="1" stop-color="#ffa799"/></linearGradient><linearGradient id="linear-gradient-11" x1="1510.35" y1="176.77" x2="1487.8" y2="185.17" xlink:href="#linear-gradient-8"/><linearGradient id="GradientFill_1" x1="1490.06" y1="351.78" x2="1543.49" y2="425.8" gradientTransform="matrix(-1, 0, 0, 1, 1634.52, 0)" gradientUnits="userSpaceOnUse"><stop offset="0" stop-color="#005b90"/><stop offset="1" stop-color="#00345a"/></linearGradient><linearGradient id="linear-gradient-12" x1="1557.66" y1="236.34" x2="1577.63" y2="367.12" xlink:href="#linear-gradient"/><linearGradient id="linear-gradient-13" x1="1528.13" y1="397.8" x2="1613.32" y2="363.77" xlink:href="#linear-gradient"/><linearGradient id="linear-gradient-14" x1="1397.65" y1="275.24" x2="1439.74" y2="368.5" xlink:href="#linear-gradient"/><linearGradient id="linear-gradient-15" x1="1394.95" y1="293.78" x2="1430.6" y2="372.76" xlink:href="#linear-gradient"/><linearGradient id="linear-gradient-16" x1="1530.33" y1="183.85" x2="1500.94" y2="200.53" xlink:href="#linear-gradient"/><linearGradient id="linear-gradient-17" x1="1517.14" y1="188.4" x2="1494.48" y2="194.55" xlink:href="#linear-gradient"/><linearGradient id="linear-gradient-18" x1="1517.48" y1="193.69" x2="1495.83" y2="200.54" xlink:href="#linear-gradient"/><linearGradient id="linear-gradient-19" x1="1516.43" y1="200.57" x2="1496.88" y2="206.75" xlink:href="#linear-gradient"/><linearGradient id="linear-gradient-20" x1="1515.68" y1="211.94" x2="1547.21" y2="351.77" xlink:href="#linear-gradient"/><linearGradient id="linear-gradient-21" x1="1530.27" y1="196.62" x2="1557.02" y2="321.01" xlink:href="#linear-gradient"/><linearGradient id="linear-gradient-22" x1="1042.34" y1="390.27" x2="1121.31" y2="237.01" gradientTransform="matrix(-1, 0, 0, 1, 1634.52, 0)" gradientUnits="userSpaceOnUse"><stop offset="0" stop-color="#1c8ef4"/><stop offset="1" stop-color="#00cfdd"/></linearGradient><linearGradient id="linear-gradient-23" x1="983.74" y1="344.08" x2="1050.02" y2="215.46" xlink:href="#linear-gradient-22"/><linearGradient id="linear-gradient-24" x1="1118.05" y1="408.18" x2="1206.06" y2="237.38" xlink:href="#linear-gradient-22"/><linearGradient id="linear-gradient-25" x1="944.26" y1="330.89" x2="1032.44" y2="159.76" xlink:href="#linear-gradient-22"/><linearGradient id="linear-gradient-26" x1="963.1" y1="317.41" x2="1048.91" y2="150.89" xlink:href="#linear-gradient-22"/><linearGradient id="linear-gradient-27" x1="1053.06" y1="287.69" x2="1110.17" y2="176.86" xlink:href="#linear-gradient-22"/><linearGradient id="linear-gradient-28" x1="1105.05" y1="338.85" x2="1167.52" y2="217.63" xlink:href="#linear-gradient-22"/><linearGradient id="linear-gradient-29" x1="1098.46" y1="412.16" x2="1181.17" y2="251.65" xlink:href="#linear-gradient-22"/><linearGradient id="linear-gradient-30" x1="984.87" y1="357.88" x2="1081.71" y2="169.94" xlink:href="#linear-gradient-22"/><linearGradient id="linear-gradient-31" x1="1072.3" y1="305.86" x2="1122.64" y2="208.16" xlink:href="#linear-gradient-22"/><linearGradient id="linear-gradient-32" x1="1027.71" y1="344.61" x2="1088.29" y2="227.04" xlink:href="#linear-gradient-22"/><linearGradient id="linear-gradient-33" x1="1049.29" y1="362.67" x2="1127.03" y2="211.81" xlink:href="#linear-gradient-22"/></defs><g class="cls-1"><g id="Layer_2" data-name="Layer 2"><g id="Layer_1-2" data-name="Layer 1"><path class="cls-2" d="M167.8,137.69c3.71,34.13-5.23,56.23-17.41,87.48l-24-1-11.15-38,24-36.63Z"/><path class="cls-3" d="M77,791.68c9.47,7.5,12.68,10.62,24.73,10.87,9.82.21,13.12-2.23,18.67-6.56,6.16-4.8,8.07-7.8,7.95-12-.23-8.12-4.73-15.46-5.41-25.63l-19.71,1.17-8.59-3.6C91,760.64,83,769.42,77.46,777.13,74.72,780.94,75.73,787.72,77,791.68Z"/><path class="cls-4" d="M125.16,769.59A52.47,52.47,0,0,1,123,758.31l-19.71,1.17-8.59-3.6c-1.46,1.87-3.58,4.37-6,7.18C96.57,770.62,120.23,774.54,125.16,769.59Z"/><path class="cls-3" d="M224,750.73c-1.62,8-6.52,14.17-7.29,20.08-1.33,10.17,4.53,20.39,16.56,20.5l78.7.7c-4.17-26.89-46.24-12-60.37-41.8l-18.31,1Z"/><path class="cls-4" d="M224,750.73a37.81,37.81,0,0,1-2.38,7.32c7.38,5.11,21.6,8.57,38.08,2.91a32.22,32.22,0,0,1-8.1-10.75l-18.31,1Z"/><path class="cls-5" d="M179.38,412c24,117,41.83,223.58,77.92,339.25-7.73,8-29.91,7.57-39.6,4.77-53.48-129.92-93.13-188.62-117.64-331.76Z"/><path class="cls-6" d="M182.36,427.06l1.45,7.06c-6.1,5.57-20.45,9.72-33.5,15-4.69,1.89-8,46.65-7.57,48.59,8,36,24.79,67.67,33.62,101.61C186.15,637,201.64,676.69,217.7,756c-53.48-129.92-93.13-188.62-117.64-331.76Z"/><path class="cls-7" d="M61.62,409.36c-9.49,40.4-13.1,47.66-12.37,68.22,1.43,40.1,9.59,86.33,17.23,132.51C75,661.31,83,707.91,87.54,759.69c14.95,8.6,26.43,5.78,38.44-.77-1.61-49.21-2.3-97.94-2.79-147-.77-77.66,12.62-133.24,28.08-207.08Z"/><path class="cls-8" d="M61.62,409.36c-9.49,40.4-13.1,47.66-12.37,68.22,1.43,40.1,9.59,86.33,17.23,132.51C75,661.31,83,707.91,87.54,759.69c9.92-45.23-5-136-13.82-212-4.35-37.57-6-68.95-1.92-96.89,25.75-5.82,60.36-3.24,70.84-5.12,2.91-14.09,5.42-25.59,8.63-40.89Z"/><path class="cls-9" d="M65.93,301.68c-.11,11.95-4.25,84.42-10.42,124,35.16,17,94.37,17.25,131.16,2.06-4.4-34.55-10.88-83.76-7.8-117.75.54-5.89,48.52-35.28,9.53-68.2-14.83-12.52-53.16-24.14-72.16-23.38C82.62,219.73,65,230.53,45.85,249.63Z"/><path class="cls-10" d="M65.93,301.68c-.11,11.95-4.25,84.42-10.42,124,13.65-15.91,26.24-99.84,27.9-143.86Z"/><path class="cls-11" d="M104.31,195a242.18,242.18,0,0,1-3.42,27.09c3.5,12.26,15.14,21.7,26.52,20.16,9.8-1.32,12.17-16,8.82-24.16-.48-4-.66-7.34-.77-11.35l-24.77-7.23Z"/><path class="cls-12" d="M104,194.75c-.12,2.36-.44,9.73-.59,11.87,10.6,14.94,25.14,20.26,34,15.44a82.37,82.37,0,0,1-1.9-15.31l-24.77-7.23Z"/><path class="cls-13" d="M101.81,187.41c-6.45-.57-7.43-3.07-7.7-7.56s-.48-3.43-2.17-7.4a17.62,17.62,0,0,1-1.38-5.4c-.52-5.74,1.51-8.57,2.55-12.58,1.29-5-.32-7.47-.31-10.93.09-16.73,17.26-26.51,29.82-15.27,7.93-8,16.33-5.81,22.72.71,10.39-2.87,13.95-1.53,18,7.08,7.91,16.69,0,23.2-9,24.52L121.63,177Z"/><path class="cls-14" d="M101.81,187.41c-6.45-.57-7.43-3.07-7.7-7.56s-.48-3.43-2.17-7.4a17.62,17.62,0,0,1-1.38-5.4c-.52-5.74,1.51-8.57,2.55-12.58l0-.16c2,7.6,9.68,11.13,13,2.17,4.9-2,8.59-5.23,10.44-9.67,2.35-5.62,5.71-8.14,11.71-4.47,13.88,8.53,21.3,19,38.1,10.16-3.1,7.34-5.6,7.17-11.32,8L121.63,177Z"/><path class="cls-15" d="M155.87,165.05c-3.34,16.15-5.4,33.07-15.78,46.39-3.78,4.84-8.29,7.24-16.3,3-5.56-2.93-11-7.37-15.82-11.14-7.36-5.72-5.22-8.71-5.8-12a20.2,20.2,0,0,0-1.61-4.71c-2.19-4.77-7-8.64-5.69-14.14,1.22-5.06,5.75-6.67,6.71-2.7,1.35,5.55,5.2,15.38,7.68-11.2,6.13-2.4,7.53-3.64,10-7.39s4.74-6.45,8.83-2.52C136.51,156.7,143.62,164.23,155.87,165.05Z"/><path class="cls-16" d="M157.15,159.79c-.33,1.58-1,4.51-1.32,6.1-17.87-1-35.71-9.13-41.91-3.33-2.2,2.05-6,29.5-10,36.48-2.1,3.6.18-19.93-1.4-22.93-1.06-2-2.37-10.06-6.48-6.35,1.82-2.8,4.82-3.16,5.58,0,1,4.29,2.68,10.53,4.92,1.15.66-2.76,2.2-6.31,2.76-12.35,6.13-2.4,7.53-3.64,10-7.39s4.74-6.45,8.83-2.52C136.51,156.7,144.9,157.25,157.15,159.79Z"/><path class="cls-17" d="M160.15,319.09,89.29,305.41A5.78,5.78,0,0,0,82.53,310L61.3,421.25A5.8,5.8,0,0,0,65.87,428l70.86,13.68a5.79,5.79,0,0,0,6.76-4.57l21.22-111.28A5.78,5.78,0,0,0,160.15,319.09Z"/><path class="cls-18" d="M68.91,381.39,62.78,413.5c13.9,1.12,26.56,2.22,40.2,5.56,7.59,5.63,17.4,9.31,42.82,5.93l3.87-20.27-20.09.29Z"/><path class="cls-3" d="M152.71,400.63c-1.47,9-2.31,13.68-4,15-4.33,3.35-21.34,2.46-30.22,1.16-7.87-1.16-11.22-10.84-16.88-11.25-3.24-7.67,4.25-17.21,8.5-23.24,11.76,4.44,32.1-1.85,42,1.17C158.11,385.31,153.48,396,152.71,400.63Z"/><path class="cls-19" d="M83.55,286.86C81.12,290,68.43,303.48,66,306.33c-12,14.16-22.71,25.06-19.84,34.24,5.54,17.79,30.08,27.49,69.77,41.87,1.81,5.85-2.57,20-10.7,27.3C72.14,401,13.43,391.37,2.33,354.61-3.42,335.58,1.16,303,19.64,279c15.07-19.59,33.43-38.42,44.16-44.26C73.82,229.24,94.2,273.16,83.55,286.86Z"/><path class="cls-20" d="M103.7,378c3.9,1.46,8,2.94,12.25,4.49,1.81,5.85-2.57,20-10.7,27.3C72.14,401,13.43,391.37,2.33,354.61,21.5,386.09,88.79,403.05,103.7,378Z"/><path class="cls-3" d="M308,243.55c.69-9.31,3.55-9.9,15.66-17.68,2.52-1.62,4.93-3.8,10.5-10.21,3.86,3.2,1,6.62-1.68,11.34a32.78,32.78,0,0,0-3.19,7.86c10.91-.66,14.6-2.71,17.16-5.56,12.74-14.22,15-16.85,31.82-16.8-7.85,10.18-13.73,16.73-17.83,27.42-2.52,6.57-2,6.05-6.54,8.13-6.15,2.81-11.38,5.74-17.17,8.58-12.9,6.31-12.57,9.52-20.94,21.36l-16-9.11C305.48,256.92,307,256.79,308,243.55Z"/><path class="cls-21" d="M315.19,253.22c6.13-14.55,11.33-15.47,29.52-20.71l10.07,6.07-8.57-3.24C333.68,241.3,321.58,240.57,315.19,253.22Z"/><path class="cls-22" d="M170,232.09c40.31,13,52.8,70.47,74.1,69.56,18.74-.8,35.73-16.4,60-51.28,6.17-.26,17.61,7.6,22.57,17.38-17.11,29.93-41.6,84.56-80.21,85.85-20,.68-51-15.3-69.62-39.48C145.19,273,154.68,273.66,170,232.09Z"/><path class="cls-23" d="M175.14,280.59c25.35,46.05,48.49,56.38,69.46,60.27,11,2,31.74-5.89,58.48-31.83-14.62,22.92-33,43.78-56.67,44.57-20,.68-51-15.3-69.62-39.48Z"/><path class="cls-24" d="M143,185.73c-11-1.39-12.41,3.35-21.26,2.78-6.76-.44-13.16-2.1-18.53-5.7l1,1.76A35.14,35.14,0,0,0,117.41,190c.09,6.71-.35,13.06-3,17.5a84.55,84.55,0,0,1-11.24-13l-.5.89c2.72,5,9.54,12.76,13.49,15.66,5.75,4.22,13.42,7.9,18.88,7.43,3.29-.29,7-2.87,9.37-8.55.05-.1.09-.2.13-.3.12-.3.9-.07,1-.57.27-1.42.65-2.85.95-4.06.06.08.13.36.19.45a39,39,0,0,0,1.51-6.07c.05-.17.2.64.24.48a32.62,32.62,0,0,0,.86-6.93A7.17,7.17,0,0,0,143,185.73Z"/><path class="cls-25" d="M148.94,197.25c-1.11-3.29-1.85-7.18-7.19-7.73-7.23-.75-15.22,6.37-24.39,4.07,4.27,2.65,9.35,1.29,14.07.21,14-3.22,15.33,2.57,17,6C148.59,199.2,148.73,198,148.94,197.25Z"/><path class="cls-26" d="M147.41,203.06c0-.18,0-.37-.08-.57-.4-2.38-1.7-6.11-6.4-6.85-6.9-1.09-15.16,6-23.91,3.29,4.07,2.86,8.92,1.73,13.43.86,13.35-2.57,14.77,1.32,16.2,5.72A22.06,22.06,0,0,0,147.41,203.06Z"/><path class="cls-27" d="M145.52,209c0-.16,0-.33-.07-.52-.36-2.15-1.54-5.52-5.79-6.19-6.23-1-13.68,5.45-21.59,3,3.68,2.58,8.06,1.56,12.13.78,12.06-2.33,13.35,1.19,14.63,5.16A21.25,21.25,0,0,0,145.52,209Z"/><path class="cls-28" d="M158.66,161.72c11.7,3,13.06-14,8.85-26.39-4.35-12.74-22.23-18-35.19-19.49C97.37,111.72,87,131.26,85.47,155.21c-2.22,35.39,8.72,52.38-12.91,74.73l20,21.4,36.5,2.23,24.51-16.15c.79-3.82,11.2-7.06,7.88-8.91-10-5.56-16.56-18.28-21.85-13.36-8.1,7.52-17.89,1.69-24.89-3.26-4-2.86-9.46-7.15-10.61-10.84-2.28-7.36,2-16.33,2.9-24.9,2.7-14,5.73-21.56,13-20.81C137.13,157.1,145.05,158.25,158.66,161.72Z"/><path class="cls-29" d="M149.38,119.81a75.1,75.1,0,0,0-17.06-4C97.37,111.72,87,131.26,85.47,155.21c-2.22,35.39,8.72,52.38-12.91,74.73C123.48,216.56,60,107.94,149.38,119.81Z"/><path class="cls-30" d="M160.64,162.81c-15-1.17-28.94-3.54-46.47-6.79-7.4,11.59-9.35,27.36,1.81,29.58,7.37,1.47,15.52,1.1,20.72-3.77,3.46-3.25,8.18-2.2,9.39,1.39,3.29,9.85,10.22,6.89,12.62-3.15A81,81,0,0,0,160.64,162.81Z"/><path class="cls-3" d="M160.78,161.23l1.44.11,0,1.47c0,2.27-.13,5.06-.43,8.07a70.29,70.29,0,0,1-1.55,9.54c-.92,3.86-2.49,6.8-4.32,8.53a6.66,6.66,0,0,1-3.61,1.87,5.24,5.24,0,0,1-3.87-1c-1.49-1.1-2.82-3.07-3.82-6a3.21,3.21,0,0,0-.68-1.18,3.34,3.34,0,0,0-1.79-1,4.19,4.19,0,0,0-2.38.18,5.58,5.58,0,0,0-2,1.25,18.43,18.43,0,0,1-9.47,4.52,34.37,34.37,0,0,1-12.61-.35,11.57,11.57,0,0,1-4-1.6,11,11,0,0,1-4.64-7.08,22.81,22.81,0,0,1,.17-9.53,42,42,0,0,1,5.71-13.78l.58-.9,1,.19c8.79,1.63,16.67,3,24.14,4.17s14.73,2,22.17,2.6Zm-45.86-3.45a38.29,38.29,0,0,0-4.72,11.78,19.77,19.77,0,0,0-.17,8.18,8,8,0,0,0,3.29,5.14,8.59,8.59,0,0,0,3,1.16,31.3,31.3,0,0,0,11.47.35,15.32,15.32,0,0,0,7.88-3.73,9,9,0,0,1,3.1-1.92,7.46,7.46,0,0,1,4.08-.29,6.37,6.37,0,0,1,4.74,4.25,9,9,0,0,0,2.7,4.48,2.24,2.24,0,0,0,1.65.49,3.51,3.51,0,0,0,1.86-1,14.12,14.12,0,0,0,3.41-6.92,69.54,69.54,0,0,0,1.48-9.11c.22-2.3.33-4.46.38-6.34-7-.59-13.84-1.43-20.93-2.51C130.79,160.65,123.24,159.31,114.92,157.78Z"/><path class="cls-31" d="M725.91,143.11l-.49,154.18c0,11.26-8.94,20.4-19.79,20.3l-159.74-1.34c-10.85-.1-19.69-9.38-19.66-20.63L526.9,82.4c0-11.26,8.94-20.39,19.79-20.31L651,63Z"/><path class="cls-32" d="M552.93,142.42l77.67.65a5.9,5.9,0,0,0,5.91-6l0-10.34a6.06,6.06,0,0,0-5.87-6.17L553,119.94a6,6,0,0,0-5.82,6.06l0,10.34A6,6,0,0,0,552.93,142.42Z"/><path class="cls-32" d="M699.69,180.82a4.1,4.1,0,0,0,4.08-4.19l0-7.28a4.17,4.17,0,0,0-4.06-4.26l-148.48-1.26a4.13,4.13,0,0,0-4.09,4.2l0,7.29a4.18,4.18,0,0,0,4.06,4.25Z"/><path class="cls-32" d="M699.69,217.09a4.11,4.11,0,0,0,4.08-4.19l0-7.28a4.17,4.17,0,0,0-4.06-4.26L551.26,200.1a4.13,4.13,0,0,0-4.09,4.2l0,7.28a4.18,4.18,0,0,0,4.06,4.26Z"/><path class="cls-32" d="M699.69,253.36a4.11,4.11,0,0,0,4.08-4.2l0-7.27a4.17,4.17,0,0,0-4.06-4.26l-148.48-1.26a4.13,4.13,0,0,0-4.09,4.2l0,7.28a4.18,4.18,0,0,0,4.06,4.26Z"/><path class="cls-32" d="M699.69,291a4.12,4.12,0,0,0,4.08-4.2l0-7.27a4.17,4.17,0,0,0-4.06-4.26L551.26,274a4.12,4.12,0,0,0-4.09,4.19l0,7.29a4.19,4.19,0,0,0,4.06,4.26Z"/><path class="cls-33" d="M725.83,174.1c-11.39-3.68-39.42-8.69-61.39-15.64-19.62-6.22-19.64-14.85-18.24-35.43l4.07-60.11h.88l74.74,80.12Z"/><path class="cls-31" d="M725.91,143.11l-55.32-.47c-10.93-.09-19.78-9.38-19.74-20.63L651,63Z"/><path class="cls-34" d="M661.14,153.46H657V134.81H639.79v-4.13h21.35v22.78ZM459.55,130.68v4.13H442.32v18.65H438.2V130.68Zm-21.35,251h4.12v18.65h17.23v4.12H438.2V381.66Zm201.59,18.65H657V381.66h4.13v22.77H639.79Z"/><path class="cls-35" d="M557,343a78.75,78.75,0,1,0-87.06-69.46A78.76,78.76,0,0,0,557,343Z"/><path class="cls-36" d="M557,343a78.38,78.38,0,0,0,43.4-19.28,62.61,62.61,0,0,1-18.38,5c-36,4-68.67-23.43-72.94-61.37s21.48-72,57.5-76a62.3,62.3,0,0,1,9.13-.36A78.76,78.76,0,1,0,557,343Z"/><path class="cls-37" d="M565.54,369.44c3.76-9.5,8-13,3.67-30.58-2.19-8.81,11-12.69,12.15-2.89,1.78,14.8,6.28,19.07,15.15,31.8Z"/><path class="cls-38" d="M565.54,369.44c1.65-4.18,3.4-7.2,4.47-10.76,3.51-4.94,13.61-6,18.52-2.29,2.14,3.29,4.77,6.78,8,11.38Z"/><path class="cls-37" d="M584.14,381.56c15.18-1.7,26.91-8.17,26.21-14.44s-13.58-10-28.76-8.26-26.91,8.17-26.2,14.44S569,383.27,584.14,381.56Z"/><path class="cls-37" d="M628.08,329.11c-5.29-8.74-5.49-14.26-22.12-21.42-8.34-3.6-3.46-16.41,5-11.42,12.87,7.54,19,6.54,34.49,7.19Z"/><path class="cls-39" d="M628.08,329.11c-2.32-3.84-3.67-7.06-5.85-10.07-1.82-5.78,3.48-14.44,9.38-16.12,3.91.28,8.29.3,13.89.54Z"/><path class="cls-37" d="M649.76,320.11c5.77-14.14,5.72-27.53-.12-29.92s-15.25,7.14-21,21.28-5.72,27.53.12,29.92S644,334.25,649.76,320.11Z"/><path class="cls-40" d="M447.08,279c6.35,1.35,9.93,3.84,15.89,3.7,4.1-.1,9.33-1.45,17.37-5.26,4.39-2.08,12.61,11.31,5.63,13-9.86,2.41-14.74,4.62-19.32,8.23-3.47,2.74-6.77,6.3-11.95,11.37Z"/><path class="cls-41" d="M447.08,279c6.35,1.35,9.93,3.84,15.89,3.7,1.89,4,3.83,12.68,3.69,16-3.48,2.74-6.78,6.3-12,11.37Z"/><path class="cls-42" d="M437.79,297.86c4.2,14.68,12.53,25.18,18.59,23.44s7.58-15,3.37-29.73-12.52-25.17-18.58-23.44S433.59,283.18,437.79,297.86Z"/><path class="cls-37" d="M652.26,253.82c-10.47-2.22-14.89-4.54-33.61,4.36-7,3.31-13-13.28-5.18-14.48,14.35-2.21,20.81-6,32.44-17.45Z"/><path class="cls-43" d="M652.26,253.82a82.08,82.08,0,0,0-10.3-1.94c-5.19-2.32-8.34-13.26-5.22-17.44a103.69,103.69,0,0,0,9.17-8.19Z"/><path class="cls-37" d="M661.53,234.9c-4.22-14.68-12.55-25.17-18.61-23.43s-7.56,15.06-3.35,29.73,12.55,25.17,18.61,23.43S665.74,249.58,661.53,234.9Z"/><path class="cls-40" d="M612.66,179.82c-8.81,5.79-16.58,9.2-23.76,28.27-3,8-14.59,5.53-9.78-2.85,8.65-15.1,9.41-24.05,9.49-40.32Z"/><path class="cls-44" d="M612.66,179.82a108.15,108.15,0,0,0-9.81,6.72c-3.63,2.16-12.75-1.28-14.78-7.6.42-4.21.52-8.73.54-14Z"/><path class="cls-42" d="M605.75,159.92c-13.39-7.34-26.7-8.81-29.74-3.28s5.37,16,18.76,23.31,26.71,8.81,29.74,3.28S619.15,167.26,605.75,159.92Z"/><path class="cls-40" d="M502.54,173.19c7.82,7.73,18.33,9.21,21.31,31.19.54,4,15.08,3.48,13.43-3.82-3.73-16.5-3.22-21.34-.07-37.39Z"/><path class="cls-45" d="M502.54,173.19a45.2,45.2,0,0,0,9.74,7.75c6.86,3.82,21-.44,23-7,.92-3,1.08-6.52,1.9-10.74Z"/><path class="cls-42" d="M516.37,155.9c14.58-4.55,27.92-3.36,29.8,2.66s-8.41,14.6-23,19.15-27.92,3.36-29.8-2.66S501.79,160.46,516.37,155.9Z"/><path class="cls-40" d="M479.7,208c4.44,9.61,1.34,14,18.48,23.4,7.61,4.17-1.71,17.05-7.7,12.29-13.36-10.6-17.69-8.43-32.45-9.18Z"/><path class="cls-46" d="M479.7,208c2,4.27,2.46,7.51,3.89,10.62,1.46,2.41-.66,16.9-12.53,16.31-3.58-.27-7.6-.15-13-.42Z"/><path class="cls-42" d="M459,211.89c-9.24,12.16-12.66,25.11-7.64,28.93s16.59-2.95,25.83-15.11,12.65-25.12,7.63-28.93S468.23,199.73,459,211.89Z"/><path class="cls-37" d="M487.08,346c8.59-6.63,15.8-.31,21.52-20.24,1.66-5.78,14.76-2.08,11.53,4.61-7.61,15.76-4.66,19.89-1,30.91Z"/><path class="cls-47" d="M487.08,346c6-4.66,11.39-2.93,16-8.39,7-.44,11.92,4.58,12.49,5.87-.92,6.4,1.16,10.65,3.52,17.8Z"/><path class="cls-37" d="M498.68,366.8c13.91,6.31,27.3,6.76,29.9,1S522,352.3,508.11,346s-27.3-6.76-29.91-1S484.77,360.5,498.68,366.8Z"/><path class="cls-37" d="M578.82,224.43c-.41,10.06-2.53,17.63-7.1,22-5.87,5.69,1.74,14.8,8,10.43,10.52-7.34,16-7,25.87-7.68Z"/><path class="cls-48" d="M578.82,224.43a54.21,54.21,0,0,1-1.65,12c-1.78,5.71,7.38,15.61,14.8,14.42,4.25-1.14,8.3-1.21,13.61-1.6Z"/><path class="cls-42" d="M603.61,222.13c11.19,10.61,16.18,23.9,11.15,29.68s-18.17,1.88-29.36-8.74-16.18-23.9-11.15-29.68S592.43,211.52,603.61,222.13Z"/><path class="cls-40" d="M530.87,205.78c-.57,10.06.82,17.8,4.94,22.64,5.3,6.22-3.15,14.56-9,9.61-9.76-8.32-15.27-8.47-25-10.14Z"/><path class="cls-49" d="M530.87,205.78a53.65,53.65,0,0,0,.49,12.09c1.22,5.85-8.85,14.82-16.12,12.92-4.12-1.54-8.14-2-13.4-2.9Z"/><path class="cls-42" d="M506.41,201.1c-12.16,9.49-18.4,22.24-14,28.48s17.91,3.61,30.06-5.87,18.41-22.23,14-28.48S518.57,191.62,506.41,201.1Z"/><path class="cls-37" d="M595.74,286.4c-10.07.1-17.74-1.64-22.38-6-6-5.57-14.69,2.48-10,8.51,7.86,10.13,7.76,15.64,9,25.45Z"/><path class="cls-50" d="M595.74,286.4a54.43,54.43,0,0,1-12-1c-5.79-1.49-15.21,8.15-13.65,15.5,1.34,4.19,1.62,8.23,2.28,13.52Z"/><path class="cls-37" d="M599.29,311.05c-10,11.71-23.06,17.36-29.09,12.63s-2.78-18.06,7.25-29.77,23.06-17.36,29.09-12.63S609.32,299.34,599.29,311.05Z"/><path class="cls-51" d="M539.75,292.36c12-1.35,20.66-12.74,19.23-25.43s-12.35-21.88-24.4-20.53-20.66,12.74-19.23,25.44S527.7,293.72,539.75,292.36Z"/><path class="cls-42" d="M536.86,290.89c10.81-1.21,18.53-11.42,17.25-22.81S543,248.46,532.23,249.67,513.7,261.1,515,272.48,526.05,292.11,536.86,290.89Z"/><polyline class="cls-52" points="536.6 1.36 543.61 1.36 559.91 1.36 559.91 97.26 364 97.26 364 81.75"/><line class="cls-53" x1="518.96" y1="1.36" x2="529.28" y2="1.36"/><polyline class="cls-52" points="364 54.32 364 1.36 502.54 1.36"/><rect class="cls-54" x="371.69" y="9.05" width="180.52" height="80.52"/><path class="cls-55" d="M393,28.68a1.23,1.23,0,1,0,1.74-1.74l-9.25-9.25a1.25,1.25,0,0,0-1.74,0,1.23,1.23,0,0,0,0,1.74Z"/><path class="cls-55" d="M383.75,26.94a1.23,1.23,0,1,0,1.74,1.74l9.25-9.25a1.23,1.23,0,0,0,0-1.74,1.25,1.25,0,0,0-1.74,0Z"/><path class="cls-55" d="M478.29,64.4v7.23H444.91V64.4Zm0-25.94v7.23H415V38.46Zm0,20.28H383.92V51.51h94.37Z"/><path class="cls-55" d="M513.28,28.34A26.71,26.71,0,1,1,486.57,55a26.7,26.7,0,0,1,26.71-26.7ZM493.49,55a19.79,19.79,0,1,0,19.79-19.79A19.79,19.79,0,0,0,493.49,55Z"/><rect class="cls-56" x="510.4" y="31.49" width="7.02" height="45.67" transform="translate(112.11 379.3) rotate(-45)"/><path class="cls-55" d="M513.65,44.5a11.84,11.84,0,0,0-2.54.28l13.72,13.73a11.21,11.21,0,0,0,.26-1.93,6.2,6.2,0,0,1,2.42.52c.24,1.73.92,3,1.7,3,1,0,1.71-1.9,1.68-4.21s-.84-4.18-1.79-4.16c-.7,0-1.28,1-1.54,2.44a4.71,4.71,0,0,1-2.54.38,11.39,11.39,0,0,0-2.55-5.89,8.13,8.13,0,0,1,1.27-.31c1,1.3,2.09,2,2.75,1.64.84-.45.62-2.47-.49-4.5s-2.69-3.3-3.53-2.85c-.59.33-.65,1.42-.25,2.74A4,4,0,0,1,521,47.15a11.38,11.38,0,0,0-4.44-2.28,1.23,1.23,0,0,0,.05-.35,6.62,6.62,0,0,1,.9-3.53c1.7-.22,2.93-.87,2.93-1.64,0-1-1.87-1.73-4.18-1.73s-4.19.77-4.19,1.73c0,.66.91,1.24,2.24,1.53a4.89,4.89,0,0,1,.42,3.41,2.35,2.35,0,0,0,0,.26c-.34,0-.69,0-1.05,0Zm8.12,24.42-1.25-1.25a1.11,1.11,0,0,0,.15,1,1.2,1.2,0,0,0,1.1.28ZM519,66.11a11.42,11.42,0,0,1-5.31,1.3h0a8.37,8.37,0,0,0,.35,2.28c1.2.53,1.95,1.25,1.83,1.89-.18.94-2.17,1.35-4.44.91s-4-1.56-3.78-2.49c.13-.68,1.19-1.08,2.62-1.09a4.32,4.32,0,0,0,1.14-1.74A11.42,11.42,0,0,1,504.61,63a2.87,2.87,0,0,0-.72,1.34c.86,1.28,1.16,2.48.63,3-.69.66-2.54-.16-4.14-1.83s-2.33-3.57-1.63-4.23c.49-.47,1.56-.19,2.72.61a4.19,4.19,0,0,0,2-.72A11.44,11.44,0,0,1,502.2,56a10.91,10.91,0,0,1,.07-1.29,6.3,6.3,0,0,0-2.54-.44,3.18,3.18,0,0,0-1,.27c-.51,1.45-1.29,2.4-2,2.28-.95-.16-1.4-2.14-1-4.42s1.45-4,2.4-3.84c.69.12,1.11,1.21,1.14,2.68.28.22.53.4.78.56a6.43,6.43,0,0,0,2.68.86,11.33,11.33,0,0,1,.81-2L519,66.11Zm-9.75-23.22a1.37,1.37,0,0,0,.22-1.37c-.27-.46-1-.57-2-.37Z"/><polyline class="cls-52" points="866.66 275.83 873.67 275.83 889.97 275.83 889.97 441.06 755.79 441.06 755.79 425.56"/><line class="cls-53" x1="849.03" y1="275.83" x2="859.35" y2="275.83"/><polyline class="cls-52" points="755.79 404.65 755.79 275.83 832.61 275.83"/><rect class="cls-54" x="763.49" y="283.52" width="118.79" height="149.85"/><path class="cls-55" d="M784.8,303.15a1.23,1.23,0,0,0,1.74-1.73l-9.25-9.25a1.23,1.23,0,1,0-1.74,1.73Z"/><path class="cls-55" d="M775.55,301.42a1.23,1.23,0,0,0,1.74,1.73l9.25-9.25a1.23,1.23,0,1,0-1.74-1.73Z"/><path class="cls-55" d="M870.09,338.87v7.23H836.7v-7.23Zm0-25.94v7.23H806.84v-7.23Zm0,20.28H775.72V326h94.37Z"/><polygon class="cls-55" points="870.09 384.42 870.09 391.65 804.28 391.65 804.28 384.42 870.09 384.42 870.09 384.42"/><polygon class="cls-55" points="870.09 412.6 870.09 419.83 804.28 419.83 804.28 412.6 870.09 412.6 870.09 412.6"/><polygon class="cls-55" points="870.09 398.62 870.09 405.85 829.91 405.85 829.91 398.62 870.09 398.62 870.09 398.62"/><polygon class="cls-55" points="870.09 358.49 870.09 365.72 775.72 365.72 775.72 358.49 870.09 358.49 870.09 358.49"/><rect class="cls-56" x="775.72" y="371.53" width="94.37" height="7.23"/></g></g></g></svg>