<svg xmlns="http://www.w3.org/2000/svg" viewBox="0 0 516.07 406.56"><defs><style>.cls-1{fill:#f5f5f5;}.cls-2{fill:#e0e0e0;}.cls-3{fill:#ebebeb;}.cls-4{fill:#fff;}.cls-5{fill:#fafafa;}.cls-6{fill:#e8505b;}.cls-7{fill:#263238;}.cls-8{fill:#ffbe9d;}.cls-9{fill:#eb996e;}.cls-10{fill:#455a64;}.cls-11{opacity:0.3;}.cls-12{fill:#b78876;}.cls-13{fill:#aa6550;}</style></defs><g id="Layer_2" data-name="Layer 2"><g id="Character_2" data-name="Character 2"><path class="cls-1" d="M428.1,403.71c-24.13-14.78-31.19-44.48-31.9-71.51-.12-4.51-.9-9.23,1-13.31s6.74-7.09,10.89-5.43c3.44,1.37,5.13,5.17,7.2,8.28a26.35,26.35,0,0,0,11.17,9.45c3,1.31,6.56,2,9.3.28,3.75-2.38,3.88-7.77,3.59-12.25q-.84-12.53-1.67-25c-.3-4.48-.59-9.05.55-13.38s4-8.47,8.16-9.93,9.61.69,10.77,5c.49,1.8.23,3.72.47,5.57s1.23,3.86,3,4.27,3.54-1,4.8-2.35c4.35-4.8,7.13-10.82,9.72-16.79s5.07-12.07,9-17.26,9.47-9.45,15.86-10.2,13.47,2.8,15.47,9-1.29,12.85-5,18.2a100.08,100.08,0,0,1-19.62,21.1c-1.35,1.09-2.82,2.26-3.26,4-.79,3,2.22,5.84,5.22,6.64,3.41.91,7,.34,10.53.54s7.39,1.52,8.91,4.74c2.12,4.47-1.42,9.5-5,12.87a85.83,85.83,0,0,1-24.47,16.16c-3.22,1.4-6.62,2.67-9.14,5.15s-3.88,6.59-2.08,9.65,6,3.83,9.39,3,6.39-2.91,9.6-4.35c6-2.7,14-2.75,18.25,2.33,2.81,3.34,3.33,8.2,2.27,12.44s-3.5,8-6.12,11.48c-9.17,12.17-21.24,22.26-35.22,28.07s-27.13,8-41.63,3.62"/><path class="cls-2" d="M434,386.37a403.32,403.32,0,0,1,13.32-44.17q2.07-5.77,4.09-11.4c1.35-3.74,2.69-7.45,4.22-11a201.14,201.14,0,0,1,10-19.87c3.48-6.17,7-11.89,10.35-17.22s6.56-10.22,9.68-14.57a160.84,160.84,0,0,1,16.24-19.38c2.09-2.13,3.77-3.73,4.92-4.8l1.31-1.2a3.11,3.11,0,0,1,.47-.39,3.62,3.62,0,0,1-.41.45L507,244.1c-1.11,1.1-2.75,2.74-4.8,4.9a167.77,167.77,0,0,0-16,19.5c-3.09,4.35-6.27,9.26-9.59,14.59s-6.8,11.07-10.26,17.23a204.3,204.3,0,0,0-9.89,19.81c-1.52,3.53-2.85,7.21-4.2,11l-4.08,11.39a410.63,410.63,0,0,0-13.36,44.07"/><path class="cls-2" d="M455.91,319.76a8.91,8.91,0,0,1-.56-1.88c-.31-1.23-.7-3-1.14-5.22-.91-4.43-1.95-10.57-3.06-17.36s-2.24-12.9-3.21-17.3c-.48-2.2-.88-4-1.18-5.2a9.27,9.27,0,0,1-.37-1.93,8.33,8.33,0,0,1,.68,1.85c.39,1.2.88,3,1.43,5.15,1.12,4.38,2.34,10.5,3.46,17.29s2.07,12.76,2.82,17.39c.35,2.09.65,3.85.89,5.26A9.24,9.24,0,0,1,455.91,319.76Z"/><path class="cls-2" d="M512.85,305.52a12.73,12.73,0,0,1-2.28.42c-1.47.22-3.6.52-6.22,1-5.24.89-12.43,2.37-20.3,4.35s-14.91,4.1-20,5.77c-2.53.82-4.56,1.54-6,2a12.13,12.13,0,0,1-2.21.69,13.28,13.28,0,0,1,2.1-1c1.37-.58,3.38-1.39,5.89-2.28,5-1.82,12.06-4,20-6a204.33,204.33,0,0,1,20.41-4.11c2.64-.4,4.79-.62,6.27-.74A12.33,12.33,0,0,1,512.85,305.52Z"/><path class="cls-2" d="M434.68,385.27a3.41,3.41,0,0,1-.43-.68l-1.11-2c-1-1.76-2.28-4.35-3.86-7.57-3.18-6.43-7.29-15.44-11.69-25.46s-8.42-19.06-11.46-25.55c-1.48-3.15-2.71-5.74-3.62-7.67l-1-2.1a2.58,2.58,0,0,1-.29-.75,3.12,3.12,0,0,1,.44.68l1.11,2c.95,1.76,2.27,4.35,3.86,7.56,3.17,6.43,7.28,15.45,11.68,25.47s8.42,19.06,11.46,25.55l3.62,7.67,1,2.09A2.68,2.68,0,0,1,434.68,385.27Z"/><path class="cls-2" d="M509.72,356a2.82,2.82,0,0,1-.74.36l-2.18.88-8,3.15C492,363,482.66,366.82,472.36,371s-19.68,7.89-26.52,10.42c-3.42,1.26-6.2,2.25-8.13,2.9l-2.23.73a2.77,2.77,0,0,1-.8.2,3.07,3.07,0,0,1,.74-.36l2.18-.88,8-3.15c6.78-2.66,16.11-6.44,26.41-10.64s19.67-7.9,26.51-10.42c3.42-1.26,6.2-2.25,8.14-2.9l2.23-.73A2.76,2.76,0,0,1,509.72,356Z"/><path class="cls-1" d="M421.07,96.64c-4.11,10.3-10.7,27-13.72,34.6a4.4,4.4,0,0,0,2.46,5.71L438,148.15a4.39,4.39,0,0,0,5.71-2.46l13.66-34.27a9.77,9.77,0,0,0-5.46-12.69h0l2-5-18.42-7.34-1.9,4.77-.07,0A9.77,9.77,0,0,0,421.07,96.64Z"/><polygon class="cls-2" points="435.18 86.99 434.27 89.28 452.44 97.27 453.61 94.33 435.18 86.99"/><path class="cls-3" d="M436.42,82.65h18.49a3,3,0,0,1,3,3v4.92A1.93,1.93,0,0,1,456,92.49H435.36a1.93,1.93,0,0,1-1.93-1.93V85.64a3,3,0,0,1,3-3Z" transform="translate(64.03 -158.69) rotate(21.72)"/><path class="cls-2" d="M435.38,88.81A23,23,0,0,1,437,84.16,24,24,0,0,1,439,79.7a22.61,22.61,0,0,1-1.57,4.65A23.64,23.64,0,0,1,435.38,88.81Z"/><path class="cls-2" d="M437.8,89.78a23,23,0,0,1,1.58-4.65,23.64,23.64,0,0,1,2.05-4.46,23.36,23.36,0,0,1-1.57,4.65A22.59,22.59,0,0,1,437.8,89.78Z"/><path class="cls-2" d="M440.23,90.75a23.36,23.36,0,0,1,1.57-4.65,24,24,0,0,1,2.06-4.46,23.82,23.82,0,0,1-1.57,4.65A23,23,0,0,1,440.23,90.75Z"/><path class="cls-2" d="M442.66,91.71a23.82,23.82,0,0,1,1.57-4.65,22.32,22.32,0,0,1,2.06-4.45,23.82,23.82,0,0,1-1.57,4.65A23.72,23.72,0,0,1,442.66,91.71Z"/><path class="cls-2" d="M445.09,92.68A23.59,23.59,0,0,1,446.66,88a23,23,0,0,1,2.06-4.46,23,23,0,0,1-1.58,4.65A23.64,23.64,0,0,1,445.09,92.68Z"/><path class="cls-2" d="M447.52,93.65A22.61,22.61,0,0,1,449.09,89a23.64,23.64,0,0,1,2.05-4.46,23,23,0,0,1-1.57,4.65A24,24,0,0,1,447.52,93.65Z"/><path class="cls-2" d="M450,94.61A23,23,0,0,1,451.52,90a23.35,23.35,0,0,1,2.05-4.45A23,23,0,0,1,452,90.16,23.35,23.35,0,0,1,450,94.61Z"/><path class="cls-2" d="M452.37,95.58A23.49,23.49,0,0,1,454,90.93,24,24,0,0,1,456,86.47a23.36,23.36,0,0,1-1.57,4.65A22.59,22.59,0,0,1,452.37,95.58Z"/><rect class="cls-3" x="419.75" y="108.25" width="28.42" height="18.8" rx="1.48" transform="translate(74.33 -152.22) rotate(21.72)"/><path class="cls-2" d="M442.39,129.74a2.5,2.5,0,0,1,.1-.31l.3-.82c.29-.75.68-1.78,1.17-3.08l4.28-11,.12.27L425.2,105.6c-.08,0,.63-.28.33-.14h0v0l0,.06-.05.13-.1.25-.2.5-.4,1c-.26.67-.53,1.33-.79,2l-1.54,3.87-2.93,7.3-.13-.31L435.9,127l4.77,2,1.27.54a1.77,1.77,0,0,1,.45.21l-.42-.14-1.25-.47L436,127.3l-16.8-6.56-.22-.09.09-.22c.92-2.32,1.89-4.77,2.89-7.31.51-1.26,1-2.56,1.54-3.87.26-.65.52-1.32.79-2l.4-1,.2-.51.1-.25.05-.12,0-.07,0,0h0c-.3.13.41-.18.34-.14l23.12,9.26.19.08-.08.19c-1.88,4.6-3.42,8.39-4.52,11.07-.53,1.26-1,2.27-1.25,3l-.33.77A1.24,1.24,0,0,1,442.39,129.74Z"/><path class="cls-2" d="M442.9,118.06a69,69,0,0,1-8-2.89,66.87,66.87,0,0,1-7.77-3.38,69.79,69.79,0,0,1,8,2.89A67.83,67.83,0,0,1,442.9,118.06Z"/><path class="cls-2" d="M441.83,120.73a70.58,70.58,0,0,1-8-2.89,69.4,69.4,0,0,1-7.76-3.37,68.28,68.28,0,0,1,8,2.89A67.26,67.26,0,0,1,441.83,120.73Z"/><path class="cls-2" d="M440.81,123.3a69.79,69.79,0,0,1-8-2.89,67.83,67.83,0,0,1-7.77-3.38,69,69,0,0,1,8,2.89A67.83,67.83,0,0,1,440.81,123.3Z"/><path class="cls-2" d="M450.87,98.15A82.46,82.46,0,0,1,442.19,95a84.43,84.43,0,0,1-8.49-3.66,82.46,82.46,0,0,1,8.68,3.18A79.3,79.3,0,0,1,450.87,98.15Z"/><path class="cls-4" d="M409.66,129.86a10,10,0,0,1,.55-1.66l1.7-4.44c1.45-3.75,3.5-8.92,5.78-14.61l3.25-8a17.3,17.3,0,0,1,3.65-6.09,7.81,7.81,0,0,1,4.25-2.17,5.6,5.6,0,0,1,1.31,0c.3.05.45.09.44.11a10,10,0,0,0-1.72.1,7.68,7.68,0,0,0-4,2.23,17.54,17.54,0,0,0-3.47,6c-1,2.47-2.07,5.18-3.2,8-2.29,5.69-4.39,10.83-5.93,14.54-.75,1.8-1.38,3.28-1.85,4.39A12,12,0,0,1,409.66,129.86Z"/><path class="cls-4" d="M441.28,148a6.45,6.45,0,0,1-1.11-.9c-.34-.3-.76-.67-1.27-1.07s-1.07-.88-1.74-1.35a47.88,47.88,0,0,0-4.76-3.16,47.27,47.27,0,0,0-13-5.16,51.09,51.09,0,0,0-5.63-1c-.81-.11-1.55-.14-2.19-.2s-1.2-.09-1.66-.1a7.45,7.45,0,0,1-1.42-.11,7.6,7.6,0,0,1,1.42-.09,15.69,15.69,0,0,1,1.67,0c.65,0,1.4,0,2.22.13a42.28,42.28,0,0,1,5.7.88,44.61,44.61,0,0,1,13.1,5.22,42,42,0,0,1,4.75,3.28c.66.49,1.2,1,1.69,1.42s.9.82,1.23,1.15A8.59,8.59,0,0,1,441.28,148Z"/><rect class="cls-2" x="21.74" y="152.81" width="90.75" height="124.67" rx="2.41" transform="translate(-86.67 50.4) rotate(-25.7)"/><rect class="cls-5" x="26.09" y="155.63" width="80.62" height="116.04" transform="translate(-86.09 49.94) rotate(-25.7)"/><path class="cls-3" d="M56.77,155.84a9.92,9.92,0,0,0-10.34-1.08l-2.22-4.41a6.79,6.79,0,0,0-9.06-3.18h0A6.78,6.78,0,0,0,32,156.23l2.23,4.64-1.55.78a9.87,9.87,0,0,0-5.44,8.7l0,2.3,31.63-15.23Zm-16.88.72a3.65,3.65,0,1,1,1.7-4.87A3.66,3.66,0,0,1,39.89,156.56Z"/><path class="cls-2" d="M39,180.71c.06.13-4.3,2.35-9.74,5s-9.9,4.64-10,4.51,4.3-2.36,9.74-5S38.9,180.58,39,180.71Z"/><path class="cls-2" d="M30.36,188.94a26.72,26.72,0,0,1-4.63,2.52,27,27,0,0,1-4.86,2A26.72,26.72,0,0,1,25.5,191,27,27,0,0,1,30.36,188.94Z"/><path class="cls-2" d="M81.09,175.92c.07.13-12.16,6.14-27.29,13.43s-27.46,13.09-27.53,13,12.16-6.14,27.3-13.43S81,175.79,81.09,175.92Z"/><path class="cls-2" d="M83.61,181.15c.06.13-12.16,6.14-27.3,13.43s-27.46,13.09-27.52,13,12.16-6.15,27.3-13.43S83.55,181,83.61,181.15Z"/><path class="cls-2" d="M86.13,186.38c.06.13-12.16,6.14-27.3,13.42s-27.46,13.09-27.52,13,12.15-6.14,27.29-13.43S86.06,186.25,86.13,186.38Z"/><path class="cls-2" d="M88.64,191.6c.06.13-12.16,6.15-27.29,13.43s-27.47,13.09-27.53,13,12.16-6.14,27.3-13.43S88.58,191.47,88.64,191.6Z"/><path class="cls-2" d="M91.16,196.83c.06.13-12.16,6.14-27.3,13.43s-27.46,13.09-27.52,13,12.16-6.14,27.3-13.43S91.1,196.7,91.16,196.83Z"/><path class="cls-2" d="M93.67,202.06c.07.13-12.16,6.14-27.29,13.43s-27.46,13.08-27.53,13S51,222.3,66.15,215,93.61,201.93,93.67,202.06Z"/><path class="cls-2" d="M68.53,220a5.71,5.71,0,0,1-1,.61l-2.9,1.48c-2.46,1.24-5.87,2.92-9.66,4.74s-7.22,3.44-9.72,4.59l-3,1.34a5.08,5.08,0,0,1-1.12.43,5.85,5.85,0,0,1,1-.61l2.9-1.49c2.46-1.24,5.87-2.91,9.66-4.73s7.22-3.45,9.72-4.6l3-1.34A5,5,0,0,1,68.53,220Z"/><path class="cls-2" d="M77.18,161.73a22.43,22.43,0,0,1-4.27,2.34A22.73,22.73,0,0,1,68.4,166a23.5,23.5,0,0,1,4.28-2.35A23.09,23.09,0,0,1,77.18,161.73Z"/><path class="cls-2" d="M61.56,237.35a60.44,60.44,0,0,1-7,3.66,59.64,59.64,0,0,1-7.23,3.2,59.43,59.43,0,0,1,7-3.66A58.87,58.87,0,0,1,61.56,237.35Z"/><path class="cls-2" d="M64.32,241.87a61.52,61.52,0,0,1-7.13,3.72,63.46,63.46,0,0,1-7.35,3.25A63.42,63.42,0,0,1,57,245.12,61.8,61.8,0,0,1,64.32,241.87Z"/><path class="cls-2" d="M102.51,216.77a14.57,14.57,0,0,1-3.33,1.89,14.25,14.25,0,0,1-3.56,1.42A14.15,14.15,0,0,1,99,218.19,13.8,13.8,0,0,1,102.51,216.77Z"/><path class="cls-2" d="M104.8,220.92a14.15,14.15,0,0,1-3.33,1.89,14.24,14.24,0,0,1-3.55,1.43,14.37,14.37,0,0,1,3.33-1.9A14.42,14.42,0,0,1,104.8,220.92Z"/><path class="cls-2" d="M60.07,250.05a13.36,13.36,0,0,1-3.21,1.84,13.25,13.25,0,0,1-3.43,1.36,12.91,12.91,0,0,1,3.21-1.83A13.08,13.08,0,0,1,60.07,250.05Z"/><path class="cls-2" d="M107.44,225.79a7.82,7.82,0,0,1-2.38,1.44,7.53,7.53,0,0,1-2.61,1,7.69,7.69,0,0,1,2.38-1.43A7.43,7.43,0,0,1,107.44,225.79Z"/><path class="cls-2" d="M58.4,264.72a1.44,1.44,0,0,1,.28-.22l.84-.56,3.24-2.07,11.6-7.29.23-.14.1.25a6.53,6.53,0,0,1,.13,4.41,5.36,5.36,0,0,1-8.14,2.9A4.65,4.65,0,0,1,65,257.13a4.18,4.18,0,0,1,1-1.81,2.51,2.51,0,0,1,.37-.36,2,2,0,0,1,.45-.31.76.76,0,0,1,.7,0,1.28,1.28,0,0,1,.4.46,8.92,8.92,0,0,1,1,3.7,8.83,8.83,0,0,1-.58,3.66,5.53,5.53,0,0,1-2.15,2.85,3.17,3.17,0,0,1-3.37-.08,4.79,4.79,0,0,1-2-2.51,11.65,11.65,0,0,1,0-5.64l.07-.38.25.29a7.76,7.76,0,0,1,1.91,4.31,8.27,8.27,0,0,1-.34,3.54,7.49,7.49,0,0,1-1,2c-.15.2-.29.35-.37.45a.6.6,0,0,1-.15.14,9.17,9.17,0,0,0,1.33-2.67,8.34,8.34,0,0,0,.24-3.45,7.55,7.55,0,0,0-1.89-4.09l.32-.1a11.37,11.37,0,0,0,0,5.44,4.4,4.4,0,0,0,1.83,2.26,2.75,2.75,0,0,0,2.9.06,5.14,5.14,0,0,0,1.93-2.62,8.43,8.43,0,0,0-.44-6.93.58.58,0,0,0-.21-.26c-.06,0-.11,0-.22,0a2.68,2.68,0,0,0-.65.55,3.68,3.68,0,0,0-.83,1.59A4.11,4.11,0,0,0,67,261.58a4.82,4.82,0,0,0,4.47.51A4.88,4.88,0,0,0,74.36,259a6,6,0,0,0-.09-4.09l.33.1-11.71,7.13-3.29,2-.88.5A1.06,1.06,0,0,1,58.4,264.72Z"/><path class="cls-2" d="M110.33,239.51a3.28,3.28,0,0,1-.17.93,4,4,0,0,1-.45,1.07,2.25,2.25,0,0,1-1.26,1,1.62,1.62,0,0,1-1,0,2,2,0,0,1-.83-.65,17.45,17.45,0,0,1-1.12-1.91c-.76-1.37-1.59-2.89-2.49-4.53l.46-.11c-.08,2.3-.17,4.8-.26,7.42,0,.62,0,1.24-.08,1.85l0,1-.46-.93c-1.36-2.81-2.64-5.43-3.75-7.72l.41,0a26.65,26.65,0,0,0-1,7c0,1.7.12,2.68.06,2.68a2.46,2.46,0,0,1-.15-.69c-.06-.46-.13-1.13-.17-2a24.35,24.35,0,0,1,.78-7.09l.15-.58.27.53,3.82,7.69-.49.11c0-.61,0-1.23.07-1.85.1-2.62.2-5.12.29-7.42l0-.9.42.8,2.42,4.57a18.66,18.66,0,0,0,1,1.88,1.33,1.33,0,0,0,1.45.61A2.55,2.55,0,0,0,110,240.4,5.76,5.76,0,0,1,110.33,239.51Z"/><path class="cls-2" d="M110.22,235.76c.08.12-4,3.07-9.22,6.58s-9.43,6.28-9.51,6.16,4.05-3.07,9.22-6.59S110.14,235.64,110.22,235.76Z"/><path class="cls-2" d="M115.29,236.64a80.85,80.85,0,0,1-6.76,6.15,78,78,0,0,1-7.1,5.76,81.8,81.8,0,0,1,6.76-6.16A82.25,82.25,0,0,1,115.29,236.64Z"/><path class="cls-1" d="M151.87,21.2h-4.2L138.48,8.4V0s-6.5-.4-5.74,10.6-.06,8.2-.06,8.2-13.81.05-15,1.25c-.83.88-1.21,14.59-1.36,22a8.07,8.07,0,0,0,5.71,8.11,5.93,5.93,0,0,0,1.49.2c3.44,0,21-2.8,21-2.8h7.27Z"/><polygon class="cls-1" points="163.92 18.89 161.33 47.68 154.13 47.68 154.13 19.47 163.92 18.89"/><path class="cls-6" d="M476.5,23.75C475.41,15,468,6.83,459.18,6.82c-5.22,0-10.17,2.73-13.73,6.53A35.34,35.34,0,0,0,442,17.48a36.85,36.85,0,0,0-2.6-4.73c-2.75-4.44-7.07-8.08-12.18-9.1-8.65-1.74-17.52,4.81-20.31,13.18S406.41,34.6,411,42.14s12.48,17.39,27,22.29c10-1.29,23.46-10.19,29.44-16.68S477.58,32.51,476.5,23.75Z"/><path class="cls-5" d="M473.31,39.48a1.07,1.07,0,0,1-.29,0l-.85,0-3.26-.27-12-1.1.22-.13-5,13-.3.79-.2-.82c-1.52-6.33-3.23-13.42-5-20.88-.55-2.32-1.1-4.59-1.63-6.81l.51.1-9.16,12.59-.09.12h-.14L415,33.84l-6-.67-1.58-.2a2.76,2.76,0,0,1-.54-.09,2.3,2.3,0,0,1,.55,0L409,33l6,.52,21.11,2-.24.11L445,23l.36-.5.15.6c.53,2.23,1.08,4.5,1.63,6.81l5,20.9-.5,0c1.9-4.83,3.62-9.23,5.1-13l.06-.15.15,0,12,1.29,3.25.38.85.11A.9.9,0,0,1,473.31,39.48Z"/><rect class="cls-6" x="252.77" y="78.43" width="6.6" height="29.59"/><rect class="cls-6" x="252.77" y="78.43" width="6.6" height="29.59" transform="translate(162.85 349.29) rotate(-90)"/><path class="cls-6" d="M280.64,93.29a2.38,2.38,0,0,1,0-.4c0-.28-.05-.67-.09-1.16,0-.26,0-.55-.05-.87s-.11-.65-.17-1a17.14,17.14,0,0,0-.52-2.54A23.54,23.54,0,0,0,277,80.77a24.47,24.47,0,0,0-29.37-10.42,25.66,25.66,0,0,0-3.18,1.41,24.55,24.55,0,0,0-3,1.92A27.89,27.89,0,0,0,238.71,76a27.27,27.27,0,0,0-2.39,2.83,23.72,23.72,0,0,0-3.49,6.72,24.34,24.34,0,0,0,0,15.4,23.78,23.78,0,0,0,3.49,6.73,28.36,28.36,0,0,0,2.39,2.83,29.29,29.29,0,0,0,2.77,2.36,25.69,25.69,0,0,0,3,1.92,24.91,24.91,0,0,0,3.19,1.4,24.48,24.48,0,0,0,12.83,1.08,24.23,24.23,0,0,0,10.3-4.56,24.51,24.51,0,0,0,6.24-6.94,23.37,23.37,0,0,0,2.74-6.52,17.67,17.67,0,0,0,.52-2.54c.06-.37.13-.71.17-1s0-.6.05-.86q.06-.73.09-1.17a2.59,2.59,0,0,1,0-.4,2.47,2.47,0,0,1,0,.4c0,.29,0,.68,0,1.18l0,.87c0,.31-.08.66-.13,1a18.84,18.84,0,0,1-.48,2.57,23.31,23.31,0,0,1-2.69,6.62,24.85,24.85,0,0,1-16.71,11.77,24.84,24.84,0,0,1-13.07-1,24.56,24.56,0,0,1-3.26-1.42,25.35,25.35,0,0,1-3.05-2,22.86,22.86,0,0,1-5.28-5.29,24.21,24.21,0,0,1-3.57-6.86,24.62,24.62,0,0,1,0-15.73,24.39,24.39,0,0,1,3.57-6.87,28.39,28.39,0,0,1,2.45-2.88,27.77,27.77,0,0,1,5.88-4.36,28.22,28.22,0,0,1,3.26-1.42,25,25,0,0,1,13.07-1.05,24.85,24.85,0,0,1,16.71,11.77A23.35,23.35,0,0,1,280,87.25a18.45,18.45,0,0,1,.48,2.56c.05.38.11.72.13,1l0,.87c0,.5,0,.88,0,1.17A2.38,2.38,0,0,1,280.64,93.29Z"/><path class="cls-7" d="M204.37,107.73c.13-4.35-3.9-7.72-8-9.31s-8.56-2.2-12.18-4.63c-3.2-2.16-5.35-5.52-8.06-8.27a26.82,26.82,0,0,0-45.11,12.31c-1.56,6.21-.5,13.54,4.39,17.66,5.68,4.79,14.09,3.72,21.37,2.24s15.5-3,21.57,1.31c3.66,2.58,5.76,6.77,8,10.64s5.05,7.84,9.28,9.3,10-1.06,10.15-5.54"/><path class="cls-7" d="M204.08,110.12c-.48,3.66,2.16,6.92,4.79,9.5s5.6,5.31,6.07,9c.54,4.26-2.57,8.47-1.67,12.67.57,2.67,2.65,4.73,3.91,7.15a15.16,15.16,0,0,1,.77,11.2c-1.08,3.67-2.81,11.89-5.36,14.74-7.07,7.91-18.33,14.73-28.66,17.1s-21.07,2.39-31.65,1.74c-8.66-.54-18.62-.14-25.84-12.06-3.74-6.17-5.59-14.38-7.58-21.31-1.71-6-3.19-12.38-1.41-18.33,1-3.47,3.12-6.55,4.14-10,1.28-4.33.81-9,1.33-13.47a30.9,30.9,0,0,1,44-24.41"/><path class="cls-8" d="M127.06,125.1c.81-12.44,9.08-27.67,21.47-26.34l38.66,9.87A7.28,7.28,0,0,1,193.7,116l-4.35,93.27.27.06s-8.81,26.31-34.38,18.27c-5.07-1.59-7.38-7.14-8.39-12.84l-.26,0c0-.67,0-1.3,0-2a61.23,61.23,0,0,1-.15-12.81h0c-.07-7.53-.06-10.62-.07-10.55s-15.88-2.67-19.12-23.4C125.6,155.81,126.16,138.91,127.06,125.1Z"/><path class="cls-7" d="M133.29,137.59a2.65,2.65,0,0,0,2.56,2.68,2.53,2.53,0,0,0,2.74-2.39,2.67,2.67,0,0,0-2.55-2.69A2.54,2.54,0,0,0,133.29,137.59Z"/><path class="cls-7" d="M130.71,133.89c.33.35,2.34-1.13,5.2-1.12s5,1.45,5.27,1.1c.15-.16-.18-.78-1.1-1.45a7.33,7.33,0,0,0-4.21-1.31,7,7,0,0,0-4.14,1.33C130.84,133.11,130.55,133.74,130.71,133.89Z"/><path class="cls-7" d="M161.4,137.59a2.65,2.65,0,0,0,2.56,2.68,2.53,2.53,0,0,0,2.74-2.39,2.66,2.66,0,0,0-2.55-2.69A2.54,2.54,0,0,0,161.4,137.59Z"/><path class="cls-7" d="M158.82,134.49c.33.35,2.35-1.14,5.21-1.12s4.95,1.45,5.26,1.1c.15-.16-.18-.79-1.09-1.45a7.22,7.22,0,0,0-4.22-1.31,6.94,6.94,0,0,0-4.14,1.33C159,133.71,158.66,134.34,158.82,134.49Z"/><path class="cls-7" d="M148.39,155.68c0-.16-1.76-.47-4.64-.85-.73-.08-1.42-.22-1.54-.72a3.7,3.7,0,0,1,.49-2.17l2.17-5.55c3-7.91,5.2-14.42,4.88-14.54s-3,6.2-6,14.11c-.72,1.95-1.42,3.81-2.08,5.59a4.23,4.23,0,0,0-.38,2.87,1.85,1.85,0,0,0,1.19,1.07,5,5,0,0,0,1.24.17C146.58,155.82,148.38,155.84,148.39,155.68Z"/><path class="cls-9" d="M146.34,189.52a52.77,52.77,0,0,0,27.78-7.34s-7,14.33-27.75,12.34Z"/><path class="cls-9" d="M149.59,162.57a5.15,5.15,0,0,1,4.62-1.9,4.74,4.74,0,0,1,3.25,1.75,3,3,0,0,1,.22,3.41,3.47,3.47,0,0,1-3.75.94,10.82,10.82,0,0,1-3.66-2.19,3.27,3.27,0,0,1-.81-.85,1,1,0,0,1,0-1.06"/><path class="cls-7" d="M156.81,157.68c-.47,0-.48,3.07-3.14,5.27s-6,1.85-6,2.28c-.05.2.73.61,2.13.65a7.75,7.75,0,0,0,5-1.73,6.76,6.76,0,0,0,2.43-4.42C157.36,158.43,157,157.66,156.81,157.68Z"/><path class="cls-7" d="M157.55,129.48c.28.78,3.13.42,6.49.83s6.06,1.33,6.51.63c.2-.33-.27-1.06-1.36-1.82a11,11,0,0,0-4.83-1.7,10.85,10.85,0,0,0-5.08.59C158.05,128.5,157.42,129.11,157.55,129.48Z"/><path class="cls-7" d="M131.78,125.62c.5.65,2.47,0,4.84-.05s4.37.45,4.84-.23c.2-.33-.11-1-1-1.6a7,7,0,0,0-7.8.23C131.83,124.63,131.56,125.3,131.78,125.62Z"/><path class="cls-7" d="M201.66,176.81a18.4,18.4,0,0,1-21.89-20.35c.65-5.09,3.39-10.27,1.62-15.08-2.33-6.37-11.26-8.33-13.63-14.69-1.37-3.69-.14-8-1.7-11.64-1.47-3.4-5.05-5.36-8.53-6.62s-7.23-2.13-10.16-4.41-4.75-6.57-2.86-9.76a196.73,196.73,0,0,1,45.29,11c3.38,1.26,6.93,2.78,8.93,5.78,2.12,3.19,2,7.3,1.84,11.11L198,178"/><path class="cls-10" d="M200.36,183.94a1.33,1.33,0,0,0,.34-.21l.92-.71c.8-.62,2-1.56,3.43-2.84a36.67,36.67,0,0,0,4.88-5.13,19,19,0,0,0,3.87-8.53,12.94,12.94,0,0,0-2.67-10.9,41.64,41.64,0,0,0-4.83-4.12,11.34,11.34,0,0,1-3.77-5.14c-1.53-4.22-.85-9.12-1.44-14.12A28.08,28.08,0,0,0,195.22,118a19.54,19.54,0,0,0-6.15-5,38.24,38.24,0,0,0-7.25-2.45,16.89,16.89,0,0,1-6.37-3.13,25.32,25.32,0,0,1-4.62-5.1c-2.6-3.7-4.52-7.64-7-10.92A23.88,23.88,0,0,0,159.74,87a15.62,15.62,0,0,0-4.84-2.63,10.3,10.3,0,0,0-9.21.91,8.44,8.44,0,0,0-3.26,6.21,6.19,6.19,0,0,0,1.24,4.27,4,4,0,0,0,.85.81c.21.15.32.23.33.21a1.74,1.74,0,0,0-.27-.29,4.26,4.26,0,0,1-.76-.85,6.16,6.16,0,0,1-1-4.13A8.16,8.16,0,0,1,146,85.7a9.8,9.8,0,0,1,8.7-.72,15,15,0,0,1,4.61,2.57,23.15,23.15,0,0,1,3.92,4.24c2.4,3.23,4.29,7.16,6.93,11a25.42,25.42,0,0,0,4.76,5.28,17.76,17.76,0,0,0,6.66,3.32,37.23,37.23,0,0,1,7.09,2.4,18.4,18.4,0,0,1,5.85,4.79,27.32,27.32,0,0,1,5.7,13.81c.6,4.84-.1,9.8,1.54,14.3a12.09,12.09,0,0,0,4,5.47,41.41,41.41,0,0,1,4.78,4,12.33,12.33,0,0,1,2.6,10.3,18.9,18.9,0,0,1-3.65,8.33,38.32,38.32,0,0,1-4.7,5.17c-1.41,1.31-2.55,2.29-3.32,3A11.17,11.17,0,0,0,200.36,183.94Z"/><path class="cls-7" d="M204.15,186.51c4.26-4.12,11.54-.54,15.11,4.19s6.11,10.81,11.54,13.19,12.49.33,17,4.12c6.28,5.22,2.76,17.31,9.55,21.84,2.69,1.81,6.25,1.74,9.13,3.23,6.79,3.5,6.71,13.08,5.66,20.65-1.47,10.62-3.08,21.63-8.94,30.6s-17.27,15.3-27.42,11.84c-9.75-3.33-14.76-13.86-18.72-23.37l-16.47-39.47c-3.17-7.61-6.38-15.34-7.41-23.52s.36-17,5.56-23.41"/><path class="cls-6" d="M206.88,177.44c3.1-.38,5.46,3.42,4.64,6.43s-3.7,5-6.65,6a9.92,9.92,0,0,1-5.13.6,5.08,5.08,0,0,1-3.89-3.13,3,3,0,0,1,1.42-3.89c2-1.27,3.23-2.27,4.84-3.16,2.46-1.36,2.31-1.54,4.77-2.89"/><polygon class="cls-6" points="135.65 210.79 147.67 201.68 192.98 198.78 194.8 204.85 180.06 296.82 191.69 406.54 128.48 406.54 135.65 210.79"/><g class="cls-11"><path d="M184.16,367.61c-1.45-1.54-3.82-3.67-5.93-3.71-15.13-.33-30.59-1.85-45.73-2.18l-1.21,44.84c3.62-6.39,7.05-13,8-20.3.42-3.18,1-7,3.85-8.34,1.65-.77,3.57-.47,5.35-.12,5.46,1.08,10.89,2.5,16.46,2.84s11.38-.46,16.05-3.5a9.78,9.78,0,0,0,3.84-4.15A5.08,5.08,0,0,0,184.16,367.61Z"/></g><path class="cls-6" d="M145.45,212.64l-1.4-13.15a4.17,4.17,0,0,1,3.77-4.59l41.71-3.77a2,2,0,0,1,2.14,1.9l.47,15.65-12.08,20.49-12.41,4H152.47l-8.73-9.32Z"/><path class="cls-7" d="M186,203.66s-.6-.06-1.67-.17a28.86,28.86,0,0,0-4.55-.08,45.21,45.21,0,0,0-6.68,1c-2.49.52-5.19,1.26-8.06,2a54.05,54.05,0,0,1-8.22,1.46,21.15,21.15,0,0,1-6.8-.46,14.57,14.57,0,0,1-4.25-1.77,10.2,10.2,0,0,1-1-.73,2,2,0,0,1-.31-.3s.5.33,1.43.86a15.64,15.64,0,0,0,4.23,1.58,21.55,21.55,0,0,0,6.68.34,56.28,56.28,0,0,0,8.13-1.49c2.86-.7,5.58-1.42,8.1-1.92a42.22,42.22,0,0,1,6.75-.86,24.93,24.93,0,0,1,4.59.25,10.28,10.28,0,0,1,1.23.24A1.42,1.42,0,0,1,186,203.66Z"/><g class="cls-11"><path d="M146.44,205.72c-1.11,3.07-1.15,6.88,1.12,9.23,1.85,1.92,4.81,2.4,7.42,1.88a23.53,23.53,0,0,0,7.25-3.26c5.75-3.42,11.58-6.95,18.1-8.4a2.37,2.37,0,0,0,1.17-.49.77.77,0,0,0,0-1.13,1.1,1.1,0,0,0-.54-.16c-5.77-.57-11.49,1.06-17.15,2.33s-11.7,2.16-17.15.2"/></g><path class="cls-7" d="M154.41,194.48a3.73,3.73,0,0,0-1.43,1.36c-.66,1.06-.62,2.85-.57,4.79.11,3.89.75,7,.6,7a6.9,6.9,0,0,1-.56-2,30.38,30.38,0,0,1-.56-5,23.06,23.06,0,0,1,.06-2.79,4.89,4.89,0,0,1,.72-2.21,2.83,2.83,0,0,1,1.18-1.05C154.19,194.45,154.4,194.45,154.41,194.48Z"/><path class="cls-7" d="M165.43,205.91a60.5,60.5,0,0,0-.3-6.37,61.42,61.42,0,0,0-1.48-6.2,5.63,5.63,0,0,1,.85,1.7,20.51,20.51,0,0,1,1.15,4.43,20.21,20.21,0,0,1,.13,4.57A5.4,5.4,0,0,1,165.43,205.91Z"/><path class="cls-7" d="M178.86,192.24a4,4,0,0,1,.79,1.55,10.51,10.51,0,0,1,.55,4.17,10.73,10.73,0,0,1-1.09,4.06,3.84,3.84,0,0,1-1,1.43,13.78,13.78,0,0,0,.75-11.21Z"/><path class="cls-3" d="M120.38,216.7s-14.22,9.53-18,26.73c-2.93,13.52-11,84.93-11,84.93L77.36,355.79l9.19,21.88h0a33.57,33.57,0,0,0,22.1-6.32l6.19-4.49L126.19,350Z"/><polygon class="cls-3" points="144.49 204.09 120.38 216.7 114.69 235.4 109.62 289.58 119.16 353.11 102.42 406.34 131.29 406.56 131.98 375.35 134.86 274.36 137.69 210.02 144.49 204.09"/><path class="cls-7" d="M132.81,288.28a6.25,6.25,0,0,1-.45-.75c-.29-.55-.69-1.28-1.2-2.21s-1-2.22-1.6-3.64c-.3-.72-.54-1.52-.84-2.34s-.61-1.71-.85-2.66c-2.27-7.48-3.77-18.29-3.46-30.21,0-.93.07-1.84.13-2.75v-.16l.15-.06,4.22-1.77-.06.44-4.22-3.39-.08-.07v-.1a36.75,36.75,0,0,1,1.92-12.06c1.06-3.53,2.23-6.56,3.24-9.06s1.91-4.45,2.54-5.78c.32-.66.57-1.17.75-1.51a2.38,2.38,0,0,1,.29-.51,4.07,4.07,0,0,1-.22.55c-.16.39-.39.9-.67,1.54-.58,1.35-1.42,3.32-2.4,5.82s-2.1,5.55-3.12,9.07a36.92,36.92,0,0,0-1.83,11.9l-.09-.18,4.22,3.38.34.27-.4.16L124.9,244l.16-.22c-.06.89-.1,1.81-.13,2.72-.31,11.87,1.12,22.63,3.29,30.1.23.95.54,1.82.81,2.65s.52,1.62.8,2.34c.6,1.43,1,2.68,1.52,3.66l1.11,2.25A5.72,5.72,0,0,1,132.81,288.28Z"/><path class="cls-7" d="M113.9,326.23a4.8,4.8,0,0,1-.24-.79l-.57-2.27c-.24-1-.53-2.2-.81-3.62s-.65-3-.93-4.82-.65-3.76-.92-5.89-.55-4.39-.8-6.78c-.43-4.8-.73-10.09-.73-15.65s.34-10.85.79-15.64c.26-2.4.49-4.68.82-6.79s.62-4.09.94-5.88.66-3.41,1-4.82.58-2.63.83-3.62.44-1.7.58-2.27a4.85,4.85,0,0,1,.24-.78,6.08,6.08,0,0,1-.14.81l-.48,2.29c-.22,1-.48,2.21-.74,3.63s-.61,3-.87,4.82-.62,3.76-.88,5.88-.52,4.38-.78,6.77c-.42,4.78-.71,10.06-.74,15.6s.28,10.82.69,15.6c.24,2.39.44,4.66.74,6.78s.57,4.08.86,5.88.6,3.4.86,4.82.5,2.64.72,3.63l.48,2.3A6.25,6.25,0,0,1,113.9,326.23Z"/><path class="cls-7" d="M120.42,375a11.25,11.25,0,0,1-1.17,2.42,40,40,0,0,1-8.22,10,10.63,10.63,0,0,1-2.14,1.62,18.56,18.56,0,0,1,1.9-1.89,58.9,58.9,0,0,0,4.36-4.74,56.18,56.18,0,0,0,3.78-5.21A19.19,19.19,0,0,1,120.42,375Z"/><path class="cls-3" d="M231.2,215.16a33.19,33.19,0,0,1,20.38,23.6c7.88,34.76,21.38,81,21.59,95.92.27,19-8,32-18.89,34.41C245.71,371,168,366.73,168,366.73l-3.64-29,63-9.27-8.62-48.17,8.53-66.71Z"/><path class="cls-3" d="M227.19,213.61l-17.4-7.12-18.36-10.75-.11,3.15h0a18.43,18.43,0,0,1,2.18,12.75l-15.27,79.67,3.46,58.21,7.11,57H244L218.66,346.9l9-80.38Z"/><path class="cls-7" d="M243.32,369.57l-.38.06-1.11.1c-1,.11-2.43.1-4.3.15-3.75,0-9.19-.08-15.95-.3-13.53-.46-32.37-1.36-53.64-2.59l-.21,0,0-.21c-.43-3.45-.89-7.09-1.35-10.78-.78-6.26-1.55-12.35-2.28-18.19l0-.24.25,0,48.07-7,14.12-2,3.79-.52,1-.12.34,0a1.3,1.3,0,0,1-.33.08l-1,.16-3.79.6-14.09,2.16-48,7.16.22-.28c.73,5.84,1.5,11.93,2.28,18.18.47,3.7.92,7.34,1.36,10.79l-.24-.23c21.25,1.25,40.09,2.22,53.61,2.76,6.76.27,12.19.42,15.94.46,1.87,0,3.32,0,4.29-.05l1.12-.06Z"/><path class="cls-7" d="M218.16,275.46a3,3,0,0,1,.13.53l.3,1.54c.26,1.42.62,3.35,1,5.69L222.91,302c1.22,7.32,2.32,13.94,3.14,18.82.37,2.36.67,4.3.89,5.72l.22,1.56a2.27,2.27,0,0,1,0,.55,1.89,1.89,0,0,1-.14-.53c-.09-.41-.19-.92-.32-1.55-.26-1.41-.62-3.34-1.05-5.68-.87-4.81-2-11.46-3.29-18.81s-2.36-14-3.13-18.82c-.36-2.36-.66-4.3-.88-5.72-.08-.63-.15-1.15-.2-1.57A1.84,1.84,0,0,1,218.16,275.46Z"/><path class="cls-7" d="M199.44,201.35s0,.06.07.19l.16.59c.13.51.35,1.27.56,2.26a70.51,70.51,0,0,1,1.33,8.58,97.53,97.53,0,0,1,.33,13.08c-.17,5-.7,10.47-1.45,16.3l0,.18-.19,0-5.69,1.06.2-.35c.32.87.66,1.81.92,2.78,1.85,6.76,1,13.6-.65,19.32a61,61,0,0,1-6.69,14.4c-2.37,3.85-4.52,6.82-6,8.87-.73,1-1.31,1.77-1.72,2.34l-.47.6c-.1.13-.16.2-.17.19s0-.08.13-.22l.42-.63,1.65-2.4c1.42-2.08,3.52-5.08,5.85-8.94a62.23,62.23,0,0,0,6.54-14.35c1.64-5.66,2.42-12.41.6-19-.25-.95-.58-1.87-.9-2.73l-.11-.3.31,0,5.69-1.05-.21.22c.76-5.82,1.31-11.3,1.51-16.25a100.34,100.34,0,0,0-.22-13,79.75,79.75,0,0,0-1.17-8.57c-.18-1-.37-1.76-.47-2.28-.05-.24-.09-.43-.12-.59S199.43,201.35,199.44,201.35Z"/><path class="cls-6" d="M199.44,283.07V270.36s.16-3.14-2.48-2.48-2.14,5.61-2.14,5.61-.5,19.32.66,19.15,1.6-1.65,1.6-1.65v-7.43Z"/><path class="cls-7" d="M210.42,283.86a45.4,45.4,0,0,1-6.81.26,45.2,45.2,0,0,1-6.8-.26,45.2,45.2,0,0,1,6.8-.26A45.4,45.4,0,0,1,210.42,283.86Z"/><path class="cls-7" d="M235.57,222.7a10.32,10.32,0,0,1-1.42.52,32.45,32.45,0,0,0-3.78,1.64,29.24,29.24,0,0,0-10.21,8.7,21,21,0,0,0-2,3.27,20.41,20.41,0,0,0-1.21,3.37,33.76,33.76,0,0,0-1,6c-.15,1.73-.18,3.14-.19,4.12a10.52,10.52,0,0,1,0,1.51,7.28,7.28,0,0,1-.17-1.51,39,39,0,0,1,0-4.15,31,31,0,0,1,.92-6.1,19.56,19.56,0,0,1,1.21-3.46,20.29,20.29,0,0,1,2.05-3.36,28.22,28.22,0,0,1,10.47-8.73,26.55,26.55,0,0,1,3.88-1.5A6.54,6.54,0,0,1,235.57,222.7Z"/><polygon class="cls-7" points="11.47 328.36 102.42 362.05 179.1 373.77 87.94 329.33 11.47 328.36"/><path class="cls-8" d="M50.39,364.69a38.65,38.65,0,0,0-4.84-13.78,10.63,10.63,0,0,1-1.24-2.59,3,3,0,0,1,.51-2.72c1.17-1.27,3.31-.7,4.74.26a16.71,16.71,0,0,1,6.13,8.57,50.52,50.52,0,0,1,2,10.52"/><path class="cls-8" d="M85.84,356H81.32a8.73,8.73,0,0,0-4-2.28,3.15,3.15,0,0,0-3,1.16c2-3.33,4.2-7,4.62-8,.82-2-1-3.42-3.9-3.42s-15.79,18.23-15.79,18.23,8-14.66,8.76-16.9c1.94-5.6-4.18-6-6.41-3.32-2.76,3.36-13.91,20.22-13.91,20.22s-2.12,3.42-.65,6.68,5.69,2,5.69,2a5.47,5.47,0,0,0,3,4.53c3.27,1.81,7.56-.29,7.56-.29L80,378.33l6-.6a18.46,18.46,0,0,0,16.44-15.68h0Z"/><path class="cls-9" d="M74.63,354.66c.19.11-2,3.6-4.9,7.77-1.44,2.09-2.77,4-3.75,5.3a14.07,14.07,0,0,1-1.69,2.11,14.77,14.77,0,0,1,1.38-2.32c.91-1.39,2.19-3.29,3.63-5.38s2.76-4,3.72-5.32l1.16-1.59A3.43,3.43,0,0,1,74.63,354.66Z"/><path class="cls-9" d="M73.64,373.22a14.25,14.25,0,0,1,1.47-2.72c1-1.64,2.39-3.88,3.93-6.35.76-1.24,1.5-2.42,2.1-3.51a4,4,0,0,0,.37-3.08,7.55,7.55,0,0,0-1.42-2.65s.28.14.65.54a5.32,5.32,0,0,1,1.12,2,4.33,4.33,0,0,1-.29,3.41c-.6,1.13-1.32,2.31-2.09,3.55-1.54,2.48-3,4.69-4.06,6.27A23.67,23.67,0,0,1,73.64,373.22Z"/><path class="cls-9" d="M82.38,374.88a10.37,10.37,0,0,1,.89-2.6l1.19-2.71a21.33,21.33,0,0,0,1.22-3.36,3.91,3.91,0,0,0-.53-3.25,3.11,3.11,0,0,0-1.18-.85,3.31,3.31,0,0,0-1.24-.34,5,5,0,0,0-1.8.62c-.42.21-.66.31-.68.28s.19-.19.58-.45a8.19,8.19,0,0,1,.75-.45,2.69,2.69,0,0,1,1.14-.37,4.23,4.23,0,0,1,2.81,1.26,4.33,4.33,0,0,1,.66,3.67,19.93,19.93,0,0,1-1.29,3.44c-.47,1-.93,1.91-1.3,2.67C82.85,373.94,82.45,374.9,82.38,374.88Z"/><path class="cls-9" d="M85.45,359.13a1.73,1.73,0,0,1,.71.22,8,8,0,0,1,1.74,1,9.51,9.51,0,0,1,2.69,12.06,8,8,0,0,1-1.14,1.66c-.32.35-.53.52-.55.5s.66-.82,1.36-2.32a9.63,9.63,0,0,0-2.59-11.61C86.4,359.59,85.41,359.22,85.45,359.13Z"/><path class="cls-9" d="M56.15,349.57a48,48,0,0,1-3.76,6,48,48,0,0,1-4.2,5.73,48.84,48.84,0,0,1,3.77-6A48.36,48.36,0,0,1,56.15,349.57Z"/><path class="cls-8" d="M164.05,338.85l-10.4-2.36-10-9.4a7,7,0,0,0-4.46-1.92L121,324.12a7.08,7.08,0,0,0-5,1.67l-13,11,56.67,27.63,7.77.69Z"/><path class="cls-9" d="M133.25,334a33.56,33.56,0,0,1-3.5-.43,15.14,15.14,0,0,0-8.23.85,21.88,21.88,0,0,0-3.93,2.45c-1.15.87-2.18,1.66-3.09,2.28a17.58,17.58,0,0,1-2.24,1.31,3.06,3.06,0,0,1-.9.32c0-.08,1.2-.63,2.93-1.93.87-.65,1.87-1.47,3-2.36a20,20,0,0,1,4-2.54,11.85,11.85,0,0,1,4.64-1,20.94,20.94,0,0,1,3.86.29c1.08.18,1.94.38,2.54.52A4,4,0,0,1,133.25,334Z"/><path class="cls-9" d="M137,344.11c0,.09-.74-.24-2-.37a10.64,10.64,0,0,0-4.67.65,24.63,24.63,0,0,0-4.28,2.2,8,8,0,0,1-1.77,1,7.77,7.77,0,0,1,1.57-1.29,18.51,18.51,0,0,1,4.3-2.38,9.54,9.54,0,0,1,4.9-.52A3.87,3.87,0,0,1,137,344.11Z"/><path class="cls-9" d="M160.36,345.79a57.9,57.9,0,0,1-3.52-4.67c-1.93-2.59-3.59-4.61-3.48-4.71a22.43,22.43,0,0,1,3.9,4.4A23.19,23.19,0,0,1,160.36,345.79Z"/><path class="cls-6" d="M131.74,325.2l23-21.46a2.19,2.19,0,0,0-.16-3.35h0a2.2,2.2,0,0,0-2.81.1l-27,24.23"/><g class="cls-11"><path d="M131.74,325.2l23-21.46a2.19,2.19,0,0,0-.16-3.35h0a2.2,2.2,0,0,0-2.81.1l-27,24.23"/></g><path class="cls-12" d="M320,118.46c-.36-.14-14.31-3.8-13.46,10.3s14.83,10.35,14.83,10S320,118.46,320,118.46Z"/><path class="cls-13" d="M316.71,133.62c-.07,0-.24.19-.64.4a2.45,2.45,0,0,1-1.83.15c-1.53-.46-2.92-2.75-3.14-5.29a8.09,8.09,0,0,1,.47-3.56,2.86,2.86,0,0,1,1.74-2,1.26,1.26,0,0,1,1.49.58c.21.39.14.67.21.69s.29-.25.14-.83a1.58,1.58,0,0,0-.6-.85,1.87,1.87,0,0,0-1.38-.27,3.43,3.43,0,0,0-2.44,2.34,8.47,8.47,0,0,0-.62,4c.26,2.84,1.88,5.41,3.95,5.88a2.68,2.68,0,0,0,2.23-.51C316.7,134,316.76,133.64,316.71,133.62Z"/><path class="cls-7" d="M355.19,68.07c7.17,0,14.47,0,23.44,4.68,5.66,3,9.19,7.64,12.14,13.3a30.68,30.68,0,0,1,3.33,14.89c-.26,4.87-.28,8.29-2.22,12.77"/><path class="cls-12" d="M352.33,69.17A38,38,0,0,1,393,105.11c.92,17.67,1.74,36.79,1.54,46.41-.42,20.66-21.11,23.7-21.11,23.7s.46,6.13,1,13.73a27.22,27.22,0,0,1-26.12,29h0A27.22,27.22,0,0,1,320,191.79L317,108.53a38,38,0,0,1,35.37-39.36Z"/><path class="cls-13" d="M373.4,175.22s-12.69.66-26.5-8.16c0,0,6.25,15,26.88,13.33Z"/><path class="cls-7" d="M385.06,116.6a3,3,0,0,1-2.87,3,2.83,2.83,0,0,1-3-2.69,3,3,0,0,1,2.86-3A2.82,2.82,0,0,1,385.06,116.6Z"/><path class="cls-7" d="M387.92,112.43c-.37.38-2.59-1.29-5.77-1.31s-5.51,1.55-5.85,1.16c-.17-.17.21-.86,1.23-1.59a8.09,8.09,0,0,1,4.69-1.41,7.79,7.79,0,0,1,4.58,1.52C387.78,111.56,388.1,112.26,387.92,112.43Z"/><path class="cls-7" d="M353.92,116.6a3,3,0,0,1-2.86,3,2.82,2.82,0,0,1-3-2.69,2.94,2.94,0,0,1,2.86-3A2.81,2.81,0,0,1,353.92,116.6Z"/><path class="cls-7" d="M356.71,112.77c-.37.38-2.6-1.29-5.77-1.31s-5.51,1.56-5.85,1.16c-.17-.17.2-.86,1.23-1.59a8.09,8.09,0,0,1,4.69-1.41,7.79,7.79,0,0,1,4.58,1.52C356.56,111.9,356.89,112.6,356.71,112.77Z"/><path class="cls-7" d="M368,136.41c0-.18,2-.51,5.17-.89.81-.08,1.58-.23,1.72-.79a4.13,4.13,0,0,0-.53-2.4l-2.34-6.2c-3.26-8.81-5.61-16.06-5.26-16.19s3.29,6.92,6.55,15.73c.78,2.18,1.53,4.25,2.24,6.23a4.72,4.72,0,0,1,.4,3.19,2,2,0,0,1-1.34,1.17,5.23,5.23,0,0,1-1.38.18C370.05,136.59,368.05,136.59,368,136.41Z"/><path class="cls-7" d="M358.68,138.53c.52,0,.5,3.42,3.43,5.89s6.6,2.12,6.62,2.6c0,.22-.82.66-2.37.69a8.53,8.53,0,0,1-5.53-2,7.48,7.48,0,0,1-2.66-4.93C358.05,139.36,358.45,138.51,358.68,138.53Z"/><path class="cls-7" d="M357.63,100.34c-.32.86-3.49.42-7.22.84s-6.75,1.41-7.23.63c-.22-.37.31-1.18,1.53-2a12.58,12.58,0,0,1,11-1.13C357.08,99.24,357.77,99.93,357.63,100.34Z"/><path class="cls-7" d="M387.47,101.13c-.56.71-2.74,0-5.37-.11s-4.86.45-5.37-.31c-.22-.37.14-1.09,1.12-1.76a7.35,7.35,0,0,1,4.37-1.15,7.47,7.47,0,0,1,4.28,1.48C387.42,100,387.72,100.78,387.47,101.13Z"/><path class="cls-7" d="M317.2,115s.9,4.78,1.14,6.94c.09.78,0,9.54,2.11,10,1.83.37,5.46-1.29,7.08-4.91s4.7-12.31,4.37-16.26c-.46-5.39-.71-10.86.37-16.16s3.61-10.47,7.87-13.8,10.4-4.5,15.23-2.07c3,1.49,5.21,4.14,8,6a12.42,12.42,0,0,0,8.52,2.22,8,8,0,0,0,6.59-5.4c.88-3.15-.74-6.61-3.26-8.7s-5.79-3-9-3.68c-8.91-1.77-18.35-1.42-26.82,1.87s-16,9.61-19.6,17.94c-4.18,9.64-3.69,15.54-2.59,26"/><path class="cls-7" d="M364.42,116.74a25,25,0,0,0-.53-3.4,14,14,0,0,0-5.12-7.61,13.7,13.7,0,0,0-5.83-2.57,13.9,13.9,0,0,0-7.25.62,13.78,13.78,0,0,0-6.4,4.81,13.72,13.72,0,0,0,0,16.29,13.71,13.71,0,0,0,6.4,4.82,13.92,13.92,0,0,0,18.2-9.56,25,25,0,0,0,.53-3.4.6.6,0,0,1,0,.23v.67a6.45,6.45,0,0,1-.08,1.08,9.46,9.46,0,0,1-.27,1.47A13.91,13.91,0,0,1,359,128a14.14,14.14,0,0,1-13.47,2.11,14.42,14.42,0,0,1-6.65-5,14.21,14.21,0,0,1,0-16.9,14.15,14.15,0,0,1,6.64-5,14.17,14.17,0,0,1,13.47,2.1,13.9,13.9,0,0,1,5.09,7.86,9.57,9.57,0,0,1,.27,1.46,6.56,6.56,0,0,1,.08,1.09v.67A.6.6,0,0,1,364.42,116.74Z"/><path class="cls-7" d="M400.79,116.74a24.26,24.26,0,0,0-.54-3.4,14,14,0,0,0-5.12-7.61,13.7,13.7,0,0,0-5.83-2.57,13.9,13.9,0,0,0-7.25.62,13.78,13.78,0,0,0-6.4,4.81,13.72,13.72,0,0,0,0,16.29,12.89,12.89,0,0,0,2.91,2.94,13.29,13.29,0,0,0,3.49,1.88,13.92,13.92,0,0,0,18.2-9.56,24.26,24.26,0,0,0,.54-3.4.82.82,0,0,1,0,.23c0,.18,0,.4,0,.67a5.53,5.53,0,0,1-.08,1.08,10.67,10.67,0,0,1-.26,1.47,14.14,14.14,0,0,1-11.07,10.55,14.17,14.17,0,0,1-7.49-.59,14.42,14.42,0,0,1-6.65-5,14.19,14.19,0,0,1,0-16.9,13.2,13.2,0,0,1,3-3,13.05,13.05,0,0,1,3.62-1.93,14.17,14.17,0,0,1,7.49-.59,14.13,14.13,0,0,1,11.07,10.55,10.81,10.81,0,0,1,.26,1.46,5.63,5.63,0,0,1,.08,1.09c0,.27,0,.49,0,.67A.82.82,0,0,1,400.79,116.74Z"/><path class="cls-7" d="M373,115.24a7.72,7.72,0,0,1-1.29-.45,8.67,8.67,0,0,0-3.18-.4,8.4,8.4,0,0,0-3.11.82,8.15,8.15,0,0,1-1.22.62s.3-.47,1.05-.94a7.2,7.2,0,0,1,6.59-.44C372.68,114.82,373.08,115.19,373,115.24Z"/><path class="cls-7" d="M378.68,80.39c.2-1.07-.15-1.67.45-2.11s2,.81,2.47,1.33c.15.17.63-.48.82-.61a3.66,3.66,0,0,0,.37-1.37c-.09-.74-1.27-.95-1.82-1.45a5.56,5.56,0,0,0-2-1.11,1.84,1.84,0,0,0-1.86.11,1.81,1.81,0,0,0-.42,1.4A4,4,0,0,0,377,78a2,2,0,0,0,1,1.07"/><path class="cls-3" d="M316.43,104s10.13,3.71,15.4,5.94l-.29-5.18L316.8,98.93S316.43,102.78,316.43,104Z"/><path class="cls-3" d="M317.38,96a57,57,0,0,1,7.17,2.75,56.25,56.25,0,0,1,7,3.23,57,57,0,0,1-7.17-2.75A56.26,56.26,0,0,1,317.38,96Z"/><path class="cls-6" d="M320.43,205.07l-.78-24.52S324.52,203,350,202.7c24.38-.28,23.93-19.77,23.93-19.77l.87,9.88v39.92l-15.9,65.11-20.31,2.58-22.44-89Z"/><path class="cls-7" d="M371.69,197.22a2,2,0,0,1-.29.52,13,13,0,0,1-1,1.43,21,21,0,0,1-4.54,4.39,26.12,26.12,0,0,1-8.48,4,30,30,0,0,1-11.44.8A37.4,37.4,0,0,1,335,205a47.08,47.08,0,0,1-8-4.84,55.23,55.23,0,0,1-4.87-4c-.55-.5-.95-.92-1.23-1.19a2.58,2.58,0,0,1-.4-.45,3,3,0,0,1,.47.37l1.3,1.12c1.12,1,2.78,2.34,4.94,3.88a49.87,49.87,0,0,0,8,4.7A37.81,37.81,0,0,0,346,207.82a30,30,0,0,0,11.26-.74,26.34,26.34,0,0,0,8.39-3.82,22.24,22.24,0,0,0,4.59-4.22C371.2,197.89,371.65,197.19,371.69,197.22Z"/><path class="cls-3" d="M354,406.49l-.37-115.71-32.85-84.44-1.11-25.42-20,15.14S270.49,296.39,270,292.91s0,113.58,0,113.58Z"/><path class="cls-7" d="M353.2,406.17c-.14,0-.26-26.07-.26-58.23s.12-58.23.26-58.23.26,26.06.26,58.23S353.35,406.17,353.2,406.17Z"/><polygon class="cls-2" points="299.93 212.59 304 215.67 301.14 234.38 349.1 284.62 305.54 227.42 309.25 212.59 299.93 212.59"/><path class="cls-3" d="M355.79,347.21l-73.61-21.58-2.44-55.91,20.19-73.66s-48.12,24-51.39,39.29-11.17,52.42-12,79.26c-.76,24-.87,40.05,4.61,47.71,15.7,21.94,119.14,25.86,160.47,0"/><path class="cls-7" d="M350,285.84a2.27,2.27,0,0,1-.24-.27l-.66-.83-2.5-3.2-9.12-11.84c-7.68-10-18.25-23.88-29.93-39.17-.75-1-1.5-2-2.25-2.95l-.07-.1,0-.12c1.28-5.13,2.53-10.09,3.72-14.83l.24.31h-9.56v-.24c0-6.05,0-11.61,0-16.53V196l.08-.05,14.47-11,4-3,1-.76.37-.25a2,2,0,0,1-.33.29l-1,.81-3.91,3.07-14.36,11.13.08-.16c0,4.92,0,10.48,0,16.53l-.24-.24h9.64l-.07.31c-1.19,4.74-2.43,9.71-3.71,14.83l0-.22,2.25,3,29.8,39.26,9,11.94,2.42,3.26c.26.36.47.64.62.86A1.34,1.34,0,0,1,350,285.84Z"/><path class="cls-3" d="M382.84,191.71c-5.87-10.27-8.91-9.2-8.91-9.2l.3,3.66v7.69l-2.78,33-17.84,71.69.37,108H421.4l8.39-131.77L429,218Z"/><path class="cls-3" d="M429,218s17.45,12.88,19,33.6c1.23,16.83,4,62.92,4.55,73,.8,15.62-11.37,52.21-43.05,41.84-19-6.21-89.18-30.07-89.18-30.07l4.67-29.8,83.31,5L409.94,242Z"/><path class="cls-12" d="M324,309.92s-23.58-2.55-29-1.23c-5.24,1.26-12.72,7.68-12.72,7.68l.11,9.32,37.93,10.6Z"/><path class="cls-7" d="M353.62,287.77a2.77,2.77,0,0,1,.11-.32c.09-.24.2-.54.35-.92.34-.84.81-2,1.41-3.53l5.28-12.92,7.89-19.14c.74-1.79,1.48-3.66,2.41-5.49s1.94-3.65,3-5.48a119.13,119.13,0,0,1,7.49-10.8c1.36-1.76,2.73-3.47,4.14-5.1l0,.26-2.94-7.47-.1-.25.26-.08,12.28-4.18-.12.34-13.93-23.26c-1.69-2.82-3.13-5.07-4.66-6a6,6,0,0,0-1.86-.75,5.07,5.07,0,0,1-.68-.17,6.32,6.32,0,0,1,2.62.79,8.4,8.4,0,0,1,2.36,2.29,40.71,40.71,0,0,1,2.45,3.69l14.1,23.17.15.25-.27.1L383.06,217l.15-.33c1,2.43,2,4.92,3,7.46l.06.15-.11.12c-1.4,1.62-2.77,3.33-4.12,5.07a119.62,119.62,0,0,0-7.46,10.76c-1.08,1.81-2.13,3.61-3,5.43s-1.66,3.66-2.42,5.46c-3,7.18-5.71,13.65-8,19.09S357,280,355.68,283.08l-1.5,3.49c-.17.37-.3.67-.4.9A2,2,0,0,1,353.62,287.77Z"/><path class="cls-7" d="M438.6,360.57a2.28,2.28,0,0,1-.29.3l-.9.88a27,27,0,0,1-3.82,2.9,26.15,26.15,0,0,1-7,2.94,28.46,28.46,0,0,1-10,.64,31.8,31.8,0,0,1-5.75-1.22c-2-.62-3.91-1.39-6-2.12-4.12-1.49-8.53-3.05-13.18-4.68-9.3-3.25-19.55-6.74-30.35-10.28-21.6-7.1-41.3-13.08-55.57-17.34l-16.92-5-4.6-1.36-1.2-.37a2.34,2.34,0,0,1-.4-.14,2,2,0,0,1,.42.09l1.21.32,4.62,1.27c4,1.12,9.82,2.77,17,4.85,14.3,4.17,34,10.1,55.64,17.2,10.8,3.54,21.05,7,30.34,10.32,4.64,1.64,9,3.21,13.16,4.73,2.06.73,4,1.51,6,2.14a32.81,32.81,0,0,0,5.67,1.23,28.46,28.46,0,0,0,9.93-.55,26.57,26.57,0,0,0,7-2.83,28.58,28.58,0,0,0,3.86-2.81l.93-.83A2.07,2.07,0,0,1,438.6,360.57Z"/><path class="cls-7" d="M282.38,325.86c0,.11-1.33-.18-3.44-.1a16.27,16.27,0,0,0-3.64.6,17.1,17.1,0,0,0-4.1,1.87,19.11,19.11,0,0,0-5.7,5.86c-1.12,1.8-1.6,3-1.7,3a3.65,3.65,0,0,1,.28-.89,17,17,0,0,1,1.1-2.3,17.84,17.84,0,0,1,5.74-6.1,16.18,16.18,0,0,1,4.25-1.9,14.7,14.7,0,0,1,3.76-.5,12.32,12.32,0,0,1,2.54.22A3,3,0,0,1,282.38,325.86Z"/><path class="cls-7" d="M259.19,318.55s0-.1.09-.26a2.49,2.49,0,0,1,.47-.66,4.69,4.69,0,0,1,2.61-1.29,13.29,13.29,0,0,1,4.32,0,24.78,24.78,0,0,1,5.13,1.24,22.44,22.44,0,0,1,8.14,5,17.54,17.54,0,0,1,1.88,2.21,4.38,4.38,0,0,1,.55.91c-.09.06-.91-1.22-2.69-2.85a24.09,24.09,0,0,0-8.05-4.76,26.34,26.34,0,0,0-5-1.26,14,14,0,0,0-4.19-.12,4.78,4.78,0,0,0-2.54,1.08C259.4,318.23,259.23,318.58,259.19,318.55Z"/><path class="cls-7" d="M286.67,254.34a10.82,10.82,0,0,1-.34-1.52c-.14-.47-.36-1-.59-1.71s-.63-1.37-1.09-2.14a30.31,30.31,0,0,0-3.75-5,40.13,40.13,0,0,0-5.75-5,34.55,34.55,0,0,0-12.57-5.78,26,26,0,0,0-4.18-.53,8.65,8.65,0,0,1-1.56-.13,9.56,9.56,0,0,1,1.56-.07,21.92,21.92,0,0,1,4.25.37,33.19,33.19,0,0,1,12.81,5.71,38.83,38.83,0,0,1,5.79,5.16,28.35,28.35,0,0,1,3.72,5.13c.45.79.74,1.56,1,2.21s.4,1.29.52,1.78A7.9,7.9,0,0,1,286.67,254.34Z"/><path class="cls-7" d="M426.42,339.83a1.65,1.65,0,0,1,0-.36l0-1c0-.92-.06-2.27-.2-4a55.59,55.59,0,0,0-3-14.41,19.79,19.79,0,0,0-2-4.41,8.56,8.56,0,0,0-3.9-3.3c-3.35-1.45-7.38-1.26-11.48-1.49L379,309.68c-22.18-1-41.91-1.79-54.31-2.46l.17-.13c-.75,4.55-1.34,8.17-1.76,10.67-.2,1.21-.37,2.16-.48,2.83-.06.3-.1.54-.14.73a.81.81,0,0,1-.06.24.94.94,0,0,1,0-.25l.09-.73c.1-.68.23-1.62.4-2.84.38-2.51.93-6.13,1.61-10.7l0-.14h.15L379,309.16l26.84,1.17c2.07.11,4.08.15,6,.31a17.93,17.93,0,0,1,5.6,1.26,9.07,9.07,0,0,1,4.06,3.48,20.78,20.78,0,0,1,2,4.5,54.52,54.52,0,0,1,2.82,14.52c.1,1.75.1,3.11.1,4,0,.44,0,.78,0,1.05A1.6,1.6,0,0,1,426.42,339.83Z"/><path class="cls-7" d="M410.53,274.61c.15,0,.26,8.07.26,18s-.11,18-.26,18-.26-8.07-.26-18S410.39,274.61,410.53,274.61Z"/><path class="cls-7" d="M249.12,233.55l-.21.66c-.13.44-.39,1.08-.6,1.95-.49,1.73-1.1,4.32-1.79,7.69-1.4,6.74-3.11,16.6-5,28.94-1,6.17-2,13-3,20.31-.51,3.66-.82,7.49-1.09,11.44s-.47,8-.62,12.25c-.31,8.4-.49,17.29-.24,26.54.07,2.31.15,4.65.35,7,.05,1.19.25,2.34.39,3.52a27.61,27.61,0,0,0,.86,3.45,19.28,19.28,0,0,0,3.31,6.33,14.26,14.26,0,0,0,5.68,4.38l0,0h0A86.51,86.51,0,0,0,262,373.68c5.17,1.55,10.51,2.8,15.94,3.92a219.89,219.89,0,0,0,35.8,4.36,169.19,169.19,0,0,0,17.09-.45q8.36-.57,16.24-1.75A171,171,0,0,0,376.25,373a149.52,149.52,0,0,0,23.58-10.12l0,.32-32.35-11.45-8.71-3.11-2.25-.82c-.51-.18-.76-.29-.76-.29l.78.25,2.27.77,8.74,3,32.4,11.3.38.13-.36.19a148.5,148.5,0,0,1-23.61,10.21,171.68,171.68,0,0,1-29.23,6.85c-5.26.78-10.7,1.37-16.28,1.77a169.91,169.91,0,0,1-17.14.46,220,220,0,0,1-35.89-4.36c-5.43-1.12-10.79-2.37-16-3.93A86.92,86.92,0,0,1,247,368.47l.05,0a14.78,14.78,0,0,1-5.93-4.55,20,20,0,0,1-3.39-6.5,28.71,28.71,0,0,1-.87-3.52c-.15-1.19-.34-2.38-.4-3.56-.19-2.36-.27-4.7-.34-7-.23-9.27,0-18.16.28-26.57q.24-6.31.65-12.26c.27-4,.6-7.79,1.12-11.47,1-7.34,2.06-14.13,3-20.3,2-12.34,3.73-22.2,5.18-28.93.72-3.36,1.36-5.95,1.88-7.67a18.88,18.88,0,0,1,.65-1.95C249,233.76,249.12,233.55,249.12,233.55Z"/><path class="cls-2" d="M282.27,319c12.31-13.63,11.77-37.86,4.71-55.06-.66,18.63-2.85,35.15-4.54,53.25"/><path class="cls-7" d="M287,267.38a2.3,2.3,0,0,1,0,.6c0,.44-.07,1-.11,1.7-.12,1.54-.29,3.66-.49,6.25-.44,5.33-1,12.59-1.7,20.61l-1.62,20.61c-.19,2.59-.35,4.71-.47,6.25l-.15,1.7a2.13,2.13,0,0,1-.08.59,2.15,2.15,0,0,1,0-.6c0-.44,0-1,.05-1.7,0-1.48.16-3.62.31-6.26.3-5.29.8-12.58,1.46-20.64s1.32-15.33,1.85-20.6l.65-6.23c.09-.69.16-1.25.21-1.69A2.85,2.85,0,0,1,287,267.38Z"/><path class="cls-7" d="M317.35,242.76c.14,0,.26,4.73.26,10.56s-.12,10.57-.26,10.57a105.27,105.27,0,0,1-.26-10.57A105.15,105.15,0,0,1,317.35,242.76Z"/><path class="cls-2" d="M309.33,277.87a10.84,10.84,0,0,0,2.26,5.6c1.16,1.5,3.51,3,5.4,2.87a8.24,8.24,0,0,0,7.27-3.65c2.3-3.67,2.87-11.3,1-15.81-1.28-3.1-4.13-6-7.48-6.06-4.4-.11-7.16,3.07-8.1,6.29"/><path class="cls-7" d="M309.71,267.11a6.72,6.72,0,0,1,.82-2.16,8.56,8.56,0,0,1,1.65-2.16,7.68,7.68,0,0,1,5.2-2.16,6.29,6.29,0,0,1,2.29.3,8.94,8.94,0,0,1,4.09,2.93,11.89,11.89,0,0,1,2.4,5,21.09,21.09,0,0,1,.44,5.92c-.2,3.14-.81,6.25-2.55,8.63a7.7,7.7,0,0,1-3.32,2.51,9.06,9.06,0,0,1-3.75.63h0a5.68,5.68,0,0,1-2.7-.67,8.73,8.73,0,0,1-2-1.41,10.49,10.49,0,0,1-2.91-5.72,5.1,5.1,0,0,1-.06-.66c0-.15,0-.22,0-.22a13.11,13.11,0,0,0,1,3.21,10.32,10.32,0,0,0,2.22,3.13,8.21,8.21,0,0,0,2,1.32,5.3,5.3,0,0,0,2.5.59h0a8,8,0,0,0,6.65-3c1.61-2.23,2.23-5.29,2.42-8.35.22-4-.44-7.95-2.69-10.6a8.66,8.66,0,0,0-3.85-2.82,5.75,5.75,0,0,0-2.15-.31,7.44,7.44,0,0,0-5,2,9.31,9.31,0,0,0-1.68,2.05A20,20,0,0,0,309.71,267.11Z"/><path class="cls-2" d="M307,278.06a10.76,10.76,0,0,0,2.26,5.61c1.16,1.5,3.51,3,5.4,2.86a8.22,8.22,0,0,0,7.27-3.64c2.3-3.67,2.87-11.3,1-15.81-1.27-3.1-4.12-6-7.47-6.06-4.4-.11-7.16,3.07-8.1,6.29"/><path class="cls-7" d="M307.37,267.31a6.72,6.72,0,0,1,.82-2.16,8.56,8.56,0,0,1,1.65-2.16,7.52,7.52,0,0,1,3.11-1.83,7.81,7.81,0,0,1,2.09-.33,6.08,6.08,0,0,1,2.29.3,9,9,0,0,1,4.09,2.93,11.89,11.89,0,0,1,2.4,5,21.86,21.86,0,0,1,.44,5.92c-.2,3.13-.81,6.25-2.55,8.63a7.6,7.6,0,0,1-3.32,2.5,9.1,9.1,0,0,1-3.76.64h0a5.64,5.64,0,0,1-2.69-.67,9,9,0,0,1-2-1.41,10.26,10.26,0,0,1-2.2-3.29A9.63,9.63,0,0,1,307,279a5.25,5.25,0,0,1-.06-.66c0-.15,0-.23,0-.23a13,13,0,0,0,1,3.22,10.15,10.15,0,0,0,2.22,3.13,8.21,8.21,0,0,0,2,1.32,5.3,5.3,0,0,0,2.5.59h0a8,8,0,0,0,6.65-3c1.61-2.23,2.23-5.29,2.42-8.36.22-3.95-.44-7.94-2.7-10.59a8.58,8.58,0,0,0-3.84-2.82,5.75,5.75,0,0,0-2.15-.31,7.44,7.44,0,0,0-5,2,9.52,9.52,0,0,0-1.67,2.05A20,20,0,0,0,307.37,267.31Z"/><path class="cls-2" d="M311.23,266.18a5.16,5.16,0,0,0-5.37,3.1,8.9,8.9,0,0,0,0,6.52,8,8,0,0,0,1.67,2.94,4.36,4.36,0,0,0,3,1.45,5.18,5.18,0,0,0,4.13-2.44,9.32,9.32,0,0,0,1.41-7.67c-.46-1.73-1.73-3.51-3.53-3.55"/><path class="cls-7" d="M312.53,266.53s.14,0,.4,0a2.89,2.89,0,0,1,1.09.37,5.29,5.29,0,0,1,2.28,3.44,9.42,9.42,0,0,1-.61,6.12,8,8,0,0,1-2.24,2.95,4.35,4.35,0,0,1-3.86.92,5.38,5.38,0,0,1-3.09-2.52,11.24,11.24,0,0,1-1.28-3.45,7.69,7.69,0,0,1,1-6,5.37,5.37,0,0,1,3.49-2.22,3.55,3.55,0,0,1,1.14,0,1.59,1.59,0,0,1,.38.1,7.52,7.52,0,0,0-1.49.1,5.29,5.29,0,0,0-3.22,2.23,7.36,7.36,0,0,0-.83,5.73,11,11,0,0,0,1.25,3.29,4.91,4.91,0,0,0,2.79,2.28,3.84,3.84,0,0,0,3.4-.82,7.47,7.47,0,0,0,2.12-2.75,9.22,9.22,0,0,0,.7-5.83,5.32,5.32,0,0,0-2-3.36A4,4,0,0,0,312.53,266.53Z"/><path class="cls-7" d="M316.27,282.62c-.08,0-.19-.31-.53-.71a3.62,3.62,0,0,0-1.7-1.1,9.18,9.18,0,0,0-2.1-.32c-.56-.05-.92-.09-.92-.16s.34-.16.91-.21a6,6,0,0,1,2.26.19,3.36,3.36,0,0,1,1.85,1.38C316.35,282.22,316.33,282.62,316.27,282.62Z"/><path class="cls-7" d="M317.06,264.82c.05.05-.15.36-.62.73a5.06,5.06,0,0,1-2.11.92,4.77,4.77,0,0,1-2.29-.13c-.57-.18-.87-.4-.84-.46a7.46,7.46,0,0,0,5.86-1.06Z"/><path class="cls-7" d="M385.77,193.19a1.25,1.25,0,0,1,.33.12,9.88,9.88,0,0,1,.89.46,18.36,18.36,0,0,1,3,2.15,21.42,21.42,0,0,1,6.43,10.18A65.25,65.25,0,0,1,398.88,218c.17,1.54.26,2.78.32,3.65a7.74,7.74,0,0,1,0,1.35,6.07,6.07,0,0,1-.23-1.33c-.13-1-.29-2.18-.49-3.63a76.5,76.5,0,0,0-2.59-11.75,22.1,22.1,0,0,0-6.18-10.06A34.5,34.5,0,0,0,385.77,193.19Z"/><path class="cls-7" d="M373.32,303.27c2.9-.11,5.21-3,8.11-2.85a4,4,0,1,1-.68,8c-3-.35-4.83-3.92-7.81-4.61"/><path class="cls-7" d="M397.89,305.74a17.29,17.29,0,0,1-2.71-.23l.16-1c3.58.58,6.59,0,8.94-1.74,3-2.18,4.87-6.07,5.67-11.57l0-.21c.33-2.18.78-44.95.78-53.07,0-12.68-11.13-14.41-11.6-14.48s-10.57-1.77-15.94,12.08C377.59,250,368.61,278,368,281.27c-.07.4-.18.9-.31,1.48-.94,4.19-2.88,12.92,2.94,17.95,6.49,5.6,11.61,3.44,11.83,3.34l.41.91c-.24.11-5.89,2.55-12.89-3.49-6.28-5.42-4.24-14.55-3.27-18.93.13-.56.24-1,.31-1.44.6-3.3,9.62-31.37,15.25-45.92s16.93-12.73,17-12.71,12.45,1.91,12.44,15.47c0,6.69-.44,50.91-.79,53.22l0,.21c-.84,5.77-2.88,9.89-6.07,12.22A11.45,11.45,0,0,1,397.89,305.74Z"/><path class="cls-7" d="M411.26,246.11a18.59,18.59,0,0,0-2.08-5,16.69,16.69,0,0,0-3.95-4.28,17.22,17.22,0,0,0-6.42-3,18.8,18.8,0,0,0-12.66,1.66,21.92,21.92,0,0,0-4.4,3.15s.06-.12.22-.31.4-.48.75-.8a15.26,15.26,0,0,1,3.25-2.37,18.33,18.33,0,0,1,5.64-2,18,18,0,0,1,7.32.15,17.06,17.06,0,0,1,6.59,3.16,16.67,16.67,0,0,1,4,4.47,13.52,13.52,0,0,1,1.54,3.72,7.74,7.74,0,0,1,.2,1.07C411.27,246,411.28,246.11,411.26,246.11Z"/><path class="cls-7" d="M436.73,326.06a35.78,35.78,0,0,0-1.37-4.27,18.71,18.71,0,0,0-6.79-8.14,14.64,14.64,0,0,0-5.5-2,47.43,47.43,0,0,0-4.84-.5l-3.3-.23a4.87,4.87,0,0,1-1.2-.17,6.33,6.33,0,0,1,1.21,0l3.3.06a43.66,43.66,0,0,1,4.91.39,14.73,14.73,0,0,1,5.7,2,18.16,18.16,0,0,1,6.85,8.44,15.77,15.77,0,0,1,.91,3.2A4.57,4.57,0,0,1,436.73,326.06Z"/><path class="cls-12" d="M386.29,309.37s9.83-14.9,12.34-16.85,24-11.64,26.49-10.08,1,4.94,1,4.94,9.09-3.19,10.05-1.93a4.48,4.48,0,0,1,0,5.12s5-.77,5,.77a6.36,6.36,0,0,1-2.9,5.22c-2.32,1.74-17.41,11.79-18.62,14.56l-4.88-.29Z"/><path class="cls-13" d="M414.59,305.11a3.4,3.4,0,0,1,.45-.94,17,17,0,0,1,1.61-2.33,27,27,0,0,1,7.13-6,53.61,53.61,0,0,1,8.44-4c1.11-.42,2-.74,2.65-.95a4.36,4.36,0,0,1,1-.28,4.35,4.35,0,0,1-.92.47l-2.59,1.1a70.1,70.1,0,0,0-8.31,4.07,29.81,29.81,0,0,0-7.12,5.8C415.37,303.86,414.67,305.16,414.59,305.11Z"/><path class="cls-13" d="M402.11,304.87a5.24,5.24,0,0,1,.48-1.1c.34-.69.84-1.68,1.51-2.88a27.53,27.53,0,0,1,2.71-4,13.27,13.27,0,0,1,2.06-2c.83-.56,1.71-1.09,2.61-1.62a71.31,71.31,0,0,1,9.6-4.79,27.45,27.45,0,0,1,3.09-1,4.81,4.81,0,0,1,1.18-.21c0,.08-1.63.47-4.13,1.58a92.71,92.71,0,0,0-9.48,4.9c-.89.53-1.77,1.05-2.58,1.59a12.93,12.93,0,0,0-2,1.93,30.09,30.09,0,0,0-2.76,3.89c-.66,1.1-1.21,2-1.65,2.79A5.43,5.43,0,0,1,402.11,304.87Z"/></g></g></svg>