<?xml version="1.0" encoding="utf-8"?>
<!-- Generator: Adobe Illustrator 25.4.0, SVG Export Plug-In . SVG Version: 6.00 Build 0)  -->
<svg version="1.1" id="Layer_1" xmlns="http://www.w3.org/2000/svg" xmlns:xlink="http://www.w3.org/1999/xlink" x="0px" y="0px"
	 viewBox="0 0 407.1 430.8" style="enable-background:new 0 0 407.1 430.8;" xml:space="preserve">
<style type="text/css">
	.st0{fill:#F5F5F5;}
	.st1{fill:#E0E0E0;}
	.st2{fill:#FAFAFA;}
	.st3{fill:#EBEBEB;}
	.st4{fill:#FFFFFF;}
	.st5{fill:#E5E5E5;}
	.st6{fill:#263238;}
	.st7{opacity:0.2;}
	.st8{fill:#E8505B;}
	.st9{fill:#455A64;}
	.st10{fill:#B78876;}
	.st11{fill:#AA6550;}
	.st12{fill:none;stroke:#F3A7AD;stroke-miterlimit:10;}
	.st13{fill:none;stroke:#FFFFFF;stroke-width:5.000000e-02;stroke-miterlimit:10;}
	.st14{opacity:0.3;enable-background:new    ;}
</style>
<g id="Background_Complete">
	<path class="st0" d="M402.5,242.5c0,0-9.7-6.7-22.1,16.6c-12.4,23.3-17.3,36.8-17.3,36.8s-3.3,4.9-6.6,1.6
		c-3.3-3.3-7.8-12.5-13.6-11c-6,1.6-8.1,8.2-7.1,18c1,9.8,2.2,31.4,2.4,33.3c0.1,1.9-1,4.7-3.7,2.8s-17.6-19.2-25.4-11.6
		c-7.8,7.6-0.7,34.5,0.1,37.5s0.1,4.2-1.3,4.9c-1.4,0.7-5.9-5.6-10.4-10.4s-10.5-9.5-14.6-4.7c-4.1,4.8-5.8,24.8,12.7,57.8l9.6,14.7
		l17.6-0.6c37.6-3.7,53.1-16.5,54.7-22.6s-5.8-8.3-12.2-9.3s-14.2-1-14.4-2.6c-0.2-1.6,0.5-2.8,3.3-3.8c2.8-1.1,29-10.6,30.8-21.3
		s-21-13.1-24-14.2c-3-1.1-1.4-3.6,0.2-4.6s20.1-12.3,28.7-17.1s12.8-10.3,10.7-16.2c-2-5.6-12.2-4-16.8-4.9s-2.5-6.3-2.5-6.3
		s8.3-11.6,20.3-35.2c12-23.5,0.7-27.7,0.7-27.7"/>
	<path class="st1" d="M306.1,425.3c8.9-17.2,21.4-41,35.3-67.1c13.9-26.1,26.4-49.8,35.4-67l10.6-20.4l2.9-5.5l0.8-1.4
		c0.2-0.3,0.3-0.5,0.3-0.5s-0.1,0.2-0.2,0.5s-0.4,0.8-0.7,1.5c-0.6,1.3-1.6,3.2-2.8,5.6c-2.4,4.9-6,11.8-10.5,20.5
		c-8.9,17.2-21.4,41-35.3,67.1c-13.9,26.1-26.4,49.8-35.4,67"/>
	<path class="st1" d="M348.6,299.7c0.2,0.4,0.3,0.8,0.4,1.2c0.2,0.8,0.5,1.9,0.9,3.3c0.7,2.8,1.7,6.7,2.6,11.1
		c0.9,4.4,1.7,8.2,2.4,11.1c0.3,1.3,0.5,2.5,0.7,3.4c0.1,0.4,0.2,0.8,0.2,1.2c-0.2-0.4-0.3-0.8-0.4-1.2c-0.2-0.8-0.5-1.9-0.9-3.3
		c-0.7-2.8-1.6-6.8-2.5-11.1s-1.8-8.2-2.5-11.1c-0.3-1.3-0.5-2.5-0.8-3.4C348.7,300.5,348.7,300.1,348.6,299.7z"/>
	<path class="st1" d="M357.5,331.3c0-0.1,8-2.4,17.9-5c9.9-2.6,18-4.7,18-4.5s-8,2.4-17.9,5C365.7,329.5,357.6,331.5,357.5,331.3z"
		/>
	<path class="st1" d="M334.4,370.5c0.4-0.1,0.9-0.1,1.3,0l3.5,0.1c3,0.1,7.1,0.1,11.6,0s8.6-0.3,11.6-0.5l3.5-0.2c0.4,0,0.9,0,1.3,0
		c-0.4,0.1-0.8,0.2-1.3,0.2c-0.8,0.1-2,0.2-3.5,0.4c-3,0.3-7.1,0.5-11.6,0.6s-8.7,0-11.6-0.2c-1.5-0.1-2.7-0.2-3.5-0.2
		C335.2,370.7,334.8,370.6,334.4,370.5z"/>
	<path class="st1" d="M320.1,343.7c0.3,0.3,0.5,0.6,0.7,1l1.6,2.8c1.4,2.4,3.2,5.7,5.2,9.4s3.8,7,5.1,9.5c0.6,1.1,1.1,2.1,1.5,2.9
		c0.2,0.3,0.4,0.7,0.5,1.1c-0.3-0.3-0.5-0.6-0.7-1l-1.6-2.8c-1.4-2.4-3.2-5.7-5.2-9.4s-3.8-7-5.1-9.5c-0.6-1.1-1.1-2.1-1.5-2.9
		C320.3,344.4,320.2,344.1,320.1,343.7z"/>
	<path class="st1" d="M295.2,375.7c0.3,0.4,0.6,0.8,0.8,1.3c0.5,0.9,1.3,2.1,2.1,3.6c1.8,3,4.2,7.3,6.8,12c2.6,4.7,5,9,6.7,12
		c0.8,1.5,1.5,2.7,2,3.7c0.3,0.4,0.5,0.9,0.7,1.4c-0.3-0.4-0.6-0.8-0.8-1.3l-2.2-3.7c-1.8-3-4.2-7.3-6.8-12c-2.6-4.7-5-8.9-6.7-12
		c-0.8-1.5-1.5-2.7-2-3.7C295.6,376.6,295.4,376.1,295.2,375.7z"/>
	<path class="st1" d="M314.1,408.7c0.5-0.1,1.1-0.1,1.6-0.1l4.5-0.1c3.8-0.1,9-0.2,14.7-0.4s11-0.6,14.7-0.9l4.5-0.4
		c0.5-0.1,1.1-0.1,1.6-0.1c-0.5,0.1-1.1,0.2-1.6,0.3c-1,0.1-2.6,0.3-4.5,0.5c-3.8,0.4-9,0.8-14.7,1.1s-11,0.3-14.8,0.3
		c-1.9,0-3.4-0.1-4.5-0.1C315.2,408.8,314.6,408.8,314.1,408.7z"/>
	<path class="st1" d="M54.9,47.2l77.4-37.3c1.2-0.6,2.6-0.1,3.2,1.1l52,108c0.6,1.2,0.1,2.6-1.1,3.2l-77.4,37.3
		c-1.2,0.6-2.6,0.1-3.2-1.1l-52-108C53.2,49.2,53.7,47.8,54.9,47.2z"/>
	
		<rect x="79.6" y="25.2" transform="matrix(0.9011 -0.4337 0.4337 0.9011 -24.2305 60.2361)" class="st2" width="80.6" height="116"/>
	<path class="st3" d="M110.3,25.4c-3-2.3-7-2.7-10.3-1.1l-2.2-4.4c-1.6-3.4-5.7-4.8-9-3.2c0,0,0,0,0,0l0,0c-3.4,1.6-4.8,5.7-3.2,9.1
		l2.2,4.6l-1.6,0.8c-3.3,1.7-5.4,5-5.4,8.7v2.3L112.4,27L110.3,25.4z M93.4,26.1c-1.8,0.9-4,0.1-4.9-1.7s-0.1-4,1.7-4.9
		s4-0.1,4.9,1.7c0,0,0,0,0,0C96,23.1,95.2,25.2,93.4,26.1C93.4,26.1,93.4,26.1,93.4,26.1z"/>
	<path class="st1" d="M92.5,50.3c0.1,0.1-4.3,2.4-9.7,5c-5.4,2.6-9.9,4.6-10,4.5c-0.1-0.1,4.3-2.4,9.7-5
		C87.9,52.1,92.4,50.1,92.5,50.3z"/>
	<path class="st1" d="M83.9,58.5c-1.5,1-3,1.8-4.6,2.5c-1.5,0.8-3.2,1.5-4.9,2.1c1.5-1,3-1.8,4.6-2.5C80.6,59.7,82.2,59,83.9,58.5z"
		/>
	<path class="st1" d="M134.6,45.5c0.1,0.1-12.2,6.2-27.3,13.4S79.9,72,79.8,71.9c-0.1-0.1,12.2-6.1,27.3-13.4S134.6,45.3,134.6,45.5
		z"/>
	<path class="st1" d="M137.1,50.7c0.1,0.1-12.2,6.1-27.3,13.4s-27.5,13.1-27.5,13C82.2,77,94.5,71,109.6,63.7S137.1,50.6,137.1,50.7
		z"/>
	<path class="st1" d="M139.6,55.9c0.1,0.1-12.2,6.1-27.3,13.4s-27.5,13.1-27.5,13c-0.1-0.1,12.2-6.1,27.3-13.4
		S139.6,55.8,139.6,55.9z"/>
	<path class="st1" d="M142.2,61.2c0.1,0.1-12.2,6.1-27.3,13.4s-27.5,13.1-27.5,13c-0.1-0.1,12.1-6.1,27.3-13.4S142.1,61,142.2,61.2z
		"/>
	<path class="st1" d="M144.7,66.4c0.1,0.1-12.2,6.2-27.3,13.4s-27.5,13.1-27.5,13c-0.1-0.1,12.2-6.1,27.3-13.4
		S144.6,66.3,144.7,66.4z"/>
	<path class="st1" d="M147.2,71.7c0.1,0.1-12.2,6.1-27.3,13.4s-27.5,13.1-27.5,13s12.2-6.1,27.3-13.4S147.1,71.5,147.2,71.7z"/>
	<path class="st1" d="M122.1,89.5c-0.3,0.2-0.6,0.4-1,0.6l-2.9,1.5c-2.5,1.2-5.9,2.9-9.6,4.7s-7.2,3.4-9.7,4.6l-3,1.3
		c-0.4,0.2-0.7,0.3-1.1,0.4c0.3-0.2,0.6-0.4,1-0.6l2.9-1.5c2.5-1.2,5.9-2.9,9.7-4.7s7.2-3.4,9.7-4.6l3-1.3
		C121.3,89.8,121.7,89.6,122.1,89.5z"/>
	<path class="st1" d="M130.8,31.3c-1.4,0.9-2.8,1.7-4.3,2.4c-1.4,0.8-2.9,1.4-4.5,1.9c1.3-0.9,2.8-1.7,4.3-2.3
		C127.7,32.4,129.2,31.8,130.8,31.3z"/>
	<path class="st1" d="M115.1,106.9c-2.3,1.4-4.6,2.6-7,3.7c-2.3,1.2-4.8,2.3-7.2,3.2c2.3-1.4,4.6-2.6,7-3.7
		C110.2,108.9,112.6,107.8,115.1,106.9z"/>
	<path class="st1" d="M117.8,111.4c-2.3,1.4-4.7,2.6-7.1,3.7c-2.4,1.2-4.8,2.3-7.4,3.2c2.3-1.4,4.7-2.6,7.1-3.7
		C112.9,113.4,115.3,112.4,117.8,111.4z"/>
	<path class="st1" d="M156,86.3c-1,0.8-2.1,1.4-3.3,1.9c-1.1,0.6-2.3,1.1-3.6,1.4C151.3,88.2,153.6,87.1,156,86.3z"/>
	<path class="st1" d="M158.3,90.5c-1,0.8-2.1,1.4-3.3,1.9c-1.1,0.6-2.3,1.1-3.6,1.4c1-0.8,2.1-1.4,3.3-1.9
		C155.9,91.3,157.1,90.8,158.3,90.5z"/>
	<path class="st1" d="M113.6,119.7c-1,0.8-2.1,1.4-3.2,1.8c-1.1,0.6-2.2,1.1-3.4,1.4c1-0.8,2.1-1.4,3.2-1.8
		C111.2,120.4,112.4,120,113.6,119.7z"/>
	<path class="st1" d="M161,95.4c-1.5,1.1-3.2,1.9-5,2.4C157.5,96.6,159.2,95.8,161,95.4z"/>
	<path class="st1" d="M111.9,134.3c0,0,0.1-0.1,0.3-0.2l0.8-0.6l3.2-2.1l11.6-7.3l0.2-0.1l0.1,0.2c0.5,1.4,0.6,3,0.1,4.4
		c-0.9,2.8-3.8,4.5-6.7,3.6c-0.5-0.2-1-0.4-1.5-0.7c-1.5-1.1-2.1-3.1-1.6-4.9c0.2-0.7,0.5-1.3,1-1.8c0.1-0.1,0.2-0.3,0.4-0.4
		c0.1-0.1,0.3-0.2,0.4-0.3c0.2-0.1,0.5-0.1,0.7,0c0.2,0.1,0.3,0.3,0.4,0.5c0.6,1.1,0.9,2.4,1,3.7c0.1,1.2-0.1,2.5-0.6,3.6
		c-0.4,1.2-1.1,2.2-2.1,2.9c-1,0.6-2.4,0.6-3.4-0.1c-0.9-0.6-1.6-1.5-2-2.5c-0.5-1.9-0.5-3.8,0-5.6l0.1-0.4l0.3,0.3
		c1.1,1.2,1.7,2.7,1.9,4.3c0.1,1.2,0,2.4-0.3,3.6c-0.2,0.7-0.6,1.4-1,2c-0.1,0.2-0.2,0.3-0.4,0.4c-0.1,0.1-0.1,0.1-0.1,0.1
		c0.6-0.8,1-1.7,1.3-2.7c0.3-1.1,0.4-2.3,0.2-3.4c-0.2-1.5-0.9-3-1.9-4.1l0.3-0.1c-0.4,1.8-0.4,3.7,0,5.4c0.3,0.9,1,1.7,1.8,2.2
		c0.9,0.6,2,0.6,2.9,0.1c0.9-0.6,1.6-1.6,1.9-2.6c0.8-2.3,0.7-4.8-0.4-6.9c-0.1-0.1-0.1-0.2-0.2-0.2c-0.1,0-0.2,0-0.2,0
		c-0.2,0.1-0.5,0.3-0.6,0.5c-0.4,0.5-0.7,1-0.8,1.6c-0.4,1.6,0.1,3.3,1.4,4.3c2.2,1.5,5.3,0.9,6.8-1.3c0.3-0.4,0.5-0.8,0.6-1.3
		c0.4-1.3,0.4-2.8-0.1-4.1l0.3,0.1l-11.7,7.2l-3.3,2l-0.9,0.5C112.1,134.2,112,134.3,111.9,134.3z"/>
	<path class="st1" d="M163.8,109.1c0,0.3-0.1,0.6-0.2,0.9c-0.1,0.4-0.3,0.7-0.5,1.1c-0.3,0.5-0.7,0.8-1.2,0.9c-0.3,0.1-0.7,0.1-1,0
		c-0.3-0.1-0.6-0.4-0.8-0.6c-0.4-0.6-0.8-1.2-1.1-1.9c-0.8-1.4-1.6-2.9-2.5-4.5l0.4-0.1c-0.1,2.3-0.2,4.8-0.3,7.4
		c0,0.6-0.1,1.2-0.1,1.9v1l-0.4-0.9c-1.4-2.8-2.6-5.4-3.8-7.7h0.4c-0.6,2.3-0.9,4.6-0.9,7c0,1.7,0.1,2.7,0,2.7
		c-0.1-0.2-0.1-0.5-0.1-0.7c-0.1-0.7-0.1-1.3-0.2-2c-0.1-2.4,0.2-4.8,0.8-7.1l0.1-0.6l0.3,0.5c1.1,2.3,2.4,4.9,3.8,7.7l-0.5,0.1
		c0-0.6,0.1-1.2,0.1-1.9c0.1-2.6,0.2-5.1,0.3-7.4v-0.9l0.4,0.8c0.9,1.6,1.7,3.2,2.4,4.6c0.3,0.6,0.6,1.3,1,1.9
		c0.3,0.5,0.9,0.7,1.4,0.6c0.8-0.3,1.4-1,1.6-1.8C163.6,109.7,163.7,109.4,163.8,109.1z"/>
	<path class="st1" d="M163.8,105.3c0.1,0.1-4,3.1-9.2,6.6s-9.4,6.3-9.5,6.1s4-3.1,9.2-6.6S163.7,105.2,163.8,105.3z"/>
	<path class="st1" d="M168.8,106.2c-2.1,2.2-4.4,4.2-6.8,6.1c-2.3,2.1-4.6,4-7.1,5.8c2.1-2.2,4.4-4.2,6.8-6.1
		C164,109.9,166.3,108,168.8,106.2z"/>
	<path class="st0" d="M355.3,155.8c-4.1,10.3-10.7,27-13.7,34.6c-0.9,2.2,0.2,4.8,2.4,5.7c0,0,0,0,0,0l28.1,11.2
		c2.3,0.9,4.8-0.2,5.7-2.5c0,0,0,0,0,0l13.6-34.3c2-5-0.5-10.7-5.5-12.7l0,0l2-5l-18.4-7.3l-1.9,4.8h-0.1
		C362.8,148.5,357.3,150.9,355.3,155.8z"/>
	<polygon class="st1" points="369.4,146.1 368.5,148.4 386.7,156.4 387.9,153.5 	"/>
	<path class="st3" d="M373.1,138.7l17.2,6.8c1.5,0.6,2.3,2.4,1.7,3.9l-1.8,4.6c-0.4,1-1.5,1.5-2.5,1.1l-19.1-7.6
		c-1-0.4-1.5-1.5-1.1-2.5l1.8-4.6C369.9,138.9,371.6,138.1,373.1,138.7L373.1,138.7z"/>
	<path class="st1" d="M369.6,147.9c0.4-1.6,0.9-3.2,1.6-4.6c0.5-1.6,1.2-3,2-4.5c-0.4,1.6-0.9,3.2-1.6,4.6
		C371.2,145,370.5,146.5,369.6,147.9z"/>
	<path class="st1" d="M372.1,148.9c0.4-1.6,0.9-3.2,1.6-4.6c0.5-1.6,1.2-3,2-4.5c-0.4,1.6-0.9,3.2-1.6,4.6
		C373.6,146,372.9,147.5,372.1,148.9z"/>
	<path class="st1" d="M374.5,149.9c0.4-1.6,0.9-3.2,1.6-4.6c0.5-1.6,1.2-3,2.1-4.4c-0.4,1.6-0.9,3.2-1.6,4.6
		C376,147,375.3,148.5,374.5,149.9z"/>
	<path class="st1" d="M376.9,150.8c0.4-1.6,0.9-3.2,1.6-4.6c0.5-1.6,1.2-3.1,2.1-4.5c-0.4,1.6-0.9,3.2-1.6,4.6
		C378.4,147.9,377.7,149.4,376.9,150.8z"/>
	<path class="st1" d="M379.3,151.8c0.4-1.6,0.9-3.2,1.6-4.6c0.5-1.6,1.2-3.1,2.1-4.5c-0.4,1.6-0.9,3.2-1.6,4.6
		C380.9,148.9,380.2,150.4,379.3,151.8z"/>
	<path class="st1" d="M381.8,152.8c0.4-1.6,0.9-3.2,1.6-4.6c0.5-1.6,1.2-3,2-4.4c-0.4,1.6-0.9,3.2-1.6,4.6
		C383.3,149.9,382.6,151.4,381.8,152.8z"/>
	<path class="st1" d="M384.2,153.7c0.4-1.6,0.9-3.2,1.6-4.6c0.5-1.6,1.2-3,2-4.5c-0.4,1.6-0.9,3.2-1.6,4.6
		C385.7,150.8,385,152.3,384.2,153.7z"/>
	<path class="st1" d="M386.6,154.7c0.4-1.6,0.9-3.2,1.6-4.6c0.5-1.6,1.2-3,2-4.5c-0.4,1.6-0.9,3.2-1.6,4.6
		C388.2,151.8,387.5,153.3,386.6,154.7z"/>
	<path class="st3" d="M359.8,163.4l23.7,9.4c0.8,0.3,1.1,1.2,0.8,1.9l-5.9,14.7c-0.3,0.8-1.2,1.1-1.9,0.8l-23.7-9.4
		c-0.8-0.3-1.1-1.2-0.8-1.9l5.9-14.7C358.2,163.4,359.1,163.1,359.8,163.4z"/>
	<path class="st1" d="M376.6,188.9c0-0.1,0.1-0.2,0.1-0.3l0.3-0.8c0.3-0.8,0.7-1.8,1.2-3.1l4.3-11l0.1,0.3l-23.2-9.2l0.3-0.1l0,0
		l0,0v0.1l0,0.1l-0.1,0.2l-0.2,0.5l-0.4,1l-0.8,2c-0.5,1.3-1,2.6-1.5,3.9l-2.9,7.3l-0.1-0.3l16.6,6.7l4.8,2l1.3,0.5L376.6,188.9
		c-0.1,0-0.2,0-0.4-0.1l-1.2-0.5l-4.8-1.8l-16.8-6.6l-0.2-0.1l0.1-0.2c0.9-2.3,1.9-4.8,2.9-7.3c0.5-1.3,1-2.6,1.5-3.9
		c0.3-0.7,0.5-1.3,0.8-2l0.4-1l0.2-0.5l0.1-0.2l0-0.1v-0.1l0,0l0,0l0,0l0.3-0.1l23.1,9.2l0.2,0.1l-0.1,0.2
		c-1.9,4.6-3.4,8.4-4.5,11.1c-0.5,1.3-1,2.3-1.2,3c-0.1,0.3-0.2,0.6-0.3,0.8S376.7,188.9,376.6,188.9z"/>
	<path class="st1" d="M377.2,177.2c-2.7-0.8-5.4-1.8-8-2.9c-2.7-1-5.3-2.1-7.8-3.4c2.7,0.8,5.4,1.8,8,2.9
		C372,174.8,374.6,175.9,377.2,177.2z"/>
	<path class="st1" d="M376.1,179.9c-2.7-0.8-5.4-1.8-8-2.9c-2.7-1-5.2-2.1-7.8-3.4c2.7,0.8,5.4,1.8,8,2.9
		C371,177.4,373.6,178.6,376.1,179.9z"/>
	<path class="st1" d="M375.1,182.4c-2.7-0.8-5.4-1.8-8-2.9c-2.7-1-5.3-2.1-7.8-3.4c2.7,0.8,5.4,1.8,8,2.9
		C369.9,180,372.5,181.1,375.1,182.4z"/>
	<path class="st1" d="M385.1,157.3c-3-0.9-5.9-1.9-8.7-3.2c-2.9-1.1-5.7-2.3-8.5-3.7c3,0.9,5.8,1.9,8.7,3.2
		C379.5,154.7,382.4,155.9,385.1,157.3z"/>
	<path class="st4" d="M343.9,189c0.1-0.6,0.3-1.1,0.5-1.7c0.4-1.1,1-2.6,1.7-4.4c1.5-3.7,3.5-8.9,5.8-14.6c1.1-2.8,2.2-5.5,3.2-8
		c0.8-2.3,2-4.3,3.6-6.1c1.1-1.2,2.6-1.9,4.2-2.2c0.4-0.1,0.9-0.1,1.3,0c0.2,0,0.3,0.1,0.5,0.1c-0.6,0-1.2,0-1.7,0.1
		c-1.5,0.3-2.9,1.1-4,2.2c-1.5,1.8-2.7,3.8-3.5,6l-3.2,8c-2.3,5.7-4.4,10.8-5.9,14.6c-0.8,1.8-1.4,3.3-1.9,4.4
		C344.5,187.9,344.2,188.5,343.9,189z"/>
	<path class="st4" d="M375.5,207.1c-0.4-0.3-0.8-0.6-1.1-0.9c-0.3-0.3-0.8-0.7-1.3-1.1s-1.1-0.9-1.7-1.4c-1.5-1.1-3.1-2.2-4.8-3.1
		c-2-1.2-4.1-2.2-6.3-3.1c-2.2-0.8-4.4-1.6-6.7-2.1c-1.9-0.4-3.7-0.8-5.6-1c-0.8-0.1-1.5-0.1-2.2-0.2s-1.2-0.1-1.7-0.1
		c-0.5,0-1,0-1.4-0.1c0.5-0.1,0.9-0.1,1.4-0.1c0.6,0,1.1,0,1.7,0c0.7,0,1.4,0,2.2,0.1c1.9,0.2,3.8,0.5,5.7,0.9
		c2.3,0.5,4.6,1.2,6.8,2.1c2.2,0.9,4.3,1.9,6.3,3.1c1.7,1,3.2,2.1,4.8,3.3c0.7,0.5,1.2,1,1.7,1.4s0.9,0.8,1.2,1.1
		C374.9,206.3,375.2,206.7,375.5,207.1z"/>
	<path class="st0" d="M71,417.8c22.5-11.4,30.9-37.4,33.5-61.4c0.4-4,1.5-8.2,0.1-11.9s-5.5-6.8-9.3-5.6c-3.2,1-4.9,4.2-7,6.9
		c-2.8,3.5-6.4,6.1-10.6,7.6c-2.7,1-6,1.3-8.3-0.4c-3.2-2.4-2.9-7.2-2.3-11.2c1.1-7.4,2.2-14.8,3.3-22.1c0.6-4,1.2-8,0.5-12
		c-0.7-4-2.9-7.8-6.6-9.4c-3.6-1.6-8.6-0.1-10,3.7c-0.6,1.6-0.5,3.3-0.8,4.9s-1.4,3.4-3,3.6s-3.1-1.1-4.1-2.4
		c-3.5-4.6-5.6-10.2-7.4-15.7s-3.7-11.1-6.7-16s-7.8-9.1-13.4-10.3s-12.2,1.5-14.4,6.9s0.2,11.5,3.1,16.6c4.3,7.5,9.7,14.3,16,20.2
		c1.1,1.1,2.3,2.2,2.6,3.8c0.5,2.8-2.4,5-5.1,5.5c-3.1,0.6-6.3-0.2-9.4-0.3c-3.1-0.1-6.7,0.8-8.3,3.6c-2.2,3.8,0.6,8.6,3.5,11.8
		c5.9,6.5,12.9,12,20.6,16.2c2.8,1.5,5.7,2.9,7.8,5.2s3,6.2,1.2,8.8c-1.8,2.6-5.6,3-8.6,2s-5.5-3-8.2-4.6
		c-5.2-2.8-12.3-3.5-16.4,0.8c-2.7,2.8-3.5,7.1-2.9,10.9c0.6,3.8,2.5,7.4,4.6,10.7c7.3,11.5,17.3,21.3,29.3,27.5
		C46.2,417.8,57.7,420.6,71,417.8"/>
	<path class="st1" d="M69.1,430.2c0.5-9.6-0.3-15.6-2.2-28.2c-2.1-13.6-5-27-8.7-40.3c-1-3.5-1.9-7-2.8-10.4
		c-0.9-3.4-1.9-6.8-3-10.1c-2.2-6.3-4.6-12.4-7.5-18.4c-2.7-5.7-5.4-11.1-8-16.1c-2.6-5-5.1-9.6-7.6-13.7
		c-3.9-6.5-8.2-12.6-13.1-18.4c-1.7-2-3.1-3.6-4-4.6l-1.1-1.2c-0.1-0.1-0.2-0.3-0.4-0.4c0.1,0.2,0.2,0.3,0.3,0.4l1,1.2
		c0.9,1.1,2.2,2.6,3.9,4.7c4.7,5.8,9,12,12.8,18.5c2.4,4.1,4.9,8.7,7.5,13.7s5.3,10.3,7.9,16.1c2.8,6,5.3,12.1,7.4,18.4
		c1.1,3.2,2,6.6,3,10s1.9,6.9,2.8,10.4c3.7,13.2,6.6,26.6,8.7,40.2c1.9,12.5,2.7,18.5,2.3,28.1"/>
	<path class="st1" d="M52.2,341.1c0.3-0.5,0.5-1.1,0.6-1.6c0.4-1.1,0.8-2.6,1.4-4.6c1.1-3.9,2.5-9.3,4-15.2s2.9-11.3,4.1-15.2
		c0.6-1.9,1.1-3.5,1.4-4.5c0.2-0.5,0.4-1.1,0.5-1.7c-0.3,0.5-0.6,1-0.7,1.6c-0.4,1-1,2.6-1.6,4.5c-1.3,3.8-2.8,9.2-4.3,15.1
		l-3.8,15.3c-0.5,1.8-0.8,3.4-1.2,4.6C52.4,339.9,52.3,340.5,52.2,341.1z"/>
	<path class="st1" d="M2.6,324.3c0.7,0.2,1.3,0.4,2,0.5c1.3,0.3,3.2,0.7,5.5,1.3c4.6,1.2,10.9,3,17.8,5.3c6.9,2.3,13,4.7,17.3,6.6
		c2.2,0.9,4,1.7,5.2,2.2c0.6,0.3,1.3,0.6,1.9,0.8c-0.6-0.4-1.2-0.7-1.8-1c-1.2-0.6-2.9-1.5-5.1-2.5c-4.3-2-10.4-4.4-17.3-6.8
		c-5.9-2-11.8-3.8-17.9-5.2c-2.3-0.5-4.2-0.9-5.5-1.1C4,324.4,3.3,324.4,2.6,324.3z"/>
	<path class="st1" d="M66.4,400.9c0,0,0.2-0.2,0.4-0.6l1.1-1.7c1-1.5,2.3-3.7,4-6.5c3.3-5.5,7.6-13.2,12.2-21.8
		c4.6-8.6,8.9-16.4,12-21.9l3.8-6.6l1-1.8c0.1-0.2,0.2-0.4,0.3-0.7c0,0-0.2,0.2-0.4,0.6l-1.1,1.7c-1,1.5-2.3,3.7-4,6.5
		c-3.3,5.5-7.6,13.2-12.2,21.8c-4.6,8.6-8.9,16.4-12,21.9c-1.6,2.7-2.8,4.9-3.8,6.6c-0.4,0.7-0.7,1.3-1,1.8
		C66.6,400.5,66.5,400.7,66.4,400.9z"/>
	<path class="st1" d="M1.8,369.5c0.2,0.2,0.4,0.3,0.6,0.4l1.9,0.9l6.9,3.4c5.8,2.9,13.9,6.9,22.8,11.4s17,8.5,22.9,11.2
		c3,1.4,5.3,2.5,7,3.2l1.9,0.8c0.2,0.1,0.5,0.2,0.7,0.2c-0.2-0.2-0.4-0.3-0.6-0.4l-1.9-0.9l-6.9-3.4c-5.8-2.8-13.9-6.9-22.8-11.4
		s-17-8.4-22.9-11.2c-3-1.4-5.3-2.5-7-3.2l-1.9-0.8C2.2,369.6,2,369.5,1.8,369.5z"/>
</g>
<g id="Character">
	<path class="st5" d="M157.4,301.1c0,0-28.4,19.3-30,64.4c-0.5,15.1,6.9,63.3,6.9,63.3l166.3,0.7l-31.1-129.1l-52.3-12L157.4,301.1z
		"/>
	<polygon class="st6" points="220.9,334.6 198.3,429.1 254.9,429.5 	"/>
	<path class="st6" d="M220.1,314.1c0.2,1,0.3,2.1,0.3,3.1c0.1,2.1,0.3,4.6,0.5,7.5c0.2,2.8,0.3,5.6,0.3,7.5c0.1,1,0,2.1-0.1,3.1
		c-0.2-1-0.3-2.1-0.3-3.1c-0.1-2.1-0.3-4.6-0.5-7.5c-0.2-2.8-0.3-5.6-0.3-7.5C220,316.2,220,315.2,220.1,314.1z"/>
	<path class="st6" d="M230.3,324.5c0,0-0.4,0.1-1,0.5c-0.8,0.5-1.5,1.2-1.9,2.1c-0.6,1.3-0.6,2.8,0.2,4c1.2,2,3.8,2.7,5.8,1.5
		c1-0.6,1.8-1.6,2-2.8c0.4-1.4,0-2.8-1-3.8c-0.7-0.7-1.5-1.2-2.5-1.4c-0.7-0.1-1-0.1-1.1-0.2c-0.1-0.1,0.1,0,0.3-0.1
		c0.3,0,0.5,0,0.8,0c1,0.1,2,0.6,2.7,1.3c0.5,0.5,0.9,1.1,1.1,1.8c0.3,0.8,0.3,1.6,0.1,2.4c-0.5,2.5-3,4.2-5.6,3.7
		c-1.3-0.3-2.5-1.1-3.1-2.3c-0.4-0.7-0.7-1.5-0.6-2.4c0-0.7,0.2-1.4,0.5-2c0.5-0.9,1.2-1.7,2.1-2.1c0.2-0.1,0.5-0.2,0.8-0.3
		C230.2,324.5,230.3,324.5,230.3,324.5z"/>
	<path class="st6" d="M248.5,376.2c0,0-0.4,0.1-1,0.5c-0.8,0.5-1.5,1.2-1.9,2.1c-0.6,1.3-0.6,2.8,0.2,4c1.2,2,3.8,2.7,5.8,1.5
		c1-0.6,1.8-1.6,2-2.8c0.4-1.4,0-2.8-1-3.8c-0.7-0.7-1.5-1.2-2.4-1.4c-0.7-0.2-1.1-0.1-1.1-0.2c0.1,0,0.2-0.1,0.3-0.1
		c0.3,0,0.5,0,0.8,0c1,0.1,2,0.6,2.7,1.4c0.5,0.5,0.9,1.1,1.1,1.8c0.3,0.8,0.3,1.6,0.1,2.4c-0.5,2.5-3,4.2-5.5,3.7
		c-1.3-0.3-2.5-1.1-3.2-2.3c-0.4-0.7-0.7-1.5-0.6-2.4c0-0.7,0.2-1.4,0.5-2c0.5-0.9,1.2-1.7,2.1-2.1c0.2-0.1,0.5-0.2,0.8-0.3
		C248.3,376.2,248.4,376.2,248.5,376.2z"/>
	<path class="st6" d="M189.7,338.7c-0.1,0.2-0.2,0.3-0.4,0.4c-0.2,0.3-0.6,0.7-1.1,1.2c-1.4,1.4-2.9,2.8-4.5,4
		c-5.3,4-11.3,6.9-17.8,8.4c-3.5,0.9-7.2,1.1-10.9,0.9c-3-0.2-5.9-1.3-8.3-3c-1.6-1.2-3-2.8-3.8-4.6c-0.2-0.5-0.4-1-0.5-1.5
		c-0.1-0.2-0.1-0.4-0.1-0.6c0.1,0,0.2,0.8,0.8,2c0.9,1.8,2.2,3.3,3.9,4.4c2.4,1.7,5.2,2.6,8.2,2.8c3.6,0.2,7.2-0.1,10.7-0.9
		c6.4-1.5,12.4-4.2,17.7-8.2c1.6-1.2,3.1-2.5,4.6-3.8l1.2-1.1C189.5,338.8,189.6,338.7,189.7,338.7z"/>
	<path class="st6" d="M189.7,348c-0.1,0.2-0.2,0.3-0.4,0.4c-0.2,0.3-0.6,0.7-1.1,1.2c-6.1,6.2-13.8,10.5-22.3,12.3
		c-3.5,0.9-7.2,1.2-10.9,0.9c-3-0.2-5.9-1.3-8.3-3c-1.6-1.2-3-2.8-3.8-4.6c-0.2-0.5-0.4-1-0.5-1.5c-0.1-0.2-0.1-0.4-0.1-0.6
		c0.1,0,0.2,0.8,0.8,2c0.9,1.8,2.2,3.3,3.9,4.4c2.4,1.7,5.2,2.6,8.2,2.8c3.6,0.2,7.2-0.1,10.7-0.9c6.4-1.5,12.4-4.2,17.7-8.1
		c1.6-1.2,3.1-2.5,4.6-3.8l1.2-1.1C189.4,348.3,189.5,348.1,189.7,348z"/>
	<path class="st6" d="M191.1,345.2c0,0.1,0.1,0.3,0.1,0.4c0,0.3,0.1,0.7,0.1,1.2c0.1,1.1,0.3,2.6,0.5,4.6c0.4,4,1.2,9.7,1.6,16.9
		c0.2,3.9,0.1,7.8-0.2,11.7c-0.4,4.5-1.4,8.9-3,13.1c-1.7,4.7-4.5,8.9-8.1,12.5c-1.9,1.8-4,3.4-6.4,4.7c-2.4,1.3-5,2.2-7.7,2.7
		c-5.4,0.9-10.9-0.1-15.6-2.9c-4.4-2.5-8.1-6-10.7-10.3c-2.4-3.9-4-8.1-5-12.5c-0.9-3.8-1.3-7.8-1.4-11.7c0-5.7,0.4-11.3,1.2-16.9
		c0.3-2,0.5-3.5,0.7-4.6c0.1-0.5,0.1-0.9,0.2-1.2c0-0.1,0-0.3,0.1-0.4c0,0.1,0,0.3,0,0.4c0,0.3-0.1,0.7-0.1,1.2
		c-0.1,1.1-0.3,2.6-0.6,4.6c-0.7,5.6-1.1,11.3-1,16.9c0.1,3.9,0.6,7.8,1.4,11.6c1,4.4,2.7,8.5,5,12.3c2.6,4.2,6.2,7.7,10.5,10.1
		c4.6,2.7,10,3.7,15.2,2.8c2.6-0.5,5.2-1.4,7.5-2.6c2.3-1.3,4.4-2.8,6.3-4.6c3.5-3.4,6.3-7.6,8-12.2c1.6-4.2,2.6-8.6,3-13
		c0.4-3.9,0.5-7.8,0.3-11.7c-0.3-7.1-1-12.9-1.4-16.9c-0.2-2-0.3-3.5-0.4-4.6c0-0.5-0.1-0.9-0.1-1.2
		C191.1,345.3,191.1,345.2,191.1,345.2z"/>
	<g class="st7">
		<path d="M139.1,394.7c1.8,6.1,2.6,7.7,5.9,12.5c3.1,4.6,7.7,8.1,12.9,9.8c7.7,2.7,16.2,1.1,22.5-4c6.1-5.1,8.3-13,9.3-18.3
			c-2.7,3.6-5.5,8.7-8.8,11.6c-3.3,2.9-7.8,5.5-12.2,6.3c-6,1-13.1-0.8-18.3-4.1S142.2,399.5,139.1,394.7"/>
	</g>
	<g class="st7">
		<path d="M143.4,355.9c2.3,5.2,7,8.9,12.6,9.9c5.4,1,12.4-0.7,15.8-5.8C159.9,364.2,148,364.3,143.4,355.9"/>
	</g>
	<path class="st6" d="M241.2,341.2c-0.3,0-0.5,0-0.8,0c-0.7-0.1-1.3-0.2-2-0.4c-4.5-1.3-8.3-4.2-10.8-8.2c-0.4-0.6-0.7-1.2-1-1.8
		c-0.2-0.5-0.3-0.7-0.2-0.7s0.5,0.9,1.5,2.4c1.3,1.8,2.9,3.5,4.6,4.9c1.8,1.4,3.8,2.4,5.9,3.2C240.1,340.9,241.2,341.1,241.2,341.2z
		"/>
	<g class="st7">
		<path d="M227.3,330.7c1.2,4.2,5.9,8.1,10,9.5c0.8,0.3,1.7,0.4,2.5,0.4c0.9-0.1,1.7-0.5,2.2-1.2c0.9-1.3,0.1-3.2-1.2-4.2
			c-1.4-0.8-2.9-1.4-4.5-1.6c-3.2-0.7-6.1,0.9-8.7-1.8"/>
	</g>
	<g class="st7">
		<path d="M138.9,322.9c7.5,6.5,18,6.8,27.5,4s17.8-8.1,25.8-13.8c-8.8,1.8-16.3,5.8-25.2,7.1c-8.5,1.2-17.3,1.4-25.6-1.5"/>
	</g>
	<path class="st6" d="M282,423.1c-0.1,0-0.1,0.1-0.2,0.1c-0.2,0.1-0.4,0.2-0.6,0.3c-0.8,0.3-1.6,0.5-2.4,0.6
		c-3.1,0.3-6.2-0.6-8.7-2.3c-3.3-2.1-6.3-5.7-9.6-9.6c-3.5-4.3-6.6-8.9-9.3-13.7c-5-8.8-8.8-18.1-11.3-27.9c-1-3.7-1.6-6.8-2-8.9
		c-0.2-1-0.3-1.8-0.4-2.5c0-0.3-0.1-0.6-0.1-0.9c0.1,0.3,0.2,0.6,0.2,0.8l0.5,2.4c0.4,2.1,1.1,5.2,2.1,8.9c2.6,9.7,6.5,19,11.4,27.7
		c2.7,4.8,5.8,9.4,9.2,13.7c3.2,3.9,6.2,7.5,9.4,9.6c2.5,1.8,5.5,2.6,8.6,2.5C279.9,423.8,280.9,423.5,282,423.1z"/>
	<g class="st7">
		<path d="M246,386.2c0,0,14.8,18.6,25.5,23.1c3.6,1.5,7.7,2.8,10.2,5.9c1.3,1.4,1.8,3.3,1.5,5.2c0,0.2-0.1,0.4-0.2,0.6
			c-1.5,4-9,3.4-12.4,0.9c-1.5-1.1-0.6-0.4-1.8-1.3C265.4,418.1,246.9,396.7,246,386.2z"/>
	</g>
	<polygon class="st8" points="180.8,135.7 190.2,133.8 236.8,134.4 260.5,139.6 269.5,271.8 164.9,276.6 	"/>
	<path class="st5" d="M248.6,265.7l2.2-60.1l-3.7-69.7c14.7,3.8,34.9,8,46,20.7c7.2,8.2,14.3,18.8,17,35.8c3.1,20,7.1,58.2,9.7,79.6
		"/>
	<path class="st5" d="M263.4,255.8l-72.4,11.7l-2.6-44.7l-4-88.3c-21,0.9-44.9,18.2-52.1,31.7c-5,9.4-9.2,20.3-10.5,30.8
		c-2.5,20-6.8,54.3-9.3,75.7c-1.6,13.2,2.9,26.4,12.1,35.9l0,0c10.5,10.8,26.9,14.6,41.7,11.5l110.2-31L263.4,255.8z"/>
	<path class="st6" d="M255.8,255c0-0.1,0-0.2,0-0.2c0.1-0.2,0.1-0.4,0.2-0.7c0.2-0.7,0.5-1.6,0.9-2.8c0.8-2.5,1.9-6,3.3-10.4
		l11.4-35.4l0.1,0.3l-11.7-4.9l-0.5-0.2l0.4-0.3l2.7-1.8l8.9-5.8l-0.1,0.3c-4.5-15.6-8.5-29.4-11.3-39.3c-1.4-4.9-2.5-8.9-3.3-11.6
		c-0.4-1.4-0.6-2.4-0.9-3.1c-0.1-0.3-0.2-0.6-0.2-0.8c0-0.1-0.1-0.2-0.1-0.3c0,0,0,0.1,0.1,0.3l0.3,0.8c0.2,0.7,0.6,1.8,1,3.1
		l3.5,11.6l11.5,39.3l0,0.2l-0.2,0.1l-8.8,5.8l-2.7,1.8v-0.5l11.7,4.9l0.2,0.1l-0.1,0.2c-4.6,14.2-8.6,26.5-11.5,35.4
		c-1.5,4.4-2.6,7.9-3.4,10.3c-0.4,1.2-0.7,2.1-0.9,2.8c-0.1,0.3-0.2,0.5-0.3,0.7C255.9,254.9,255.8,254.9,255.8,255z"/>
	<g class="st7">
		<path d="M271.8,193.2c-0.6,2.2-1.9,4.1-3.6,5.5c-1.4,0.8-0.6,1.8,0.5,2.9c1.4,1.3,3.6,1.7,4.6,3.3s0.4,3.4-0.1,5.1
			c-5,15.9-11.1,31.5-18.2,46.6l16.8-51.2l-11.7-4.8L271.8,193.2z"/>
	</g>
	<path class="st6" d="M185,256.2c0-0.1-0.1-0.1-0.1-0.2c-0.1-0.2-0.2-0.4-0.3-0.6l-1.1-2.4c-0.9-2.2-2.3-5.3-4-9.1l-13.5-31.6
		L166,212l0.2-0.1l9.2-6.6v0.4l-6.1-4.9l-2.7-2.1l-1.3-1l-0.3-0.3c-0.1,0-0.1-0.1-0.2-0.2c-0.1-0.1-0.1-0.2-0.1-0.3
		c-0.1-0.3-0.1-0.6-0.1-0.9c0.1-2.2,0.3-4.5,0.6-6.7c0.6-4.3,1.3-8.5,2-12.4c1.4-7.9,2.8-15,4-21s2.2-10.8,2.9-14.1
		c0.4-1.6,0.6-2.9,0.9-3.8l0.2-1c0-0.1,0.1-0.2,0.1-0.3c0,0.1,0,0.2-0.1,0.4c0,0.2-0.1,0.6-0.2,1c-0.2,0.9-0.4,2.2-0.8,3.8
		c-0.7,3.4-1.6,8.2-2.8,14.1s-2.5,13.1-3.9,21c-0.7,3.9-1.4,8.1-2,12.4c-0.3,2.2-0.5,4.4-0.6,6.6c0,0.3,0,0.5,0.1,0.8
		c0,0.1,0.3,0.3,0.5,0.5l1.3,1.1l2.7,2.1l6.1,4.9l0.3,0.2l-0.3,0.2l-9.3,6.6l0.1-0.3l13.4,31.7c1.6,3.9,2.9,7,3.8,9.2
		c0.4,1,0.8,1.9,1,2.5l0.2,0.6C185,256.1,185,256.2,185,256.2z"/>
	<path class="st8" d="M199.6,201.6l72.9,11.2c1.3,0.2,2.2,1.4,2,2.7l-15.7,101.9c-0.2,1.3-1.4,2.2-2.7,2l-72.9-11.2
		c-1.3-0.2-2.2-1.4-2-2.7l15.7-101.9C197.1,202.3,198.3,201.4,199.6,201.6z"/>
	<g class="st7">
		<path d="M199.6,201.6l72.9,11.2c1.3,0.2,2.2,1.4,2,2.7l-15.7,101.9c-0.2,1.3-1.4,2.2-2.7,2l-72.9-11.2c-1.3-0.2-2.2-1.4-2-2.7
			l15.7-101.9C197.1,202.3,198.3,201.4,199.6,201.6z"/>
	</g>
	
		<rect x="177.8" y="224.3" transform="matrix(0.1525 -0.9883 0.9883 0.1525 -62.861 445.0382)" class="st3" width="100.5" height="69.8"/>
	<path class="st6" d="M249.5,213.2c-1-3.1-3.6-5.3-6.9-5.8l0.6-4.2c0.5-3.2-1.7-6.2-4.9-6.7l0,0c-3.2-0.5-6.2,1.7-6.7,4.9l-0.7,4.4
		l-1.5-0.2c-3.2-0.4-6.3,0.9-8.1,3.5l-1.1,1.6l30,4.6L249.5,213.2z M237.1,205.4c-1.7-0.3-2.9-1.9-2.6-3.6c0.3-1.7,1.9-2.9,3.6-2.6
		c1.7,0.3,2.9,1.9,2.6,3.6c0,0,0,0,0,0C240.4,204.5,238.8,205.7,237.1,205.4z"/>
	<path class="st6" d="M224.6,222.2c-3.2-0.2-6.3-0.6-9.4-1.2c-3.1-0.4-6.2-1-9.3-1.7c3.1,0.2,6.3,0.6,9.4,1.2
		C218.4,220.9,221.5,221.5,224.6,222.2z"/>
	<path class="st6" d="M214.4,223.9c-1.5,0-3.1-0.1-4.6-0.4c-1.5-0.1-3-0.5-4.5-1c1.5,0,3.1,0.1,4.6,0.4
		C211.5,223.1,213,223.4,214.4,223.9z"/>
	<path class="st6" d="M257,239.5c0,0.1-11.7-1.5-26.1-3.8s-26-4.1-26-4.3s11.7,1.5,26.1,3.8S257,239.3,257,239.5z"/>
	<path class="st6" d="M256.2,244.4c0,0.1-11.7-1.5-26.1-3.8s-26-4.1-26-4.3s11.7,1.5,26.1,3.8S256.2,244.3,256.2,244.4z"/>
	<path class="st6" d="M255.5,249.4c0,0.1-11.7-1.5-26.1-3.8s-26-4.1-26-4.3s11.7,1.5,26.1,3.8C243.9,247.3,255.5,249.2,255.5,249.4z
		"/>
	<path class="st6" d="M254.7,254.3c0,0.1-11.7-1.5-26.1-3.8s-26-4.1-26-4.3s11.7,1.5,26.1,3.8S254.8,254.2,254.7,254.3z"/>
	<path class="st6" d="M253.9,259.3c0,0.2-11.7-1.5-26.1-3.8c-14.4-2.2-26-4.1-26-4.3s11.7,1.5,26.1,3.8
		C242.3,257.3,254,259.2,253.9,259.3z"/>
	<path class="st6" d="M253.2,264.3c0,0.1-11.7-1.5-26.1-3.8c-14.4-2.2-26-4.1-26-4.3c0-0.2,11.7,1.5,26.1,3.8
		C241.6,262.2,253.2,264.1,253.2,264.3z"/>
	<path class="st6" d="M226.4,264.7c-0.3,0-0.7,0-1-0.1c-0.7-0.1-1.6-0.2-2.8-0.3c-2.4-0.3-5.6-0.8-9.2-1.3s-6.8-1.1-9.2-1.5
		c-1.2-0.2-2.1-0.4-2.8-0.5c-0.3,0-0.7-0.1-1-0.3c0.3,0,0.7,0,1,0.1c0.7,0.1,1.6,0.2,2.8,0.4c2.4,0.3,5.6,0.8,9.2,1.3
		s6.8,1.1,9.2,1.5c1.2,0.2,2.1,0.4,2.8,0.5C225.8,264.5,226.1,264.6,226.4,264.7z"/>
	<path class="st6" d="M261.2,227.4c-1.4,0-2.8-0.1-4.2-0.4c-1.4-0.1-2.8-0.4-4.1-0.9C255.7,226.2,258.5,226.6,261.2,227.4z"/>
	<path class="st6" d="M212.9,273.7c-2.3-0.1-4.6-0.4-6.8-0.8c-2.3-0.3-4.5-0.7-6.7-1.3c2.3,0.1,4.6,0.4,6.8,0.8
		C208.5,272.7,210.7,273.1,212.9,273.7z"/>
	<path class="st6" d="M212.7,278.3c-2.3-0.1-4.6-0.4-6.9-0.8c-2.3-0.3-4.6-0.7-6.8-1.3c2.3,0.1,4.6,0.4,6.9,0.8
		C208.2,277.3,210.5,277.7,212.7,278.3z"/>
	<path class="st6" d="M252.3,279.1c-2.2,0-4.4-0.3-6.5-1c1.1-0.1,2.2,0,3.3,0.2C250.1,278.4,251.2,278.7,252.3,279.1z"/>
	<path class="st6" d="M251.9,283.2c-2.2,0-4.4-0.3-6.5-1C247.5,282.2,249.7,282.5,251.9,283.2z"/>
	<path class="st6" d="M205.7,282.1c-1.1,0.1-2.2,0-3.2-0.2c-1.1-0.1-2.1-0.3-3.1-0.8c1.1-0.1,2.1,0,3.2,0.2
		C203.6,281.4,204.7,281.7,205.7,282.1z"/>
	<path class="st6" d="M251.4,288c-0.8,0.1-1.6,0.1-2.4-0.1c-0.8,0-1.6-0.3-2.3-0.6c0.8-0.1,1.6-0.1,2.4,0.1
		C249.8,287.4,250.6,287.6,251.4,288z"/>
	<path class="st6" d="M197.3,291.7c0.4,0,0.8,0,1.2,0l3.3,0.1l11.9,0.5h0.3l-0.1,0.3c-0.3,1.3-1,2.4-2.1,3.2c-1.1,0.9-2.6,1.2-4,0.9
		c-1.5-0.3-2.7-1.4-3.3-2.8c-0.5-1.6,0-3.3,1.2-4.3c0.4-0.4,1-0.7,1.6-0.8c0.1,0,0.3-0.1,0.4-0.1c0.2,0,0.3,0,0.5,0
		c0.2,0,0.4,0.2,0.5,0.4c0.1,0.2,0.1,0.4,0.1,0.5c-0.1,1.1-0.5,2.2-1.1,3.2c-0.6,0.9-1.3,1.7-2.2,2.3c-0.9,0.6-1.9,1-3,1
		c-1.1-0.1-2-0.7-2.4-1.7c-0.4-0.9-0.5-1.9-0.2-2.8c0.6-1.5,1.6-2.9,2.8-4l0.3-0.3v0.4c0.2,1.4-0.1,2.8-0.8,4
		c-0.5,0.9-1.2,1.7-2,2.4c-0.5,0.4-1.1,0.7-1.7,0.9c-0.2,0.1-0.4,0.1-0.7,0.2c0.8-0.3,1.6-0.7,2.2-1.3c0.8-0.6,1.4-1.4,1.9-2.3
		c0.6-1.2,0.8-2.5,0.6-3.8l0.3,0.1c-1.2,1.1-2.1,2.4-2.6,3.9c-0.2,0.8-0.1,1.7,0.2,2.5c0.3,0.8,1.1,1.4,2,1.4c1,0,1.9-0.3,2.6-0.9
		c1.7-1.2,2.8-3.1,3.1-5.1c0-0.1,0-0.2,0-0.3c0,0,0-0.1-0.1-0.1c-0.2,0-0.5,0-0.7,0.1c-0.5,0.1-1,0.4-1.4,0.7
		c-1.1,0.9-1.5,2.4-1.1,3.8c0.8,2.1,3.3,3.2,5.4,2.4c0.4-0.2,0.8-0.4,1.1-0.6c1-0.7,1.6-1.8,1.9-2.9l0.2,0.3l-11.8-0.7l-3.3-0.2
		C198.1,291.8,197.7,291.8,197.3,291.7z"/>
	<path class="st6" d="M246.7,299.2c-0.2,0.2-0.4,0.4-0.6,0.6c-0.3,0.2-0.5,0.4-0.9,0.5c-0.4,0.2-0.9,0.2-1.4,0.1
		c-0.3-0.1-0.5-0.3-0.7-0.5c-0.2-0.3-0.3-0.6-0.3-0.9c0-0.6,0.1-1.3,0.1-1.9c0.1-1.4,0.3-2.9,0.4-4.5l0.4,0.2l-3.8,5.2l-1,1.3
		l-0.6,0.8l0.1-1c0.4-2.7,0.8-5.2,1.1-7.3l0.4,0.2c-1.6,1.3-2.9,2.8-4.1,4.5c-0.8,1.2-1.2,2-1.3,1.9c0-0.2,0.1-0.4,0.2-0.6
		c0.3-0.5,0.5-1,0.9-1.5c1.1-1.8,2.4-3.3,4-4.7l0.5-0.4l-0.1,0.6c-0.3,2.2-0.7,4.7-1,7.4l-0.5-0.2l1-1.3c1.4-1.8,2.6-3.6,3.9-5.2
		l0.5-0.7l-0.1,0.9c-0.2,1.6-0.4,3.1-0.5,4.5c-0.1,0.6-0.2,1.2-0.2,1.8c0,0.5,0.3,1,0.7,1.1c0.7,0.2,1.5,0,2-0.5
		C246.3,299.5,246.5,299.3,246.7,299.2z"/>
	<path class="st6" d="M248.5,296.5c-3.3,0.2-6.5,0.3-9.8,0.2c-3.3,0.1-6.5,0-9.8-0.3c3.3-0.2,6.5-0.3,9.8-0.2
		C241.9,296.1,245.2,296.2,248.5,296.5z"/>
	<path class="st6" d="M251.7,299.6c-2.6,0.5-5.2,0.9-7.8,1.1c-2.6,0.4-5.2,0.6-7.9,0.6c2.6-0.6,5.2-0.9,7.8-1.1
		C246.4,299.8,249,299.6,251.7,299.6z"/>
	<path class="st8" d="M306.9,301.5"/>
	<g class="st7">
		<path d="M164.7,196.6c-0.1,3,0.7,6.1,3.2,7.8c-3.1,1.5-4.8,5.2-4.9,8.6s1.1,6.9,2.4,10.1c4.1,9.9,12.7,23.9,19.3,32.4
			c0,0-3.3-9-4.3-11.1c-4.3-9.5-8.2-19-12.5-28.5c-0.5-1-1.3-3.9-1.3-3.9c0.5-0.2,0.9-0.5,1.3-0.9c2.4-2,7.7-5.5,7.7-5.5
			S164.7,196.9,164.7,196.6"/>
	</g>
	<path class="st6" d="M164.5,217c0.1,0-0.1,11.5-0.6,25.8c-0.5,14.2-0.9,25.8-1.1,25.8c-0.1,0,0.1-11.5,0.6-25.8
		C163.9,228.5,164.4,217,164.5,217z"/>
	<path class="st6" d="M181.8,186.7h-1c0-0.4,1.4-38.2,2.6-53.3c0.1-2.1,1-4.1,2.6-5.6c3.1-2.7,7.8-2.3,8-2.3l-0.1,1
		c-0.1,0-4.5-0.3-7.3,2.1c-1.4,1.2-2.2,3-2.3,4.9C183.2,148.4,181.8,186.2,181.8,186.7z"/>
	<path class="st9" d="M191.1,249.9h-1.8v-2h1.8c3.9,0,7-3.1,7-7v-21.2h2v21.2C200.1,245.9,196.1,249.9,191.1,249.9L191.1,249.9z"/>
	<path class="st6" d="M191.8,249.2c-0.1,1.2-1.2,2-2.3,1.9c-1.2-0.1-2-1.2-1.9-2.3c0.1-1.2,1.2-2,2.3-1.9
		C191.1,247,192,248,191.8,249.2z"/>
	<path class="st9" d="M173.8,249.9h-1.8c-5,0-9-4-9-9l0.1-21.2h2l-0.1,21.2c0,3.9,3.1,7,7,7h1.8V249.9z"/>
	<path class="st6" d="M171.3,249.1c0.1,1.2,1.2,2,2.3,1.9c1.2-0.1,2-1.2,1.9-2.3c-0.1-1.2-1.2-2-2.3-1.9
		C172.1,246.9,171.2,247.9,171.3,249.1C171.3,249.1,171.3,249.1,171.3,249.1z"/>
	<path class="st6" d="M162.5,222.2l-0.2-15.1c-0.2-11.5,8.2-21,18.8-21.2c5.2,0,10.1,2.1,13.6,5.9c3.7,4,5.7,9.2,5.8,14.6l0.2,15.1
		l-3,0l-0.2-15.1c0-4.7-1.8-9.2-5-12.6c-2.9-3.2-7.1-5-11.4-5c-8.9,0.1-16,8.3-15.8,18.1l0.2,15.1L162.5,222.2z"/>
	<path class="st6" d="M248,187.2c0-0.4-4.6-39.7-5.9-52.3L242,134c-0.4-4.3-0.9-9.1-5.6-10.4l0.3-1c5.4,1.5,5.9,6.9,6.4,11.3
		l0.1,0.9c1.3,12.6,5.9,51.9,5.9,52.3L248,187.2z"/>
	
		<ellipse transform="matrix(0.7071 -0.7071 0.7071 0.7071 -54.8545 228.5555)" class="st6" cx="248.5" cy="180.5" rx="10.7" ry="10.7"/>
	<path class="st9" d="M253.7,180.5c0,2.9-2.3,5.2-5.2,5.2c-2.9,0-5.2-2.3-5.2-5.2c0-2.9,2.3-5.2,5.2-5.2c0,0,0,0,0,0
		C251.3,175.3,253.7,177.6,253.7,180.5C253.7,180.5,253.7,180.5,253.7,180.5z"/>
	<path class="st5" d="M185,256.2l-13.5,33.1L279,319.2c9.9,2.8,20.6,0.9,29.1-5l0,0c11.2-7.9,14-21.8,12.6-35.5l-1.9-14.6L185,256.2
		z"/>
	<path class="st6" d="M298.9,292.2c-0.1,0-0.3-2.3-1.5-5.8c-0.3-1-0.6-1.9-1-2.8c-0.4-1-0.9-2-1.4-3.1c-1.2-2.3-2.7-4.5-4.3-6.5
		c-1.7-2-3.5-3.9-5.6-5.5c-1-0.7-1.9-1.5-2.8-2c-0.8-0.6-1.7-1.1-2.5-1.6c-3.2-1.8-5.4-2.5-5.4-2.6c0.5,0.1,1,0.3,1.5,0.5
		c0.6,0.2,1.2,0.4,1.8,0.7c0.7,0.3,1.5,0.6,2.2,1.1c0.9,0.5,1.8,1,2.6,1.5c0.9,0.6,1.9,1.3,2.8,2c2.1,1.7,4,3.5,5.7,5.6
		c1.7,2.1,3.1,4.3,4.3,6.7c0.5,1.1,1,2.1,1.4,3.2c0.4,0.9,0.7,1.9,1,2.9c0.3,0.8,0.5,1.6,0.6,2.4c0.2,0.6,0.3,1.3,0.3,1.9
		C298.8,291.2,298.9,291.7,298.9,292.2z"/>
	<g class="st7">
		<path d="M169.2,270.3c-8.2,0.7-14.5,1.4-23,2.5c-5.3,0.6-10.8,0.3-12.5-4.8c-1.7-5-0.6-10.8,2.2-15.3c2.8-4.5,7.3-15,31.2-7
			L169.2,270.3z"/>
	</g>
	<path class="st6" d="M180.2,268.9l0.1-0.2l0.2-0.7l0.9-2.5l3.4-9.3l0.1-0.1h0.1l36.5,3.3l35.4,3.4l10.7,1.1l2.9,0.3l0.8,0.1
		c0.1,0,0.2,0,0.3,0h-0.3h-0.8l-2.9-0.2l-10.7-0.9l-35.4-3.2l-36.5-3.5l0.2-0.1l-3.6,9.3l-1,2.5l-0.3,0.6
		C180.3,268.8,180.2,268.9,180.2,268.9z"/>
	<g class="st7">
		<path d="M224.4,303.1c15.3,4.1,24.5,1.7,38.4-5.9c2.8-1.7,5.6-3.5,8.2-5.5c2-1.6,3.7-3.5,5.2-5.5c-17.9,6.8-32.7,12-51.1,17.1"/>
	</g>
	<path class="st10" d="M180.3,268.5l3.5-9.8l-8.1-12.7c-1.4-2.2-3.7-3.8-6.3-4.2l-29.8-5.6c-0.8,2.3,0.3,4.8,2.5,5.9
		c3.9,2.2,21.5,6.3,21.5,6.3l-27.1-0.5c0,0-0.8,3.9,2.2,5.3s22.4,2.1,22.4,2.1l-24.7,3.5c0,0-0.1,3.9,5.5,4c5.6-0.1,11.1-0.4,16.6-1
		c0.5-0.1,0.9,0.3,1,0.7l0,0c0.1,0.5-0.2,0.9-0.7,1l-16.4,3.9c-1.2,0.3-1.9,1.4-1.7,2.6c0.2,0.8,0.7,1.4,1.5,1.6
		c0.3,0.1,0.6,0.1,0.9,0.1c2.8-0.3,19.5-2.4,19.5-2.4l0.9,2L180.3,268.5"/>
	<path class="st11" d="M168,265.5c-0.2-0.5-0.5-1-0.9-1.5c-0.4-0.5-1-0.8-1.6-1c-0.7-0.2-1.5-0.3-2.3-0.2c-1.7,0.1-3.2,0.6-4.3,0.7
		c-0.6,0.1-1.2,0.1-1.8,0c0.6-0.2,1.2-0.3,1.8-0.4c1.4-0.4,2.9-0.7,4.3-0.9c0.8-0.1,1.7,0,2.5,0.3c0.6,0.3,1.2,0.7,1.7,1.2
		C167.8,264.2,168.1,264.9,168,265.5z"/>
	<path class="st11" d="M170.7,258.1c-0.1,0-0.1-0.3-0.3-0.7c-0.3-0.6-0.8-1.1-1.4-1.4c-1.5-0.9-4.1-0.6-6.7-0.4s-5.1,0.6-6.9,0.8
		c-0.9,0.2-1.9,0.3-2.9,0.3c0.9-0.3,1.9-0.5,2.8-0.7c2.3-0.4,4.6-0.8,6.9-1c1.3-0.1,2.6-0.2,3.9-0.1c1.1,0,2.2,0.2,3.1,0.8
		c0.6,0.4,1.1,0.9,1.4,1.6C170.7,257.5,170.7,257.8,170.7,258.1z"/>
	<path class="st11" d="M172.8,253.8c0-0.8-0.2-1.6-0.6-2.3c-0.4-0.7-1.1-1.3-1.8-1.8c-0.9-0.5-2-0.8-3-0.9c-2.2-0.2-4.3,0-5.9-0.1
		c-0.8,0-1.7-0.2-2.4-0.6c0-0.1,0.9,0.2,2.4,0.2s3.6-0.2,5.9,0c1.1,0.1,2.2,0.4,3.2,1c0.8,0.5,1.4,1.2,1.9,2
		c0.3,0.5,0.5,1.2,0.4,1.8C172.9,253.6,172.8,253.8,172.8,253.8z"/>
	<path class="st6" d="M269.6,253.7c0-0.5,0.1-1.1,0.1-1.6c0.1-1,0.4-2.5,0.7-4.4c0.7-3.7,1.9-8.7,3.2-14.3c1.1-4.7,2-9.5,2.6-14.3
		c0.1-0.9,0.2-1.8,0.2-2.5s0.1-1.4,0.1-1.9c0-0.5,0-1.1,0.1-1.6c0.1,0.5,0.1,1.1,0.1,1.6c0,0.5,0,1.2,0,1.9s-0.1,1.6-0.2,2.5
		c-0.5,4.9-1.3,9.7-2.5,14.4c-1.3,5.6-2.6,10.6-3.4,14.2c-0.4,1.8-0.7,3.3-0.9,4.3C269.9,252.7,269.8,253.2,269.6,253.7z"/>
	<path class="st6" d="M280,319.3c-0.2,0-0.4,0-0.6-0.1l-1.7-0.4l-6.1-1.5c-5.1-1.3-12.2-3.2-20-5.3c-7.8-2.2-14.8-4.2-19.8-5.8
		l-6-1.9l-1.6-0.5c-0.2-0.1-0.3-0.1-0.5-0.2c0.2,0,0.4,0.1,0.6,0.1l1.6,0.4l6,1.7l19.9,5.6l19.9,5.5l6,1.7l1.6,0.5
		C279.6,319.2,279.8,319.3,280,319.3z"/>
	<path class="st12" d="M140.4,322.2"/>
	<path class="st6" d="M177.1,29.3c2.2-6.8,13.5-12.9,19.6-16.5c9.2-5.3,17.8-4.2,23.1,0.5c9.5-8,22.1-15.7,34.2-12.5
		c12.1,3.2,21.8,15.5,19.6,27.8c-1.3,7.2-6.3,13.7-6,21c0.2,5,2.9,9.5,5,14.1s3.7,9.8,1.9,14.5c-1.8,4.3-6.1,7-8.5,11
		c-1.9,3.3-2.4,7.2-3.6,10.8c-4.5,13.3-20.2,20.8-34.1,18.4s-25.4-12.8-32-25.2s-8.7-26.7-9.5-40.8"/>
	<path class="st10" d="M187.3,38.7l2.8,110.9c1,12.7,12.7,22,26.3,20.8l0,0c13.7-1.2,24.2-12.6,23.4-25.4
		c-0.8-13.5-1.5-27.7-1.5-27.7s17.2-4,19.3-26.9c1.1-11.7-0.8-31-2.8-46.3c-1.6-12.5-13-21.3-25.4-19.7c-0.3,0-0.6,0.1-1,0.1"/>
	<path class="st6" d="M249.8,60.5c0.1,1.6-1,3-2.6,3.1c-1.5,0.2-2.9-0.8-3.2-2.3c0,0,0-0.1,0-0.1c-0.1-1.6,1-3,2.6-3.1
		C248.1,57.8,249.5,58.9,249.8,60.5C249.8,60.4,249.8,60.4,249.8,60.5z"/>
	<path class="st6" d="M252.7,57.5c-0.3,0.4-2.6-1.1-5.8-0.9s-5.3,1.9-5.7,1.6c-0.2-0.2,0.1-0.9,1.1-1.7c1.3-1,2.9-1.6,4.5-1.7
		c1.6-0.1,3.2,0.3,4.6,1.2C252.4,56.7,252.8,57.3,252.7,57.5z"/>
	<path class="st6" d="M219.8,63.6c0.1,1.6-1,3-2.6,3.1c-1.5,0.2-2.9-0.8-3.2-2.4c0,0,0,0,0-0.1c-0.1-1.6,1-3,2.6-3.1
		C218.1,61,219.5,62,219.8,63.6C219.8,63.6,219.8,63.6,219.8,63.6z"/>
	<path class="st6" d="M221.9,60.1c-0.3,0.4-2.6-1.1-5.8-0.9s-5.3,1.9-5.7,1.6c-0.2-0.2,0.1-0.9,1.1-1.7c1.3-1,2.9-1.6,4.5-1.7
		c1.6-0.1,3.2,0.3,4.6,1.2C221.8,59.2,222.1,59.9,221.9,60.1z"/>
	<path class="st6" d="M234.8,82.5c0-0.2,1.9-0.6,5-1.2c0.8-0.1,1.5-0.3,1.6-0.9c0-0.8-0.2-1.6-0.7-2.3c-0.9-1.9-1.8-3.9-2.8-5.9
		c-3.8-8.5-6.7-15.4-6.3-15.6s3.7,6.6,7.6,15c0.9,2.1,1.8,4.1,2.6,6c0.6,0.9,0.8,2,0.6,3.1c-0.2,0.6-0.7,1-1.2,1.2
		c-0.4,0.2-0.9,0.2-1.3,0.3C236.8,82.6,234.8,82.7,234.8,82.5z"/>
	<path class="st11" d="M238.3,117.2c-10.7,0.9-21.4-1.3-30.9-6.1c0,0,8.6,15.3,31.1,11.7L238.3,117.2z"/>
	<path class="st6" d="M221.9,47.8c-0.3,0.9-3.4,0.7-7.1,1.3s-6.6,1.9-7.1,1.1c-0.2-0.3,0.2-1.2,1.4-2.1c1.5-1.1,3.3-1.9,5.2-2.2
		c1.9-0.3,3.8-0.2,5.6,0.3C221.3,46.7,222,47.3,221.9,47.8z"/>
	<path class="st6" d="M250.9,48.5c-0.5,0.8-2.7,0.2-5.3,0.3s-4.8,0.8-5.3,0.1c-0.2-0.3,0-1.1,1-1.8c2.5-1.8,5.9-1.9,8.5-0.3
		C250.8,47.4,251.1,48.2,250.9,48.5z"/>
	<path class="st11" d="M229.9,88.4c2.5,0,3.7,0.7,5.8,2c0.6,0.3,1.1,0.8,1.5,1.5c0.3,0.9,0.2,1.9-0.3,2.7c-1,1.9-3.1,2.9-5.2,2.8
		c-2.1-0.2-3.9-1.8-4.4-3.9C226.9,91.4,228,89.3,229.9,88.4"/>
	<path class="st6" d="M238.2,93.7c0,0.2-0.8,0.6-2.1,0.5c-1.7-0.2-3.4-0.7-4.9-1.6c-1.5-0.8-2.8-2-3.9-3.3c-0.8-1-1.1-1.9-0.9-2
		c0.4-0.3,2.5,1.9,5.7,3.7c1.3,0.8,2.7,1.4,4.2,1.9C237.4,93.3,238.2,93.4,238.2,93.7z"/>
	<circle class="st11" cx="222.8" cy="73.3" r="0.8"/>
	<path class="st11" d="M247.1,69.2c0,0.5-0.4,0.8-0.8,0.8c-0.5,0-0.8-0.4-0.8-0.8c0-0.5,0.4-0.8,0.8-0.8l0,0
		C246.7,68.4,247.1,68.8,247.1,69.2z"/>
	<path class="st11" d="M251.7,71.4c0.1,0.5-0.3,0.9-0.7,0.9c-0.5,0.1-0.9-0.3-0.9-0.7c0-0.1,0-0.1,0-0.2c0.1-0.5,0.5-0.8,0.9-0.7
		C251.3,70.7,251.7,71,251.7,71.4z"/>
	<path class="st11" d="M253.1,67.9c0,0.5-0.4,0.8-0.8,0.8c-0.5,0-0.8-0.4-0.8-0.8c0-0.5,0.4-0.8,0.8-0.8l0,0
		C252.7,67.1,253.1,67.5,253.1,67.9z"/>
	<path class="st11" d="M219.8,77c0,0.5-0.4,0.8-0.8,0.8s-0.8-0.4-0.8-0.8c0-0.5,0.4-0.8,0.8-0.8c0,0,0,0,0,0
		C219.4,76.2,219.8,76.5,219.8,77z"/>
	<path class="st11" d="M216.7,73.7c0,0.5-0.4,0.8-0.8,0.8c-0.5,0-0.8-0.4-0.8-0.8c0-0.5,0.4-0.8,0.8-0.8S216.7,73.2,216.7,73.7
		L216.7,73.7z"/>
	<path class="st4" d="M230.3,63.6c-0.1-1.2-0.3-2.3-0.5-3.5c-0.8-3.1-2.7-5.9-5.3-7.8c-1.8-1.3-3.8-2.2-6-2.6
		c-2.5-0.5-5.1-0.2-7.5,0.6c-1.3,0.5-2.5,1.1-3.6,1.9c-1.2,0.8-2.2,1.8-3,3c-3.7,5-3.7,11.8,0,16.8c1.7,2.3,3.9,4,6.6,5
		c2.4,0.9,5,1.1,7.5,0.6c2.2-0.4,4.2-1.3,6-2.6c2.6-1.9,4.4-4.7,5.3-7.8C230,66,230.2,64.8,230.3,63.6c0,0.1,0,0.2,0,0.3v0.7
		c0,0.4,0,0.7-0.1,1.1c-0.1,0.5-0.1,1-0.3,1.5c-0.3,1.4-0.8,2.7-1.6,3.9c-3.5,6.1-10.9,8.7-17.5,6.3c-1.3-0.5-2.6-1.1-3.7-2
		c-1.2-0.9-2.2-1.9-3.1-3.1c-3.8-5.2-3.8-12.2,0-17.4c0.9-1.2,1.9-2.2,3.1-3.1c1.1-0.9,2.4-1.5,3.7-2c2.5-0.9,5.1-1.1,7.7-0.6
		c4.1,0.8,7.7,3.3,9.8,6.9c0.7,1.2,1.2,2.5,1.6,3.9c0.1,0.5,0.2,1,0.3,1.5c0.1,0.4,0.1,0.7,0.1,1.1v0.7
		C230.3,63.5,230.3,63.5,230.3,63.6z"/>
	<path class="st4" d="M236.6,59.2c-1.1-0.3-2.3-0.4-3.4-0.4c-1.1,0.2-2.2,0.6-3.3,1.1c0,0,0.2-0.4,0.8-0.8c0.7-0.5,1.6-0.8,2.4-0.9
		c0.9-0.1,1.8,0,2.6,0.3C236.3,58.9,236.6,59.2,236.6,59.2z"/>
	<path class="st6" d="M227.4,21.3c-2,18.1-15.4,34.3-32.8,39.8c5.6,8.1,2.1,23.4,2.2,36.2c0.1,11.9,0.1,15.3-7.6,21.4
		c-6.4,1.5-10-15.9-14.8-20.8s-9.3-10.9-8.9-17.7c0.2-3.2,1.4-6.2,1.6-9.4c0.2-3.5-0.9-7-1.6-10.4c-2.8-15.3,5.2-31.9,18.6-39.9
		s31.2-7.5,44.5,0.7"/>
	<path class="st6" d="M189.1,95.6c-1.7-5.8-4.5-11.3-8.4-15.9l0.3,0.6c-4.4-9.9-15.9-14.4-25.9-10.1c-9.9,4.4-14.4,15.9-10.1,25.9
		c1.3,2.9,3.2,5.5,5.7,7.5c-2.2-0.5-4.5,1.4-5,3.7c-0.4,2.3,0.3,4.7,1.7,6.5c4.7,6.9,15.3,8.7,22,3.8c5.3,3.6,13.1,1.5,17.1-3.6
		S191,101.8,189.1,95.6z"/>
	<path class="st9" d="M167.7,69.1c-0.2-0.2-0.4-0.4-0.6-0.6c-0.5-0.7-0.8-1.4-1-2.2c-0.6-2.1-0.3-5.3,1.3-8.8
		c0.9-1.9,2.1-3.6,3.6-5.1c1.6-1.7,3.5-3.3,5.4-4.6c2.2-1.5,4.6-2.7,7.1-3.5c2.6-0.9,5.3-1.6,8.1-2.3s5.5-1.4,8.1-2.3
		c2.5-0.9,4.9-1.9,7.2-3.1c3.9-2.1,7.5-4.6,10.8-7.6c2.2-2,4.2-4.2,6.1-6.5c0.7-0.8,1.1-1.5,1.5-2c0.2-0.2,0.3-0.5,0.5-0.7
		c-0.1,0.2-0.3,0.5-0.4,0.7c-0.3,0.5-0.8,1.2-1.4,2c-1.8,2.4-3.8,4.7-6,6.7c-3.3,3-6.9,5.6-10.8,7.8c-2.3,1.2-4.7,2.3-7.2,3.2
		c-2.6,0.9-5.3,1.6-8.1,2.3s-5.5,1.4-8.1,2.2c-2.5,0.8-4.8,2-7,3.4c-1.9,1.3-3.8,2.8-5.4,4.5c-1.5,1.4-2.7,3.1-3.5,5
		c-1.6,3.4-2,6.6-1.4,8.6C166.6,67.3,167,68.3,167.7,69.1z"/>
	<path class="st9" d="M225.8,19.8c-0.1,0.2-0.3,0.4-0.5,0.6c-0.3,0.4-0.8,0.9-1.4,1.6c-1.8,1.9-3.7,3.6-5.8,5.2
		c-3,2.5-6.3,4.5-9.9,6c-2.1,0.8-4.4,1.4-6.6,1.8c-2.3,0.5-4.8,0.8-7.2,1.2c-4.7,0.6-9.3,1.5-13.8,2.9c-3.7,1.2-7,3.1-10,5.5
		c-2,1.7-3.6,3.7-4.8,6c-0.3,0.6-0.6,1.3-0.8,1.9c-0.1,0.2-0.2,0.5-0.3,0.7c0-0.2,0.1-0.5,0.2-0.7c0.2-0.7,0.5-1.4,0.8-2
		c1.1-2.4,2.8-4.5,4.8-6.2c3-2.5,6.4-4.5,10.1-5.7c4.5-1.4,9.2-2.4,13.9-3c2.5-0.4,4.9-0.7,7.2-1.2c2.2-0.4,4.4-1,6.6-1.7
		c3.5-1.5,6.9-3.4,9.9-5.8c2-1.6,4-3.3,5.9-5.1l1.5-1.5C225.4,20.1,225.6,19.9,225.8,19.8z"/>
	<path class="st9" d="M251.2,0c0,0.1-2,0.2-5,1c-0.8,0.2-1.6,0.5-2.4,0.8c-0.9,0.3-1.8,0.7-2.7,1.1c-4,2-7.6,4.8-10.4,8.3
		c-0.6,0.8-1.2,1.6-1.7,2.4c-0.5,0.7-0.9,1.4-1.3,2.2c-1.5,2.8-2,4.7-2.1,4.6c0.1-0.5,0.2-0.9,0.3-1.3c0.1-0.5,0.3-1,0.5-1.5
		c0.3-0.7,0.5-1.4,0.9-2c0.4-0.8,0.8-1.5,1.3-2.3c0.5-0.8,1.1-1.6,1.7-2.4c1.4-1.8,3-3.4,4.8-4.8c1.8-1.4,3.7-2.6,5.8-3.6
		c0.9-0.4,1.8-0.8,2.8-1.1c1.5-0.5,3-0.9,4.6-1.1c0.5-0.1,1.1-0.2,1.6-0.2C250.3,0,250.7,0,251.2,0z"/>
	<path class="st9" d="M267.3,86.4c0,0,0-0.1,0.1-0.2l0.5-0.6c0.4-0.5,1-1.2,1.8-2.2c0.9-1.2,1.6-2.5,2-3.9c0.2-0.9,0.3-1.8,0.2-2.7
		c-0.1-1-0.5-2-1-2.8c-1.1-1.9-2.9-3.5-4.5-5.5c-3.6-4.6-6-10-6.8-15.8c-0.3-3.2-0.4-6.5-0.2-9.8c0.2-3.2-0.1-6.5-0.9-9.6
		c-1.6-5.5-5.6-10.1-10.8-12.5c-2.2-1-4.5-1.5-6.8-1.6c-4.4-0.2-8.7,1.1-12.3,3.6l-0.6,0.4c-0.1,0.1-0.2,0.1-0.2,0.1
		c0.9-0.9,2-1.6,3.1-2.2c3.1-1.6,6.5-2.5,10-2.4c2.4,0.1,4.8,0.6,7,1.5c5.4,2.4,9.5,7,11.2,12.7c0.8,3.2,1.1,6.5,0.9,9.7
		c-0.2,3.2-0.1,6.5,0.2,9.7c0.8,5.7,3,11.1,6.6,15.6c1.6,2,3.4,3.7,4.5,5.6c0.5,0.9,0.9,1.9,1,3c0.1,0.9,0,1.9-0.3,2.8
		c-0.5,1.4-1.2,2.8-2.1,3.9c-0.6,0.7-1.2,1.5-1.8,2.1l-0.5,0.5C267.4,86.3,267.4,86.3,267.3,86.4z"/>
	<path class="st4" d="M265,60.1c-0.1-1.2-0.3-2.3-0.5-3.5c-0.8-3.1-2.7-5.9-5.3-7.8c-3.9-2.9-8.9-3.7-13.5-2c-2.6,1-4.9,2.7-6.6,5
		c-3.7,5-3.7,11.8,0,16.8c0.8,1.2,1.8,2.2,3,3c1.1,0.8,2.3,1.5,3.6,1.9c7.4,2.7,15.6-1.1,18.3-8.6c0.2-0.4,0.3-0.8,0.4-1.3
		C264.7,62.5,264.9,61.3,265,60.1c0,0.1,0,0.2,0,0.3c0,0.2,0,0.4,0,0.7c0,0.4,0,0.7-0.1,1.1c-0.1,0.5-0.1,1-0.3,1.5
		c-0.3,1.4-0.8,2.7-1.6,3.9c-0.9,1.6-2.2,3-3.7,4.2c-3.9,3-9.2,3.9-13.9,2.2c-1.3-0.5-2.6-1.1-3.7-2c-1.2-0.9-2.2-1.9-3.1-3.1
		c-3.8-5.2-3.8-12.2,0-17.4c0.9-1.2,1.9-2.2,3.1-3.1c1.1-0.9,2.4-1.5,3.7-2c2.5-0.9,5.1-1.1,7.7-0.6c4.1,0.8,7.7,3.4,9.8,7
		c0.7,1.2,1.2,2.5,1.6,3.9c0.1,0.5,0.2,1,0.3,1.5c0.1,0.4,0.1,0.7,0.1,1.1c0,0.3,0,0.5,0,0.7C265,60,265,60,265,60.1z"/>
	<path class="st9" d="M189.1,119.1c-0.2-0.1-0.3-0.2-0.5-0.3c-0.3-0.2-0.8-0.6-1.3-1c-1.6-1.3-3.1-2.7-4.5-4.2
		c-2.2-2.2-3.7-5.1-4.3-8.1c-0.2-1.8-0.3-3.6-0.2-5.4c0-1.9-0.5-3.8-1.6-5.4c-1.2-1.5-2.5-2.9-3.9-4.2c-1.3-1.3-2.4-2.8-3.2-4.4
		c-0.7-1.5-1.2-3.1-1.6-4.7c-0.3-1.4-0.4-2.8-0.4-4.3c0-1.3,0.3-2.5,0.4-3.5c0.1-0.9,0.1-1.8,0.1-2.6c-0.2-1.4-0.4-2.2-0.4-2.2
		c0.1,0.2,0.2,0.4,0.2,0.6c0.2,0.5,0.3,1.1,0.4,1.7c0.1,0.9,0.1,1.8,0,2.7c-0.1,1-0.3,2.2-0.4,3.5c0,3,0.7,6,2,8.8
		c0.8,1.6,1.9,3,3.1,4.3c1.5,1.3,2.8,2.7,4,4.3c0.6,0.8,1,1.8,1.3,2.8c0.2,0.9,0.4,1.9,0.4,2.9c0,1.8,0,3.6,0.2,5.4
		c0.6,3,2,5.8,4.1,8c1.4,1.5,2.8,3,4.4,4.3l1.4,1C188.9,118.8,189,118.9,189.1,119.1z"/>
	<path class="st13" d="M149.8,116.9"/>
	<path class="st9" d="M177.8,95.8c0,0.1,0,0.3,0,0.4c0,0.3,0,0.7-0.1,1.2c-0.2,1.4-0.5,2.9-1,4.2c-3.3,9.4-12.8,15.1-22.7,13.6
		c-1.4-0.2-2.8-0.6-4.2-1.1c-0.5-0.2-0.8-0.4-1.1-0.5s-0.4-0.2-0.4-0.2c1.8,0.7,3.7,1.2,5.6,1.5c2.1,0.3,4.2,0.2,6.3-0.1
		c5.2-0.8,9.8-3.6,12.9-7.7c1.3-1.7,2.3-3.5,3.1-5.5C177,99.6,177.5,97.7,177.8,95.8z"/>
	<path class="st9" d="M173.9,91.1c0,0.5-0.1,0.9-0.3,1.4c-0.4,1.2-0.8,2.4-1.4,3.6c-1.9,3.8-4.9,6.9-8.5,9.1
		c-3.6,2.2-7.8,3.4-12,3.5c-1.3,0-2.5,0-3.8-0.2c-0.5,0-0.9-0.1-1.4-0.3c1.7,0.1,3.4,0.2,5.2,0.1c4.2-0.2,8.2-1.5,11.8-3.6
		c3.5-2.2,6.5-5.2,8.5-8.9C172.7,94.3,173.3,92.7,173.9,91.1z"/>
	<path class="st9" d="M144.7,81.1c0.3-0.2,0.6-0.4,0.9-0.5c0.4-0.2,0.7-0.4,1.1-0.5c0.5-0.2,1-0.4,1.5-0.5c1.3-0.4,2.7-0.7,4.1-0.8
		c1.7-0.1,3.4-0.1,5.1,0.1c1.7,0.2,3.4,0.7,5,1.2c1.3,0.5,2.6,1.1,3.8,1.9c0.5,0.3,0.9,0.6,1.3,0.9c0.3,0.2,0.6,0.5,0.9,0.8
		c0.3,0.2,0.5,0.5,0.7,0.8c-0.1,0.1-1.1-1-3.1-2.2c-1.2-0.7-2.4-1.3-3.7-1.8c-1.6-0.5-3.2-0.9-4.9-1.2c-1.7-0.2-3.3-0.3-5-0.2
		c-1.4,0.1-2.7,0.3-4.1,0.7C146,80.5,144.8,81.2,144.7,81.1z"/>
	<path class="st8" d="M167.7,79.3c-0.1,0.1-6.4-5.2-14.1-12S139.8,55,139.8,54.9s6.4,5.3,14.1,12S167.8,79.2,167.7,79.3z"/>
	<path class="st4" d="M196.5,68.3c0.5-0.9,1.2-1.7,2.1-2.3c0.8-0.7,1.7-1.2,2.7-1.5c-0.7,0.7-1.5,1.3-2.4,1.9
		C198.1,67.1,197.3,67.8,196.5,68.3z"/>
	<path class="st2" d="M168.4,74c0-0.1-0.1-0.1-0.1-0.2c-0.1-0.2-0.2-0.4-0.3-0.6c-0.4-0.8-0.7-1.7-0.8-2.6c-0.4-3.3,0.6-6.7,2.6-9.3
		c0.7-0.9,1.4-1.7,2.2-2.4c0.9-0.8,1.9-1.4,2.9-2c2.3-1.2,4.8-2.1,7.4-2.5c5.4-1.1,11.5-0.9,17.7-1.8c3-0.4,6-1.3,8.7-2.7
		c2.5-1.4,4.8-3.1,6.7-5.2c3.3-3.6,5.9-7.7,7.7-12.1c1.6-3.8,2.7-7,3.4-9.2l0.9-2.5l0.2-0.7c0-0.1,0.1-0.1,0.1-0.2c0,0,0,0.1,0,0.2
		l-0.2,0.7l-0.8,2.6c-0.9,3.1-2,6.2-3.3,9.2c-1.8,4.5-4.4,8.7-7.7,12.3c-2,2.1-4.3,3.9-6.8,5.3c-2.8,1.4-5.8,2.3-8.8,2.8
		c-6.3,0.9-12.3,0.6-17.7,1.7s-9.9,3.3-12.4,6.7c-2,2.5-3,5.8-2.7,9C167.5,71.7,167.9,72.9,168.4,74z"/>
	<path class="st6" d="M174.8,113.7c-0.2,1.4-0.6,2.7-1.2,4c-0.7,1.5-1.6,3-2.6,4.2c-1.4,1.7-3.1,3.2-5.1,4.3c-2.4,1.3-5,2-7.7,2
		c-3.1,0.1-6.2-0.8-8.8-2.6c-2.8-2-4.9-4.9-5.8-8.2c-0.5-1.8-0.6-3.6-0.3-5.4c0.3-1.9,1-3.6,2.1-5.2c1.7-2.6,4.4-4.5,7.4-5.3v0.5
		c-3.1-0.5-6-1.7-8.6-3.5c-2.4-1.7-4.2-3.9-5.5-6.6c-1.1-2.4-1.5-4.9-1.3-7.5c0.2-2.2,0.9-4.4,2.2-6.2c1.1-1.5,2.4-2.8,4-3.7
		c1.2-0.7,2.5-1.2,3.8-1.5c0.8-0.2,1.7-0.2,2.5-0.2l0.6,0.1c0.1,0,0.1,0,0.2,0c-1.1-0.1-2.3,0-3.4,0.3c-1.3,0.3-2.5,0.8-3.7,1.5
		c-1.5,0.9-2.8,2.2-3.8,3.7c-1.2,1.8-1.9,3.9-2.1,6.1c-0.2,2.5,0.3,5,1.3,7.3c1.2,2.5,3,4.7,5.3,6.3c2.5,1.8,5.4,2.9,8.4,3.4
		l1.3,0.2l-1.3,0.3c-2.9,0.7-5.5,2.5-7.1,5.1c-1,1.5-1.7,3.2-2,5c-0.3,1.7-0.2,3.5,0.3,5.2c0.9,3.2,2.9,6.1,5.6,8
		c2.5,1.7,5.5,2.6,8.5,2.5c2.6,0,5.2-0.7,7.6-1.9c1.9-1,3.6-2.4,5-4.1c1.1-1.3,2-2.7,2.7-4.1c0.4-0.9,0.8-1.9,1.1-2.9
		c0.1-0.3,0.2-0.6,0.2-0.8L174.8,113.7z"/>
	<path class="st6" d="M168.9,70.4c-0.1,0-0.2-0.1-0.2-0.1l-0.7-0.4c-0.9-0.5-1.7-1.1-2.5-1.7c-2.9-2.4-5.1-5.5-6.4-9
		c-3.1-8.6-0.3-18.1,7-23.6c2.8-2.1,6-3.6,9.4-4.6c3.4-1,6.8-1.6,10.4-1.8c3.4-0.3,6.6-0.5,9.7-0.7c2.9-0.2,5.8-0.5,8.7-1
		c2.5-0.4,5-1.1,7.3-2c3.4-1.3,6.6-3.3,9.2-5.8c0.7-0.7,1.3-1.5,1.9-2.3l0.5-0.6c0-0.1,0.1-0.1,0.2-0.2c-0.7,1.2-1.5,2.3-2.4,3.3
		c-2.6,2.6-5.8,4.7-9.3,6c-2.4,0.9-4.9,1.6-7.4,2.1c-2.9,0.5-5.8,0.8-8.7,1c-6.1,0.5-13,0.5-19.9,2.6c-3.3,0.9-6.4,2.5-9.2,4.5
		c-7.1,5.4-9.9,14.7-7,23.1c1.3,3.5,3.4,6.5,6.2,8.9c0.8,0.7,1.6,1.2,2.4,1.8l0.7,0.4C168.7,70.2,168.8,70.3,168.9,70.4z"/>
	<path class="st6" d="M280.3,55.7c-0.2,0.3-0.6,0.4-0.9,0.5c-1.1,0-2-0.6-2.4-1.6c-0.3-0.7-0.3-1.5,0.1-2.2c0.5-0.8,1.2-1.4,2-1.7
		c2.1-0.7,4.4-0.4,6.1,1c1,0.7,1.8,1.8,2.3,2.9c0.5,1.3,0.6,2.7,0.3,4c-0.3,1.4-1.1,2.7-2.2,3.7c-1.2,1-2.7,1.6-4.2,1.8
		c-3.3,0.2-6.6-1-8.9-3.5c-1.2-1.2-2.2-2.7-2.9-4.3c-0.7-1.7-0.8-3.5-0.5-5.3c0.3-1.7,0.9-3.4,1.6-5.1c0.7-1.6,1.3-3.2,1.8-4.8
		c1-3,1.7-6.2,2-9.4c0.3-2.9,0.1-5.8-0.5-8.6c-0.5-2.5-1.5-4.8-2.9-7c-1.9-3.1-4.7-5.7-8-7.3c-0.9-0.4-1.8-0.7-2.8-1l-0.8-0.2
		c-0.1,0-0.2,0-0.2-0.1h0.3l0.8,0.1c1,0.2,1.9,0.5,2.9,1c3.4,1.6,6.2,4.1,8.2,7.3c1.4,2.1,2.4,4.5,3,7c0.6,2.9,0.8,5.8,0.6,8.8
		c-0.3,3.2-1,6.4-2,9.5c-0.5,1.6-1.1,3.2-1.8,4.8c-0.7,1.6-1.2,3.3-1.6,5c-0.3,1.7-0.1,3.4,0.5,5c0.6,1.6,1.5,3,2.7,4.2
		c2.2,2.4,5.3,3.6,8.5,3.4c1.5-0.1,2.9-0.7,4-1.7c1.1-0.9,1.8-2.1,2.1-3.4c0.3-1.3,0.2-2.6-0.2-3.8c-0.4-1.1-1.2-2.1-2.1-2.8
		c-1.6-1.3-3.8-1.7-5.8-1c-0.8,0.3-1.4,0.8-1.9,1.5c-0.4,0.6-0.5,1.3-0.2,2c0.4,0.9,1.3,1.5,2.2,1.6C279.7,55.9,280,55.8,280.3,55.7
		z"/>
	<g class="st7">
		<path d="M273.9,282c4.9-1.4,9.9,3,14.8,1.9c3-0.7,5.3-3.4,6.6-6.2s2.1-5.9,3.5-8.7c1.4-2.8,3.8-5.3,6.9-5.8c2.8-0.4,6.2,1,8.3-1
			c1.6-1.5,1.4-4.3,0.1-6.1c-1.3-1.8-3.4-2.8-5.4-3.8c-2.2-1.2-4.5-2.1-6.9-2.7c-2.4-0.6-5-0.3-7.2,0.8c-4.2,2.4-5,7.9-6.2,12.6
			c-0.7,3.3-2.1,6.4-4.1,9.1c-2,2.7-4.9,4.6-8.2,5.3c-1.3,0-2.5,0.4-3.7,0.9c-1,0.7-1.5,2.5-0.4,3.2"/>
	</g>
	<path class="st10" d="M248.6,264l18.2-6.4l16.3-25.5c1.6-2.5,4.2-4.3,7.1-4.8l29.3-5.5c0.8,2.3-0.3,4.8-2.5,5.9
		c-3.9,2.2-21.5,6.3-21.5,6.3l27.1-0.5c0,0,0.8,3.9-2.2,5.3s-22.4,2.1-22.4,2.1l24.7,3.5c0,0,0.1,3.9-5.5,4
		c-5.6-0.1-11.1-0.4-16.6-1c-0.5-0.1-0.9,0.3-1,0.7l0,0c-0.1,0.5,0.2,0.9,0.7,1l16.4,3.9c1.2,0.3,1.9,1.4,1.7,2.6
		c-0.2,0.8-0.7,1.4-1.5,1.6c-0.3,0.1-0.6,0.1-0.9,0.1c-2.8-0.3-19.5-2.4-19.5-2.4s-5.9,20.7-9.7,22.3c-3.8,1.7-11.8,2.1-11.8,2.1
		l-17,6.7L248.6,264z"/>
	<path class="st11" d="M320.8,233.4c-0.5,0.1-0.9,0.1-1.4,0.1l-3.9,0.2c-3.3,0.1-7.8,0.3-12.8,0.4l-7,0.2c-1.9-0.1-3.8,0.2-5.6,0.8
		c-1.2,0.5-2.2,1.3-2.9,2.4c-0.2,0.4-0.4,0.8-0.6,1.3c0-0.1,0-0.2,0-0.4c0.1-0.3,0.2-0.7,0.4-1c0.7-1.2,1.7-2.1,2.9-2.6
		c1.8-0.7,3.8-1,5.7-0.9l7-0.2c5-0.1,9.5-0.2,12.8-0.3h3.9C319.8,233.4,320.3,233.4,320.8,233.4z"/>
	<path class="st11" d="M321.2,244.5c-0.4,0-0.9,0-1.3-0.1l-3.5-0.5c-3-0.4-7.1-1-11.7-1.7c-2.3-0.3-4.4-0.7-6.4-0.9
		c-1.7-0.2-3.5,0.1-5,0.9c-1,0.6-1.9,1.4-2.6,2.3c-0.5,0.7-0.7,1.1-0.7,1.1c0-0.1,0-0.2,0.1-0.3c0.1-0.3,0.3-0.6,0.4-0.9
		c0.6-1,1.5-1.9,2.6-2.5c1.6-0.9,3.4-1.3,5.2-1.1c2,0.1,4.2,0.5,6.5,0.9c4.5,0.7,8.7,1.3,11.6,1.8l3.5,0.6
		C320.3,244.3,320.8,244.4,321.2,244.5z"/>
	<path class="st11" d="M307.4,250.8c-1-0.1-1.9-0.3-2.9-0.6c-1.8-0.4-4.2-1.1-6.9-1.6c-0.6-0.1-1.3-0.2-1.9-0.3
		c-0.6,0-1.2,0.2-1.7,0.5c-0.9,0.5-1.6,1.2-2.2,2.1c-0.4,0.8-0.7,1.8-0.9,2.7c-0.1-0.3-0.1-0.5-0.1-0.8c0.1-0.7,0.3-1.4,0.6-2.1
		c0.5-1,1.3-1.8,2.3-2.3c0.6-0.3,1.2-0.5,1.9-0.6c0.7,0,1.4,0.1,2,0.3c2.7,0.6,5.1,1.3,6.9,1.8C305.6,250.1,306.5,250.4,307.4,250.8
		z"/>
	<path class="st5" d="M113.3,277.8L168,271l95.9-15.6l12.4,31.1c-36,12.5-72.9,23.7-109.2,33.6c-3,0.6-6,0.8-9,0.8
		C145.9,321,116.1,316.1,113.3,277.8z"/>
	<path class="st6" d="M276.2,286.5c-0.1-0.2-0.2-0.4-0.2-0.5c-0.2-0.4-0.4-0.9-0.7-1.6c-0.6-1.5-1.5-3.6-2.5-6.2l-9.1-22.6l0.2,0.1
		l-46.6,7.8c-11,1.9-21.6,3.1-31.1,4.4c-4.8,0.6-9.3,1.3-13.6,2c-2.1,0.3-4.2,0.7-6.1,1c-1.9,0.3-3.7,0.7-5.6,1.2
		c-5.5,1.7-10.2,5.5-13,10.6c-0.8,1.4-1.4,2.8-1.9,4.3c-0.2,0.5-0.3,0.9-0.4,1.2c0,0.1-0.1,0.3-0.1,0.4c0.1-0.5,0.2-1.1,0.4-1.6
		c0.5-1.5,1.1-3,1.8-4.3c1.2-2.2,2.7-4.2,4.6-5.9c2.5-2.2,5.4-3.9,8.5-4.9c1.8-0.5,3.7-0.9,5.6-1.3c2-0.4,4-0.7,6.1-1.1
		c4.2-0.7,8.8-1.4,13.6-2c9.6-1.3,20.1-2.5,31.1-4.4l46.6-7.7h0.2l0.1,0.2c3.7,9.4,6.8,17.2,8.9,22.7l2.4,6.3
		c0.3,0.7,0.5,1.3,0.6,1.7C276.2,286.4,276.2,286.5,276.2,286.5z"/>
	<path class="st6" d="M142.8,319.3c0.1,0,0.3,0,0.4,0.1l1.3,0.3c1.1,0.2,2.8,0.6,4.9,0.9c6.1,0.8,12.3,0.5,18.3-0.9
		c1.9-0.4,3.9-0.9,5.9-1.5l6.4-1.8l14-4c9.9-2.9,20.7-6.1,32.1-9.6c19-5.9,36.5-11.7,50-16.3l-0.1,0.3c-3.7-9.5-6.8-17.3-8.9-22.7
		c-1-2.7-1.9-4.8-2.4-6.3c-0.3-0.7-0.5-1.2-0.6-1.6c-0.1-0.4-0.2-0.6-0.2-0.6s0.1,0.2,0.2,0.5c0.2,0.4,0.4,0.9,0.7,1.6l2.5,6.2
		l9.1,22.6l0.1,0.2l-0.2,0.1c-13.6,4.7-31,10.5-50,16.5c-11.4,3.5-22.2,6.8-32.1,9.6l-14.1,4l-6.4,1.8c-2,0.6-4,1.1-5.9,1.5
		c-6,1.3-12.3,1.6-18.4,0.7C147.1,320.5,144.9,320,142.8,319.3z"/>
	<path class="st6" d="M163.9,271c-0.4,0.1-0.9,0.2-1.4,0.2l-3.8,0.4l-12.4,1.2l-12.4,1.3l-3.8,0.4c-0.5,0.1-0.9,0.1-1.4,0.1
		c0.4-0.1,0.9-0.2,1.4-0.3c0.9-0.1,2.1-0.3,3.7-0.5c3.1-0.4,7.5-1,12.3-1.5c4.8-0.5,9.2-0.9,12.4-1.1c1.6-0.1,2.9-0.2,3.8-0.2
		C163,271,163.5,271,163.9,271z"/>
</g>
<g id="Plant">
	<path class="st8" d="M68.4,371.3c-2.8,4-8.1,2.6-10.6,0.2c-2.5-2.4-3.5-5.9-4.5-9.2c-2.2-7.6-4.4-15.6-2.8-23.3
		c0.4-2.4,1.4-4.5,3-6.4c1.6-1.8,4.1-2.6,6.4-2.1c2.7,0.7,4.4,3.4,5.6,5.9c3.6,7.5,5.5,15.6,5.5,23.9
		C71.1,364.1,70.6,368.1,68.4,371.3"/>
	<g class="st7">
		<path d="M68.4,371.3c-2.8,4-8.1,2.6-10.6,0.2c-2.5-2.4-3.5-5.9-4.5-9.2c-2.2-7.6-4.4-15.6-2.8-23.3c0.4-2.4,1.4-4.5,3-6.4
			c1.6-1.8,4.1-2.6,6.4-2.1c2.7,0.7,4.4,3.4,5.6,5.9c3.6,7.5,5.5,15.6,5.5,23.9C71.1,364.1,70.6,368.1,68.4,371.3"/>
	</g>
	<path class="st8" d="M58.1,391.3c-4.5-2.3-9.8-2.6-14.9-1.8c-2.7,0.4-5.5,1.2-7.3,3.3c-1.8,2-2.2,5.6-0.1,7.3
		c1.4,0.9,3,1.3,4.6,1.2c3.9,0,8.3-0.7,11.4,1.6c1.8,1.3,3,3.6,5.1,4.2c2.2,0.5,4.5-0.5,5.6-2.5c1-2,1.2-4.3,0.6-6.4
		C62.7,395.3,60.8,392.7,58.1,391.3z"/>
	<path class="st8" d="M76,377c-3-3.6-3.6-8.8-2.2-13.2c1.3-4.5,4.3-8.3,7.8-11.4c4.1-3.6,8.8-6.4,14-8.3c2-0.8,4.1-1.2,6.3-1.1
		c2.2,0.1,4.2,1.3,5.3,3.2c1.5,2.8,0.1,6.2-1.5,9c-2.7,4.9-5.8,9.6-9.2,14c-2.8,3.6-5.9,7.1-10.1,8.7c-4.2,1.6-8.6,1.4-10.8-1.5"/>
	<path class="st6" d="M68.6,430.8c-0.1-0.6-0.2-1.2-0.2-1.8c-0.1-1.3-0.3-2.9-0.5-4.9c-0.2-2.4-0.6-4.8-1.1-7.2
		c-0.6-2.9-1.5-5.7-2.6-8.5c-1.1-2.7-2.5-5.3-4.3-7.7c-1.5-1.9-3.3-3.5-5.5-4.5c-1.5-0.7-3-1.2-4.6-1.4c-0.6,0-1.2-0.1-1.8-0.3
		c0.6-0.1,1.2-0.1,1.8,0c1.7,0.1,3.3,0.5,4.8,1.2c2.3,1.1,4.2,2.6,5.8,4.6c1.9,2.4,3.4,5,4.5,7.8c1.1,2.8,2,5.7,2.6,8.6
		c0.5,2.4,0.8,4.8,1,7.3c0.2,2.1,0.2,3.8,0.2,4.9C68.7,429.6,68.7,430.2,68.6,430.8z"/>
	<path class="st6" d="M68.3,427.1c-0.1-0.3-0.1-0.6-0.1-0.8c0-0.6,0-1.4,0-2.4c0-2.1,0-5-0.1-8.7c-0.2-7.4-0.8-17.6-2-28.8
		c-1.2-11.2-2.9-21.3-4.4-28.5c-0.4-1.8-0.7-3.5-1-4.9s-0.6-2.7-0.8-3.7s-0.4-1.7-0.6-2.3c-0.1-0.3-0.1-0.5-0.2-0.8
		c0.1,0.2,0.2,0.5,0.3,0.8c0.2,0.6,0.4,1.4,0.7,2.3c0.3,0.9,0.6,2.2,1,3.7s0.8,3,1.2,4.9c2,9.4,3.6,19,4.6,28.5
		c1.2,11.2,1.8,21.5,1.8,28.9c0,3.7,0,6.7-0.1,8.8c-0.1,1-0.1,1.8-0.2,2.4C68.5,426.5,68.4,426.8,68.3,427.1z"/>
	<path class="st6" d="M68.2,407.3c-0.1-0.8-0.1-1.7,0-2.5c0.1-1.6,0.3-3.9,0.8-6.7c0.5-3.3,1.3-6.6,2.2-9.8c1.1-4,2.5-7.8,4.1-11.6
		c2.9-6.9,6.9-13.3,12.1-18.8c0.9-0.9,1.8-1.8,2.8-2.6c0.4-0.4,0.8-0.7,1.2-1l1.1-0.8c0.7-0.5,1.4-0.9,2.1-1.3c0.1,0.2-3,2-6.9,6.1
		c-5,5.5-8.9,11.8-11.8,18.7c-1.6,3.7-3,7.6-4.1,11.5c-0.9,3.2-1.7,6.4-2.3,9.7c-0.5,2.8-0.8,5.1-1,6.7
		C68.5,405.7,68.4,406.5,68.2,407.3z"/>
</g>
<g id="Heart">
	<path class="st8" d="M359.3,90.3c-1-7.9-7.7-15.3-15.7-15.3c-4.7,0-9.2,2.5-12.4,5.9c-1.1,1.2-2.2,2.4-3.1,3.7
		c-0.7-1.5-1.5-2.9-2.4-4.3c-2.5-4-6.4-7.3-11-8.2c-7.8-1.6-15.9,4.4-18.4,11.9s-0.4,16.1,3.7,22.9s11.3,15.8,24.5,20.2
		c9.1-1.2,21.2-9.2,26.6-15.1S360.3,98.2,359.3,90.3z"/>
	<path class="st2" d="M356.5,104.5h-0.3l-0.8-0.1l-3-0.2l-10.9-1l0.2-0.1l-4.5,11.8l-0.3,0.7l-0.2-0.7c-1.4-5.7-2.9-12.1-4.5-18.9
		l-1.5-6.2l0.5,0.1l-8.3,11.4l-0.1,0.1h-0.1l-19.1-2l-5.4-0.6l-1.4-0.2l-0.5-0.1c0.2,0,0.3,0,0.5,0l1.4,0.1l5.4,0.5l19.1,1.8
		l-0.2,0.1l8.2-11.4l0.3-0.4l0.1,0.5c0.5,2,1,4.1,1.5,6.2c1.6,6.8,3.1,13.2,4.5,18.9h-0.5l4.6-11.8l0-0.1h0.1l10.9,1.2l3,0.4
		l0.8,0.1L356.5,104.5z"/>
</g>
<g id="Medicine">
	<path class="st8" d="M58.2,246l16.2,4.8l0,0l-2.8,9.3c-0.7,2.4-3.2,3.7-5.5,3h0l-7.7-2.3c-2.4-0.7-3.7-3.2-3-5.5l0,0L58.2,246
		L58.2,246L58.2,246z"/>
	<path class="st14" d="M58.2,246l16.2,4.8l0,0l-2.8,9.3c-0.7,2.3-3.2,3.7-5.5,3l-7.7-2.3c-2.3-0.7-3.7-3.2-3-5.5L58.2,246L58.2,246z
		"/>
	<path class="st6" d="M71.9,260.1c-2.8-0.5-5.5-1.3-8.2-2.1c-2.7-0.7-5.4-1.6-8-2.7c2.8,0.6,5.5,1.3,8.2,2.2
		C66.6,258.1,69.3,259,71.9,260.1z"/>
	<path class="st6" d="M60.8,256.7L60.8,256.7c0.3-1.1,1.4-1.7,2.4-1.4c0,0,0,0,0,0l3.2,1c1.1,0.3,1.6,1.5,1.3,2.5c0,0,0,0,0,0l0,0
		L60.8,256.7z"/>
	<path class="st8" d="M73.7,167.4l-18,74.4c-0.9,3.3,1,6.6,4.2,7.6l11.8,3.5c3.2,0.9,6.5-0.8,7.6-3.9l28.3-71.6L73.7,167.4z"/>
	<path class="st6" d="M105.2,183.3c0,0.1-7.5-1.9-16.6-4.6c-9.1-2.7-16.5-5-16.4-5.1c0-0.1,7.5,1.9,16.6,4.6
		C97.9,180.9,105.3,183.2,105.2,183.3z"/>
	<path class="st6" d="M74.8,174.4c0.1-1.1,0.3-2.1,0.7-3.1c0.2-1.1,0.6-2.1,1.1-3c0,1.1-0.3,2.1-0.6,3.1
		C75.8,172.4,75.4,173.5,74.8,174.4z"/>
	<path class="st6" d="M77.5,175.2c0.3-2.1,0.9-4.2,1.8-6.1c-0.1,1.1-0.3,2.1-0.7,3.1C78.4,173.2,78.1,174.3,77.5,175.2z"/>
	<path class="st6" d="M80.2,176c0.1-1.1,0.3-2.1,0.7-3.1c0.2-1.1,0.6-2.1,1.2-3c0,1.1-0.3,2.1-0.7,3.1C81.1,174,80.7,175,80.2,176z"
		/>
	<path class="st6" d="M82.9,176.8c0.3-2.1,0.9-4.2,1.8-6.1C84.4,172.8,83.8,174.8,82.9,176.8z"/>
	<path class="st6" d="M85.6,177.6c0.1-1.1,0.3-2.1,0.7-3.1c0.2-1.1,0.6-2.1,1.2-3c0,1.1-0.3,2.1-0.7,3.1
		C86.5,175.6,86.1,176.6,85.6,177.6z"/>
	<path class="st6" d="M88.3,178.4c0.3-2.1,0.9-4.2,1.8-6.1C89.8,174.4,89.2,176.4,88.3,178.4z"/>
	<path class="st6" d="M90.9,179.2c0.1-1.1,0.3-2.1,0.7-3.1c0.2-1.1,0.6-2.1,1.1-3c0,1.1-0.3,2.1-0.6,3.1
		C91.9,177.2,91.5,178.2,90.9,179.2z"/>
	<path class="st6" d="M93.6,179.9c0.1-1.1,0.3-2.1,0.7-3.1c0.2-1.1,0.6-2.1,1.2-3c-0.1,1.1-0.3,2.1-0.7,3.1
		C94.6,178,94.2,179,93.6,179.9z"/>
	<path class="st6" d="M96.3,180.8c0-1.1,0.3-2.1,0.6-3.1c0.2-1.1,0.6-2.1,1.2-3c-0.1,1.1-0.3,2.1-0.7,3.1
		C97.2,178.8,96.9,179.8,96.3,180.8z"/>
	<path class="st6" d="M99,181.5c0.3-2.1,0.9-4.2,1.8-6.1C100.5,177.6,99.9,179.6,99,181.5z"/>
	<path class="st6" d="M101.7,182.3c0-1.1,0.3-2.1,0.6-3.1c0.2-1.1,0.6-2.1,1.2-3c-0.1,1.1-0.3,2.1-0.7,3.1
		C102.6,180.4,102.2,181.4,101.7,182.3z"/>
	<path class="st6" d="M104.4,183.1c0.3-2.1,0.9-4.2,1.8-6.1C105.9,179.1,105.3,181.2,104.4,183.1z"/>
	<polygon class="st4" points="78,206.3 79.3,202 83.5,203.3 82.3,207.3 85.8,208.3 84.5,212.5 80.7,211.4 79.7,215 76.1,214 
		77.3,210.1 73.1,208.8 74.2,205.1 	"/>
	<path class="st4" d="M88.2,211.1c-0.1,0,0.2-0.8,0.3-2.3c0.1-2.1-0.5-4.1-1.7-5.8c-0.8-1.2-1.9-2.1-3.1-2.8
		c-1.4-0.7-3.1-1.1-4.7-0.9c-1.8,0.2-3.5,0.9-4.9,2c-3.1,2.5-4.3,6.6-3.1,10.4c0.5,1.7,1.6,3.2,3,4.3c1.3,1,2.8,1.6,4.4,1.8
		c1.4,0.1,2.8-0.1,4.1-0.6c1.9-0.8,3.5-2.2,4.6-4C88,211.9,88.1,211.1,88.2,211.1c0,0.2-0.1,0.4-0.2,0.6c-0.2,0.5-0.4,1.1-0.7,1.6
		c-1,1.9-2.7,3.4-4.6,4.2c-3,1.3-6.4,0.8-9-1.1c-1.5-1.2-2.6-2.7-3.2-4.5c-1.3-3.9,0-8.3,3.2-10.9c1.5-1.2,3.3-1.9,5.2-2.1
		c1.7-0.1,3.4,0.2,4.9,1c1.3,0.7,2.4,1.7,3.2,2.9c1.2,1.8,1.7,3.9,1.6,6c0,0.6-0.1,1.1-0.3,1.7C88.4,210.7,88.3,210.9,88.2,211.1z"
		/>
</g>
</svg>
